<svg version="1.1" xmlns="http://www.w3.org/2000/svg" viewBox="0 0 1378.4102627846933 549.3256121261835" width="2756.8205255693865" height="1098.651224252367" filter="invert(93%) hue-rotate(180deg)">
  <!-- svg-source:excalidraw -->
  
  <defs>
    <style class="style-fonts">
      @font-face {
        font-family: "Virgil";
        src: url("https://excalidraw.com/Virgil.woff2");
      }
      @font-face {
        font-family: "Cascadia";
        src: url("https://excalidraw.com/Cascadia.woff2");
      }
    </style>
    
  </defs>
  <g stroke-opacity="0" fill-opacity="0" stroke-linecap="round" transform="translate(12.052218507902353 193.69988514532724) rotate(0 114.37866158183562 114.37866158183562)"><path d="M115.97 -0.51 C128.33 -2.32, 142.7 2.16, 154.99 6.94 C167.27 11.71, 179.64 19.45, 189.7 28.12 C199.75 36.79, 208.9 47.5, 215.32 58.97 C221.74 70.43, 226.24 84.17, 228.21 96.9 C230.18 109.63, 229.77 122.78, 227.14 135.35 C224.51 147.92, 219.14 161.04, 212.42 172.34 C205.71 183.65, 196.86 194.74, 186.87 203.17 C176.88 211.61, 164.79 218.63, 152.49 222.98 C140.19 227.33, 126.38 229.72, 113.07 229.26 C99.75 228.8, 84.83 224.94, 72.58 220.2 C60.33 215.46, 49.42 209.37, 39.58 200.84 C29.75 192.31, 19.93 180.31, 13.56 169.03 C7.2 157.75, 3.33 146.03, 1.39 133.16 C-0.56 120.3, -0.65 104.81, 1.88 91.84 C4.41 78.87, 9.77 66.46, 16.56 55.35 C23.35 44.23, 32.37 33.47, 42.61 25.15 C52.85 16.83, 62.8 9.25, 77.99 5.43 C93.19 1.61, 122.05 1.85, 133.8 2.24 C145.55 2.63, 148.77 5.9, 148.51 7.77 M135.15 2.69 C147.82 3.18, 162.47 9.65, 173.84 16.08 C185.21 22.51, 195.33 31.11, 203.37 41.28 C211.41 51.45, 217.67 64.86, 222.05 77.09 C226.43 89.31, 229.69 101.77, 229.64 114.65 C229.6 127.52, 226.36 141.82, 221.76 154.35 C217.17 166.88, 210.66 180.06, 202.07 189.81 C193.48 199.56, 181.61 206.58, 170.22 212.84 C158.83 219.09, 146.67 224.96, 133.73 227.34 C120.78 229.73, 105.39 229.61, 92.55 227.12 C79.71 224.63, 68 218.88, 56.68 212.42 C45.36 205.97, 32.9 198.59, 24.63 188.39 C16.35 178.19, 11.25 163.75, 7 151.23 C2.76 138.71, -1 126.16, -0.84 113.25 C-0.67 100.35, 3.2 85.83, 8 73.79 C12.8 61.74, 19.43 50.84, 27.98 40.99 C36.52 31.15, 47.9 21.16, 59.29 14.73 C70.68 8.3, 83.84 4.53, 96.29 2.44 C108.74 0.35, 127.69 1.9, 134 2.19 C140.32 2.47, 134.42 2.33, 134.17 4.16" stroke="#1e1e1e" stroke-width="1" fill="none"></path></g><g stroke-linecap="round"><g transform="translate(70.21493272432383 350.12745804966863) rotate(0 55.084083042885254 -46.69409513468659)"><path d="M0.04 0.07 C2 -10.62, 4.39 -47.34, 12.8 -63.22 C21.2 -79.09, 37.69 -94.17, 50.48 -95.18 C63.27 -96.19, 80.18 -84.24, 89.54 -69.28 C98.89 -54.31, 121.52 -17.11, 106.62 -5.39 C91.72 6.33, 17.8 0.06, 0.13 1.05 M-1.4 -0.94 C0.39 -11.54, 3.84 -46.36, 12.3 -61.88 C20.77 -77.4, 36.54 -93.05, 49.38 -94.06 C62.23 -95.07, 80.08 -82.29, 89.39 -67.96 C98.69 -53.63, 119.85 -19.48, 105.22 -8.06 C90.59 3.36, 18.89 -0.7, 1.61 0.57" stroke="#1e1e1e" stroke-width="1" fill="none"></path></g></g><mask></mask><g stroke-linecap="round" transform="translate(97.14638409847367 205.86038498155074) rotate(0 27.25919451480732 23.85179520045648)"><path d="M20.51 0.94 C25.98 -0.5, 34.31 0.11, 39.69 2.33 C45.08 4.55, 50.43 9.76, 52.83 14.24 C55.22 18.72, 55.72 24.51, 54.07 29.22 C52.41 33.93, 47.67 39.44, 42.89 42.5 C38.1 45.56, 31.05 47.79, 25.37 47.57 C19.69 47.36, 12.92 44.74, 8.81 41.22 C4.7 37.71, 1.51 31.82, 0.71 26.48 C-0.09 21.15, 0.16 13.57, 4.02 9.21 C7.88 4.84, 20.13 1.89, 23.87 0.29 C27.61 -1.31, 26.43 -0.91, 26.45 -0.4 M24.15 0.54 C29.74 -0.09, 37.27 2.57, 41.94 5.49 C46.62 8.4, 50.36 13.53, 52.23 18.04 C54.09 22.56, 55.33 27.82, 53.14 32.57 C50.95 37.32, 44.36 44.05, 39.1 46.55 C33.85 49.05, 27.21 48.94, 21.6 47.54 C15.98 46.15, 9.07 42.28, 5.43 38.18 C1.8 34.07, -0.79 28.03, -0.22 22.9 C0.36 17.77, 4.68 11.29, 8.89 7.41 C13.09 3.52, 22.47 0.63, 25.03 -0.39 C27.59 -1.41, 24.18 0.96, 24.27 1.28" stroke="#1e1e1e" stroke-width="1" fill="none"></path></g><g transform="translate(10 361.3153433289807) rotate(0 114.40557861328125 24.490682571897196)"><text x="114.40557861328125" y="0" font-family="Virgil, Segoe UI Emoji" font-size="39.185092115035495px" fill="#1e1e1e" text-anchor="middle" style="white-space: pre;" direction="ltr" dominant-baseline="text-before-edge">Developer A</text></g><g stroke-opacity="0" fill-opacity="0" stroke-linecap="round" transform="translate(539.2371261973948 194.88479283481968) rotate(0 78.19375389234318 78.19375389234315)"><path d="M110.53 6.44 C120.14 9.42, 128.74 18.26, 135.76 26.3 C142.78 34.34, 149.26 44.9, 152.63 54.7 C156 64.51, 157.24 74.61, 155.98 85.14 C154.73 95.66, 150.45 108.41, 145.11 117.83 C139.77 127.25, 132.32 135.63, 123.94 141.66 C115.56 147.69, 105.17 151.88, 94.83 154.01 C84.5 156.14, 72.34 156.44, 61.93 154.43 C51.52 152.43, 40.8 148.03, 32.38 141.98 C23.96 135.94, 16.9 127.25, 11.42 118.17 C5.94 109.08, 0.79 98.23, -0.47 87.48 C-1.73 76.72, 0.45 63.95, 3.86 53.62 C7.27 43.3, 12.95 33.25, 19.98 25.53 C27.02 17.82, 36.49 11.51, 46.06 7.33 C55.63 3.14, 65.3 -0.16, 77.38 0.41 C89.47 0.98, 110.4 7.78, 118.57 10.76 C126.74 13.74, 126.85 17.18, 126.41 18.31 M46.65 6.69 C55.58 1.69, 69.57 -0.83, 80.21 -0.74 C90.84 -0.65, 100.69 2.59, 110.46 7.21 C120.23 11.83, 131.96 18.99, 138.84 26.98 C145.71 34.97, 148.93 44.8, 151.71 55.16 C154.5 65.51, 156.54 78.48, 155.55 89.13 C154.57 99.78, 151.16 109.92, 145.8 119.06 C140.44 128.19, 132.22 138.01, 123.37 143.94 C114.52 149.86, 103.34 152.67, 92.7 154.6 C82.07 156.53, 69.76 157.74, 59.55 155.52 C49.34 153.3, 39.85 148.09, 31.44 141.27 C23.04 134.45, 14.52 124.29, 9.14 114.6 C3.75 104.91, -0.25 93.44, -0.85 83.12 C-1.45 72.8, 1.72 62.61, 5.52 52.66 C9.33 42.71, 14.82 31.01, 21.96 23.41 C29.1 15.81, 43.79 9.88, 48.35 7.07 C52.92 4.25, 49.11 5.38, 49.34 6.53" stroke="#1e1e1e" stroke-width="1" fill="none"></path></g><g stroke-linecap="round"><g transform="translate(616.1612341416958 216.92779682181168) rotate(0 0.5716737368601912 40.072159453173214)"><path d="M1 0.11 C-1.55 2.09, -8.6 10.39, -14.16 12.2 C-19.72 14.01, -29.77 5.09, -32.35 10.99 C-34.93 16.9, -35.2 36.02, -29.62 47.63 C-24.05 59.24, -8.85 80.38, 1.11 80.63 C11.07 80.88, 24.63 61.12, 30.16 49.13 C35.68 37.15, 36.85 15.09, 34.28 8.72 C31.7 2.36, 20.52 12.46, 14.69 10.95 C8.85 9.44, 1.78 1.52, -0.73 -0.32 M0.06 -0.88 C-2.68 0.76, -9.18 8.4, -14.73 10.56 C-20.28 12.72, -30.87 5.7, -33.25 12.08 C-35.62 18.46, -34.56 37.34, -28.98 48.83 C-23.4 60.32, -9.77 80.63, 0.22 81.02 C10.21 81.41, 25.71 62.87, 30.96 51.16 C36.21 39.45, 34.59 17.52, 31.74 10.77 C28.9 4.02, 19.04 12.18, 13.89 10.68 C8.75 9.18, 3.15 3.66, 0.87 1.79" stroke="#1e1e1e" stroke-width="1" fill="none"></path></g></g><mask></mask><g stroke-linecap="round"><g transform="translate(615.7224194643568 228.22484006418324) rotate(0 0.857269258108829 28.683760077759104)"><path d="M0.72 0.93 C-1.34 2.09, -7.29 5.93, -11.35 7.08 C-15.4 8.23, -21.85 3.09, -23.61 7.82 C-25.37 12.56, -25.73 26.8, -21.92 35.51 C-18.12 44.22, -8.69 59.8, -0.8 60.08 C7.09 60.36, 20.86 46.18, 25.41 37.18 C29.96 28.18, 28.96 11.14, 26.49 6.08 C24.02 1.02, 15.02 8.06, 10.6 6.83 C6.19 5.6, 1.63 -0.11, 0 -1.29 M-0.37 0.37 C-2.69 1.68, -8.49 6.91, -12.43 8.38 C-16.37 9.86, -21.93 4.54, -23.98 9.24 C-26.03 13.94, -28.88 28.17, -24.75 36.61 C-20.63 45.05, -7.28 60, 0.78 59.88 C8.85 59.76, 19.22 45.05, 23.65 35.87 C28.08 26.69, 29.16 9.74, 27.36 4.81 C25.56 -0.11, 17.11 7.57, 12.85 6.32 C8.59 5.06, 3.64 -1.63, 1.8 -2.72" stroke="#1e1e1e" stroke-width="1" fill="none"></path></g></g><mask></mask><g transform="translate(463.28528072450365 304.5163892933315) rotate(0 154.14559936523432 16.742794321931)"><text x="154.14559936523438" y="0" font-family="Virgil, Segoe UI Emoji" font-size="26.788470915089622px" fill="#1e1e1e" text-anchor="middle" style="white-space: pre;" direction="ltr" dominant-baseline="text-before-edge">Identity authentication</text></g><g stroke-opacity="0" fill-opacity="0" stroke-linecap="round" transform="translate(979.3948734003352 119.06477989871465) rotate(0 146.5360066894027 146.5360066894027)"><path d="M217.39 17.59 C230.97 22.61, 241.93 35.55, 252.29 46.47 C262.65 57.4, 273.12 69.46, 279.55 83.14 C285.99 96.83, 289.05 113.52, 290.9 128.59 C292.76 143.66, 293.16 159.01, 290.69 173.55 C288.22 188.1, 283.35 202.49, 276.09 215.88 C268.84 229.26, 258.4 243.24, 247.18 253.87 C235.96 264.51, 222.26 273.24, 208.8 279.69 C195.34 286.15, 181.25 290.86, 166.39 292.6 C151.54 294.34, 134.7 293.04, 119.7 290.15 C104.69 287.27, 89.71 282.44, 76.37 275.28 C63.02 268.12, 50.03 258.05, 39.61 247.2 C29.19 236.36, 20.39 223.69, 13.85 210.21 C7.32 196.73, 2.17 181.38, 0.42 166.35 C-1.33 151.31, 0.53 134.98, 3.37 119.98 C6.2 104.97, 10.31 89.66, 17.43 76.31 C24.54 62.96, 35.02 50.08, 46.07 39.88 C57.12 29.68, 70.05 21.62, 83.72 15.11 C97.38 8.6, 113.27 2.85, 128.08 0.84 C142.88 -1.17, 157.18 -0.08, 172.56 3.07 C187.94 6.23, 212.08 16.22, 220.36 19.78 C228.64 23.33, 223.52 22.24, 222.25 24.41 M91.18 10.63 C103.62 2.98, 122.3 1.07, 137.19 0.13 C152.09 -0.81, 165.85 1.54, 180.55 4.99 C195.25 8.44, 212.24 12.95, 225.39 20.82 C238.54 28.7, 249.87 40.36, 259.46 52.26 C269.05 64.17, 277.49 78.06, 282.94 92.26 C288.39 106.46, 290.94 122.39, 292.14 137.45 C293.35 152.51, 293.8 168.16, 290.19 182.63 C286.57 197.1, 278.49 211.7, 270.47 224.27 C262.45 236.84, 253.66 248.36, 242.08 258.05 C230.49 267.73, 214.95 276.58, 200.96 282.36 C186.96 288.14, 173.18 291.77, 158.11 292.73 C143.04 293.7, 125.34 291.73, 110.55 288.15 C95.75 284.56, 82.17 278.87, 69.33 271.23 C56.49 263.59, 43.04 253.79, 33.51 242.31 C23.97 230.83, 17.49 216.77, 12.11 202.34 C6.74 187.91, 2.72 171.12, 1.25 155.73 C-0.21 140.34, -0.19 124.37, 3.29 110 C6.77 95.63, 13.9 81.99, 22.14 69.5 C30.38 57.02, 41.15 45.04, 52.71 35.08 C64.26 25.11, 84.99 13.15, 91.48 9.7 C97.98 6.25, 90.59 11.89, 91.67 14.35" stroke="#1e1e1e" stroke-width="1" fill="none"></path></g><g transform="translate(1037.326440956208 338.8567122782477) rotate(0 91.5599594116211 17.5)"><text x="91.5599594116211" y="0" font-family="Virgil, Segoe UI Emoji" font-size="28px" fill="#1e1e1e" text-anchor="middle" style="white-space: pre;" direction="ltr" dominant-baseline="text-before-edge">Peerbit client</text></g><g stroke-linecap="round"><g transform="translate(1063.397337802574 202.0886727334953) rotate(0 53.41228895479901 27.535209055183174)"><path d="M-0.65 0.91 C-0.9 12.6, -1.24 56.25, -0.31 70.22 C0.62 84.19, 1.85 80.73, 4.92 84.75 C7.98 88.77, 12.17 91.45, 18.1 94.35 C24.02 97.26, 32.51 100.88, 40.47 102.21 C48.42 103.53, 58 103.99, 65.8 102.3 C73.61 100.62, 80.9 95.69, 87.28 92.09 C93.67 88.49, 100.78 84.44, 104.11 80.7 C107.45 76.97, 106.59 78.69, 107.29 69.68 C107.99 60.66, 108.34 40.67, 108.32 26.6 C108.3 12.53, 107.41 -5.36, 107.17 -14.77 C106.94 -24.18, 109.06 -25.7, 106.94 -29.83 C104.82 -33.96, 100.93 -36.58, 94.43 -39.53 C87.94 -42.48, 77.24 -46.57, 67.95 -47.52 C58.66 -48.47, 47.48 -46.39, 38.69 -45.22 C29.91 -44.04, 21.26 -43.09, 15.24 -40.46 C9.22 -37.84, 5.13 -33.47, 2.59 -29.48 C0.05 -25.49, 0.25 -21.51, 0.01 -16.5 C-0.24 -11.49, 1.18 -2.01, 1.1 0.56 M1.21 0.34 C0.67 12.17, -1.98 57.58, -1.42 71.33 C-0.86 85.08, 1.33 78.91, 4.57 82.83 C7.81 86.75, 12.19 91.56, 18.03 94.87 C23.88 98.17, 31.4 101.51, 39.61 102.66 C47.82 103.82, 59.32 103.81, 67.29 101.81 C75.26 99.82, 81.39 94.34, 87.45 90.69 C93.51 87.05, 100.55 83.59, 103.66 79.96 C106.77 76.32, 105.76 77.84, 106.13 68.88 C106.51 59.92, 105.72 39.97, 105.91 26.19 C106.09 12.4, 107.28 -4.37, 107.22 -13.83 C107.17 -23.29, 107.67 -26.11, 105.57 -30.57 C103.47 -35.02, 100.93 -37.63, 94.63 -40.57 C88.32 -43.51, 77.52 -47.44, 67.73 -48.22 C57.95 -48.99, 44.45 -46.68, 35.91 -45.22 C27.37 -43.77, 22.27 -42.26, 16.49 -39.48 C10.71 -36.7, 4.23 -32.47, 1.25 -28.57 C-1.74 -24.67, -1.26 -21.02, -1.42 -16.08 C-1.58 -11.13, 0.1 -1.61, 0.3 1.12" stroke="#1e1e1e" stroke-width="1" fill="none"></path></g></g><mask></mask><g stroke-linecap="round"><g transform="translate(1064.2215063425317 177.51964265666425) rotate(0 53.56995183327365 11.583489183333484)"><path d="M-0.31 -0.82 C1.85 1.32, 6.02 10.2, 12.33 13.72 C18.65 17.24, 28.38 18.85, 37.6 20.3 C46.82 21.74, 58.66 23.12, 67.66 22.38 C76.67 21.64, 85.15 19.17, 91.63 15.88 C98.1 12.6, 103.7 4.97, 106.51 2.65 M1.73 1.37 C3.86 3.09, 6 8.74, 11.8 12.02 C17.6 15.29, 27.68 19.1, 36.53 21.02 C45.37 22.94, 55.92 24.86, 64.87 23.55 C73.82 22.24, 83.13 16.83, 90.23 13.17 C97.33 9.5, 104.81 3.11, 107.45 1.56" stroke="#1e1e1e" stroke-width="1" fill="none"></path></g></g><mask></mask><g stroke-linecap="round"><g transform="translate(1063.3394577114627 200.7713590377998) rotate(0 54.13111270600132 11.985299932380201)"><path d="M0.8 0.8 C2.67 2.9, 4.52 8.32, 10.95 11.78 C17.38 15.24, 30.09 19.64, 39.37 21.56 C48.65 23.48, 58.09 24.44, 66.63 23.3 C75.16 22.17, 83.6 18.29, 90.58 14.74 C97.56 11.18, 105.54 3.79, 108.51 1.98 M-0.25 0.18 C2.06 2.46, 6.78 8.93, 13.36 12.73 C19.93 16.52, 30.29 21.51, 39.22 22.94 C48.15 24.37, 58.1 22.61, 66.95 21.3 C75.79 19.99, 85.65 17.93, 92.29 15.08 C98.94 12.23, 104.57 6.19, 106.83 4.19" stroke="#1e1e1e" stroke-width="1" fill="none"></path></g></g><mask></mask><g stroke-linecap="round"><g transform="translate(1062.5843704769613 217.61722414214182) rotate(0 53.90247018931109 11.189036225109078)"><path d="M-0.59 -1.13 C1.4 0.91, 6.23 9.11, 12.72 13.04 C19.2 16.97, 29.52 20.96, 38.33 22.48 C47.14 24, 56.54 23.56, 65.58 22.16 C74.62 20.75, 85.44 17.11, 92.57 14.06 C99.71 11.01, 105.77 5.74, 108.39 3.86 M1.31 0.89 C3.17 3.08, 6.33 11.35, 12.39 14.64 C18.45 17.94, 28.81 19.26, 37.64 20.69 C46.47 22.11, 56.35 24.31, 65.35 23.21 C74.36 22.1, 84.79 17.35, 91.68 14.05 C98.56 10.75, 104.3 5.5, 106.65 3.41" stroke="#1e1e1e" stroke-width="1" fill="none"></path></g></g><mask></mask><g stroke-linecap="round"><g transform="translate(176.3578298984844 282.0863185333489) rotate(0 171.93319801677137 -2.8655645642273555)"><path d="M-0.92 0.52 C56.23 -0.58, 285.21 -5.46, 342.6 -6.25 M0.8 -0.25 C58.34 -1.26, 287.83 -4.24, 344.78 -5.2" stroke="#1e1e1e" stroke-width="1" fill="none"></path></g><g transform="translate(176.3578298984844 282.0863185333489) rotate(0 171.93319801677137 -2.8655645642273555)"><path d="M317.62 3.81 C322.88 2.44, 333.97 -1.69, 346.41 -6.98 M317.05 4.83 C325.73 2, 334.67 -1.73, 345.23 -5.96" stroke="#1e1e1e" stroke-width="1" fill="none"></path></g><g transform="translate(176.3578298984844 282.0863185333489) rotate(0 171.93319801677137 -2.8655645642273555)"><path d="M317.31 -16.71 C322.72 -12.45, 333.9 -10.95, 346.41 -6.98 M316.74 -15.69 C325.73 -12.16, 334.75 -9.54, 345.23 -5.96" stroke="#1e1e1e" stroke-width="1" fill="none"></path></g></g><mask></mask><g stroke-linecap="round"><g transform="translate(706.9976820729667 273.91446555214594) rotate(0 125.33361658230967 0.3195932094290299)"><path d="M0.7 -0.9 C42.6 -0.66, 209.15 1.17, 251.06 1.54 M-0.39 1.24 C41.33 1.14, 207.8 0.15, 249.81 -0.19" stroke="#1e1e1e" stroke-width="1" fill="none"></path></g><g transform="translate(706.9976820729667 273.91446555214594) rotate(0 125.33361658230967 0.3195932094290299)"><path d="M220.19 9.31 C230.62 8.15, 237.91 6.38, 251.74 -1.34 M221.71 10.21 C232.38 6.11, 241.36 3.27, 249.89 0.54" stroke="#1e1e1e" stroke-width="1" fill="none"></path></g><g transform="translate(706.9976820729667 273.91446555214594) rotate(0 125.33361658230967 0.3195932094290299)"><path d="M220.05 -11.21 C230.53 -6.77, 237.86 -2.95, 251.74 -1.34 M221.57 -10.31 C232.21 -6.98, 241.25 -2.4, 249.89 0.54" stroke="#1e1e1e" stroke-width="1" fill="none"></path></g></g><mask></mask><g stroke-opacity="0" fill-opacity="0" stroke-linecap="round" transform="translate(59.70904370716494 56.35139613264289) rotate(0 58.378661581835615 58.378661581835615)"><path d="M36.67 4.47 C44.5 0.57, 56.52 -1.35, 65.75 -0.3 C74.98 0.74, 84.73 5.55, 92.06 10.73 C99.4 15.91, 105.6 22.72, 109.76 30.76 C113.91 38.8, 116.98 49.81, 117 58.96 C117.03 68.1, 114.11 77.84, 109.91 85.64 C105.71 93.43, 99.15 100.62, 91.8 105.72 C84.45 110.83, 74.97 114.95, 65.82 116.26 C56.66 117.56, 45.3 116.64, 36.87 113.55 C28.43 110.47, 21.03 104.56, 15.2 97.77 C9.38 90.97, 4.01 81.84, 1.9 72.79 C-0.2 63.75, 0.62 52.22, 2.59 43.5 C4.56 34.79, 7.14 27.22, 13.71 20.49 C20.28 13.77, 36.46 6.25, 42.02 3.16 C47.59 0.08, 46.64 1.05, 47.09 1.97 M47.07 0.28 C55.2 -2.09, 66.53 0.45, 75.22 2.86 C83.91 5.26, 92.72 8.58, 99.2 14.71 C105.68 20.85, 111.21 31.11, 114.09 39.68 C116.96 48.24, 117.93 57.13, 116.44 66.1 C114.95 75.06, 110.44 85.93, 105.13 93.48 C99.82 101.02, 92.89 107.43, 84.6 111.36 C76.3 115.29, 64.79 117.46, 55.36 117.07 C45.92 116.69, 35.58 113.8, 27.96 109.05 C20.35 104.31, 14.31 96.13, 9.67 88.59 C5.03 81.04, 0.83 72.72, 0.11 63.79 C-0.61 54.86, 1.62 43.5, 5.35 35 C9.07 26.5, 15.7 18.64, 22.46 12.81 C29.22 6.98, 41.85 1.99, 45.91 0.01 C49.96 -1.96, 46.65 -0.12, 46.78 0.97" stroke="none" stroke-width="0" fill="#b2f2bb"></path><path d="M70.5 1.89 C79.14 2.81, 89.53 6.97, 96.36 12.64 C103.2 18.31, 108.16 27.4, 111.5 35.91 C114.85 44.42, 117.18 54.85, 116.43 63.72 C115.68 72.6, 111.81 81.46, 107.02 89.15 C102.22 96.85, 95.54 105.14, 87.66 109.87 C79.78 114.61, 68.77 117.37, 59.74 117.57 C50.71 117.76, 41.53 115.19, 33.49 111.04 C25.46 106.88, 17.05 99.81, 11.53 92.64 C6.01 85.48, 1.92 76.93, 0.36 68.05 C-1.2 59.18, -0.97 48.07, 2.18 39.39 C5.32 30.7, 12.45 22.03, 19.24 15.91 C26.04 9.79, 34.04 4.98, 42.97 2.66 C51.89 0.34, 67.07 1.82, 72.8 2.01 C78.53 2.21, 77.4 2.88, 77.34 3.83 M47.89 1.71 C56.16 -0.78, 66.87 0.06, 75.47 2.47 C84.06 4.87, 93.01 9.63, 99.47 16.13 C105.92 22.63, 111.59 32.8, 114.19 41.47 C116.79 50.14, 116.52 59.33, 115.07 68.17 C113.62 77.01, 111.01 87.16, 105.51 94.49 C100 101.83, 90.48 108.23, 82.07 112.17 C73.65 116.11, 63.82 118.86, 55 118.13 C46.19 117.4, 36.89 112.68, 29.18 107.8 C21.47 102.92, 13.81 96.63, 8.75 88.85 C3.69 81.06, -0.48 70.08, -1.18 61.09 C-1.89 52.1, 0.7 42.89, 4.5 34.93 C8.29 26.96, 14.18 19.01, 21.58 13.32 C28.97 7.63, 44.7 2.46, 48.84 0.78 C52.97 -0.89, 46.42 2.47, 46.38 3.28" stroke="#1e1e1e" stroke-width="1" fill="none"></path></g><g stroke-linecap="round"><g transform="translate(119.28401034141598 105.9816752432206) rotate(0 -3.971545703100446 -4.080659766501157)" fill-rule="evenodd"><path d="M0.03 -0.76 L10.11 3.17 L14.34 3.09 L22.45 -5.18 L28.36 -15.68 L26.92 -22.76 L20.03 -32.02 L14.12 -35.58 L2.87 -36.06 L-0.76 -33.25 L-10.13 -25.04 L-13.99 -7.36 L-36.58 10.56 L-37.66 20.69 L-36.17 27.43 L-29.35 28.56 L-28.4 29.28 L-25.81 13.76 L-17.72 20.5 L-19.96 8.14 L-7.51 9.84 L-5.91 5.59 L-1.45 1.07" stroke="none" stroke-width="0" fill="#b2f2bb" fill-rule="evenodd"></path><path d="M0.5 0.43 C2.82 0.84, 8.11 4.58, 12.85 2.17 C17.58 -0.24, 27.68 -8.22, 28.9 -14.01 C30.11 -19.8, 24.31 -28.73, 20.13 -32.59 C15.95 -36.45, 8.93 -38.53, 3.79 -37.18 C-1.35 -35.84, -7.57 -29.64, -10.71 -24.54 C-13.86 -19.43, -11.2 -12.6, -15.08 -6.56 C-18.96 -0.53, -30.73 6.02, -33.98 11.67 C-37.23 17.31, -35.83 24.59, -34.6 27.3 C-33.38 30.02, -27.98 30.02, -26.63 27.96 C-25.28 25.9, -28.33 16.4, -26.52 14.94 C-24.71 13.47, -17.1 19.99, -15.77 19.15 C-14.45 18.31, -20.1 11.02, -18.58 9.87 C-17.07 8.72, -8.65 13.28, -6.66 12.27 C-4.68 11.26, -7.77 5.67, -6.67 3.79 C-5.56 1.91, -1.1 1.6, -0.05 1.01 M-0.69 -0.39 C2.09 0.25, 10.26 6.28, 15.13 3.7 C19.99 1.11, 27.73 -9.97, 28.52 -15.91 C29.31 -21.86, 24.23 -28.48, 19.86 -31.97 C15.49 -35.46, 7.15 -38.48, 2.31 -36.86 C-2.53 -35.23, -6.31 -27.08, -9.19 -22.2 C-12.07 -17.32, -10.73 -13.12, -14.96 -7.59 C-19.19 -2.06, -31.1 5.36, -34.56 11 C-38.03 16.65, -37.21 23.51, -35.74 26.28 C-34.28 29.04, -27.33 29.33, -25.78 27.57 C-24.24 25.81, -27.98 16.68, -26.47 15.72 C-24.95 14.75, -18.04 22.78, -16.7 21.77 C-15.35 20.76, -19.94 11.23, -18.39 9.65 C-16.84 8.08, -9.45 12.87, -7.39 12.31 C-5.33 11.76, -7.42 8.51, -6.03 6.32 C-4.64 4.12, 0.26 -0.01, 0.97 -0.87" stroke="#1e1e1e" stroke-width="1" fill="none"></path></g></g><mask></mask><g stroke-linecap="round" transform="translate(121.17473408561364 78.40862064033644) rotate(0 7.484114820782878 7.484114820782878)"><path d="M6.76 1.06 C8.22 0.64, 9.78 -0.41, 11.21 0.28 C12.63 0.97, 14.89 3.62, 15.3 5.19 C15.71 6.76, 14.36 8.34, 13.67 9.7 C12.98 11.06, 12.48 12.55, 11.16 13.33 C9.83 14.11, 7.48 14.46, 5.72 14.37 C3.97 14.29, 1.54 14.12, 0.65 12.82 C-0.25 11.52, 0.06 8.23, 0.36 6.58 C0.65 4.93, 1.4 4.11, 2.41 2.94 C3.41 1.78, 5.57 -0.07, 6.37 -0.43 C7.18 -0.79, 7.22 0.54, 7.25 0.76 M8.29 -1.19 C10.13 -1.06, 12.55 1.71, 13.83 3.14 C15.11 4.57, 15.9 5.69, 15.95 7.39 C15.99 9.09, 15.46 12.35, 14.1 13.34 C12.74 14.33, 9.25 13.25, 7.79 13.33 C6.32 13.41, 6.29 14.32, 5.31 13.81 C4.34 13.3, 2.84 11.48, 1.94 10.28 C1.03 9.08, -0.57 8.22, -0.13 6.61 C0.31 4.99, 2.92 1.81, 4.58 0.59 C6.25 -0.63, 9.13 -0.5, 9.86 -0.72 C10.6 -0.95, 9.1 -1.1, 8.98 -0.75" stroke="none" stroke-width="0" fill="#b2f2bb"></path><path d="M8.99 0.33 C10.33 0.87, 12.8 2.44, 13.71 3.66 C14.62 4.88, 14.57 5.98, 14.45 7.66 C14.34 9.33, 14.23 12.36, 13.03 13.72 C11.83 15.07, 8.87 15.83, 7.27 15.8 C5.68 15.77, 4.64 14.72, 3.48 13.53 C2.31 12.34, 0.77 10.11, 0.28 8.66 C-0.22 7.2, -0.03 6.14, 0.53 4.78 C1.09 3.43, 1.84 1.2, 3.66 0.5 C5.47 -0.2, 10.13 0.4, 11.43 0.58 C12.73 0.76, 11.82 1.46, 11.46 1.58 M10.57 0.09 C12.1 0.59, 13.61 2.73, 14.39 4.38 C15.17 6.03, 15.63 8.46, 15.24 9.98 C14.85 11.5, 13.41 12.79, 12.05 13.51 C10.69 14.24, 8.68 14.28, 7.09 14.32 C5.5 14.36, 3.81 14.83, 2.5 13.77 C1.18 12.72, -0.72 9.65, -0.77 7.99 C-0.83 6.32, 1.25 4.93, 2.17 3.78 C3.08 2.62, 3.39 1.32, 4.73 1.04 C6.07 0.76, 9.16 2.28, 10.21 2.1 C11.27 1.93, 11.06 0.16, 11.08 0.01" stroke="#1e1e1e" stroke-width="1" fill="none"></path></g><g transform="translate(35.9252719068607 136.83166738541553) rotate(0 79.68993377685547 12.5)"><text x="79.68993377685547" y="0" font-family="Virgil, Segoe UI Emoji" font-size="20px" fill="#1e1e1e" text-anchor="middle" style="white-space: pre;" direction="ltr" dominant-baseline="text-before-edge">Developer A Key</text></g><g stroke-linecap="round" transform="translate(425.59929407361847 10) rotate(0 471.4054843555374 264.66280606309175)"><path d="M32 0 M32 0 C270.1 -2.73, 508.36 -3.49, 910.81 0 M910.81 0 C930.33 0.97, 942.78 9.06, 942.81 32 M942.81 32 C940.73 203.53, 940.37 377.32, 942.81 497.33 M942.81 497.33 C943.94 517.69, 932.22 529.91, 910.81 529.33 M910.81 529.33 C660.43 529.34, 408.92 529.27, 32 529.33 M32 529.33 C11.64 529.89, 1.52 517.15, 0 497.33 M0 497.33 C-1.68 337.82, -1.37 178.26, 0 32 M0 32 C-0.61 10.17, 11.68 1.62, 32 0" stroke="#e03131" stroke-width="4.5" fill="none" stroke-dasharray="8 12"></path></g><g transform="translate(825.4823320468613 455.37405670516773) rotate(0 77.43348693847656 31.3761918136791)"><text x="77.43348693847656" y="0" font-family="Virgil, Segoe UI Emoji" font-size="50.20190690188657px" fill="#1e1e1e" text-anchor="middle" style="white-space: pre;" direction="ltr" dominant-baseline="text-before-edge">Server</text></g></svg>