<svg version="1.1" xmlns="http://www.w3.org/2000/svg" viewBox="0 0 864.1806898702421 866.0799713641272" width="1728.3613797404842" height="1732.1599427282545" filter="invert(93%) hue-rotate(180deg)">
  <!-- svg-source:excalidraw -->
  
  <defs>
    <style class="style-fonts">
      @font-face {
        font-family: "Virgil";
        src: url("https://excalidraw.com/Virgil.woff2");
      }
      @font-face {
        font-family: "Cascadia";
        src: url("https://excalidraw.com/Cascadia.woff2");
      }
    </style>
    
  </defs>
  <g stroke-opacity="0" fill-opacity="0" stroke-linecap="round" transform="translate(349.4633106256407 10) rotate(0 78.19375389234318 78.19375389234312)"><path d="M84.33 0.63 C94.33 0.41, 106.31 4.4, 115.75 9.51 C125.18 14.62, 134.47 22.9, 140.93 31.3 C147.39 39.71, 152.33 49.7, 154.5 59.95 C156.67 70.2, 155.88 82.2, 153.95 92.81 C152.02 103.41, 148.88 114.82, 142.92 123.57 C136.97 132.33, 127.32 140.01, 118.22 145.35 C109.13 150.68, 98.77 154.33, 88.35 155.56 C77.93 156.79, 65.99 155.85, 55.71 152.72 C45.43 149.59, 34.71 143.72, 26.66 136.78 C18.62 129.84, 11.84 120.55, 7.46 111.1 C3.07 101.65, 0.6 90.53, 0.35 80.07 C0.09 69.61, 1.68 58.35, 5.93 48.34 C10.19 38.33, 18.19 27.45, 25.88 20.01 C33.57 12.56, 41.62 7, 52.06 3.65 C62.49 0.3, 82.08 0.14, 88.47 -0.09 C94.86 -0.32, 90.68 0.94, 90.39 2.27 M48.66 6.11 C57.53 1.05, 68.55 0.59, 78.96 0.76 C89.38 0.93, 101.58 2.68, 111.13 7.15 C120.68 11.62, 129.38 19.47, 136.28 27.57 C143.19 35.68, 149.12 45.71, 152.56 55.79 C156.01 65.86, 158.08 77.45, 156.98 88.02 C155.87 98.6, 151.86 110.16, 145.95 119.24 C140.04 128.32, 130.66 136.66, 121.52 142.51 C112.37 148.36, 101.19 152.46, 91.06 154.33 C80.94 156.2, 70.65 155.95, 60.78 153.74 C50.9 151.53, 40.53 147.31, 31.81 141.09 C23.09 134.87, 13.71 126.03, 8.45 116.44 C3.19 106.84, 1.07 94.02, 0.27 83.51 C-0.53 73.01, -0.06 63.32, 3.66 53.41 C7.38 43.5, 15.23 32.19, 22.6 24.05 C29.97 15.91, 43.26 7.2, 47.89 4.6 C52.53 2, 49.84 6.91, 50.4 8.44" stroke="#1e1e1e" stroke-width="1" fill="none"></path></g><g stroke-linecap="round"><g transform="translate(426.3874185699416 32.04300398699206) rotate(0 0.37283711769680394 40.30116512082145)"><path d="M0.22 0.32 C-2.32 2.17, -10.46 8.45, -15.78 10.19 C-21.1 11.93, -29.2 4.53, -31.72 10.77 C-34.23 17.01, -36.14 35.97, -30.86 47.62 C-25.57 59.28, -10.2 80.47, -0.01 80.72 C10.18 80.97, 24.82 60.86, 30.27 49.11 C35.73 37.35, 35.32 16.6, 32.72 10.2 C30.12 3.81, 20.12 12.27, 14.67 10.74 C9.21 9.21, 2.51 2.69, 0.01 1.02 M-1.13 -0.56 C-3.24 1.49, -8.35 9.11, -13.54 11.16 C-18.73 13.21, -29.4 5.46, -32.28 11.74 C-35.17 18.02, -35.99 37.26, -30.86 48.82 C-25.73 60.39, -11.82 80.77, -1.49 81.16 C8.84 81.54, 25.38 63.09, 31.13 51.12 C36.89 39.16, 35.91 16.15, 33.03 9.36 C30.15 2.57, 19.64 11.9, 13.86 10.37 C8.08 8.84, 0.62 1.79, -1.65 0.17" stroke="#1e1e1e" stroke-width="1" fill="none"></path></g></g><mask></mask><g stroke-linecap="round"><g transform="translate(425.9486038926026 43.340047229363336) rotate(0 0.9479333662775389 29.280687772279634)"><path d="M-0.9 -1.08 C-2.73 0.01, -6.73 5.37, -10.72 6.85 C-14.7 8.34, -22.79 3.03, -24.84 7.82 C-26.9 12.61, -27.07 26.89, -23.05 35.6 C-19.02 44.3, -8.5 59.55, -0.68 60.06 C7.13 60.57, 19.33 47.69, 23.85 38.66 C28.38 29.63, 28.55 10.96, 26.47 5.88 C24.38 0.8, 15.76 9.23, 11.35 8.17 C6.95 7.11, 1.9 1.08, 0.04 -0.5 M0.82 0.96 C-1.14 2.17, -7.02 6.67, -11.46 8.04 C-15.91 9.42, -23.97 4.45, -25.86 9.23 C-27.75 14.02, -27.28 28.31, -22.81 36.75 C-18.34 45.18, -7 59.61, 0.96 59.84 C8.92 60.07, 20.54 47.35, 24.93 38.12 C29.33 28.9, 29.76 9.46, 27.33 4.5 C24.9 -0.46, 14.58 9.36, 10.33 8.36 C6.09 7.36, 3.44 0.18, 1.85 -1.51" stroke="#1e1e1e" stroke-width="1" fill="none"></path></g></g><mask></mask><g transform="translate(273.51146515274934 119.63159645851192) rotate(0 154.14559936523443 33.485588643862)"><text x="154.14559936523438" y="0" font-family="Virgil, Segoe UI Emoji" font-size="26.788470915089622px" fill="#1e1e1e" text-anchor="middle" style="white-space: pre;" direction="ltr" dominant-baseline="text-before-edge">Identity authentication</text><text x="154.14559936523438" y="33.48558864386203" font-family="Virgil, Segoe UI Emoji" font-size="26.788470915089622px" fill="#1e1e1e" text-anchor="middle" style="white-space: pre;" direction="ltr" dominant-baseline="text-before-edge">Trusted IDs</text></g><g stroke-linecap="round" transform="translate(10 11.899281493885155) rotate(0 422.09034493512104 422.09034493512104)"><path d="M257.31 34.31 C277.99 18.15, 306.82 15.96, 332.59 10.22 C358.36 4.48, 385.18 0.46, 411.94 -0.12 C438.69 -0.7, 466.67 2.28, 493.12 6.75 C519.58 11.22, 545.85 17.66, 570.65 26.7 C595.45 35.74, 619.45 47.23, 641.91 60.97 C664.37 74.72, 685.58 90.96, 705.38 109.14 C725.19 127.33, 744.8 148.44, 760.75 170.09 C776.71 191.73, 789.72 215.28, 801.09 239 C812.45 262.72, 822.04 286.7, 828.95 312.4 C835.85 338.1, 840.39 366.31, 842.51 393.17 C844.64 420.04, 844.75 447.39, 841.69 473.58 C838.63 499.78, 832.54 525, 824.17 550.34 C815.81 575.67, 804.35 601.98, 791.52 625.6 C778.69 649.22, 764.02 671.68, 747.19 692.07 C730.36 712.47, 710.94 731.31, 690.56 747.99 C670.18 764.67, 648.43 779.32, 624.91 792.15 C601.4 804.98, 575.07 816.76, 549.47 824.97 C523.87 833.17, 497.66 838.23, 471.32 841.4 C444.98 844.56, 417.88 845.92, 391.41 843.98 C364.94 842.04, 338.22 836.88, 312.51 829.76 C286.8 822.64, 260.97 812.99, 237.14 801.25 C213.32 789.52, 190.8 775.19, 169.57 759.34 C148.34 743.5, 127.8 725.73, 109.75 706.19 C91.71 686.66, 75.35 665.08, 61.31 642.13 C47.27 619.18, 34.85 593.44, 25.52 568.51 C16.18 543.59, 9.68 518.61, 5.3 492.58 C0.92 466.54, -1.48 439.19, -0.75 412.29 C-0.02 385.39, 3.78 357.36, 9.68 331.17 C15.57 304.98, 24.24 279.44, 34.63 255.14 C45.02 230.83, 57.17 207.37, 72.01 185.34 C86.84 163.32, 104.74 141.85, 123.63 123 C142.52 104.15, 158.7 88.95, 185.37 72.23 C212.03 55.51, 262.4 30.82, 283.64 22.69 C304.88 14.55, 310.51 16.58, 312.82 23.43 M263.42 32.41 C284.2 16.86, 312.99 14.94, 338.87 9.38 C364.75 3.81, 391.99 -0.45, 418.7 -1 C445.41 -1.54, 472.94 0.83, 499.15 6.1 C525.35 11.36, 550.98 20.84, 575.9 30.6 C600.83 40.37, 626.22 50.81, 648.68 64.69 C671.14 78.57, 691.27 95.3, 710.67 113.89 C730.07 132.49, 749.26 154.33, 765.08 176.26 C780.9 198.18, 794.3 221.5, 805.61 245.46 C816.91 269.43, 826.49 294.2, 832.9 320.04 C839.31 345.89, 842.87 373.76, 844.05 400.53 C845.24 427.31, 843.85 454.66, 840.01 480.68 C836.16 506.7, 829.67 531.72, 821 556.63 C812.33 581.54, 800.81 606.78, 787.96 630.14 C775.11 653.49, 760.85 676.44, 743.89 696.76 C726.93 717.07, 707.34 735.71, 686.22 752.03 C665.1 768.35, 640.69 782.22, 617.16 794.66 C593.63 807.1, 570.47 818.86, 545.05 826.69 C519.63 834.52, 491.24 838.99, 464.64 841.65 C438.04 844.32, 411.88 845.02, 385.43 842.69 C358.99 840.36, 331.85 835.08, 305.97 827.69 C280.09 820.3, 254.06 810.58, 230.14 798.35 C206.23 786.11, 183.59 770.33, 162.48 754.28 C141.36 738.23, 121.07 722.06, 103.47 702.06 C85.87 682.05, 69.95 657.51, 56.89 634.23 C43.82 610.96, 33.84 587.41, 25.1 562.4 C16.35 537.38, 8.36 510.53, 4.42 484.15 C0.49 457.77, 0.46 430.65, 1.5 404.12 C2.53 377.58, 4.84 350.59, 10.63 324.95 C16.43 299.32, 25.31 274.66, 36.26 250.31 C47.2 225.95, 60.73 200.69, 76.29 178.83 C91.85 156.97, 110.41 137.48, 129.62 119.16 C148.83 100.84, 169.6 83.32, 191.54 68.92 C213.47 54.53, 248.71 37.87, 261.22 32.77 C273.72 27.66, 263.73 32.13, 266.57 38.3" stroke="#1e1e1e" stroke-width="1" fill="none"></path></g><g stroke-linecap="round" transform="translate(193.10655500624625 204.84476086791324) rotate(0 238.98378992887558 220.49973850554818)"><path d="M-0.84 -0.08 C164.52 2.04, 327.15 2.27, 477.49 -0.2 M-0.03 -0.11 C171.67 -1.74, 343.74 -1.11, 478.22 -0.38 M477.35 0.75 C476.39 174.55, 476.01 346.53, 477.16 441.83 M478.03 0.46 C479.64 127.69, 480.29 255.88, 478.04 440.94 M477.87 440.73 C292.02 440.83, 104.95 441.61, -0.12 441.64 M478.37 440.62 C379.87 439.99, 280.83 440.18, -0.17 440.66 M-0.51 440.94 C1.58 298.6, 1.49 158.22, 0.81 0.26 M0.28 441.37 C0.4 343.28, 0.4 244.43, -0.01 -0.33" stroke="#1e1e1e" stroke-width="1" fill="none"></path></g><g stroke-linecap="round"><g transform="translate(247.58958204765088 307.6321113201668) rotate(0 190.2411969772894 0.46044747693179033)"><path d="M-0.11 1.16 C63.74 1.31, 318.35 0.05, 382.1 -0.26 M-1.62 0.73 C62.19 1.16, 317.46 1.22, 381.41 1.15" stroke="#1e1e1e" stroke-width="1" fill="none"></path></g></g><mask></mask><g stroke-linecap="round"><g transform="translate(243.81374139105174 393.16142861480466) rotate(0 190.8500769157131 -0.4542586571614038)"><path d="M0.49 -0.26 C64.24 -0.56, 318.94 -0.82, 382.41 -0.66 M-0.71 -1.44 C62.96 -1.09, 318.36 0.5, 381.88 0.53" stroke="#1e1e1e" stroke-width="1" fill="none"></path></g></g><mask></mask><g stroke-linecap="round"><g transform="translate(241.91359350905168 478.69074590945206) rotate(0 190.54771569469767 0.2900882136185601)"><path d="M0.8 -0.66 C64.27 -0.5, 317.7 0.48, 381.34 0.72 M-0.24 1.6 C63.01 1.45, 316.47 -0.56, 380.24 -1.02" stroke="#1e1e1e" stroke-width="1" fill="none"></path></g></g><mask></mask><g stroke-linecap="round"><g transform="translate(241.1421912653277 564.2200632040963) rotate(0 191.16438033087462 -0.03947332100119638)"><path d="M-0.28 0.72 C63.36 0.96, 318.97 0.93, 382.61 0.76 M1.78 0.05 C65.27 0.01, 319.02 -1.1, 382.18 -0.96" stroke="#1e1e1e" stroke-width="1" fill="none"></path></g></g><mask></mask><g transform="translate(259.19240866678877 265.5249705778115) rotate(0 81.75997161865234 17.5)"><text x="0" y="0" font-family="Virgil, Segoe UI Emoji" font-size="28px" fill="#1e1e1e" text-anchor="start" style="white-space: pre;" direction="ltr" dominant-baseline="text-before-edge">Developer A</text></g><g transform="translate(260.1870048346883 345.55713975481945) rotate(0 82.75396728515625 17.5)"><text x="0" y="0" font-family="Virgil, Segoe UI Emoji" font-size="28px" fill="#1e1e1e" text-anchor="start" style="white-space: pre;" direction="ltr" dominant-baseline="text-before-edge">Developer B</text></g></svg>