<svg version="1.1" xmlns="http://www.w3.org/2000/svg" viewBox="0 0 1332.0404433870858 546.5959544493985" width="1332.0404433870858" height="546.5959544493985">
  <!-- svg-source:excalidraw -->
  
  <defs>
    <style class="style-fonts">
      @font-face {
        font-family: "Virgil";
        src: url("https://excalidraw.com/Virgil.woff2");
      }
      @font-face {
        font-family: "Cascadia";
        src: url("https://excalidraw.com/Cascadia.woff2");
      }
      @font-face {
        font-family: "Assistant";
        src: url("https://excalidraw.com/Assistant-Regular.woff2");
      }
    </style>
    
  </defs>
  <rect x="0" y="0" width="1332.0404433870858" height="546.5959544493985" fill="#ffffff"></rect><g stroke-linecap="round"><g transform="translate(10.28566568477072 458.79119706276396) rotate(0 655.6781800527119 0)"><path d="M0.77 -0.72 C219.52 -0.79, 1093.52 0.7, 1311.75 0.82 M-0.29 1.51 C218.41 1.62, 1092.23 -0.85, 1311.02 -0.88" stroke="#1e1e1e" stroke-width="1" fill="none"></path></g><g transform="translate(10.28566568477072 458.79119706276396) rotate(0 655.6781800527119 0)"><path d="M24.27 -9.25 C17.57 -6.41, 14.56 -7.01, 0.77 -0.72 M24.27 -9.25 C17.98 -5.6, 10.69 -4.71, 0.77 -0.72" stroke="#1e1e1e" stroke-width="1" fill="none"></path></g><g transform="translate(10.28566568477072 458.79119706276396) rotate(0 655.6781800527119 0)"><path d="M24.25 7.86 C17.39 6.63, 14.38 1.97, 0.77 -0.72 M24.25 7.86 C17.87 6.37, 10.58 2.14, 0.77 -0.72" stroke="#1e1e1e" stroke-width="1" fill="none"></path></g><g transform="translate(10.28566568477072 458.79119706276396) rotate(0 655.6781800527119 0)"><path d="M1287.54 7.71 C1291.82 6.18, 1299.96 1.52, 1311.02 -0.88 M1287.54 7.71 C1295.23 5.84, 1302.01 1.6, 1311.02 -0.88" stroke="#1e1e1e" stroke-width="1" fill="none"></path></g><g transform="translate(10.28566568477072 458.79119706276396) rotate(0 655.6781800527119 0)"><path d="M1287.51 -9.39 C1291.97 -6.86, 1300.12 -7.46, 1311.02 -0.88 M1287.51 -9.39 C1295.31 -6.13, 1302.1 -5.25, 1311.02 -0.88" stroke="#1e1e1e" stroke-width="1" fill="none"></path></g></g><mask></mask><g transform="translate(553.155090116361 501.59595444939845) rotate(0 98.85395812988281 17.5)"><text x="0" y="0" font-family="Virgil, Segoe UI Emoji" font-size="28px" fill="#1e1e1e" text-anchor="start" style="white-space: pre;" direction="ltr" dominant-baseline="text-before-edge">Content space</text></g><g stroke-opacity="0" fill-opacity="0" stroke-linecap="round" transform="translate(649.0176688020892 328.6962767518099) rotate(0 58.37866158183556 58.378661581835615)"><path d="M82.74 5.9 C90.69 8.83, 98.38 15.92, 103.76 23.04 C109.15 30.15, 113.31 39.63, 115.07 48.6 C116.84 57.57, 117.16 68.18, 114.38 76.87 C111.6 85.57, 105.01 94.44, 98.41 100.75 C91.81 107.07, 83.15 112.41, 74.79 114.74 C66.42 117.07, 57.15 116.47, 48.21 114.73 C39.28 112.98, 28.31 109.86, 21.19 104.27 C14.08 98.68, 8.9 89.48, 5.52 81.19 C2.14 72.9, 0.32 63.41, 0.93 54.51 C1.54 45.61, 4.7 35.68, 9.16 27.81 C13.62 19.95, 20.03 11.79, 27.69 7.33 C35.35 2.87, 44.84 0.75, 55.13 1.07 C65.41 1.39, 82.69 6.93, 89.4 9.26 C96.11 11.6, 95.73 14.27, 95.41 15.1 M70.82 1.45 C79.18 2.48, 87.77 8.68, 94.47 14.42 C101.18 20.17, 107.41 27.8, 111.06 35.91 C114.72 44.02, 116.93 54.14, 116.39 63.09 C115.86 72.04, 112.51 81.79, 107.84 89.6 C103.16 97.4, 96.44 105.47, 88.37 109.91 C80.3 114.35, 68.71 115.98, 59.41 116.22 C50.12 116.47, 40.39 115.29, 32.58 111.38 C24.76 107.47, 18.06 100.18, 12.52 92.78 C6.99 85.38, 1.15 75.56, -0.64 66.98 C-2.43 58.4, -1.54 49.73, 1.78 41.29 C5.11 32.85, 12.65 23.05, 19.29 16.34 C25.93 9.63, 32.95 3.37, 41.62 1.05 C50.28 -1.28, 66.77 2.02, 71.29 2.39 C75.81 2.76, 69.15 2.68, 68.72 3.26" stroke="none" stroke-width="0" fill="#2f9e44"></path><path d="M57.96 0.23 C66.39 -0.99, 76.04 1.71, 84.01 5.83 C91.98 9.95, 100.47 17.52, 105.78 24.94 C111.08 32.36, 114.41 41.66, 115.84 50.35 C117.27 59.04, 117.39 68.59, 114.35 77.06 C111.31 85.54, 104.53 95.05, 97.61 101.21 C90.7 107.36, 81.55 111.78, 72.86 113.99 C64.17 116.21, 54.18 116.35, 45.47 114.49 C36.76 112.64, 27.55 108.63, 20.59 102.88 C13.63 97.13, 7.09 88.27, 3.69 79.99 C0.29 71.71, -0.96 62.06, 0.18 53.19 C1.33 44.31, 5.74 34.46, 10.57 26.73 C15.39 19.01, 21.01 11.32, 29.15 6.84 C37.29 2.36, 53.94 0.83, 59.42 -0.15 C64.9 -1.13, 62.08 0.11, 62.06 0.96 M47.15 -0.59 C55.06 -2.94, 66.28 -0.03, 75.03 2.84 C83.77 5.72, 93.01 10.15, 99.61 16.66 C106.2 23.17, 111.87 32.87, 114.58 41.88 C117.3 50.89, 117.78 62.07, 115.9 70.73 C114.03 79.4, 108.84 86.94, 103.32 93.86 C97.8 100.78, 90.9 108.31, 82.76 112.25 C74.62 116.19, 63.91 118.01, 54.5 117.49 C45.09 116.98, 34.25 113.91, 26.29 109.15 C18.33 104.39, 11.09 96.85, 6.73 88.95 C2.38 81.06, 0.22 70.85, 0.17 61.8 C0.12 52.75, 2.67 43.19, 6.44 34.66 C10.2 26.13, 15.86 16.5, 22.77 10.64 C29.67 4.77, 43.58 0.9, 47.85 -0.54 C52.12 -1.98, 48.2 0.95, 48.38 2" stroke="#1e1e1e" stroke-width="1" fill="none"></path></g><g stroke-linecap="round"><g transform="translate(678.7038127293117 408.5366264670118) rotate(0 27.17391304347825 -24.197589173934944)" fill-rule="evenodd"><path d="M-1.82 -0.49 C-1.16 -5.56, -0.66 -23.99, 3.97 -32.21 C8.6 -40.43, 19.08 -49.21, 25.98 -49.82 C32.88 -50.42, 40.4 -43.95, 45.35 -35.81 C50.31 -27.67, 63.09 -6.56, 55.71 -0.98 C48.33 4.6, 10.55 -2.28, 1.07 -2.33" stroke="none" stroke-width="0" fill="#2f9e44" fill-rule="evenodd"></path><path d="M-0.05 0.61 C1.19 -4.45, 2.63 -22.77, 7.03 -31.01 C11.43 -39.24, 19.89 -48.07, 26.35 -48.81 C32.81 -49.55, 40.95 -42.95, 45.77 -35.44 C50.59 -27.92, 62.86 -9.81, 55.29 -3.72 C47.72 2.38, 9.73 0.6, 0.35 1.13 M-1.54 -0.12 C-0.34 -5.42, 2.04 -24.64, 6.58 -32.57 C11.13 -40.5, 19.18 -47.42, 25.72 -47.71 C32.27 -47.99, 41.09 -41.63, 45.85 -34.27 C50.62 -26.91, 62.24 -9.35, 54.32 -3.53 C46.39 2.3, 7.48 -0.16, -1.71 0.68" stroke="#1e1e1e" stroke-width="1" fill="none"></path></g></g><mask></mask><g stroke-linecap="round" transform="translate(692.4495767025528 334.90297382962916) rotate(0 13.913043478260988 12.173913043478308)"><path d="M15.86 -0.01 C18.55 0.26, 22.11 2.26, 24.11 4.27 C26.1 6.27, 27.79 9.33, 27.83 12 C27.86 14.66, 26.19 18.16, 24.3 20.26 C22.41 22.36, 19.32 24.22, 16.46 24.59 C13.6 24.97, 9.76 23.83, 7.16 22.5 C4.55 21.17, 1.94 19.01, 0.82 16.62 C-0.31 14.22, -0.55 10.62, 0.41 8.15 C1.36 5.67, 3.76 3.02, 6.55 1.76 C9.35 0.51, 15.43 0.75, 17.18 0.63 C18.94 0.51, 17.22 0.87, 17.09 1.05 M16.98 0.69 C19.82 1.26, 22.52 3.22, 24.34 5.27 C26.17 7.31, 27.93 10.57, 27.92 12.96 C27.92 15.36, 26.41 17.79, 24.3 19.64 C22.18 21.49, 18.06 23.66, 15.23 24.07 C12.39 24.48, 9.72 23.49, 7.29 22.09 C4.87 20.7, 1.72 18.03, 0.68 15.7 C-0.36 13.38, -0.07 10.48, 1.05 8.15 C2.18 5.82, 4.75 3.01, 7.43 1.73 C10.1 0.44, 15.49 0.61, 17.11 0.43 C18.73 0.25, 17.32 0.37, 17.15 0.65" stroke="none" stroke-width="0" fill="#2f9e44"></path><path d="M14.73 0.41 C17.57 0.44, 21.02 1.79, 23.26 3.44 C25.51 5.09, 27.85 7.76, 28.2 10.32 C28.54 12.89, 27.11 16.64, 25.34 18.83 C23.57 21.02, 20.41 22.77, 17.58 23.45 C14.75 24.14, 11.03 23.9, 8.35 22.94 C5.66 21.97, 2.85 19.93, 1.47 17.65 C0.09 15.37, -0.6 11.75, 0.07 9.26 C0.75 6.77, 2.82 4.2, 5.52 2.71 C8.21 1.22, 14.44 0.73, 16.23 0.33 C18.03 -0.08, 16.44 0.13, 16.29 0.28 M10.86 -0.08 C13.76 -0.57, 18.9 0.53, 21.49 1.77 C24.07 3, 25.55 4.89, 26.36 7.33 C27.17 9.77, 27.29 13.89, 26.33 16.39 C25.37 18.89, 23.05 20.99, 20.59 22.31 C18.14 23.63, 14.47 24.6, 11.59 24.31 C8.72 24.02, 5.31 22.7, 3.33 20.59 C1.34 18.48, -0.4 14.32, -0.32 11.64 C-0.25 8.96, 1.77 6.35, 3.77 4.51 C5.77 2.68, 10.47 1.21, 11.66 0.62 C12.85 0.03, 11 0.78, 10.9 0.98" stroke="#1e1e1e" stroke-width="1" fill="none"></path></g><g transform="translate(678.5826442897005 414.24690283766205) rotate(0 27.77997589111328 12.5)"><text x="27.77997589111328" y="0" font-family="Virgil, Segoe UI Emoji" font-size="20px" fill="#1e1e1e" text-anchor="middle" style="white-space: pre;" direction="ltr" dominant-baseline="text-before-edge">abxyz</text></g><g stroke-opacity="0" fill-opacity="0" stroke-linecap="round" transform="translate(1035.8995024259912 329.38631687848516) rotate(0 58.37866158183556 58.378661581835615)"><path d="M70.25 2.15 C79.1 3.07, 89.37 7.64, 96.41 13.13 C103.46 18.62, 109.17 26.66, 112.53 35.11 C115.89 43.56, 117.4 54.72, 116.56 63.82 C115.73 72.92, 112.42 82.29, 107.52 89.71 C102.61 97.13, 95.06 103.99, 87.16 108.34 C79.26 112.69, 69.26 115.41, 60.12 115.78 C50.99 116.16, 40.33 114.19, 32.35 110.58 C24.37 106.96, 17.51 101.32, 12.23 94.1 C6.96 86.87, 2.3 76.35, 0.69 67.24 C-0.91 58.13, -0.24 47.94, 2.59 39.46 C5.42 30.98, 10.9 22.56, 17.67 16.36 C24.45 10.16, 34.16 4.61, 43.25 2.25 C52.33 -0.1, 67.04 2.03, 72.19 2.22 C77.33 2.4, 74.41 2.43, 74.11 3.34 M36.11 3.89 C43.45 -0.41, 53.73 -0.51, 62.75 0.33 C71.76 1.16, 82.67 3.94, 90.21 8.9 C97.75 13.85, 103.56 22.07, 107.99 30.08 C112.43 38.09, 116.22 47.87, 116.82 56.94 C117.42 66, 115.69 76.32, 111.6 84.47 C107.51 92.62, 99.8 100.56, 92.27 105.82 C84.75 111.08, 75.51 114.67, 66.46 116.02 C57.42 117.37, 46.66 116.75, 37.98 113.9 C29.31 111.06, 20.56 105.44, 14.42 98.96 C8.29 92.48, 3.56 83.89, 1.17 75.01 C-1.21 66.13, -1.92 54.86, 0.11 45.69 C2.14 36.52, 7.18 26.92, 13.36 19.98 C19.54 13.04, 33.26 6.39, 37.18 4.05 C41.11 1.71, 36.75 4.76, 36.92 5.96" stroke="none" stroke-width="0" fill="#ff8787"></path><path d="M64.12 0.43 C72.7 0.44, 81.86 5.16, 89.35 10 C96.84 14.84, 104.43 21.55, 109.08 29.48 C113.73 37.4, 116.85 48.39, 117.27 57.56 C117.69 66.74, 115.57 76.69, 111.6 84.52 C107.64 92.34, 101.05 99.08, 93.46 104.49 C85.88 109.9, 75.14 115.57, 66.11 116.96 C57.08 118.35, 47.57 115.83, 39.28 112.81 C31 109.8, 22.51 105.22, 16.39 98.87 C10.27 92.52, 4.97 83.55, 2.57 74.72 C0.16 65.89, 0.3 54.76, 1.97 45.9 C3.65 37.04, 6.81 28.39, 12.62 21.57 C18.43 14.76, 27.38 8.6, 36.85 5.04 C46.31 1.48, 63.1 0.6, 69.38 0.23 C75.67 -0.14, 74.66 1.66, 74.56 2.83 M55.69 0.26 C64.28 -0.66, 74.24 2.11, 82.6 6.08 C90.95 10.04, 100.34 16.71, 105.8 24.07 C111.26 31.42, 113.82 41.2, 115.36 50.2 C116.9 59.2, 117.79 69.84, 115.02 78.05 C112.25 86.26, 105.24 93.17, 98.76 99.46 C92.28 105.74, 84.69 113.28, 76.13 115.77 C67.57 118.26, 56.47 116.47, 47.41 114.4 C38.36 112.33, 29.06 108.99, 21.81 103.35 C14.56 97.7, 7.58 88.59, 3.94 80.55 C0.3 72.5, -0.65 63.95, -0.04 55.06 C0.58 46.17, 2.7 34.9, 7.63 27.21 C12.56 19.51, 21.56 13.33, 29.54 8.87 C37.52 4.42, 51.14 1.73, 55.51 0.47 C59.88 -0.79, 55.82 0.22, 55.76 1.31" stroke="#1e1e1e" stroke-width="1" fill="none"></path></g><g stroke-linecap="round"><g transform="translate(1065.5856463532136 409.22666659368707) rotate(0 27.17391304347825 -24.197589173934944)" fill-rule="evenodd"><path d="M2.09 0.07 C3.2 -4.65, 0.1 -22.76, 4.32 -30.65 C8.54 -38.55, 20.14 -46.75, 27.41 -47.31 C34.68 -47.86, 43.49 -40.9, 47.92 -33.96 C52.35 -27.03, 61.73 -11.66, 54 -5.7 C46.28 0.26, 10.3 0.93, 1.56 1.78" stroke="none" stroke-width="0" fill="#ff8787" fill-rule="evenodd"></path><path d="M0.22 -0.55 C1.2 -5.8, 1.88 -23.48, 6.23 -31.62 C10.57 -39.75, 19.54 -48.65, 26.3 -49.35 C33.07 -50.05, 42.19 -43.57, 46.81 -35.79 C51.42 -28.02, 61.62 -8.81, 53.99 -2.69 C46.36 3.43, 9.93 0.37, 1.04 0.93 M-1.12 1.78 C-0.32 -3.83, 0.89 -25.12, 5.35 -33.5 C9.81 -41.89, 18.64 -48.32, 25.65 -48.53 C32.66 -48.75, 42.38 -42.57, 47.44 -34.81 C52.49 -27.05, 64.01 -7.83, 55.99 -1.96 C47.97 3.9, 8.4 0.1, -0.67 0.38" stroke="#1e1e1e" stroke-width="1" fill="none"></path></g></g><mask></mask><g stroke-linecap="round" transform="translate(1079.3314103264547 335.59301395630433) rotate(0 13.913043478260988 12.173913043478308)"><path d="M11.17 0.17 C13.93 -0.56, 17.82 0.13, 20.42 1.29 C23.02 2.45, 25.58 4.73, 26.77 7.14 C27.96 9.55, 28.54 13.16, 27.57 15.74 C26.6 18.32, 23.6 21.22, 20.98 22.62 C18.36 24.02, 14.72 24.42, 11.84 24.14 C8.97 23.85, 5.59 22.81, 3.7 20.9 C1.81 18.99, 0.61 15.41, 0.5 12.68 C0.39 9.95, 1.18 6.56, 3.02 4.53 C4.87 2.49, 10.04 1.16, 11.59 0.45 C13.14 -0.25, 12.29 0.21, 12.31 0.31 M12.1 0.55 C15.11 0.23, 19.79 0.73, 22.28 2.05 C24.77 3.37, 26.35 5.99, 27.05 8.46 C27.74 10.92, 27.58 14.26, 26.43 16.82 C25.29 19.38, 22.83 22.59, 20.18 23.81 C17.53 25.04, 13.4 24.82, 10.56 24.17 C7.71 23.52, 4.86 22.08, 3.13 19.92 C1.39 17.75, 0 13.99, 0.17 11.19 C0.35 8.39, 2.09 4.87, 4.19 3.13 C6.29 1.4, 11.38 1.3, 12.77 0.78 C14.15 0.27, 12.61 -0.05, 12.5 0.04" stroke="none" stroke-width="0" fill="#ff8787"></path><path d="M14.45 -0.14 C17.39 -0.16, 21.32 1.81, 23.59 3.64 C25.87 5.47, 27.71 8.42, 28.1 10.85 C28.48 13.29, 27.66 16.02, 25.91 18.25 C24.16 20.48, 20.48 23.42, 17.59 24.22 C14.7 25.02, 11.21 24.08, 8.58 23.05 C5.96 22.03, 3.19 20.24, 1.85 18.05 C0.51 15.86, -0.1 12.5, 0.56 9.9 C1.21 7.29, 3.42 4.02, 5.79 2.44 C8.15 0.85, 13 0.66, 14.74 0.37 C16.49 0.08, 16.2 0.6, 16.24 0.68 M12.54 0.03 C15.35 -0.58, 18.56 -0.17, 20.99 1.28 C23.42 2.72, 26.2 6.05, 27.1 8.69 C28 11.34, 27.46 14.7, 26.39 17.15 C25.31 19.61, 23.32 22.18, 20.67 23.44 C18.03 24.7, 13.38 25.24, 10.5 24.7 C7.63 24.16, 5.19 22.44, 3.43 20.18 C1.67 17.91, -0.22 13.7, -0.06 11.1 C0.11 8.49, 2.32 6.5, 4.41 4.57 C6.5 2.63, 11.16 0.23, 12.48 -0.51 C13.8 -1.24, 12.43 -0.06, 12.35 0.17" stroke="#1e1e1e" stroke-width="1" fill="none"></path></g><g transform="translate(1065.9096034545382 414.93694296433733) rotate(0 26.049972534179688 12.5)"><text x="26.049972534179688" y="0" font-family="Virgil, Segoe UI Emoji" font-size="20px" fill="#1e1e1e" text-anchor="middle" style="white-space: pre;" direction="ltr" dominant-baseline="text-before-edge">cdefg</text></g><g stroke-opacity="0" fill-opacity="0" stroke-linecap="round" transform="translate(261.741710914157 332.1366386703317) rotate(0 58.37866158183556 58.378661581835615)"><path d="M44.57 2.61 C52.75 -0.12, 62.78 0.36, 71.54 2.24 C80.29 4.12, 90.35 8.19, 97.1 13.9 C103.84 19.6, 108.85 28.18, 112 36.49 C115.14 44.8, 116.95 54.77, 115.96 63.77 C114.96 72.77, 111.13 82.82, 106.02 90.5 C100.91 98.18, 92.96 105.63, 85.29 109.85 C77.61 114.06, 68.71 115.76, 59.96 115.78 C51.21 115.81, 40.91 114.08, 32.77 109.99 C24.62 105.89, 16.54 98.38, 11.09 91.2 C5.63 84.01, 1.4 75.54, 0.04 66.87 C-1.32 58.2, -0.27 47.72, 2.92 39.16 C6.11 30.6, 11.28 21.89, 19.2 15.54 C27.11 9.18, 44.1 3.46, 50.42 1.03 C56.73 -1.39, 57.04 0.08, 57.07 0.99 M57.83 -0.55 C66.42 -1.64, 77.59 1.34, 85.88 5.63 C94.17 9.92, 102.37 17.19, 107.56 25.19 C112.76 33.2, 116.05 44.33, 117.03 53.64 C118 62.95, 117.02 73.04, 113.39 81.05 C109.75 89.07, 102.32 95.83, 95.22 101.74 C88.11 107.65, 79.62 114.27, 70.77 116.52 C61.91 118.76, 50.52 117.61, 42.09 115.2 C33.66 112.78, 26.78 108.4, 20.17 102.03 C13.56 95.66, 5.81 85.51, 2.42 76.98 C-0.97 68.45, -1.78 59.46, -0.16 50.84 C1.46 42.23, 6.78 32.56, 12.16 25.28 C17.54 18.01, 24.49 11.31, 32.14 7.21 C39.79 3.11, 53.37 1.75, 58.05 0.69 C62.74 -0.37, 60.26 0.05, 60.24 0.84" stroke="none" stroke-width="0" fill="#2f9e44"></path><path d="M39.02 3.93 C46.72 0.14, 57.51 -1.54, 66.42 -0.23 C75.34 1.07, 85.02 6.24, 92.49 11.75 C99.97 17.26, 107.29 24.83, 111.28 32.83 C115.28 40.84, 116.71 50.71, 116.48 59.76 C116.24 68.82, 114.24 79.3, 109.86 87.17 C105.47 95.04, 97.76 102.04, 90.16 106.98 C82.55 111.91, 73.16 115.78, 64.22 116.76 C55.28 117.73, 45 116.34, 36.51 112.82 C28.03 109.31, 19.1 102.51, 13.31 95.65 C7.51 88.79, 3.59 80.37, 1.73 71.64 C-0.13 62.91, -0.24 51.93, 2.13 43.27 C4.49 34.61, 8.98 26.42, 15.92 19.68 C22.86 12.94, 38.5 5.66, 43.78 2.83 C49.06 -0.01, 47.37 1.75, 47.59 2.68 M62.05 -0.59 C70.76 -1.17, 81.8 2.31, 89.51 7.19 C97.23 12.07, 103.78 20.7, 108.35 28.68 C112.91 36.66, 116.41 46.08, 116.89 55.06 C117.38 64.04, 114.96 74.38, 111.25 82.55 C107.54 90.72, 101.58 98.75, 94.65 104.07 C87.72 109.4, 78.74 112.83, 69.66 114.5 C60.58 116.18, 48.85 116.87, 40.18 114.12 C31.5 111.36, 24.09 104.31, 17.61 97.98 C11.13 91.65, 4.27 84.69, 1.3 76.14 C-1.68 67.59, -2 55.92, -0.23 46.68 C1.53 37.44, 6.14 27.87, 11.9 20.72 C17.66 13.57, 25.98 7.28, 34.32 3.78 C42.67 0.28, 57.52 0.3, 61.97 -0.27 C66.41 -0.84, 60.81 -0.42, 60.98 0.38" stroke="#1e1e1e" stroke-width="1" fill="none"></path></g><g stroke-linecap="round"><g transform="translate(291.4278548413795 411.9769883855336) rotate(0 27.17391304347825 -24.197589173934944)" fill-rule="evenodd"><path d="M-0.36 0.1 C0.55 -5.1, 2.26 -23.77, 6.8 -32.08 C11.33 -40.39, 20.51 -49.31, 26.86 -49.76 C33.2 -50.21, 40.07 -42.57, 44.86 -34.78 C49.65 -27, 63.04 -9, 55.59 -3.04 C48.14 2.92, 9.05 0.33, 0.17 0.98" stroke="none" stroke-width="0" fill="#2f9e44" fill-rule="evenodd"></path><path d="M-0.82 0.51 C0.03 -4.72, 1.3 -23.67, 5.9 -31.87 C10.5 -40.06, 20.24 -48.04, 26.77 -48.67 C33.3 -49.3, 40.36 -43.33, 45.1 -35.65 C49.83 -27.96, 62.6 -8.44, 55.18 -2.56 C47.76 3.33, 9.74 -0.82, 0.57 -0.32 M0.95 -0.27 C1.56 -5.85, 0.62 -26.01, 4.86 -33.88 C9.09 -41.75, 19.7 -47.38, 26.36 -47.5 C33.03 -47.61, 40.2 -42.21, 44.83 -34.59 C49.46 -26.97, 61.85 -7.27, 54.15 -1.76 C46.45 3.75, 7.5 -1.71, -1.38 -1.53" stroke="#1e1e1e" stroke-width="1" fill="none"></path></g></g><mask></mask><g stroke-linecap="round" transform="translate(305.1736188146215 338.3433357481511) rotate(0 13.913043478260988 12.173913043478308)"><path d="M11.79 0 C14.63 -0.51, 18.82 0.06, 21.34 1.55 C23.86 3.05, 26.08 6.44, 26.91 8.97 C27.73 11.5, 27.34 14.44, 26.26 16.74 C25.19 19.04, 23.08 21.61, 20.46 22.76 C17.84 23.9, 13.39 24.09, 10.52 23.61 C7.65 23.13, 5.01 21.84, 3.25 19.89 C1.49 17.94, -0.16 14.61, -0.04 11.92 C0.09 9.22, 1.96 5.75, 3.99 3.73 C6.02 1.71, 10.71 0.46, 12.15 -0.2 C13.58 -0.85, 12.59 -0.39, 12.6 -0.18 M10.23 0.94 C12.89 0.2, 17.43 0.61, 20.07 1.65 C22.72 2.7, 24.81 4.91, 26.09 7.2 C27.36 9.49, 28.41 12.86, 27.72 15.41 C27.03 17.97, 24.51 20.99, 21.95 22.52 C19.38 24.04, 15.32 24.85, 12.32 24.59 C9.32 24.32, 6.01 22.93, 3.93 20.92 C1.85 18.91, 0.01 15.23, -0.15 12.54 C-0.31 9.84, 1.15 6.73, 2.98 4.75 C4.8 2.76, 9.57 1.37, 10.79 0.62 C12.01 -0.13, 10.24 0.22, 10.28 0.24" stroke="none" stroke-width="0" fill="#2f9e44"></path><path d="M15.85 0.47 C18.76 0.78, 22.63 2.39, 24.6 4.29 C26.57 6.19, 27.61 9.24, 27.69 11.85 C27.76 14.47, 26.89 17.95, 25.04 19.98 C23.19 22.01, 19.54 23.5, 16.59 24.02 C13.65 24.53, 9.97 24.24, 7.37 23.05 C4.77 21.86, 2.16 19.35, 1 16.86 C-0.16 14.37, -0.54 10.59, 0.41 8.13 C1.37 5.67, 4.05 3.4, 6.73 2.09 C9.41 0.77, 14.77 0.42, 16.5 0.24 C18.24 0.06, 17.16 0.74, 17.14 1.01 M11.97 0.31 C14.65 -0.29, 18.33 0.51, 20.8 1.71 C23.28 2.91, 25.74 5.22, 26.83 7.52 C27.92 9.81, 28.34 12.96, 27.36 15.5 C26.38 18.04, 23.52 21.31, 20.93 22.74 C18.33 24.18, 14.72 24.56, 11.77 24.12 C8.82 23.67, 5.17 22.06, 3.25 20.05 C1.34 18.05, 0.2 14.79, 0.28 12.08 C0.35 9.37, 1.9 5.75, 3.7 3.78 C5.5 1.81, 9.74 0.94, 11.09 0.26 C12.43 -0.41, 11.79 -0.52, 11.77 -0.27" stroke="#1e1e1e" stroke-width="1" fill="none"></path></g><g transform="translate(288.9166793827253 417.6872647561839) rotate(0 30.16998291015625 12.5)"><text x="30.16998291015625" y="0" font-family="Virgil, Segoe UI Emoji" font-size="20px" fill="#1e1e1e" text-anchor="middle" style="white-space: pre;" direction="ltr" dominant-baseline="text-before-edge">aaabb</text></g><g stroke-opacity="0" fill-opacity="0" stroke-linecap="round" transform="translate(378.01109532450073 24.428213931310268) rotate(0 58.37866158183556 58.378661581835615)"><path d="M83.7 5.19 C92.04 8.05, 100.29 15.93, 105.61 23.27 C110.93 30.62, 114.17 40.29, 115.61 49.25 C117.06 58.21, 117.26 68.63, 114.29 77.03 C111.33 85.43, 104.58 93.45, 97.84 99.64 C91.11 105.84, 82.58 111.52, 73.87 114.18 C65.17 116.84, 54.5 117.47, 45.63 115.6 C36.76 113.74, 27.54 108.9, 20.66 102.99 C13.77 97.07, 7.69 88.21, 4.32 80.1 C0.95 72, -0.41 63.02, 0.44 54.33 C1.29 45.65, 4.5 35.65, 9.41 28.01 C14.32 20.38, 22.08 13.28, 29.9 8.51 C37.71 3.74, 46.92 -0.22, 56.3 -0.62 C65.69 -1.02, 81.05 4.35, 86.2 6.11 C91.36 7.87, 87.78 9, 87.23 9.92 M81.79 3.8 C90.25 6.27, 99.06 14.93, 104.54 22.25 C110.03 29.57, 113.15 38.92, 114.69 47.74 C116.23 56.55, 116.27 66.39, 113.8 75.14 C111.33 83.9, 105.99 93.58, 99.87 100.25 C93.74 106.91, 85.66 112.36, 77.04 115.14 C68.43 117.92, 57.12 118.54, 48.18 116.94 C39.24 115.33, 30.45 111.33, 23.41 105.53 C16.38 99.72, 9.77 90.6, 5.97 82.13 C2.18 73.66, 0.12 63.52, 0.64 54.7 C1.17 45.88, 4.65 36.96, 9.14 29.2 C13.64 21.44, 20.41 13.07, 27.61 8.14 C34.81 3.21, 43.34 0.28, 52.32 -0.37 C61.3 -1.01, 76.68 3.15, 81.5 4.27 C86.32 5.4, 81.49 5.4, 81.25 6.4" stroke="none" stroke-width="0" fill="#1e1e1e"></path><path d="M68.78 1.35 C77.6 2.12, 87.71 7.12, 95 12.7 C102.28 18.27, 108.78 26.67, 112.51 34.8 C116.24 42.92, 118.1 52.29, 117.38 61.42 C116.66 70.56, 113.05 81.74, 108.19 89.58 C103.33 97.42, 95.92 103.83, 88.21 108.46 C80.5 113.09, 70.97 116.73, 61.95 117.37 C52.94 118, 42.25 116.04, 34.1 112.28 C25.95 108.52, 18.5 101.95, 13.06 94.82 C7.63 87.69, 3.32 78.41, 1.5 69.5 C-0.32 60.58, -0.47 50.24, 2.15 41.34 C4.76 32.44, 10.66 22.44, 17.2 16.09 C23.74 9.74, 31.2 5.41, 41.38 3.23 C51.55 1.05, 70.62 2.04, 78.22 3.02 C85.83 4, 87.36 8, 87.02 9.11 M50.69 0.55 C59.1 -1.47, 70.03 0.22, 78.42 3.3 C86.81 6.38, 95.05 12.31, 101.04 19.05 C107.02 25.78, 112.17 35.01, 114.34 43.73 C116.51 52.45, 115.89 62.77, 114.08 71.37 C112.26 79.96, 109.06 88.67, 103.47 95.29 C97.89 101.91, 88.92 107.32, 80.57 111.06 C72.23 114.81, 62.48 118.23, 53.39 117.76 C44.29 117.3, 33.75 113.32, 26.02 108.29 C18.29 103.25, 11.13 95.36, 7 87.55 C2.87 79.74, 1.28 70.57, 1.23 61.43 C1.19 52.29, 3.18 41.27, 6.73 32.71 C10.28 24.14, 15.36 15.4, 22.55 10.04 C29.75 4.68, 45.38 1.76, 49.91 0.54 C54.43 -0.68, 49.59 1.7, 49.71 2.73" stroke="#1e1e1e" stroke-width="1" fill="none"></path></g><g stroke-linecap="round"><g transform="translate(414.8750394896083 45.21990369658016) rotate(0 19.16027036697119 23.471331199539776)" fill-rule="evenodd"><path d="M0.11 0.35 L0.24 46.14 L38.72 46.1 L39.18 13.46 L26.24 12.84 L25.03 0.11 L38.44 13.13 L25.8 0.42 L0.69 0.14" stroke="none" stroke-width="0" fill="#1e1e1e" fill-rule="evenodd"></path><path d="M0 0 C-0.88 18.37, -0.41 37.16, 0 46.94 M0 0 C0.02 15.93, -0.42 31.13, 0 46.94 M0 46.94 C14.52 47.65, 28.2 47.78, 38.32 46.94 M0 46.94 C15.34 46.52, 30.05 46.74, 38.32 46.94 M38.32 46.94 C37.68 38.66, 38.07 31.89, 38.32 13.41 M38.32 46.94 C38.5 38.8, 38.64 31.08, 38.32 13.41 M38.32 13.41 C34.03 13.32, 29.59 12.85, 25.99 13.41 M38.32 13.41 C33.89 13.15, 29.6 13.65, 25.99 13.41 M25.99 13.41 C26.13 10.69, 26.47 7.31, 25.99 0.48 M25.99 13.41 C26.12 9.67, 26.04 6.19, 25.99 0.48 M25.99 0.48 C29.46 5.39, 32.94 8.87, 38.32 13.41 M25.99 0.48 C29.73 4.31, 33.69 8.81, 38.32 13.41 M38.32 13.41 C34.03 9.04, 29.9 5.38, 25.55 0 M38.32 13.41 C34.91 10.37, 32.76 7.24, 25.55 0 M25.55 0 C15.44 -0.56, 5.37 -0.73, 0 0 M25.55 0 C18.98 0.37, 12.69 0.44, 0 0 M0 0 C0 0, 0 0, 0 0 M0 0 C0 0, 0 0, 0 0" stroke="#1e1e1e" stroke-width="1" fill="none"></path></g></g><mask></mask><g transform="translate(417.9697663667862 96.49106771042449) rotate(0 18.41999053955078 25)"><text x="18.41999053955078" y="0" font-family="Virgil, Segoe UI Emoji" font-size="20px" fill="#1e1e1e" text-anchor="middle" style="white-space: pre;" direction="ltr" dominant-baseline="text-before-edge">aab</text><text x="18.41999053955078" y="25" font-family="Virgil, Segoe UI Emoji" font-size="20px" fill="#1e1e1e" text-anchor="middle" style="white-space: pre;" direction="ltr" dominant-baseline="text-before-edge"></text></g><g stroke-linecap="round"><g transform="translate(437.65290019001577 156.45310132254696) rotate(0 0 136.94546164945137)"><path d="M0.35 0.11 C0.2 46.12, 0.22 229.22, 0.05 274.94 M-0.93 -0.87 C-1.32 44.92, -0.73 227.82, -0.87 273.37" stroke="#1e1e1e" stroke-width="1" fill="none"></path></g><g transform="translate(437.65290019001577 156.45310132254696) rotate(0 0 136.94546164945137)"><path d="M-9.43 249.88 C-6.2 258.89, -1.38 266.68, -0.87 273.37 M-9.43 249.88 C-7.26 258.46, -4.21 266.7, -0.87 273.37" stroke="#1e1e1e" stroke-width="1" fill="none"></path></g><g transform="translate(437.65290019001577 156.45310132254696) rotate(0 0 136.94546164945137)"><path d="M7.67 249.88 C4.38 258.94, 2.7 266.73, -0.87 273.37 M7.67 249.88 C3.9 258.4, 1.01 266.64, -0.87 273.37" stroke="#1e1e1e" stroke-width="1" fill="none"></path></g></g><mask></mask><g transform="translate(871.1305440833785 155.6743097174695) rotate(0 111.22994995117188 17.5)"><text x="0" y="0" font-family="Virgil, Segoe UI Emoji" font-size="28px" fill="#1e1e1e" text-anchor="start" style="white-space: pre;" direction="ltr" dominant-baseline="text-before-edge">Min replicas = 2</text></g><g stroke-opacity="0" fill-opacity="0" stroke-linecap="round" transform="translate(858.4576851487536 10) rotate(0 58.37866158183556 58.378661581835615)"><path d="M34.15 5.17 C41.84 0.98, 52.95 0.54, 61.93 1.02 C70.91 1.49, 80.3 3.62, 88.04 8.02 C95.78 12.42, 103.45 19.63, 108.36 27.41 C113.27 35.2, 116.92 45.58, 117.51 54.75 C118.1 63.93, 115.62 74.29, 111.88 82.46 C108.13 90.63, 102.11 98.24, 95.04 103.77 C87.97 109.31, 78.54 113.87, 69.46 115.69 C60.39 117.51, 49.26 117.16, 40.6 114.69 C31.94 112.22, 23.88 107.25, 17.5 100.87 C11.13 94.49, 5.07 85.16, 2.35 76.4 C-0.38 67.64, -0.46 57.08, 1.13 48.3 C2.72 39.52, 5.55 31.09, 11.88 23.74 C18.22 16.38, 33.69 7.61, 39.16 4.18 C44.62 0.74, 44.56 2.25, 44.67 3.13 M66.69 0.8 C75.15 1.19, 86.54 5.43, 94.06 10.95 C101.59 16.47, 108.31 25.79, 111.85 33.9 C115.39 42, 115.62 50.55, 115.3 59.58 C114.98 68.62, 114.38 80.19, 109.92 88.1 C105.46 96.01, 96.32 102.49, 88.54 107.05 C80.75 111.61, 72.14 114.5, 63.22 115.44 C54.29 116.38, 43.39 116.17, 34.99 112.67 C26.59 109.16, 18.5 101.46, 12.82 94.43 C7.13 87.39, 2.55 79.34, 0.87 70.44 C-0.82 61.54, 0.28 49.98, 2.71 41.02 C5.15 32.06, 9.06 22.99, 15.46 16.68 C21.87 10.36, 32.52 5.91, 41.15 3.13 C49.77 0.35, 62.7 0.42, 67.23 -0.02 C71.75 -0.46, 68.44 -0.84, 68.31 0.48" stroke="none" stroke-width="0" fill="#2f9e44"></path><path d="M51.26 0.9 C59.69 -0.87, 70.72 0.9, 79.02 4.08 C87.33 7.27, 95.17 13.41, 101.11 20.01 C107.05 26.61, 112.28 35.04, 114.66 43.69 C117.04 52.34, 117.45 63.18, 115.39 71.92 C113.32 80.65, 108.42 89.37, 102.27 96.09 C96.13 102.81, 87.09 108.94, 78.52 112.22 C69.95 115.51, 59.73 116.65, 50.86 115.78 C41.99 114.92, 32.5 112.21, 25.3 107.05 C18.1 101.88, 12.02 92.91, 7.66 84.8 C3.3 76.7, -0.8 67.18, -0.86 58.4 C-0.91 49.63, 3.06 40.15, 7.34 32.17 C11.63 24.18, 16.74 15.93, 24.85 10.5 C32.97 5.08, 50.21 1.31, 56.04 -0.37 C61.87 -2.05, 59.87 -0.73, 59.84 0.42 M30.71 7.31 C38.17 2.13, 50.14 -1.28, 59.31 -1.18 C68.47 -1.08, 77.82 3.38, 85.7 7.9 C93.58 12.42, 101.39 18.63, 106.57 25.93 C111.76 33.24, 115.5 42.64, 116.81 51.71 C118.11 60.78, 117.65 71.78, 114.4 80.35 C111.14 88.93, 104.18 97.38, 97.26 103.15 C90.34 108.91, 81.62 113.17, 72.86 114.95 C64.09 116.73, 53.36 116.03, 44.65 113.83 C35.95 111.63, 27.22 107.4, 20.63 101.76 C14.04 96.11, 8.34 88.38, 5.1 79.98 C1.87 71.59, 0.5 60.27, 1.23 51.38 C1.95 42.5, 4.46 33.91, 9.45 26.66 C14.44 19.4, 27.26 10.93, 31.16 7.85 C35.06 4.78, 32.64 7.58, 32.86 8.19" stroke="#1e1e1e" stroke-width="1" fill="none"></path></g><g stroke-linecap="round"><g transform="translate(888.1438290759752 89.84034971520191) rotate(0 27.17391304347825 -24.19758917393495)" fill-rule="evenodd"><path d="M-1.62 -1.71 C-0.5 -6.78, -0.14 -24.87, 4.69 -32.3 C9.51 -39.72, 20.77 -45.36, 27.31 -46.26 C33.84 -47.15, 39.46 -45.13, 43.89 -37.67 C48.32 -30.2, 60.89 -7.68, 53.87 -1.48 C46.85 4.72, 10.73 -0.88, 1.77 -0.45" stroke="none" stroke-width="0" fill="#2f9e44" fill-rule="evenodd"></path><path d="M-0.3 0.12 C0.78 -5.27, 0.91 -23.85, 5.4 -31.9 C9.89 -39.96, 19.77 -47.44, 26.62 -48.22 C33.48 -48.99, 41.8 -43.96, 46.52 -36.55 C51.25 -29.14, 62.81 -9.89, 54.96 -3.75 C47.1 2.4, 8.6 -0.31, -0.6 0.33 M1.74 -0.87 C3.32 -6.07, 3.69 -22.62, 7.75 -30.28 C11.82 -37.93, 19.6 -45.86, 26.14 -46.81 C32.68 -47.75, 42.39 -43.16, 47 -35.96 C51.61 -28.75, 61.56 -9.48, 53.81 -3.58 C46.05 2.33, 9.42 -0.93, 0.49 -0.54" stroke="#1e1e1e" stroke-width="1" fill="none"></path></g></g><mask></mask><g stroke-linecap="round" transform="translate(901.8895930492172 16.2066970778194) rotate(0 13.913043478260988 12.173913043478308)"><path d="M16.24 0.1 C19.14 0.39, 22.63 2.51, 24.58 4.36 C26.54 6.22, 27.93 8.64, 27.96 11.22 C27.99 13.8, 26.66 17.76, 24.79 19.83 C22.92 21.9, 19.69 23.14, 16.72 23.64 C13.76 24.14, 9.59 24, 7 22.84 C4.4 21.69, 2.16 19.01, 1.15 16.69 C0.14 14.37, 0.06 11.42, 0.94 8.94 C1.83 6.46, 3.79 3.29, 6.45 1.82 C9.1 0.35, 14.95 0.25, 16.88 0.1 C18.81 -0.05, 18.1 0.63, 18.03 0.9 M14.72 -0.68 C17.64 -0.69, 21.51 1.49, 23.78 3.34 C26.05 5.19, 28.05 7.8, 28.36 10.42 C28.67 13.05, 27.39 16.86, 25.64 19.07 C23.88 21.28, 20.59 22.9, 17.83 23.68 C15.07 24.47, 11.73 24.67, 9.1 23.78 C6.46 22.9, 3.46 20.88, 2.01 18.38 C0.56 15.88, -0.25 11.41, 0.4 8.79 C1.06 6.17, 3.46 4.11, 5.96 2.65 C8.47 1.2, 14.07 0.47, 15.42 0.07 C16.77 -0.33, 14.16 0.15, 14.07 0.26" stroke="none" stroke-width="0" fill="#2f9e44"></path><path d="M15.05 0.33 C17.85 0.38, 21.67 1.7, 23.81 3.53 C25.96 5.35, 27.71 8.72, 27.94 11.3 C28.16 13.87, 26.99 16.91, 25.14 18.98 C23.28 21.04, 19.76 23.04, 16.8 23.67 C13.84 24.31, 9.99 23.86, 7.38 22.79 C4.76 21.73, 2.18 19.72, 1.12 17.3 C0.05 14.88, 0.22 10.85, 1 8.29 C1.78 5.73, 3.23 3.24, 5.78 1.94 C8.33 0.64, 14.56 0.74, 16.31 0.49 C18.05 0.24, 16.31 0.35, 16.25 0.46 M13.73 -0.71 C16.6 -0.87, 19.8 1.41, 22.05 3.16 C24.3 4.91, 26.46 7.46, 27.25 9.79 C28.03 12.13, 28.08 14.79, 26.78 17.16 C25.47 19.54, 22.23 22.86, 19.41 24.03 C16.6 25.2, 12.7 25.03, 9.87 24.19 C7.05 23.35, 3.96 21.12, 2.45 18.97 C0.94 16.83, 0.47 13.83, 0.82 11.3 C1.16 8.77, 2.42 5.68, 4.53 3.79 C6.64 1.9, 12 0.66, 13.47 -0.03 C14.94 -0.73, 13.31 -0.55, 13.36 -0.37" stroke="#1e1e1e" stroke-width="1" fill="none"></path></g><g transform="translate(865.0559755837089 95.55062608585217) rotate(0 49.179954528808594 12.5)"><text x="49.179954528808594" y="0" font-family="Virgil, Segoe UI Emoji" font-size="20px" fill="#1e1e1e" text-anchor="middle" style="white-space: pre;" direction="ltr" dominant-baseline="text-before-edge">Replicator</text></g><g stroke-opacity="0" fill-opacity="0" stroke-linecap="round" transform="translate(1016.6950330596674 14.700119244878579) rotate(0 58.37866158183556 58.378661581835615)"><path d="M74.23 3.14 C82.7 4.68, 92.66 9.77, 99.13 15.77 C105.6 21.77, 110.38 30.55, 113.05 39.15 C115.71 47.75, 116.61 58.23, 115.13 67.35 C113.65 76.47, 109.57 86.66, 104.17 93.87 C98.77 101.07, 90.85 106.61, 82.73 110.59 C74.62 114.56, 64.26 118.11, 55.5 117.7 C46.73 117.29, 37.91 112.68, 30.13 108.13 C22.35 103.58, 13.7 97.79, 8.8 90.38 C3.91 82.98, 1.53 72.84, 0.76 63.68 C0 54.52, 0.71 43.81, 4.23 35.44 C7.75 27.07, 14.92 19.2, 21.9 13.46 C28.89 7.71, 36.71 2.45, 46.16 0.97 C55.61 -0.51, 72.4 3.57, 78.6 4.57 C84.8 5.58, 83.73 6.33, 83.37 6.97 M82.03 3.63 C90.25 6.14, 97.97 15.27, 103.5 22.47 C109.04 29.68, 113.32 37.94, 115.25 46.85 C117.18 55.77, 117.38 67.41, 115.08 75.95 C112.78 84.49, 107.77 91.89, 101.46 98.12 C95.15 104.35, 86.11 110.54, 77.22 113.33 C68.32 116.13, 57.24 116.26, 48.09 114.89 C38.94 113.53, 29.42 110.62, 22.31 105.15 C15.19 99.68, 9.17 90.16, 5.38 82.07 C1.6 73.98, -0.9 65.45, -0.39 56.6 C0.11 47.76, 3.7 37.05, 8.4 29 C13.1 20.96, 20.01 13.08, 27.83 8.33 C35.65 3.58, 46.22 1.19, 55.33 0.5 C64.44 -0.19, 78.04 3.45, 82.52 4.2 C86.99 4.95, 82.83 4.2, 82.19 4.99" stroke="none" stroke-width="0" fill="#ff8787"></path><path d="M32.82 5.49 C40.08 0.77, 51.04 -1.09, 60.12 -0.85 C69.21 -0.61, 79.51 2.38, 87.32 6.93 C95.12 11.48, 102.01 18.96, 106.95 26.45 C111.88 33.95, 115.82 42.88, 116.92 51.9 C118.01 60.91, 116.86 72.08, 113.53 80.56 C110.2 89.03, 104.04 97.05, 96.94 102.75 C89.85 108.46, 79.93 112.8, 70.96 114.79 C61.98 116.78, 51.71 117.1, 43.09 114.71 C34.47 112.33, 25.9 106.52, 19.26 100.47 C12.63 94.42, 6.24 86.8, 3.29 78.41 C0.35 70.02, 0.25 59.24, 1.58 50.14 C2.9 41.03, 4.63 31.73, 11.25 23.79 C17.86 15.84, 34.54 6.2, 41.24 2.44 C47.95 -1.31, 51.06 0.29, 51.47 1.24 M47.1 -0.25 C55.26 -2.64, 67.28 -1.18, 76.14 1.85 C85 4.89, 93.69 11.39, 100.26 17.96 C106.82 24.54, 112.87 32.72, 115.52 41.28 C118.17 49.84, 117.9 60.18, 116.16 69.33 C114.41 78.48, 110.89 89.01, 105.06 96.19 C99.23 103.37, 89.58 109.23, 81.18 112.41 C72.78 115.59, 63.69 115.99, 54.67 115.28 C45.65 114.58, 34.74 112.6, 27.05 108.19 C19.36 103.78, 12.89 96.49, 8.54 88.82 C4.2 81.14, 1.31 71.38, 0.98 62.12 C0.65 52.87, 2.76 41.85, 6.56 33.28 C10.36 24.7, 16.79 15.98, 23.76 10.68 C30.73 5.39, 44.15 2.93, 48.38 1.5 C52.6 0.06, 49.1 1.36, 49.1 2.06" stroke="#1e1e1e" stroke-width="1" fill="none"></path></g><g stroke-linecap="round"><g transform="translate(1046.381176986889 94.54046896008049) rotate(0 27.17391304347825 -24.19758917393495)" fill-rule="evenodd"><path d="M-0.21 -0.64 C0.42 -6.36, 0.41 -24.77, 4.77 -32.54 C9.13 -40.31, 19.4 -46.73, 25.94 -47.27 C32.49 -47.82, 39.15 -43.54, 44.05 -35.81 C48.96 -28.08, 62.74 -6.95, 55.37 -0.89 C48.01 5.18, 9.29 0.56, -0.13 0.59" stroke="none" stroke-width="0" fill="#ff8787" fill-rule="evenodd"></path><path d="M-1.11 0.97 C-0.27 -4.37, 1.39 -23.32, 5.79 -31.43 C10.19 -39.54, 18.74 -47.16, 25.28 -47.7 C31.83 -48.23, 40.27 -42, 45.05 -34.63 C49.83 -27.26, 61.44 -9.34, 53.98 -3.48 C46.53 2.38, 9.45 -0.23, 0.33 0.55 M0.5 0.44 C1.09 -5.31, 0.15 -24.87, 4.69 -33.22 C9.23 -41.57, 21.08 -49.09, 27.76 -49.67 C34.44 -50.25, 40.05 -44.44, 44.75 -36.69 C49.46 -28.94, 63.73 -9.25, 55.98 -3.17 C48.23 2.91, 7.66 -0.81, -1.75 -0.21" stroke="#1e1e1e" stroke-width="1" fill="none"></path></g></g><mask></mask><g stroke-linecap="round" transform="translate(1060.126940960131 20.90681632269775) rotate(0 13.913043478260988 12.173913043478308)"><path d="M16.04 0.14 C18.92 0.41, 22.92 2.59, 24.89 4.55 C26.85 6.51, 27.97 9.3, 27.85 11.91 C27.73 14.51, 26.13 18.09, 24.17 20.18 C22.2 22.27, 18.92 24.08, 16.07 24.46 C13.23 24.85, 9.66 23.77, 7.09 22.47 C4.52 21.17, 1.65 19.12, 0.65 16.66 C-0.35 14.19, 0.07 10.25, 1.09 7.68 C2.1 5.12, 4.11 2.49, 6.75 1.25 C9.39 0.01, 15.1 0.27, 16.92 0.24 C18.75 0.22, 17.74 0.92, 17.69 1.09 M11.01 -0.06 C13.74 -0.65, 18.81 0.81, 21.54 2.13 C24.28 3.45, 26.53 5.4, 27.41 7.85 C28.28 10.31, 27.89 14.44, 26.8 16.88 C25.72 19.32, 23.5 21.34, 20.89 22.47 C18.28 23.6, 14.02 24.1, 11.15 23.68 C8.29 23.27, 5.54 22.01, 3.7 19.98 C1.85 17.95, 0.25 14.03, 0.09 11.5 C-0.07 8.98, 0.81 6.62, 2.71 4.85 C4.61 3.08, 9.95 1.7, 11.48 0.86 C13.01 0.02, 11.87 -0.34, 11.91 -0.2" stroke="none" stroke-width="0" fill="#ff8787"></path><path d="M11.99 0.02 C14.69 -0.45, 18.35 0.52, 20.89 1.81 C23.44 3.11, 26.16 5.33, 27.25 7.79 C28.34 10.26, 28.46 14.13, 27.44 16.62 C26.43 19.11, 23.84 21.51, 21.15 22.72 C18.45 23.93, 14.27 24.35, 11.26 23.88 C8.26 23.41, 4.93 21.94, 3.09 19.9 C1.25 17.87, 0.2 14.24, 0.23 11.67 C0.26 9.1, 1.19 6.42, 3.27 4.49 C5.36 2.56, 11.11 0.8, 12.73 0.06 C14.35 -0.68, 13.09 -0.17, 13.01 0.04 M14.25 -0.25 C17.18 -0.46, 21.28 1.13, 23.39 2.79 C25.5 4.46, 26.53 7.22, 26.91 9.75 C27.29 12.27, 27.08 15.6, 25.67 17.95 C24.27 20.3, 21.16 22.96, 18.46 23.86 C15.77 24.75, 12.25 24.3, 9.5 23.31 C6.76 22.32, 3.42 20.06, 1.98 17.91 C0.54 15.77, 0.36 12.94, 0.85 10.45 C1.35 7.96, 2.66 4.8, 4.93 2.95 C7.2 1.1, 12.95 -0.23, 14.45 -0.66 C15.95 -1.09, 13.93 -0.02, 13.92 0.37" stroke="#1e1e1e" stroke-width="1" fill="none"></path></g><g transform="translate(1005.2951762024722 100.25074533073075) rotate(0 67.45993041992188 12.5)"><text x="67.45993041992188" y="0" font-family="Virgil, Segoe UI Emoji" font-size="20px" fill="#1e1e1e" text-anchor="middle" style="white-space: pre;" direction="ltr" dominant-baseline="text-before-edge">Non-replicator</text></g></svg>