<svg version="1.1" xmlns="http://www.w3.org/2000/svg" viewBox="0 0 1303.0116623094364 736.89289852417" width="1303.0116623094364" height="736.89289852417">
  <!-- svg-source:excalidraw -->
  
  <defs>
    <style class="style-fonts">
      @font-face {
        font-family: "Virgil";
        src: url("https://excalidraw.com/Virgil.woff2");
      }
      @font-face {
        font-family: "Cascadia";
        src: url("https://excalidraw.com/Cascadia.woff2");
      }
      @font-face {
        font-family: "Assistant";
        src: url("https://excalidraw.com/Assistant-Regular.woff2");
      }
    </style>
    
  </defs>
  <rect x="0" y="0" width="1303.0116623094364" height="736.89289852417" fill="#ffffff"></rect><g stroke-linecap="round" transform="translate(39.55863411034534 406.47423361743336) rotate(0 256.1564988458831 26.634009054311946)"><path d="M3.54 3.08 C3.54 3.08, 3.54 3.08, 3.54 3.08 M3.54 3.08 C3.54 3.08, 3.54 3.08, 3.54 3.08 M0 13.25 C2.63 10.01, 4.04 8.3, 11.16 0.42 M0 13.25 C2.67 10.67, 5.87 7.18, 11.16 0.42 M1.05 18.14 C2.73 15.01, 6.51 11.14, 16.14 0.78 M1.05 18.14 C6.34 12.28, 10.87 7.99, 16.14 0.78 M0.79 24.54 C7 15.81, 16.02 7.31, 21.79 0.39 M0.79 24.54 C9.63 15.32, 16.07 5.32, 21.79 0.39 M1.19 30.18 C9.42 21.75, 19.29 10.69, 26.77 0.75 M1.19 30.18 C7.81 22.31, 14.98 14.36, 26.77 0.75 M1.58 35.83 C10.93 27.5, 20.69 15.73, 32.42 0.35 M1.58 35.83 C7.97 28.52, 15.61 21.3, 32.42 0.35 M1.32 42.22 C14.61 27.92, 24.32 14, 37.4 0.71 M1.32 42.22 C11.75 30.38, 21.09 19.57, 37.4 0.71 M1.71 47.87 C11.72 35, 23.31 22.59, 43.05 0.32 M1.71 47.87 C8.88 37.95, 19.08 28.05, 43.05 0.32 M4.73 50.49 C14.7 38.24, 23.21 29.25, 48.03 0.68 M4.73 50.49 C17.95 36.49, 30.29 22.42, 48.03 0.68 M8.41 52.36 C18.52 38.45, 31 25.91, 53.68 0.28 M8.41 52.36 C23.36 34.77, 38.06 18.14, 53.68 0.28 M12.74 53.47 C28.14 32.19, 46.26 17.11, 58.66 0.64 M12.74 53.47 C25.91 37.84, 37.79 24.92, 58.66 0.64 M18.38 53.08 C32.39 37.24, 48.78 16.49, 64.31 0.25 M18.38 53.08 C33.48 35.8, 47.09 19.55, 64.31 0.25 M23.37 53.44 C40.27 34.17, 59.13 11.97, 69.29 0.61 M23.37 53.44 C33.79 40.12, 44.79 27.76, 69.29 0.61 M29.01 53.05 C36.39 42.96, 49.26 29.83, 74.94 0.22 M29.01 53.05 C40.05 40.15, 53.09 24.9, 74.94 0.22 M34 53.41 C49.85 36.59, 64.44 17.56, 79.92 0.58 M34 53.41 C50.29 36.23, 64.86 17.95, 79.92 0.58 M39.64 53.01 C52.97 39.92, 63.58 26.68, 85.57 0.18 M39.64 53.01 C50.55 41.92, 60.1 29.35, 85.57 0.18 M44.63 53.37 C58.44 37.16, 72.81 21.97, 90.55 0.54 M44.63 53.37 C59.31 34.85, 76.47 17.04, 90.55 0.54 M50.27 52.98 C68.81 33.27, 84.08 11.06, 96.2 0.15 M50.27 52.98 C67.53 32, 84.21 13.25, 96.2 0.15 M55.26 53.34 C72.74 33.56, 90.38 14.38, 101.18 0.51 M55.26 53.34 C66.76 39.63, 79.6 27.07, 101.18 0.51 M60.9 52.94 C77.01 36.89, 88.38 22.03, 106.83 0.11 M60.9 52.94 C74.82 38.17, 87.78 22.92, 106.83 0.11 M65.89 53.3 C77.58 40.57, 88.86 28.63, 111.81 0.47 M65.89 53.3 C77.21 39.52, 90.9 25.56, 111.81 0.47 M71.53 52.91 C82.06 39.62, 92.43 27.1, 116.8 0.83 M71.53 52.91 C81.28 41.06, 90.8 30.16, 116.8 0.83 M76.52 53.27 C88.42 40.93, 100.48 27.9, 122.44 0.44 M76.52 53.27 C90.88 37.55, 105.82 18.77, 122.44 0.44 M82.16 52.87 C93.24 40.28, 104.24 25.64, 127.43 0.8 M82.16 52.87 C92.86 39.65, 104.13 28.6, 127.43 0.8 M87.15 53.23 C105.19 35.42, 121.34 16.97, 133.07 0.4 M87.15 53.23 C99.45 40.12, 110.89 27.63, 133.07 0.4 M92.14 53.59 C108.16 36.35, 123.42 16.95, 138.06 0.76 M92.14 53.59 C107.08 34.9, 123.98 16.83, 138.06 0.76 M97.78 53.2 C115.33 34.4, 132.29 13.88, 143.7 0.37 M97.78 53.2 C115.81 31.44, 133.73 11.28, 143.7 0.37 M102.77 53.56 C118.12 38.91, 133.79 20.75, 148.69 0.73 M102.77 53.56 C115.7 37.51, 129.77 23.58, 148.69 0.73 M108.41 53.16 C122.55 37.36, 133.38 25.64, 154.33 0.33 M108.41 53.16 C126.88 32.78, 144.09 10.94, 154.33 0.33 M113.4 53.52 C127.56 38.39, 138.63 19.4, 159.32 0.69 M113.4 53.52 C129.02 35.3, 145.52 15.17, 159.32 0.69 M119.04 53.13 C135.39 37.17, 149.05 19.19, 164.96 0.3 M119.04 53.13 C137.73 32.33, 155.72 11.09, 164.96 0.3 M124.03 53.49 C134.76 40.71, 149.82 25.3, 169.95 0.66 M124.03 53.49 C135.07 40.4, 145.84 29.5, 169.95 0.66 M129.67 53.1 C143.94 37.65, 160.7 19.97, 175.59 0.27 M129.67 53.1 C139.82 41.24, 151.24 29.14, 175.59 0.27 M134.66 53.46 C146.15 40.35, 156.04 25.86, 180.58 0.63 M134.66 53.46 C148.13 37.48, 162.27 23.44, 180.58 0.63 M140.3 53.06 C150.16 42.59, 159.98 30.49, 186.22 0.23 M140.3 53.06 C150.79 39.45, 161.28 27.58, 186.22 0.23 M145.29 53.42 C155.61 43.84, 164.34 30.89, 191.21 0.59 M145.29 53.42 C158.67 36.22, 173.6 20.02, 191.21 0.59 M150.93 53.03 C165.22 38.33, 175.91 25.08, 196.85 0.2 M150.93 53.03 C163.57 38.27, 177.08 24.81, 196.85 0.2 M155.92 53.39 C172.47 35.39, 187.05 15.76, 201.84 0.56 M155.92 53.39 C173.13 33.08, 190.91 12.58, 201.84 0.56 M161.56 52.99 C171.57 40.98, 183.57 28.7, 207.48 0.16 M161.56 52.99 C174.68 38.33, 186.94 21.97, 207.48 0.16 M166.55 53.35 C178.94 35.76, 193.88 19.91, 212.47 0.52 M166.55 53.35 C184.41 33.31, 201.15 13.25, 212.47 0.52 M172.19 52.96 C181.78 42.33, 192.19 27.38, 217.46 0.88 M172.19 52.96 C186.45 36.91, 199.62 19.93, 217.46 0.88 M177.18 53.32 C188.99 39.63, 201.39 25.97, 223.1 0.49 M177.18 53.32 C191.26 37.5, 206.26 19.65, 223.1 0.49 M182.82 52.92 C193.45 37.41, 205.65 25.59, 228.09 0.85 M182.82 52.92 C197.27 37.39, 212.83 18.98, 228.09 0.85 M187.81 53.28 C198.81 40.15, 207.22 29.44, 233.73 0.45 M187.81 53.28 C203.23 34.82, 218.77 16.81, 233.73 0.45 M193.45 52.89 C207.62 40.13, 216.64 25.59, 238.72 0.81 M193.45 52.89 C209.68 34.65, 224.69 18.39, 238.72 0.81 M198.44 53.25 C212.94 37.52, 226.03 23.29, 244.36 0.42 M198.44 53.25 C216.33 34, 232.42 14.59, 244.36 0.42 M203.42 53.61 C219.88 38.03, 235.07 19.99, 249.35 0.78 M203.42 53.61 C217.68 36.21, 233.49 17.64, 249.35 0.78 M209.07 53.21 C217.96 42.85, 232.24 28.33, 254.99 0.38 M209.07 53.21 C223.24 38.91, 236.22 23.41, 254.99 0.38 M214.05 53.57 C225.91 41.42, 238.99 25.79, 259.98 0.74 M214.05 53.57 C231.39 34.04, 247.82 16.2, 259.98 0.74 M219.7 53.18 C233.33 37.43, 248.17 20.9, 265.62 0.35 M219.7 53.18 C233.55 37.44, 246.44 23.3, 265.62 0.35 M224.68 53.54 C241.16 34.87, 255.52 17.63, 270.61 0.71 M224.68 53.54 C242.04 33.08, 258.34 13.84, 270.61 0.71 M230.33 53.14 C249.37 32.26, 264.72 11.91, 276.25 0.31 M230.33 53.14 C247.56 33.96, 265.44 14.7, 276.25 0.31 M235.32 53.5 C243.83 43.96, 256.55 29.44, 281.24 0.68 M235.32 53.5 C245.08 42.24, 255.38 29.83, 281.24 0.68 M240.96 53.11 C253.71 36.23, 269.58 23.24, 286.88 0.28 M240.96 53.11 C250.67 41.45, 261.49 29.98, 286.88 0.28 M245.95 53.47 C255.51 38.5, 271.32 24.82, 291.87 0.64 M245.95 53.47 C258.96 38.24, 272.11 23.66, 291.87 0.64 M251.59 53.08 C263.71 38.89, 278.61 24.04, 297.51 0.25 M251.59 53.08 C265.98 34.89, 281.83 16.63, 297.51 0.25 M256.58 53.44 C272.41 32.23, 291.09 14.81, 302.5 0.61 M256.58 53.44 C274.51 33.2, 293.38 10.68, 302.5 0.61 M262.22 53.04 C275.79 38.84, 289.05 20.12, 308.14 0.21 M262.22 53.04 C277.31 35.4, 291.71 19.27, 308.14 0.21 M267.21 53.4 C281.2 37.35, 298.74 20.62, 313.13 0.57 M267.21 53.4 C281.98 35.84, 297.76 16.92, 313.13 0.57 M272.85 53.01 C289.73 33.73, 305.55 16.12, 318.77 0.18 M272.85 53.01 C290.75 32.47, 306.74 12.59, 318.77 0.18 M277.84 53.37 C292.93 38.81, 305.73 21.47, 323.76 0.54 M277.84 53.37 C294.99 32.72, 312.38 13.85, 323.76 0.54 M283.48 52.97 C296.31 38.07, 311.07 22.77, 328.75 0.9 M283.48 52.97 C292.54 43.13, 302.16 30.82, 328.75 0.9 M288.47 53.33 C303.24 36.97, 317.25 19.68, 334.39 0.5 M288.47 53.33 C301.16 39.8, 312.34 25.56, 334.39 0.5 M294.11 52.94 C306.56 36.96, 322.65 21.98, 339.38 0.86 M294.11 52.94 C307.52 36.73, 321.49 19.26, 339.38 0.86 M299.1 53.3 C315.68 33.12, 332.21 16.91, 345.02 0.47 M299.1 53.3 C310.4 38.85, 324.22 25.6, 345.02 0.47 M304.08 53.66 C312.35 44.79, 324.08 32.95, 350.01 0.83 M304.08 53.66 C318.98 37.53, 331.9 23.09, 350.01 0.83 M309.73 53.26 C326.37 33.81, 339.26 15.75, 355.65 0.43 M309.73 53.26 C327.02 34.82, 344.09 15.3, 355.65 0.43 M314.71 53.62 C327.1 35.17, 342.78 21.19, 360.64 0.79 M314.71 53.62 C330.44 33.95, 348.27 14.16, 360.64 0.79 M320.36 53.23 C332.51 39.03, 347.11 20.09, 366.28 0.4 M320.36 53.23 C331.66 41.5, 340.91 30.76, 366.28 0.4 M325.34 53.59 C343.48 33.65, 363.08 13.67, 371.27 0.76 M325.34 53.59 C336.68 39.97, 347 28.93, 371.27 0.76 M330.99 53.19 C347.21 33.64, 362.74 15.79, 376.91 0.36 M330.99 53.19 C341.43 41.01, 351.03 30.19, 376.91 0.36 M335.97 53.55 C348.09 37.55, 363.16 21.1, 381.9 0.72 M335.97 53.55 C345.99 43.31, 355.93 31.53, 381.9 0.72 M341.62 53.16 C350.98 42.39, 363.95 28.14, 387.54 0.33 M341.62 53.16 C350.48 42.89, 361.22 31.71, 387.54 0.33 M346.6 53.52 C364.38 35.88, 377.06 15.25, 392.53 0.69 M346.6 53.52 C360.04 37.51, 375.1 21.22, 392.53 0.69 M352.25 53.13 C363.75 38.27, 377.89 24.1, 398.17 0.3 M352.25 53.13 C370.18 33.22, 388.1 12.89, 398.17 0.3 M357.23 53.49 C374.57 33.34, 390.12 18.99, 403.16 0.66 M357.23 53.49 C372.11 36.62, 387.51 19.71, 403.16 0.66 M362.88 53.09 C371.72 43.82, 380.19 30.27, 408.8 0.26 M362.88 53.09 C373.7 42.98, 382.21 31.25, 408.8 0.26 M367.86 53.45 C385.34 35.94, 402.02 16.49, 413.79 0.62 M367.86 53.45 C386.4 32.7, 403.47 12.3, 413.79 0.62 M373.51 53.06 C386.49 36.38, 400.63 20.05, 419.43 0.23 M373.51 53.06 C386.02 38.51, 399.3 22.33, 419.43 0.23 M378.49 53.42 C394.88 35.34, 406.79 19.83, 424.42 0.59 M378.49 53.42 C388.39 42.99, 398.72 30.06, 424.42 0.59 M384.14 53.02 C398.63 34.37, 415.16 19.69, 429.4 0.95 M384.14 53.02 C395.85 39.8, 407.61 27.13, 429.4 0.95 M389.12 53.38 C401.5 38.17, 415.28 26.58, 435.05 0.55 M389.12 53.38 C400 41.48, 410.22 29.17, 435.05 0.55 M394.77 52.99 C410.55 35, 427.76 16.09, 440.03 0.91 M394.77 52.99 C410.43 36.34, 426.19 17.96, 440.03 0.91 M399.75 53.35 C412.97 39.97, 423.89 26.94, 445.68 0.52 M399.75 53.35 C410.2 41, 420.93 29.83, 445.68 0.52 M404.74 53.71 C414.33 39.83, 424.29 29.82, 450.66 0.88 M404.74 53.71 C421.61 34.21, 439.1 13.82, 450.66 0.88 M410.38 53.31 C426.4 35.99, 437.82 19.9, 456.31 0.48 M410.38 53.31 C426.98 34.2, 443.23 15.61, 456.31 0.48 M415.37 53.67 C424.68 42.68, 437.47 26.39, 461.29 0.84 M415.37 53.67 C425.3 42.81, 434.06 31.79, 461.29 0.84 M421.01 53.28 C430.93 43.68, 441.2 32.98, 466.94 0.45 M421.01 53.28 C436.53 35.14, 449.89 20.02, 466.94 0.45 M426 53.64 C437.43 38.66, 453.27 23.29, 471.92 0.81 M426 53.64 C437.32 40.8, 449.82 26.5, 471.92 0.81 M431.64 53.24 C445.63 39.61, 459.11 22.15, 477.57 0.41 M431.64 53.24 C448.34 34.98, 464.5 14.71, 477.57 0.41 M436.63 53.6 C450.82 36.55, 466.18 17.03, 482.55 0.77 M436.63 53.6 C453.06 33.87, 469.24 15.61, 482.55 0.77 M442.27 53.21 C455.26 36.02, 470.88 18.5, 488.2 0.38 M442.27 53.21 C455.14 38.25, 468.1 23.2, 488.2 0.38 M447.26 53.57 C459.84 38.61, 477.26 20.05, 493.18 0.74 M447.26 53.57 C464.67 33.28, 482.79 13.12, 493.18 0.74 M452.9 53.17 C470.36 31.4, 487.44 11.31, 498.83 0.35 M452.9 53.17 C462.71 42.41, 473.15 29.56, 498.83 0.35 M457.89 53.54 C468.4 40.31, 478.82 27.08, 503.82 0.71 M457.89 53.54 C473.07 36.32, 487.16 20.56, 503.82 0.71 M463.53 53.14 C481.61 34.78, 498 11.61, 507.49 2.57 M463.53 53.14 C477.73 37.68, 490.93 22.71, 507.49 2.57 M468.52 53.5 C479.41 40.4, 492.13 29.21, 510.51 5.2 M468.52 53.5 C478.97 41.48, 490.72 28.57, 510.51 5.2 M474.16 53.11 C487.67 38.7, 500.64 20.13, 512.22 9.33 M474.16 53.11 C488.94 36.54, 503.06 19.72, 512.22 9.33 M479.15 53.47 C488.75 41.73, 496 31.16, 511.95 15.73 M479.15 53.47 C493.55 37.32, 506.51 22.83, 511.95 15.73 M484.79 53.07 C494.53 41.77, 505.18 31.07, 512.35 21.37 M484.79 53.07 C492.04 45.16, 500.24 36.7, 512.35 21.37 M489.78 53.43 C496.93 47.41, 502.37 40.04, 512.09 27.77 M489.78 53.43 C494.97 48.16, 500.25 42.75, 512.09 27.77 M495.42 53.04 C499.26 47.39, 506.09 38.05, 512.48 33.41 M495.42 53.04 C500.19 46.41, 505.55 42.74, 512.48 33.41 M500.41 53.4 C505.72 47.05, 510.92 42.94, 512.88 39.06 M500.41 53.4 C505.72 47.92, 509.48 42.7, 512.88 39.06 M508.02 50.74 C509.53 49.2, 510.36 47.99, 511.3 46.96 M508.02 50.74 C509.17 49.06, 510.29 47.86, 511.3 46.96" stroke="#b2f2bb" stroke-width="0.5" fill="none"></path><path d="M13.32 0 C120.85 -0.98, 229.18 -1.99, 499 0 M13.32 0 C161.8 -1.52, 309.97 -1.07, 499 0 M499 0 C506.15 -1.58, 513.71 3.21, 512.31 13.32 M499 0 C509.81 1.6, 514.54 6.24, 512.31 13.32 M512.31 13.32 C512.32 18.76, 514.38 22.58, 512.31 39.95 M512.31 13.32 C513.14 23.63, 513.11 33.22, 512.31 39.95 M512.31 39.95 C513.34 48.74, 509.81 51.66, 499 53.27 M512.31 39.95 C513.5 49.45, 509.46 51.49, 499 53.27 M499 53.27 C391.43 53.21, 282.85 52.66, 13.32 53.27 M499 53.27 C331.98 54.59, 164.42 53.98, 13.32 53.27 M13.32 53.27 C5.84 54.89, 0.8 49.97, 0 39.95 M13.32 53.27 C2.8 55.06, 0.59 49.26, 0 39.95 M0 39.95 C-1.66 34.55, 0.52 28.34, 0 13.32 M0 39.95 C-0.17 33.49, -0.72 24.74, 0 13.32 M0 13.32 C-0.14 4.78, 5.87 -0.85, 13.32 0 M0 13.32 C1.78 4.61, 5.77 0.88, 13.32 0" stroke="#1e1e1e" stroke-width="1" fill="none"></path></g><g stroke-linecap="round"><g transform="translate(12.253154960026677 628.7209577430615) rotate(0 639.9212136732754 0)"><path d="M-0.49 -0.1 C212.9 -0.1, 1067.21 0.09, 1280.76 0.1 M1.46 -1.2 C214.73 -1, 1067.11 1.28, 1280.29 1.69" stroke="#1e1e1e" stroke-width="1" fill="none"></path></g><g transform="translate(12.253154960026677 628.7209577430615) rotate(0 639.9212136732754 0)"><path d="M23.01 -8.65 C14.94 -4.34, 7.36 -1.36, -0.49 -0.1 M23.01 -8.65 C15.92 -6.65, 9 -3.87, -0.49 -0.1" stroke="#1e1e1e" stroke-width="1" fill="none"></path></g><g transform="translate(12.253154960026677 628.7209577430615) rotate(0 639.9212136732754 0)"><path d="M23.01 8.46 C14.92 7.01, 7.34 4.22, -0.49 -0.1 M23.01 8.46 C15.87 5.37, 8.95 3.06, -0.49 -0.1" stroke="#1e1e1e" stroke-width="1" fill="none"></path></g><g transform="translate(12.253154960026677 628.7209577430615) rotate(0 639.9212136732754 0)"><path d="M1256.78 10.18 C1264.52 8.94, 1272.77 6.18, 1280.29 1.69 M1256.78 10.18 C1263.63 7.12, 1270.69 4.83, 1280.29 1.69" stroke="#1e1e1e" stroke-width="1" fill="none"></path></g><g transform="translate(12.253154960026677 628.7209577430615) rotate(0 639.9212136732754 0)"><path d="M1256.82 -6.92 C1264.56 -2.4, 1272.79 0.59, 1280.29 1.69 M1256.82 -6.92 C1263.7 -4.9, 1270.75 -2.1, 1280.29 1.69" stroke="#1e1e1e" stroke-width="1" fill="none"></path></g></g><mask></mask><g transform="translate(548.6759492720967 691.89289852417) rotate(0 98.85395812988281 17.5)"><text x="0" y="0" font-family="Virgil, Segoe UI Emoji" font-size="28px" fill="#1e1e1e" text-anchor="start" style="white-space: pre;" direction="ltr" dominant-baseline="text-before-edge">Content space</text></g><g stroke-opacity="0" fill-opacity="0" stroke-linecap="round" transform="translate(377.22763402197506 10) rotate(0 58.37866158183556 58.378661581835615)"><path d="M85.6 6.24 C93.87 9.45, 101.84 17.19, 106.91 24.68 C111.98 32.18, 115.04 42.17, 116.03 51.23 C117.01 60.3, 116.03 70.75, 112.79 79.09 C109.55 87.42, 103.2 95.34, 96.56 101.23 C89.93 107.12, 81.56 111.98, 73.01 114.43 C64.46 116.88, 54.16 117.88, 45.24 115.94 C36.33 114, 26.44 108.9, 19.51 102.78 C12.58 96.66, 6.78 87.57, 3.68 79.22 C0.58 70.87, -0.27 61.54, 0.92 52.68 C2.11 43.81, 5.95 33.69, 10.83 26.02 C15.71 18.36, 22.42 10.89, 30.21 6.68 C37.99 2.46, 48.14 0.63, 57.54 0.74 C66.93 0.86, 81.56 6.14, 86.56 7.38 C91.55 8.63, 88.05 7.38, 87.5 8.21 M63.48 0.23 C72.12 0.57, 81.72 5.79, 89.37 10.59 C97.01 15.39, 104.83 21.59, 109.36 29.01 C113.88 36.42, 116.18 46.21, 116.52 55.08 C116.87 63.96, 115.38 73.66, 111.41 82.26 C107.45 90.86, 100.16 100.96, 92.73 106.69 C85.3 112.41, 75.6 115.56, 66.83 116.6 C58.06 117.64, 48.68 116.06, 40.11 112.92 C31.55 109.78, 21.79 103.96, 15.42 97.77 C9.06 91.58, 4.06 84.2, 1.92 75.79 C-0.21 67.38, 0.78 56.52, 2.63 47.32 C4.48 38.11, 7.33 27.77, 13.01 20.57 C18.69 13.36, 28.12 7.36, 36.69 4.1 C45.26 0.83, 59.8 1.66, 64.43 0.98 C69.06 0.3, 64.56 -0.6, 64.49 0.02" stroke="#1e1e1e" stroke-width="1" fill="none"></path></g><g stroke-linecap="round"><g transform="translate(414.09157818708263 30.791689765269894) rotate(0 19.16027036697119 23.471331199539804)"><path d="M0 0 C-0.98 13.47, 0.19 27.47, 0 46.94 M0 0 C0.06 17.16, 0.11 34.21, 0 46.94 M0 46.94 C9.66 47.85, 17.9 47.52, 38.32 46.94 M0 46.94 C11.07 47.19, 21.41 46.47, 38.32 46.94 M38.32 46.94 C38.26 37.51, 38.32 27.01, 38.32 13.41 M38.32 46.94 C38.17 38.37, 38.37 30.74, 38.32 13.41 M38.32 13.41 C34.81 13.34, 31.15 13.59, 25.99 13.41 M38.32 13.41 C35.63 13.59, 33.31 13.32, 25.99 13.41 M25.99 13.41 C26.64 10.71, 26.41 6.65, 25.99 0.48 M25.99 13.41 C26.18 10.28, 26.21 6.53, 25.99 0.48 M25.99 0.48 C31.18 6.08, 34.81 9.84, 38.32 13.41 M25.99 0.48 C30.54 5.23, 35.55 10.53, 38.32 13.41 M38.32 13.41 C34.66 10.14, 32.21 8.14, 25.55 0 M38.32 13.41 C33.31 8.18, 28.13 2.85, 25.55 0 M25.55 0 C16.56 -0.86, 10.11 -0.56, 0 0 M25.55 0 C19.16 0.17, 12.39 -0.5, 0 0" stroke="#1e1e1e" stroke-width="1" fill="none"></path></g></g><mask></mask><g transform="translate(417.1863050642605 82.06285377911422) rotate(0 18.41999053955078 25)"><text x="18.41999053955078" y="0" font-family="Virgil, Segoe UI Emoji" font-size="20px" fill="#1e1e1e" text-anchor="middle" style="white-space: pre;" direction="ltr" dominant-baseline="text-before-edge">aab</text><text x="18.41999053955078" y="25" font-family="Virgil, Segoe UI Emoji" font-size="20px" fill="#1e1e1e" text-anchor="middle" style="white-space: pre;" direction="ltr" dominant-baseline="text-before-edge"></text></g><g stroke-linecap="round"><g transform="translate(434.5849334692375 160.918363758856) rotate(0 0 231.65295340108582)"><path d="M-0.34 0.82 C-0.31 77.91, -0.4 385.97, -0.29 462.99 M1.69 0.21 C1.58 77.43, -1.06 387.05, -1.4 464.36" stroke="#1e1e1e" stroke-width="1" fill="none"></path></g><g transform="translate(434.5849334692375 160.918363758856) rotate(0 0 231.65295340108582)"><path d="M-9.79 440.81 C-6.15 446.45, -5.87 453.52, -1.4 464.36 M-9.79 440.81 C-8.05 447.57, -5.72 454.12, -1.4 464.36" stroke="#1e1e1e" stroke-width="1" fill="none"></path></g><g transform="translate(434.5849334692375 160.918363758856) rotate(0 0 231.65295340108582)"><path d="M7.31 440.93 C6.52 446.49, 2.36 453.53, -1.4 464.36 M7.31 440.93 C4.42 447.52, 2.13 454.03, -1.4 464.36" stroke="#1e1e1e" stroke-width="1" fill="none"></path></g></g><mask></mask><g transform="translate(728.5901831145025 101.41316195900936) rotate(0 111.22994995117188 17.5)"><text x="0" y="0" font-family="Virgil, Segoe UI Emoji" font-size="28px" fill="#1e1e1e" text-anchor="start" style="white-space: pre;" direction="ltr" dominant-baseline="text-before-edge">Min replicas = 2</text></g><g stroke-linecap="round" transform="translate(336.963411392544 475.19376262756373) rotate(0 283.5738611076747 26.634009054311946)"><path d="M3.54 3.08 C3.54 3.08, 3.54 3.08, 3.54 3.08 M3.54 3.08 C3.54 3.08, 3.54 3.08, 3.54 3.08 M0 13.25 C5.39 9.82, 7 4.6, 11.16 0.42 M0 13.25 C3.42 9.04, 7.01 5.89, 11.16 0.42 M1.05 18.14 C4.46 15.47, 8.65 7.77, 16.14 0.78 M1.05 18.14 C6.59 11.74, 10.71 7.66, 16.14 0.78 M0.79 24.54 C6.58 16.31, 12.35 11.21, 21.79 0.39 M0.79 24.54 C7.98 17.14, 14.41 9.32, 21.79 0.39 M1.19 30.18 C11.03 22.49, 18.79 9.1, 26.77 0.75 M1.19 30.18 C7.17 23.58, 13.66 17.21, 26.77 0.75 M1.58 35.83 C9.73 24.63, 19.38 13.04, 32.42 0.35 M1.58 35.83 C13.39 23.61, 22.82 11.57, 32.42 0.35 M1.32 42.22 C15.18 29.94, 27.59 12.45, 37.4 0.71 M1.32 42.22 C16.34 26.49, 29.69 9.23, 37.4 0.71 M1.71 47.87 C12.29 35.51, 26.15 17.61, 43.05 0.32 M1.71 47.87 C16.24 31.2, 31.21 15.56, 43.05 0.32 M4.73 50.49 C14.19 38.11, 24.22 26.84, 48.03 0.68 M4.73 50.49 C19.87 33.16, 34.94 14.27, 48.03 0.68 M8.41 52.36 C24.35 30.76, 42.4 14.42, 53.68 0.28 M8.41 52.36 C21.39 37.17, 34.7 21.07, 53.68 0.28 M12.74 53.47 C22.45 42.39, 34.22 30.66, 58.66 0.64 M12.74 53.47 C30.17 32.55, 49.9 12.22, 58.66 0.64 M18.38 53.08 C32.6 37.14, 50.57 19.49, 64.31 0.25 M18.38 53.08 C33.06 36.52, 47.72 19.93, 64.31 0.25 M23.37 53.44 C35.04 39.97, 48.72 25.3, 69.29 0.61 M23.37 53.44 C38.59 35.54, 53.22 17.74, 69.29 0.61 M29.01 53.05 C43.89 34.25, 60.7 19.78, 74.94 0.22 M29.01 53.05 C39.25 42.7, 47.06 32.26, 74.94 0.22 M34 53.41 C48.94 37, 64.4 20.86, 79.92 0.58 M34 53.41 C48.9 35.13, 64.25 17.15, 79.92 0.58 M39.64 53.01 C51.08 40, 60.41 31.26, 85.57 0.18 M39.64 53.01 C51.39 37.63, 65.88 24.02, 85.57 0.18 M44.63 53.37 C55.26 40.75, 66.34 27.5, 90.55 0.54 M44.63 53.37 C59.92 35.76, 75.9 17.31, 90.55 0.54 M50.27 52.98 C65.87 32.71, 85.27 13.35, 96.2 0.15 M50.27 52.98 C66.64 33.37, 84.23 15.96, 96.2 0.15 M55.26 53.34 C73.94 31.43, 91.53 9.67, 101.18 0.51 M55.26 53.34 C73.3 31.37, 90.99 10.71, 101.18 0.51 M60.9 52.94 C72 37.66, 87.34 22.33, 106.83 0.11 M60.9 52.94 C77.75 34.77, 93.19 15.13, 106.83 0.11 M65.89 53.3 C83.57 36.39, 98.92 17, 111.81 0.47 M65.89 53.3 C83.21 33.76, 100.34 13.69, 111.81 0.47 M71.53 52.91 C81.5 41.71, 93.32 28.4, 116.8 0.83 M71.53 52.91 C83.23 38.73, 96.29 23.62, 116.8 0.83 M76.52 53.27 C84.41 43.94, 96.17 29.42, 122.44 0.44 M76.52 53.27 C85.49 41.93, 95.52 31.91, 122.44 0.44 M82.16 52.87 C98.54 36.87, 111.64 18.11, 127.43 0.8 M82.16 52.87 C93.9 39.61, 105.39 25.82, 127.43 0.8 M87.15 53.23 C101.5 36.7, 117 18.37, 133.07 0.4 M87.15 53.23 C99.23 39.05, 112.34 23.5, 133.07 0.4 M92.14 53.59 C106.02 39.83, 116.82 22.33, 138.06 0.76 M92.14 53.59 C106.07 36.28, 121.12 20.46, 138.06 0.76 M97.78 53.2 C112.33 38.56, 127.5 21.29, 143.7 0.37 M97.78 53.2 C107.49 40.98, 119 29.65, 143.7 0.37 M102.77 53.56 C115.37 37.57, 127.98 22.97, 148.69 0.73 M102.77 53.56 C119.36 35.09, 135.38 16.14, 148.69 0.73 M108.41 53.16 C118.25 40.22, 132.05 25.09, 154.33 0.33 M108.41 53.16 C122.38 35.93, 136.87 19.66, 154.33 0.33 M113.4 53.52 C124.37 42.91, 135.87 27.93, 159.32 0.69 M113.4 53.52 C122.45 41.74, 133.34 31.57, 159.32 0.69 M119.04 53.13 C135.09 36.32, 154.2 15.07, 164.96 0.3 M119.04 53.13 C133.61 36.26, 146.52 20.77, 164.96 0.3 M124.03 53.49 C142.4 32.61, 158.19 11.87, 169.95 0.66 M124.03 53.49 C133.72 41.97, 143.51 30.06, 169.95 0.66 M129.67 53.1 C143.32 39.32, 154.66 25.81, 175.59 0.27 M129.67 53.1 C146.54 33.4, 163.13 13.62, 175.59 0.27 M134.66 53.46 C152.02 35.74, 164.06 19.85, 180.58 0.63 M134.66 53.46 C151 33.57, 170.35 12.89, 180.58 0.63 M140.3 53.06 C151.56 38.81, 166.49 23.83, 186.22 0.23 M140.3 53.06 C157.3 33.26, 173.44 14.57, 186.22 0.23 M145.29 53.42 C163.22 34.86, 175.95 15.83, 191.21 0.59 M145.29 53.42 C157.29 40.11, 169.41 26.29, 191.21 0.59 M150.93 53.03 C167.31 32.57, 187.37 12.69, 196.85 0.2 M150.93 53.03 C166.62 34.34, 182.53 17.41, 196.85 0.2 M155.92 53.39 C167.53 39.17, 181.27 21.97, 201.84 0.56 M155.92 53.39 C168.04 40.4, 178.28 28.28, 201.84 0.56 M161.56 52.99 C174.18 35.42, 189.38 20.63, 207.48 0.16 M161.56 52.99 C175.06 36.27, 189.3 19.8, 207.48 0.16 M166.55 53.35 C175.42 41.43, 185.94 30.53, 212.47 0.52 M166.55 53.35 C181.05 38.25, 194.81 21.02, 212.47 0.52 M172.19 52.96 C186.72 38.45, 199.14 20.22, 218.11 0.13 M172.19 52.96 C190.81 32.96, 208.06 12.49, 218.11 0.13 M177.18 53.32 C192.23 37.13, 204.51 22.91, 223.1 0.49 M177.18 53.32 C187.69 40.67, 198.11 29.24, 223.1 0.49 M182.82 52.92 C192.1 39.63, 204.89 25.27, 228.09 0.85 M182.82 52.92 C195.27 38.06, 209.7 22.04, 228.09 0.85 M187.81 53.28 C198.89 41.95, 207.17 26.94, 233.73 0.45 M187.81 53.28 C205.37 31.55, 223.17 10.92, 233.73 0.45 M193.45 52.89 C204.69 40.82, 211.81 30.09, 238.72 0.81 M193.45 52.89 C205.68 38.56, 217.7 25.39, 238.72 0.81 M198.44 53.25 C215.61 33.38, 232.66 10.96, 244.36 0.42 M198.44 53.25 C208.57 43.35, 218.97 30.19, 244.36 0.42 M203.42 53.61 C221.09 33.96, 235.54 18.05, 249.35 0.78 M203.42 53.61 C217.46 38.64, 230.07 22.46, 249.35 0.78 M209.07 53.21 C226.74 32.33, 241.54 14.17, 254.99 0.38 M209.07 53.21 C219.27 39.87, 231.37 29.21, 254.99 0.38 M214.05 53.57 C227.48 39.69, 241.72 24.84, 259.98 0.74 M214.05 53.57 C230.51 33.49, 245.57 15.91, 259.98 0.74 M219.7 53.18 C235.07 35.74, 250.15 18.43, 265.62 0.35 M219.7 53.18 C231.56 38.73, 244.5 22.98, 265.62 0.35 M224.68 53.54 C240.65 35.72, 259.11 13.6, 270.61 0.71 M224.68 53.54 C239.84 35.9, 254.55 20.14, 270.61 0.71 M230.33 53.14 C249.02 34.12, 265.59 10.88, 276.25 0.31 M230.33 53.14 C245.45 35.77, 259.84 20.21, 276.25 0.31 M235.32 53.5 C249.46 35.81, 265.01 19.1, 281.24 0.68 M235.32 53.5 C246.78 39.94, 259.31 25.85, 281.24 0.68 M240.96 53.11 C254.68 35.3, 269.28 16.99, 286.88 0.28 M240.96 53.11 C257.46 33.41, 274.29 15, 286.88 0.28 M245.95 53.47 C256.57 40.25, 268.31 26.6, 291.87 0.64 M245.95 53.47 C263.48 33.93, 280.08 14.13, 291.87 0.64 M251.59 53.08 C263.18 38.33, 275.23 23.95, 297.51 0.25 M251.59 53.08 C269.92 33.81, 286.78 13.2, 297.51 0.25 M256.58 53.44 C268.81 41.02, 278.21 24.77, 302.5 0.61 M256.58 53.44 C267.23 41.96, 279.26 28.98, 302.5 0.61 M262.22 53.04 C272.51 37.35, 286.08 24.49, 308.14 0.21 M262.22 53.04 C278.83 32.79, 296.82 13.13, 308.14 0.21 M267.21 53.4 C285.5 35.96, 299.83 17.19, 313.13 0.57 M267.21 53.4 C281.79 37.51, 297.64 19.64, 313.13 0.57 M272.85 53.01 C286.31 36.69, 299.3 21.16, 318.77 0.18 M272.85 53.01 C288.94 34.81, 304.92 15.81, 318.77 0.18 M277.84 53.37 C295.91 33.13, 315.15 12.01, 323.76 0.54 M277.84 53.37 C293.92 35.32, 308.84 18.29, 323.76 0.54 M283.48 52.97 C295.92 36.88, 309.66 23.4, 328.75 0.9 M283.48 52.97 C298.34 35.34, 313.61 20.26, 328.75 0.9 M288.47 53.33 C306.97 34.99, 320.47 14.24, 334.39 0.5 M288.47 53.33 C299.32 39.98, 309.75 28.55, 334.39 0.5 M294.11 52.94 C302.03 41.73, 312.27 28.28, 339.38 0.86 M294.11 52.94 C304.57 40.59, 315.8 27.54, 339.38 0.86 M299.1 53.3 C307.67 40.55, 322.26 29.21, 345.02 0.47 M299.1 53.3 C310.61 41.58, 319.95 30.37, 345.02 0.47 M304.08 53.66 C316.32 38.44, 327.64 24.76, 350.01 0.83 M304.08 53.66 C319.78 34.47, 336.47 15.32, 350.01 0.83 M309.73 53.26 C327.96 35.43, 341.76 16.76, 355.65 0.43 M309.73 53.26 C327.9 31.52, 346.5 11.72, 355.65 0.43 M314.71 53.62 C329.66 39.32, 339.33 25.32, 360.64 0.79 M314.71 53.62 C326.12 40.13, 337.19 26.44, 360.64 0.79 M320.36 53.23 C330.09 40.39, 343.88 25.92, 366.28 0.4 M320.36 53.23 C330.57 40.65, 342.73 27.13, 366.28 0.4 M325.34 53.59 C336.41 39.62, 349.8 24.75, 371.27 0.76 M325.34 53.59 C339.56 36.89, 355.38 17.87, 371.27 0.76 M330.99 53.19 C347.74 32, 366.34 13.72, 376.91 0.36 M330.99 53.19 C346.59 35.56, 361.64 18.18, 376.91 0.36 M335.97 53.55 C352.39 36.11, 365.14 20.63, 381.9 0.72 M335.97 53.55 C353.76 33.75, 372.7 12.24, 381.9 0.72 M341.62 53.16 C352.88 39.63, 367.32 22.61, 387.54 0.33 M341.62 53.16 C354.81 36.07, 369.8 19.92, 387.54 0.33 M346.6 53.52 C359.89 36.71, 374.56 18.68, 392.53 0.69 M346.6 53.52 C358.99 38.7, 370.34 23.93, 392.53 0.69 M352.25 53.13 C364.67 38.3, 381.61 20.87, 398.17 0.3 M352.25 53.13 C362.09 40.81, 373.27 29.21, 398.17 0.3 M357.23 53.49 C374.52 32.89, 392.09 10.71, 403.16 0.66 M357.23 53.49 C372.88 34.29, 388.61 16.27, 403.16 0.66 M362.88 53.09 C378.12 34.7, 392.34 19.93, 408.8 0.26 M362.88 53.09 C380.31 31.46, 398.93 10.83, 408.8 0.26 M367.86 53.45 C379.06 41.86, 390.39 29.82, 413.79 0.62 M367.86 53.45 C378.95 40.3, 389.89 28.8, 413.79 0.62 M373.51 53.06 C388.58 38.52, 399.67 20.69, 419.43 0.23 M373.51 53.06 C383.07 41.54, 392.59 30.36, 419.43 0.23 M378.49 53.42 C391.96 39.22, 403.7 24.9, 424.42 0.59 M378.49 53.42 C394.07 34.83, 410.91 15.25, 424.42 0.59 M384.14 53.02 C401.82 34.05, 419.18 12.17, 429.4 0.95 M384.14 53.02 C397.69 38.9, 409.3 23.92, 429.4 0.95 M389.12 53.38 C397.69 43.95, 406.48 30.35, 435.05 0.55 M389.12 53.38 C405.23 35.97, 420.65 18.32, 435.05 0.55 M394.77 52.99 C409.23 37.5, 425.99 16.52, 440.03 0.91 M394.77 52.99 C409.85 36.74, 422.23 21.35, 440.03 0.91 M399.75 53.35 C416.23 36.94, 429.49 18.45, 445.68 0.52 M399.75 53.35 C417.5 32.72, 433.98 14, 445.68 0.52 M404.74 53.71 C414.61 38.39, 429.42 24.59, 450.66 0.88 M404.74 53.71 C422.27 34.46, 440.22 13.33, 450.66 0.88 M410.38 53.31 C427.84 31.88, 447.14 9.81, 456.31 0.48 M410.38 53.31 C423.36 38.89, 435.71 23.02, 456.31 0.48 M415.37 53.67 C431.82 32.19, 453.22 12.03, 461.29 0.84 M415.37 53.67 C429.7 36.4, 444.5 21.24, 461.29 0.84 M421.01 53.28 C434.74 37.47, 450.2 21.2, 466.94 0.45 M421.01 53.28 C433.34 38.87, 447.32 23.58, 466.94 0.45 M426 53.64 C438.1 42.15, 448.49 27.57, 471.92 0.81 M426 53.64 C440.5 36.44, 455.44 19.64, 471.92 0.81 M431.64 53.24 C445.22 35.16, 459.64 19.38, 477.57 0.41 M431.64 53.24 C441.3 41.89, 452.14 30.64, 477.57 0.41 M436.63 53.6 C456.37 32.29, 474.36 10.57, 482.55 0.77 M436.63 53.6 C449.9 38.25, 464.89 20.33, 482.55 0.77 M442.27 53.21 C461.31 33.28, 474.18 16.24, 488.2 0.38 M442.27 53.21 C455.02 38.62, 466.04 25.57, 488.2 0.38 M447.26 53.57 C458.87 39.8, 472.27 24.78, 493.18 0.74 M447.26 53.57 C465.13 32.42, 482.44 12.88, 493.18 0.74 M452.9 53.17 C466.58 38.01, 483.86 19.96, 498.83 0.35 M452.9 53.17 C466.89 36.61, 480.03 22.45, 498.83 0.35 M457.89 53.54 C469.04 39.88, 480.27 28.12, 503.82 0.71 M457.89 53.54 C474.67 35.84, 489.75 16.45, 503.82 0.71 M463.53 53.14 C480.85 36, 498.54 13.7, 509.46 0.31 M463.53 53.14 C476.87 36.51, 490.12 22.01, 509.46 0.31 M468.52 53.5 C481.22 39.54, 493 27.27, 514.45 0.67 M468.52 53.5 C479.92 40.13, 489.15 27.79, 514.45 0.67 M474.16 53.11 C486.31 37.77, 497.84 28.06, 520.09 0.28 M474.16 53.11 C489.79 35.6, 504.06 18.37, 520.09 0.28 M479.15 53.47 C488.1 43.4, 498.94 31.49, 525.08 0.64 M479.15 53.47 C495.35 35.72, 510.35 15.98, 525.08 0.64 M484.79 53.07 C503.48 31.34, 521.38 12.85, 530.06 1 M484.79 53.07 C502.83 33.28, 520.02 14.12, 530.06 1 M489.78 53.43 C500.81 42.68, 510.27 29.92, 535.71 0.6 M489.78 53.43 C508.4 32.76, 525.11 11, 535.71 0.6 M495.42 53.04 C513.47 32.81, 531.21 13.71, 540.69 0.96 M495.42 53.04 C508.51 35.09, 523.91 18.41, 540.69 0.96 M500.41 53.4 C515.77 34.8, 531.96 14.88, 546.34 0.57 M500.41 53.4 C510.42 43.1, 518.21 30.6, 546.34 0.57 M506.05 53 C521.16 36.14, 533.15 22.99, 551.32 0.93 M506.05 53 C520.54 34.14, 536.65 15.92, 551.32 0.93 M511.04 53.36 C523.46 38.57, 532.71 29, 556.97 0.53 M511.04 53.36 C520.95 42.78, 528.79 32.49, 556.97 0.53 M516.03 53.72 C532.39 34.25, 548.74 16.06, 560.64 2.4 M516.03 53.72 C529.49 37.02, 544.72 20.46, 560.64 2.4 M521.67 53.33 C536.19 38.19, 546.32 24.23, 564.32 4.27 M521.67 53.33 C534.81 38.16, 545.88 25.59, 564.32 4.27 M526.66 53.69 C541.14 39.16, 550.19 24.55, 566.68 7.65 M526.66 53.69 C537.2 42.59, 546.78 30.22, 566.68 7.65 M532.3 53.29 C543.35 39.33, 556.17 25.43, 566.42 14.05 M532.3 53.29 C539.71 44.85, 546.2 36.54, 566.42 14.05 M537.29 53.65 C543.14 48.4, 549.19 41.07, 566.81 19.69 M537.29 53.65 C549.89 39.92, 561.51 26.61, 566.81 19.69 M542.93 53.26 C548.47 44.34, 556.44 36.06, 567.21 25.33 M542.93 53.26 C552.61 43.38, 560.44 31.81, 567.21 25.33 M547.92 53.62 C550.1 49.17, 554.16 42.84, 566.94 31.73 M547.92 53.62 C554.56 46.29, 561.69 37.08, 566.94 31.73 M553.56 53.22 C557.31 48.36, 559.72 43.38, 567.34 37.38 M553.56 53.22 C556.37 50.03, 558.47 47.12, 567.34 37.38 M559.2 52.83 C560.84 51.08, 564 47.72, 567.08 43.77 M559.2 52.83 C560.5 50.25, 562.69 48.74, 567.08 43.77" stroke="#b2f2bb" stroke-width="0.5" fill="none"></path><path d="M13.32 0 C158.83 2.56, 303.22 1.76, 553.83 0 M13.32 0 C219.59 -0.76, 425.72 -1.03, 553.83 0 M553.83 0 C560.99 1.24, 566.89 5.22, 567.15 13.32 M553.83 0 C562.25 0.93, 566.36 6.3, 567.15 13.32 M567.15 13.32 C567.3 23.52, 565.81 29.98, 567.15 39.95 M567.15 13.32 C566.95 21.46, 567.21 28.61, 567.15 39.95 M567.15 39.95 C566.94 48.57, 563.03 51.44, 553.83 53.27 M567.15 39.95 C565.69 50.23, 564.79 55.51, 553.83 53.27 M553.83 53.27 C339.29 52.06, 125.64 52.84, 13.32 53.27 M553.83 53.27 C417.22 52.13, 280.96 52.13, 13.32 53.27 M13.32 53.27 C4.41 53, -0.16 49.6, 0 39.95 M13.32 53.27 C6.67 52.96, -1.35 49.99, 0 39.95 M0 39.95 C0 30.6, 1.78 24.88, 0 13.32 M0 39.95 C0.41 34.91, -0.72 29.33, 0 13.32 M0 13.32 C1.4 5.76, 4.85 0.51, 13.32 0 M0 13.32 C1.94 2.46, 6.71 -1.26, 13.32 0" stroke="#1e1e1e" stroke-width="1" fill="none"></path></g><g stroke-linecap="round" transform="translate(714.7013223338563 553.1229483522159) rotate(0 283.5738611076747 26.634009054311946)"><path d="M3.54 3.08 C3.54 3.08, 3.54 3.08, 3.54 3.08 M3.54 3.08 C3.54 3.08, 3.54 3.08, 3.54 3.08 M0 13.25 C2.27 9.48, 5.8 6.76, 11.16 0.42 M0 13.25 C2.38 9.49, 5.5 5.79, 11.16 0.42 M1.05 18.14 C5.63 12.63, 9.53 9.29, 16.14 0.78 M1.05 18.14 C6.18 11.38, 12.44 6.32, 16.14 0.78 M0.79 24.54 C10.87 14.64, 15.56 6.69, 21.79 0.39 M0.79 24.54 C8.16 16.5, 14.64 8.48, 21.79 0.39 M1.19 30.18 C5.76 21.21, 13.01 15.02, 26.77 0.75 M1.19 30.18 C7.08 23.05, 13.82 14.9, 26.77 0.75 M1.58 35.83 C10.1 27.93, 19.91 15.64, 32.42 0.35 M1.58 35.83 C11.62 23.57, 24.13 10.83, 32.42 0.35 M1.32 42.22 C16.65 28.51, 28.45 11.65, 37.4 0.71 M1.32 42.22 C9.48 31.68, 20.09 23.02, 37.4 0.71 M1.71 47.87 C10.97 37.44, 20.67 25.95, 43.05 0.32 M1.71 47.87 C12.76 36.23, 23 24.01, 43.05 0.32 M4.73 50.49 C17.87 32.77, 32.94 17.21, 48.03 0.68 M4.73 50.49 C22.06 30.39, 39.24 11.94, 48.03 0.68 M8.41 52.36 C19.03 41.01, 29.94 28.87, 53.68 0.28 M8.41 52.36 C26.35 33.22, 43.55 13.53, 53.68 0.28 M12.74 53.47 C21.63 41.39, 32.89 28.78, 58.66 0.64 M12.74 53.47 C21.83 43.07, 31.71 31.61, 58.66 0.64 M18.38 53.08 C36.09 34.3, 54.01 14.39, 64.31 0.25 M18.38 53.08 C28.95 41.97, 38.15 30.42, 64.31 0.25 M23.37 53.44 C38.33 37.6, 52.53 17.18, 69.29 0.61 M23.37 53.44 C38.89 37.05, 52.76 19.93, 69.29 0.61 M29.01 53.05 C45.85 35.12, 62.07 16.44, 74.94 0.22 M29.01 53.05 C39.09 42.07, 47.33 31.19, 74.94 0.22 M34 53.41 C50.88 33.66, 66.78 16.34, 79.92 0.58 M34 53.41 C44.84 41.11, 54.73 28.36, 79.92 0.58 M39.64 53.01 C51.07 40.27, 63.69 24.39, 85.57 0.18 M39.64 53.01 C55.57 35.18, 71.32 16.34, 85.57 0.18 M44.63 53.37 C59.08 37.5, 70.16 23.47, 90.55 0.54 M44.63 53.37 C53.43 42.01, 64.05 31.36, 90.55 0.54 M50.27 52.98 C67.56 35.97, 82.63 18.43, 96.2 0.15 M50.27 52.98 C66.86 34.18, 83.18 13.93, 96.2 0.15 M55.26 53.34 C67.6 40.03, 76.98 30.57, 101.18 0.51 M55.26 53.34 C69.86 36.22, 86.28 18.44, 101.18 0.51 M60.9 52.94 C77 33.3, 93.63 13.76, 106.83 0.11 M60.9 52.94 C76.47 34.71, 93.36 14.33, 106.83 0.11 M65.89 53.3 C78.95 40.82, 88.63 26, 111.81 0.47 M65.89 53.3 C79.68 37.78, 93.26 23.86, 111.81 0.47 M71.53 52.91 C89.36 32.12, 104.72 11.87, 116.8 0.83 M71.53 52.91 C88.47 34.03, 105.18 13.22, 116.8 0.83 M76.52 53.27 C91.35 36.04, 103.94 21.1, 122.44 0.44 M76.52 53.27 C94.63 34.72, 109.41 14.95, 122.44 0.44 M82.16 52.87 C96.73 35.65, 110.34 21.71, 127.43 0.8 M82.16 52.87 C91.04 41.8, 99.72 30.94, 127.43 0.8 M87.15 53.23 C98.75 38.52, 110.7 27.61, 133.07 0.4 M87.15 53.23 C97.52 40.49, 106.98 30.21, 133.07 0.4 M92.14 53.59 C106.37 36.27, 124.69 19.38, 138.06 0.76 M92.14 53.59 C101.09 43.14, 112 30.16, 138.06 0.76 M97.78 53.2 C112.33 35.67, 130.05 17.05, 143.7 0.37 M97.78 53.2 C114.86 33.93, 133.49 12.07, 143.7 0.37 M102.77 53.56 C115.21 35.53, 129.67 22.04, 148.69 0.73 M102.77 53.56 C114.85 38.64, 128.12 24.59, 148.69 0.73 M108.41 53.16 C122.52 40.67, 133.21 23.59, 154.33 0.33 M108.41 53.16 C122.59 37.37, 136.26 23.3, 154.33 0.33 M113.4 53.52 C132.59 33.69, 149.47 14.08, 159.32 0.69 M113.4 53.52 C124.61 39.05, 137.1 27.22, 159.32 0.69 M119.04 53.13 C134.18 35.62, 151.16 16.98, 164.96 0.3 M119.04 53.13 C131.27 39.63, 144.85 23.7, 164.96 0.3 M124.03 53.49 C138.07 35.83, 156.56 16.58, 169.95 0.66 M124.03 53.49 C139.13 35.3, 154.68 16.91, 169.95 0.66 M129.67 53.1 C144.46 38.25, 158 19.46, 175.59 0.27 M129.67 53.1 C148.95 32.7, 165.37 10.87, 175.59 0.27 M134.66 53.46 C148.02 40.46, 157.48 25.22, 180.58 0.63 M134.66 53.46 C149.53 35.86, 163.12 20.61, 180.58 0.63 M140.3 53.06 C155.77 37.18, 165.22 21.39, 186.22 0.23 M140.3 53.06 C156.94 33.43, 173.72 13.14, 186.22 0.23 M145.29 53.42 C161.01 35.84, 177.68 15.9, 191.21 0.59 M145.29 53.42 C156.76 41.6, 166.89 27.29, 191.21 0.59 M150.93 53.03 C164.11 39.19, 179.11 23.02, 196.85 0.2 M150.93 53.03 C163.7 39.04, 175.57 24.18, 196.85 0.2 M155.92 53.39 C170.78 35.63, 187.44 14.86, 201.84 0.56 M155.92 53.39 C166.61 42.01, 175.85 29.89, 201.84 0.56 M161.56 52.99 C176.38 38.18, 190.61 22.07, 207.48 0.16 M161.56 52.99 C171.23 41.72, 181 31.38, 207.48 0.16 M166.55 53.35 C180.45 39.27, 191.11 24.56, 212.47 0.52 M166.55 53.35 C176.46 42.26, 187.44 29.77, 212.47 0.52 M172.19 52.96 C187.3 32.88, 204.89 14.26, 218.11 0.13 M172.19 52.96 C184.39 39.15, 197.26 25.7, 218.11 0.13 M177.18 53.32 C192.78 33.93, 211.12 13.84, 223.1 0.49 M177.18 53.32 C188.26 39.79, 200.25 27.97, 223.1 0.49 M182.82 52.92 C197.12 38.33, 209.03 20.78, 228.09 0.85 M182.82 52.92 C200.21 35.44, 215.16 16.09, 228.09 0.85 M187.81 53.28 C205.34 32.39, 224.64 13.88, 233.73 0.45 M187.81 53.28 C203.84 34.45, 221.88 14.06, 233.73 0.45 M193.45 52.89 C212.78 31.24, 230.05 11.91, 238.72 0.81 M193.45 52.89 C210.08 34.78, 224.89 14.92, 238.72 0.81 M198.44 53.25 C216.35 30.84, 235.95 13.89, 244.36 0.42 M198.44 53.25 C211.31 39.29, 224.47 25.39, 244.36 0.42 M203.42 53.61 C220.67 34.36, 236.55 18.19, 249.35 0.78 M203.42 53.61 C212.06 43.11, 221.72 31.55, 249.35 0.78 M209.07 53.21 C220.17 41.92, 227.75 31.18, 254.99 0.38 M209.07 53.21 C226.1 35.15, 242.16 15.51, 254.99 0.38 M214.05 53.57 C226.73 39.03, 240.6 23.65, 259.98 0.74 M214.05 53.57 C231.92 34.85, 247.95 14.72, 259.98 0.74 M219.7 53.18 C233 36.4, 244.22 21.22, 265.62 0.35 M219.7 53.18 C229.71 41.38, 238.98 30.17, 265.62 0.35 M224.68 53.54 C239.53 35.7, 255.56 16.86, 270.61 0.71 M224.68 53.54 C240.83 33.28, 258.95 14.88, 270.61 0.71 M230.33 53.14 C248.81 31.2, 267.23 10.37, 276.25 0.31 M230.33 53.14 C245.99 36.24, 261.24 17.89, 276.25 0.31 M235.32 53.5 C246.56 37.27, 261.44 23.4, 281.24 0.68 M235.32 53.5 C249.75 37.03, 263.48 22.44, 281.24 0.68 M240.96 53.11 C254.8 38.3, 267.98 19.84, 286.88 0.28 M240.96 53.11 C259.79 31.56, 278.09 12.47, 286.88 0.28 M245.95 53.47 C258.43 40.45, 273.52 25.92, 291.87 0.64 M245.95 53.47 C259.32 37.69, 272.85 21.51, 291.87 0.64 M251.59 53.08 C269.15 34.64, 283.65 17.12, 297.51 0.25 M251.59 53.08 C261.84 40.67, 271.68 29.32, 297.51 0.25 M256.58 53.44 C273.51 33.37, 292.03 14.17, 302.5 0.61 M256.58 53.44 C266.57 40.78, 277.82 28.79, 302.5 0.61 M262.22 53.04 C274.66 39.55, 284.61 27.57, 308.14 0.21 M262.22 53.04 C281.21 31.63, 297.85 11.74, 308.14 0.21 M267.21 53.4 C284.89 32.56, 304.49 11.31, 313.13 0.57 M267.21 53.4 C278.56 40.19, 291.27 27.56, 313.13 0.57 M272.85 53.01 C284.07 39.5, 298.16 25.01, 318.77 0.18 M272.85 53.01 C282.45 42.88, 292.79 31.49, 318.77 0.18 M277.84 53.37 C287.39 41.59, 294.57 32.59, 323.76 0.54 M277.84 53.37 C287.67 40.83, 298.48 28.73, 323.76 0.54 M283.48 52.97 C298.87 37.04, 313.88 20.5, 328.75 0.9 M283.48 52.97 C301.86 32.49, 319.03 13.74, 328.75 0.9 M288.47 53.33 C302.28 37.84, 313.69 25.84, 334.39 0.5 M288.47 53.33 C302.33 35.07, 318.82 18.88, 334.39 0.5 M294.11 52.94 C313.54 34.28, 327.58 14.46, 339.38 0.86 M294.11 52.94 C309.08 37.84, 322.14 22.11, 339.38 0.86 M299.1 53.3 C313.93 38.15, 330.03 17.71, 345.02 0.47 M299.1 53.3 C309.23 42.52, 317.83 31.06, 345.02 0.47 M304.08 53.66 C315.81 40.58, 330.98 25.18, 350.01 0.83 M304.08 53.66 C321.92 33.27, 339.63 14.61, 350.01 0.83 M309.73 53.26 C322.79 40.47, 334.76 23.77, 355.65 0.43 M309.73 53.26 C320.28 40.4, 330.71 28.93, 355.65 0.43 M314.71 53.62 C322.38 43.67, 333.92 33.97, 360.64 0.79 M314.71 53.62 C330.04 37.75, 343.11 20.46, 360.64 0.79 M320.36 53.23 C333.26 40.11, 346.63 23.57, 366.28 0.4 M320.36 53.23 C333.65 37.29, 346.81 22.79, 366.28 0.4 M325.34 53.59 C339.1 38.07, 352.29 23.84, 371.27 0.76 M325.34 53.59 C335.78 40.83, 346.33 31.16, 371.27 0.76 M330.99 53.19 C344.51 36.83, 359.7 22, 376.91 0.36 M330.99 53.19 C346.38 36.61, 361.21 18.49, 376.91 0.36 M335.97 53.55 C346.07 40.89, 361.09 26.78, 381.9 0.72 M335.97 53.55 C348.62 37.97, 363.18 22.44, 381.9 0.72 M341.62 53.16 C361.44 30.29, 376.17 13.04, 387.54 0.33 M341.62 53.16 C352 41.44, 363.78 27.61, 387.54 0.33 M346.6 53.52 C359.27 40.96, 369.61 29.2, 392.53 0.69 M346.6 53.52 C362.49 35.05, 380.17 15.05, 392.53 0.69 M352.25 53.13 C368.74 35.35, 382.61 18.79, 398.17 0.3 M352.25 53.13 C369.28 33.43, 386.85 13.98, 398.17 0.3 M357.23 53.49 C368.77 40.7, 384.79 24.09, 403.16 0.66 M357.23 53.49 C371.99 37.3, 387.66 19.18, 403.16 0.66 M362.88 53.09 C378.19 33.97, 397.4 12.48, 408.8 0.26 M362.88 53.09 C372.74 41.11, 384.04 28.6, 408.8 0.26 M367.86 53.45 C377.81 41.96, 389.55 26.23, 413.79 0.62 M367.86 53.45 C381.58 38.37, 393.63 22.31, 413.79 0.62 M373.51 53.06 C389.2 30.8, 410 13.52, 419.43 0.23 M373.51 53.06 C389.7 33.88, 406.55 15.29, 419.43 0.23 M378.49 53.42 C391.36 35.03, 406.45 18.75, 424.42 0.59 M378.49 53.42 C392.53 38.13, 404.85 22.86, 424.42 0.59 M384.14 53.02 C397.72 38.6, 408.57 22.8, 429.4 0.95 M384.14 53.02 C395.89 39.85, 406.21 25.69, 429.4 0.95 M389.12 53.38 C406.37 35.31, 423.7 14.77, 435.05 0.55 M389.12 53.38 C404.44 35.47, 418.97 19.63, 435.05 0.55 M394.77 52.99 C410.47 36.49, 428.7 16.23, 440.03 0.91 M394.77 52.99 C409.21 36.94, 421.07 23.15, 440.03 0.91 M399.75 53.35 C411.09 40.24, 425.49 23.95, 445.68 0.52 M399.75 53.35 C414.87 37.29, 429.6 20.21, 445.68 0.52 M404.74 53.71 C421.65 33.95, 440.11 13.14, 450.66 0.88 M404.74 53.71 C421.68 34.01, 438.98 15.48, 450.66 0.88 M410.38 53.31 C420.42 42.56, 431.94 32.41, 456.31 0.48 M410.38 53.31 C429.02 32.05, 447.75 12.52, 456.31 0.48 M415.37 53.67 C429.77 39.2, 439.16 24.14, 461.29 0.84 M415.37 53.67 C426.55 41.39, 436.22 29.84, 461.29 0.84 M421.01 53.28 C436.45 37.74, 449.84 22.08, 466.94 0.45 M421.01 53.28 C438.52 33.88, 453.64 15.48, 466.94 0.45 M426 53.64 C437.18 38.29, 450.28 23.44, 471.92 0.81 M426 53.64 C434.83 42.96, 443.26 32.61, 471.92 0.81 M431.64 53.24 C444.4 39.01, 454.78 25.53, 477.57 0.41 M431.64 53.24 C444.04 40.27, 456.31 26.19, 477.57 0.41 M436.63 53.6 C452.31 34.15, 468.41 15.28, 482.55 0.77 M436.63 53.6 C448.37 41.84, 457.74 29.54, 482.55 0.77 M442.27 53.21 C455.14 37.75, 467.08 22.83, 488.2 0.38 M442.27 53.21 C451.78 43.3, 459.45 32.48, 488.2 0.38 M447.26 53.57 C466.26 33.1, 484.34 11.05, 493.18 0.74 M447.26 53.57 C458.6 39.91, 469.1 27.2, 493.18 0.74 M452.9 53.17 C464.57 39.37, 477.76 28.97, 498.83 0.35 M452.9 53.17 C467.9 37.27, 481.31 19.81, 498.83 0.35 M457.89 53.54 C476.1 31.84, 493.77 12.32, 503.82 0.71 M457.89 53.54 C466.84 42.61, 477.59 32.46, 503.82 0.71 M463.53 53.14 C480.22 34.63, 495.37 16.19, 509.46 0.31 M463.53 53.14 C474.62 42.26, 483.83 29.27, 509.46 0.31 M468.52 53.5 C480.71 39.42, 491.42 24.69, 514.45 0.67 M468.52 53.5 C477.99 41.55, 488.49 29.93, 514.45 0.67 M474.16 53.11 C493.58 35.38, 510.11 14.75, 520.09 0.28 M474.16 53.11 C490.54 34.66, 506.61 15.42, 520.09 0.28 M479.15 53.47 C492.02 35.75, 509.17 21.92, 525.08 0.64 M479.15 53.47 C490.77 40.64, 502.56 27.79, 525.08 0.64 M484.79 53.07 C498.45 39.74, 506.95 27.83, 530.06 1 M484.79 53.07 C497.09 39.05, 509.16 26.13, 530.06 1 M489.78 53.43 C502.44 39.13, 514.27 24.96, 535.71 0.6 M489.78 53.43 C500.36 41.47, 509.32 29.99, 535.71 0.6 M495.42 53.04 C513.77 34.03, 526.93 16.91, 540.69 0.96 M495.42 53.04 C506.58 41.22, 517.7 29.07, 540.69 0.96 M500.41 53.4 C511.34 38.76, 525 22.94, 546.34 0.57 M500.41 53.4 C514.96 37.51, 529.35 20.57, 546.34 0.57 M506.05 53 C520.93 32.29, 537.15 16.33, 551.32 0.93 M506.05 53 C522.09 35.57, 537.39 16.48, 551.32 0.93 M511.04 53.36 C528.1 37.1, 542.89 17.91, 556.97 0.53 M511.04 53.36 C523 42.32, 533.38 28.84, 556.97 0.53 M516.03 53.72 C531.02 34.32, 548.61 17.1, 560.64 2.4 M516.03 53.72 C525.85 43.63, 535.14 31.86, 560.64 2.4 M521.67 53.33 C530.74 43.9, 538.04 32.99, 564.32 4.27 M521.67 53.33 C535.96 35.72, 552.41 18.82, 564.32 4.27 M526.66 53.69 C539.57 39.29, 555.33 19.65, 566.68 7.65 M526.66 53.69 C540.46 36.64, 556.13 18.57, 566.68 7.65 M532.3 53.29 C542.68 39.72, 554.52 25.03, 566.42 14.05 M532.3 53.29 C540.42 44.91, 548.22 35.79, 566.42 14.05 M537.29 53.65 C542.86 44.18, 549.71 37.39, 566.81 19.69 M537.29 53.65 C548.13 41.49, 559.7 29.67, 566.81 19.69 M542.93 53.26 C552.29 41.91, 558.57 31.52, 567.21 25.33 M542.93 53.26 C553.51 42.07, 562.8 31.81, 567.21 25.33 M547.92 53.62 C552.99 45.46, 557.98 38.42, 566.94 31.73 M547.92 53.62 C551.88 48.01, 556.95 43.94, 566.94 31.73 M553.56 53.22 C557.88 46.78, 565.36 42.99, 567.34 37.38 M553.56 53.22 C559.77 46.33, 564.09 41.12, 567.34 37.38 M559.2 52.83 C561.21 51.64, 563.67 48.57, 567.08 43.77 M559.2 52.83 C561.32 51.09, 562.83 49.84, 567.08 43.77" stroke="#ffc9c9" stroke-width="0.5" fill="none"></path><path d="M13.32 0 C165.85 0.21, 317.63 -0.5, 553.83 0 M13.32 0 C148.01 -2.07, 282.49 -2.19, 553.83 0 M553.83 0 C562.67 -0.95, 566.7 4.01, 567.15 13.32 M553.83 0 C564.92 -0.6, 569.05 3.66, 567.15 13.32 M567.15 13.32 C568.16 22.57, 567.96 31.12, 567.15 39.95 M567.15 13.32 C567.97 22.13, 566.29 31.98, 567.15 39.95 M567.15 39.95 C568.83 50.24, 562.02 51.41, 553.83 53.27 M567.15 39.95 C567.73 50.64, 562.4 52.63, 553.83 53.27 M553.83 53.27 C426.04 51.89, 298.08 52, 13.32 53.27 M553.83 53.27 C417.53 54.21, 281.54 54.34, 13.32 53.27 M13.32 53.27 C5.23 53.86, 1.92 49.06, 0 39.95 M13.32 53.27 C2.63 53.11, -0.99 47.68, 0 39.95 M0 39.95 C0.52 30.77, 1.78 18.88, 0 13.32 M0 39.95 C0.47 31.81, 0.7 23.46, 0 13.32 M0 13.32 C-0.83 4.57, 3.28 0.13, 13.32 0 M0 13.32 C1.83 3.95, 3.3 0.36, 13.32 0" stroke="#1e1e1e" stroke-width="1" fill="none"></path></g><g transform="translate(405.11468285155433 660.9394301996408) rotate(0 31.65399169921875 17.5)"><text x="0" y="0" font-family="Virgil, Segoe UI Emoji" font-size="28px" fill="#1e1e1e" text-anchor="start" style="white-space: pre;" direction="ltr" dominant-baseline="text-before-edge">0.35</text></g><g transform="translate(10 664.4487187055558) rotate(0 9.631996154785156 17.5)"><text x="0" y="0" font-family="Virgil, Segoe UI Emoji" font-size="28px" fill="#1e1e1e" text-anchor="start" style="white-space: pre;" direction="ltr" dominant-baseline="text-before-edge">0</text></g><g transform="translate(1271.5700173934379 653.9440744525982) rotate(0 7 35)"><text x="0" y="0" font-family="Virgil, Segoe UI Emoji" font-size="28px" fill="#1e1e1e" text-anchor="start" style="white-space: pre;" direction="ltr" dominant-baseline="text-before-edge">1</text><text x="0" y="35" font-family="Virgil, Segoe UI Emoji" font-size="28px" fill="#1e1e1e" text-anchor="start" style="white-space: pre;" direction="ltr" dominant-baseline="text-before-edge"></text></g></svg>