<svg version="1.1" xmlns="http://www.w3.org/2000/svg" viewBox="0 0 1468.3470054722031 736.89289852417" width="1468.3470054722031" height="736.89289852417" filter="invert(93%) hue-rotate(180deg)">
  <!-- svg-source:excalidraw -->
  
  <defs>
    <style class="style-fonts">
      @font-face {
        font-family: "Virgil";
        src: url("https://excalidraw.com/Virgil.woff2");
      }
      @font-face {
        font-family: "Cascadia";
        src: url("https://excalidraw.com/Cascadia.woff2");
      }
      @font-face {
        font-family: "Assistant";
        src: url("https://excalidraw.com/Assistant-Regular.woff2");
      }
    </style>
    
  </defs>
  <g stroke-linecap="round" transform="translate(198.0128882921706 404.18053729045255) rotate(0 256.1564988458831 26.634009054311946)"><path d="M3.54 3.08 C3.54 3.08, 3.54 3.08, 3.54 3.08 M3.54 3.08 C3.54 3.08, 3.54 3.08, 3.54 3.08 M0 13.25 C2.63 10.01, 4.04 8.3, 11.16 0.42 M0 13.25 C2.67 10.67, 5.87 7.18, 11.16 0.42 M1.05 18.14 C2.73 15.01, 6.51 11.14, 16.14 0.78 M1.05 18.14 C6.34 12.28, 10.87 7.99, 16.14 0.78 M0.79 24.54 C7 15.81, 16.02 7.31, 21.79 0.39 M0.79 24.54 C9.63 15.32, 16.07 5.32, 21.79 0.39 M1.19 30.18 C9.42 21.75, 19.29 10.69, 26.77 0.75 M1.19 30.18 C7.81 22.31, 14.98 14.36, 26.77 0.75 M1.58 35.83 C10.93 27.5, 20.69 15.73, 32.42 0.35 M1.58 35.83 C7.97 28.52, 15.61 21.3, 32.42 0.35 M1.32 42.22 C14.61 27.92, 24.32 14, 37.4 0.71 M1.32 42.22 C11.75 30.38, 21.09 19.57, 37.4 0.71 M1.71 47.87 C11.72 35, 23.31 22.59, 43.05 0.32 M1.71 47.87 C8.88 37.95, 19.08 28.05, 43.05 0.32 M4.73 50.49 C14.7 38.24, 23.21 29.25, 48.03 0.68 M4.73 50.49 C17.95 36.49, 30.29 22.42, 48.03 0.68 M8.41 52.36 C18.52 38.45, 31 25.91, 53.68 0.28 M8.41 52.36 C23.36 34.77, 38.06 18.14, 53.68 0.28 M12.74 53.47 C28.14 32.19, 46.26 17.11, 58.66 0.64 M12.74 53.47 C25.91 37.84, 37.79 24.92, 58.66 0.64 M18.38 53.08 C32.39 37.24, 48.78 16.49, 64.31 0.25 M18.38 53.08 C33.48 35.8, 47.09 19.55, 64.31 0.25 M23.37 53.44 C40.27 34.17, 59.13 11.97, 69.29 0.61 M23.37 53.44 C33.79 40.12, 44.79 27.76, 69.29 0.61 M29.01 53.05 C36.39 42.96, 49.26 29.83, 74.94 0.22 M29.01 53.05 C40.05 40.15, 53.09 24.9, 74.94 0.22 M34 53.41 C49.85 36.59, 64.44 17.56, 79.92 0.58 M34 53.41 C50.29 36.23, 64.86 17.95, 79.92 0.58 M39.64 53.01 C52.97 39.92, 63.58 26.68, 85.57 0.18 M39.64 53.01 C50.55 41.92, 60.1 29.35, 85.57 0.18 M44.63 53.37 C58.44 37.16, 72.81 21.97, 90.55 0.54 M44.63 53.37 C59.31 34.85, 76.47 17.04, 90.55 0.54 M50.27 52.98 C68.81 33.27, 84.08 11.06, 96.2 0.15 M50.27 52.98 C67.53 32, 84.21 13.25, 96.2 0.15 M55.26 53.34 C72.74 33.56, 90.38 14.38, 101.18 0.51 M55.26 53.34 C66.76 39.63, 79.6 27.07, 101.18 0.51 M60.9 52.94 C77.01 36.89, 88.38 22.03, 106.83 0.11 M60.9 52.94 C74.82 38.17, 87.78 22.92, 106.83 0.11 M65.89 53.3 C77.58 40.57, 88.86 28.63, 111.81 0.47 M65.89 53.3 C77.21 39.52, 90.9 25.56, 111.81 0.47 M71.53 52.91 C82.06 39.62, 92.43 27.1, 116.8 0.83 M71.53 52.91 C81.28 41.06, 90.8 30.16, 116.8 0.83 M76.52 53.27 C88.42 40.93, 100.48 27.9, 122.44 0.44 M76.52 53.27 C90.88 37.55, 105.82 18.77, 122.44 0.44 M82.16 52.87 C93.24 40.28, 104.24 25.64, 127.43 0.8 M82.16 52.87 C92.86 39.65, 104.13 28.6, 127.43 0.8 M87.15 53.23 C105.19 35.42, 121.34 16.97, 133.07 0.4 M87.15 53.23 C99.45 40.12, 110.89 27.63, 133.07 0.4 M92.14 53.59 C108.16 36.35, 123.42 16.95, 138.06 0.76 M92.14 53.59 C107.08 34.9, 123.98 16.83, 138.06 0.76 M97.78 53.2 C115.33 34.4, 132.29 13.88, 143.7 0.37 M97.78 53.2 C115.81 31.44, 133.73 11.28, 143.7 0.37 M102.77 53.56 C118.12 38.91, 133.79 20.75, 148.69 0.73 M102.77 53.56 C115.7 37.51, 129.77 23.58, 148.69 0.73 M108.41 53.16 C122.55 37.36, 133.38 25.64, 154.33 0.33 M108.41 53.16 C126.88 32.78, 144.09 10.94, 154.33 0.33 M113.4 53.52 C127.56 38.39, 138.63 19.4, 159.32 0.69 M113.4 53.52 C129.02 35.3, 145.52 15.17, 159.32 0.69 M119.04 53.13 C135.39 37.17, 149.05 19.19, 164.96 0.3 M119.04 53.13 C137.73 32.33, 155.72 11.09, 164.96 0.3 M124.03 53.49 C134.76 40.71, 149.82 25.3, 169.95 0.66 M124.03 53.49 C135.07 40.4, 145.84 29.5, 169.95 0.66 M129.67 53.1 C143.94 37.65, 160.7 19.97, 175.59 0.27 M129.67 53.1 C139.82 41.24, 151.24 29.14, 175.59 0.27 M134.66 53.46 C146.15 40.35, 156.04 25.86, 180.58 0.63 M134.66 53.46 C148.13 37.48, 162.27 23.44, 180.58 0.63 M140.3 53.06 C150.16 42.59, 159.98 30.49, 186.22 0.23 M140.3 53.06 C150.79 39.45, 161.28 27.58, 186.22 0.23 M145.29 53.42 C155.61 43.84, 164.34 30.89, 191.21 0.59 M145.29 53.42 C158.67 36.22, 173.6 20.02, 191.21 0.59 M150.93 53.03 C165.22 38.33, 175.91 25.08, 196.85 0.2 M150.93 53.03 C163.57 38.27, 177.08 24.81, 196.85 0.2 M155.92 53.39 C172.47 35.39, 187.05 15.76, 201.84 0.56 M155.92 53.39 C173.13 33.08, 190.91 12.58, 201.84 0.56 M161.56 52.99 C171.57 40.98, 183.57 28.7, 207.48 0.16 M161.56 52.99 C174.68 38.33, 186.94 21.97, 207.48 0.16 M166.55 53.35 C178.94 35.76, 193.88 19.91, 212.47 0.52 M166.55 53.35 C184.41 33.31, 201.15 13.25, 212.47 0.52 M172.19 52.96 C181.78 42.33, 192.19 27.38, 217.46 0.88 M172.19 52.96 C186.45 36.91, 199.62 19.93, 217.46 0.88 M177.18 53.32 C188.99 39.63, 201.39 25.97, 223.1 0.49 M177.18 53.32 C191.26 37.5, 206.26 19.65, 223.1 0.49 M182.82 52.92 C193.45 37.41, 205.65 25.59, 228.09 0.85 M182.82 52.92 C197.27 37.39, 212.83 18.98, 228.09 0.85 M187.81 53.28 C198.81 40.15, 207.22 29.44, 233.73 0.45 M187.81 53.28 C203.23 34.82, 218.77 16.81, 233.73 0.45 M193.45 52.89 C207.62 40.13, 216.64 25.59, 238.72 0.81 M193.45 52.89 C209.68 34.65, 224.69 18.39, 238.72 0.81 M198.44 53.25 C212.94 37.52, 226.03 23.29, 244.36 0.42 M198.44 53.25 C216.33 34, 232.42 14.59, 244.36 0.42 M203.42 53.61 C219.88 38.03, 235.07 19.99, 249.35 0.78 M203.42 53.61 C217.68 36.21, 233.49 17.64, 249.35 0.78 M209.07 53.21 C217.96 42.85, 232.24 28.33, 254.99 0.38 M209.07 53.21 C223.24 38.91, 236.22 23.41, 254.99 0.38 M214.05 53.57 C225.91 41.42, 238.99 25.79, 259.98 0.74 M214.05 53.57 C231.39 34.04, 247.82 16.2, 259.98 0.74 M219.7 53.18 C233.33 37.43, 248.17 20.9, 265.62 0.35 M219.7 53.18 C233.55 37.44, 246.44 23.3, 265.62 0.35 M224.68 53.54 C241.16 34.87, 255.52 17.63, 270.61 0.71 M224.68 53.54 C242.04 33.08, 258.34 13.84, 270.61 0.71 M230.33 53.14 C249.37 32.26, 264.72 11.91, 276.25 0.31 M230.33 53.14 C247.56 33.96, 265.44 14.7, 276.25 0.31 M235.32 53.5 C243.83 43.96, 256.55 29.44, 281.24 0.68 M235.32 53.5 C245.08 42.24, 255.38 29.83, 281.24 0.68 M240.96 53.11 C253.71 36.23, 269.58 23.24, 286.88 0.28 M240.96 53.11 C250.67 41.45, 261.49 29.98, 286.88 0.28 M245.95 53.47 C255.51 38.5, 271.32 24.82, 291.87 0.64 M245.95 53.47 C258.96 38.24, 272.11 23.66, 291.87 0.64 M251.59 53.08 C263.71 38.89, 278.61 24.04, 297.51 0.25 M251.59 53.08 C265.98 34.89, 281.83 16.63, 297.51 0.25 M256.58 53.44 C272.41 32.23, 291.09 14.81, 302.5 0.61 M256.58 53.44 C274.51 33.2, 293.38 10.68, 302.5 0.61 M262.22 53.04 C275.79 38.84, 289.05 20.12, 308.14 0.21 M262.22 53.04 C277.31 35.4, 291.71 19.27, 308.14 0.21 M267.21 53.4 C281.2 37.35, 298.74 20.62, 313.13 0.57 M267.21 53.4 C281.98 35.84, 297.76 16.92, 313.13 0.57 M272.85 53.01 C289.73 33.73, 305.55 16.12, 318.77 0.18 M272.85 53.01 C290.75 32.47, 306.74 12.59, 318.77 0.18 M277.84 53.37 C292.93 38.81, 305.73 21.47, 323.76 0.54 M277.84 53.37 C294.99 32.72, 312.38 13.85, 323.76 0.54 M283.48 52.97 C296.31 38.07, 311.07 22.77, 328.75 0.9 M283.48 52.97 C292.54 43.13, 302.16 30.82, 328.75 0.9 M288.47 53.33 C303.24 36.97, 317.25 19.68, 334.39 0.5 M288.47 53.33 C301.16 39.8, 312.34 25.56, 334.39 0.5 M294.11 52.94 C306.56 36.96, 322.65 21.98, 339.38 0.86 M294.11 52.94 C307.52 36.73, 321.49 19.26, 339.38 0.86 M299.1 53.3 C315.68 33.12, 332.21 16.91, 345.02 0.47 M299.1 53.3 C310.4 38.85, 324.22 25.6, 345.02 0.47 M304.08 53.66 C312.35 44.79, 324.08 32.95, 350.01 0.83 M304.08 53.66 C318.98 37.53, 331.9 23.09, 350.01 0.83 M309.73 53.26 C326.37 33.81, 339.26 15.75, 355.65 0.43 M309.73 53.26 C327.02 34.82, 344.09 15.3, 355.65 0.43 M314.71 53.62 C327.1 35.17, 342.78 21.19, 360.64 0.79 M314.71 53.62 C330.44 33.95, 348.27 14.16, 360.64 0.79 M320.36 53.23 C332.51 39.03, 347.11 20.09, 366.28 0.4 M320.36 53.23 C331.66 41.5, 340.91 30.76, 366.28 0.4 M325.34 53.59 C343.48 33.65, 363.08 13.67, 371.27 0.76 M325.34 53.59 C336.68 39.97, 347 28.93, 371.27 0.76 M330.99 53.19 C347.21 33.64, 362.74 15.79, 376.91 0.36 M330.99 53.19 C341.43 41.01, 351.03 30.19, 376.91 0.36 M335.97 53.55 C348.09 37.55, 363.16 21.1, 381.9 0.72 M335.97 53.55 C345.99 43.31, 355.93 31.53, 381.9 0.72 M341.62 53.16 C350.98 42.39, 363.95 28.14, 387.54 0.33 M341.62 53.16 C350.48 42.89, 361.22 31.71, 387.54 0.33 M346.6 53.52 C364.38 35.88, 377.06 15.25, 392.53 0.69 M346.6 53.52 C360.04 37.51, 375.1 21.22, 392.53 0.69 M352.25 53.13 C363.75 38.27, 377.89 24.1, 398.17 0.3 M352.25 53.13 C370.18 33.22, 388.1 12.89, 398.17 0.3 M357.23 53.49 C374.57 33.34, 390.12 18.99, 403.16 0.66 M357.23 53.49 C372.11 36.62, 387.51 19.71, 403.16 0.66 M362.88 53.09 C371.72 43.82, 380.19 30.27, 408.8 0.26 M362.88 53.09 C373.7 42.98, 382.21 31.25, 408.8 0.26 M367.86 53.45 C385.34 35.94, 402.02 16.49, 413.79 0.62 M367.86 53.45 C386.4 32.7, 403.47 12.3, 413.79 0.62 M373.51 53.06 C386.49 36.38, 400.63 20.05, 419.43 0.23 M373.51 53.06 C386.02 38.51, 399.3 22.33, 419.43 0.23 M378.49 53.42 C394.88 35.34, 406.79 19.83, 424.42 0.59 M378.49 53.42 C388.39 42.99, 398.72 30.06, 424.42 0.59 M384.14 53.02 C398.63 34.37, 415.16 19.69, 429.4 0.95 M384.14 53.02 C395.85 39.8, 407.61 27.13, 429.4 0.95 M389.12 53.38 C401.5 38.17, 415.28 26.58, 435.05 0.55 M389.12 53.38 C400 41.48, 410.22 29.17, 435.05 0.55 M394.77 52.99 C410.55 35, 427.76 16.09, 440.03 0.91 M394.77 52.99 C410.43 36.34, 426.19 17.96, 440.03 0.91 M399.75 53.35 C412.97 39.97, 423.89 26.94, 445.68 0.52 M399.75 53.35 C410.2 41, 420.93 29.83, 445.68 0.52 M404.74 53.71 C414.33 39.83, 424.29 29.82, 450.66 0.88 M404.74 53.71 C421.61 34.21, 439.1 13.82, 450.66 0.88 M410.38 53.31 C426.4 35.99, 437.82 19.9, 456.31 0.48 M410.38 53.31 C426.98 34.2, 443.23 15.61, 456.31 0.48 M415.37 53.67 C424.68 42.68, 437.47 26.39, 461.29 0.84 M415.37 53.67 C425.3 42.81, 434.06 31.79, 461.29 0.84 M421.01 53.28 C430.93 43.68, 441.2 32.98, 466.94 0.45 M421.01 53.28 C436.53 35.14, 449.89 20.02, 466.94 0.45 M426 53.64 C437.43 38.66, 453.27 23.29, 471.92 0.81 M426 53.64 C437.32 40.8, 449.82 26.5, 471.92 0.81 M431.64 53.24 C445.63 39.61, 459.11 22.15, 477.57 0.41 M431.64 53.24 C448.34 34.98, 464.5 14.71, 477.57 0.41 M436.63 53.6 C450.82 36.55, 466.18 17.03, 482.55 0.77 M436.63 53.6 C453.06 33.87, 469.24 15.61, 482.55 0.77 M442.27 53.21 C455.26 36.02, 470.88 18.5, 488.2 0.38 M442.27 53.21 C455.14 38.25, 468.1 23.2, 488.2 0.38 M447.26 53.57 C459.84 38.61, 477.26 20.05, 493.18 0.74 M447.26 53.57 C464.67 33.28, 482.79 13.12, 493.18 0.74 M452.9 53.17 C470.36 31.4, 487.44 11.31, 498.83 0.35 M452.9 53.17 C462.71 42.41, 473.15 29.56, 498.83 0.35 M457.89 53.54 C468.4 40.31, 478.82 27.08, 503.82 0.71 M457.89 53.54 C473.07 36.32, 487.16 20.56, 503.82 0.71 M463.53 53.14 C481.61 34.78, 498 11.61, 507.49 2.57 M463.53 53.14 C477.73 37.68, 490.93 22.71, 507.49 2.57 M468.52 53.5 C479.41 40.4, 492.13 29.21, 510.51 5.2 M468.52 53.5 C478.97 41.48, 490.72 28.57, 510.51 5.2 M474.16 53.11 C487.67 38.7, 500.64 20.13, 512.22 9.33 M474.16 53.11 C488.94 36.54, 503.06 19.72, 512.22 9.33 M479.15 53.47 C488.75 41.73, 496 31.16, 511.95 15.73 M479.15 53.47 C493.55 37.32, 506.51 22.83, 511.95 15.73 M484.79 53.07 C494.53 41.77, 505.18 31.07, 512.35 21.37 M484.79 53.07 C492.04 45.16, 500.24 36.7, 512.35 21.37 M489.78 53.43 C496.93 47.41, 502.37 40.04, 512.09 27.77 M489.78 53.43 C494.97 48.16, 500.25 42.75, 512.09 27.77 M495.42 53.04 C499.26 47.39, 506.09 38.05, 512.48 33.41 M495.42 53.04 C500.19 46.41, 505.55 42.74, 512.48 33.41 M500.41 53.4 C505.72 47.05, 510.92 42.94, 512.88 39.06 M500.41 53.4 C505.72 47.92, 509.48 42.7, 512.88 39.06 M508.02 50.74 C509.53 49.2, 510.36 47.99, 511.3 46.96 M508.02 50.74 C509.17 49.06, 510.29 47.86, 511.3 46.96 M3.12 49.76 C3.12 49.76, 3.12 49.76, 3.12 49.76 M3.12 49.76 C3.12 49.76, 3.12 49.76, 3.12 49.76 M12.54 52.64 C8.57 49.83, 6.66 48.81, 1.22 42.8 M12.54 52.64 C9.6 49.72, 5.71 46.55, 1.22 42.8 M18.18 52.25 C14.88 49.73, 7.46 45.73, 0.82 37.16 M18.18 52.25 C12.44 47.93, 6.44 43.32, 0.82 37.16 M24.58 52.51 C16.41 48.52, 10.22 42.34, 1.18 32.17 M24.58 52.51 C18.52 46.76, 10.47 40.44, 1.18 32.17 M30.22 52.12 C19.27 42.67, 9.37 36.92, 0.79 26.53 M30.22 52.12 C22.35 47.21, 16.84 39.99, 0.79 26.53 M36.62 52.38 C21.32 41.45, 11.12 27.08, 0.39 20.89 M36.62 52.38 C23.1 39.81, 7.27 28.14, 0.39 20.89 M43.02 52.64 C31.14 41.5, 18.94 30.53, 0.75 15.9 M43.02 52.64 C27.42 39.24, 11.7 24.67, 0.75 15.9 M48.66 52.24 C29.48 37.46, 14.92 22.48, 0.36 10.26 M48.66 52.24 C30.36 36.54, 11.13 18.72, 0.36 10.26 M55.06 52.51 C32.86 36.02, 11.54 17.36, 1.47 5.93 M55.06 52.51 C40.33 38.99, 25.21 26.4, 1.47 5.93 M61.46 52.77 C43.7 39.13, 27.11 23.57, 4.1 2.91 M61.46 52.77 C40.08 34.93, 19.43 17.12, 4.1 2.91 M67.1 52.37 C47.85 34.2, 27.69 17.4, 7.48 0.54 M67.1 52.37 C43.77 32.42, 20.31 11.45, 7.48 0.54 M73.5 52.63 C54.35 32.99, 29.34 17.57, 13.12 0.15 M73.5 52.63 C59.65 41.17, 45.57 28.97, 13.12 0.15 M79.14 52.24 C64.99 39.25, 49.8 27.05, 18.76 -0.25 M79.14 52.24 C62.63 36.96, 46.18 23.37, 18.76 -0.25 M85.54 52.5 C71.26 42.83, 57.52 29.81, 24.41 -0.64 M85.54 52.5 C69.68 38.57, 55.23 26.06, 24.41 -0.64 M91.94 52.76 C73.61 35.82, 55.54 22.28, 30.8 -0.38 M91.94 52.76 C77.59 40.46, 65.26 29.78, 30.8 -0.38 M97.58 52.37 C79.66 35.81, 63.93 21.78, 36.45 -0.77 M97.58 52.37 C82.11 38.43, 66.55 23.18, 36.45 -0.77 M103.98 52.63 C81.68 32.82, 56.59 13.21, 42.85 -0.51 M103.98 52.63 C89.59 40.23, 74.67 25.25, 42.85 -0.51 M109.62 52.23 C98.29 38.48, 81.29 29.22, 49.24 -0.25 M109.62 52.23 C93.73 37.15, 75.33 22.91, 49.24 -0.25 M116.02 52.5 C95.6 35.54, 73.67 15.79, 54.89 -0.64 M116.02 52.5 C99.21 37.77, 82.15 23.54, 54.89 -0.64 M122.42 52.76 C110.6 40.45, 93.87 28.32, 61.28 -0.38 M122.42 52.76 C105.51 37.6, 86.97 21.01, 61.28 -0.38 M128.06 52.36 C102.5 30.91, 81.03 12.05, 66.93 -0.78 M128.06 52.36 C115.71 39.95, 103.46 29.87, 66.93 -0.78 M134.46 52.62 C112.45 33.53, 89.49 13.18, 73.32 -0.52 M134.46 52.62 C119.59 38.73, 103.46 26.95, 73.32 -0.52 M140.1 52.23 C125.67 37.9, 108.58 23.11, 79.72 -0.25 M140.1 52.23 C117.59 31.69, 94.43 11.09, 79.72 -0.25 M146.5 52.49 C132.91 40.02, 116.88 26.69, 85.37 -0.65 M146.5 52.49 C127.37 34.53, 107.09 19.15, 85.37 -0.65 M152.89 52.75 C136.09 38.62, 121.53 26.15, 91.76 -0.39 M152.89 52.75 C132.14 33.86, 110.56 15.45, 91.76 -0.39 M158.54 52.36 C138.92 35.88, 115.76 15.24, 97.41 -0.78 M158.54 52.36 C137.2 33.72, 113.68 14.15, 97.41 -0.78 M164.94 52.62 C149 38.45, 133.83 25.58, 103.8 -0.52 M164.94 52.62 C146.8 36.41, 129.59 20.49, 103.8 -0.52 M170.58 52.23 C155.53 41.15, 141.02 25.61, 110.2 -0.26 M170.58 52.23 C152.55 36, 134.47 20.89, 110.2 -0.26 M176.98 52.49 C153.86 31.09, 129.51 13.67, 115.84 -0.65 M176.98 52.49 C164.58 41.59, 150.97 29.56, 115.84 -0.65 M183.37 52.75 C167.74 39.09, 151.91 23.48, 122.24 -0.39 M183.37 52.75 C160.7 34.24, 139.34 14.06, 122.24 -0.39 M189.02 52.35 C172.07 37.79, 152.19 19.95, 127.89 -0.79 M189.02 52.35 C166.29 33.52, 145.09 14.14, 127.89 -0.79 M195.42 52.61 C172.47 33.28, 152.92 16.02, 134.28 -0.53 M195.42 52.61 C171.38 31.82, 148.51 10.48, 134.28 -0.53 M201.06 52.22 C189.72 43.27, 174.61 28.55, 140.68 -0.26 M201.06 52.22 C180.85 33.99, 158.47 15.36, 140.68 -0.26 M207.46 52.48 C192.17 41.25, 175.62 25.26, 146.32 -0.66 M207.46 52.48 C185.76 34.44, 162.65 14.5, 146.32 -0.66 M213.85 52.74 C197.9 39.15, 180.86 22.21, 152.72 -0.4 M213.85 52.74 C194.85 35.8, 176.81 19.82, 152.72 -0.4 M219.5 52.35 C198.97 32.23, 176.51 16.12, 158.37 -0.79 M219.5 52.35 C202.44 35.68, 184.19 19.79, 158.37 -0.79 M225.89 52.61 C199.82 29.43, 177.24 10.39, 164.76 -0.53 M225.89 52.61 C208.39 38.28, 192.02 23.93, 164.76 -0.53 M231.54 52.22 C212.45 34.46, 194.49 19.52, 171.16 -0.27 M231.54 52.22 C214.31 36.95, 196.03 19.95, 171.16 -0.27 M237.94 52.48 C223.52 38.49, 209.48 25.26, 176.8 -0.66 M237.94 52.48 C223.53 39.77, 210.2 27.41, 176.8 -0.66 M244.33 52.74 C218.42 32.32, 197.09 11.38, 183.2 -0.4 M244.33 52.74 C224.33 34.91, 206.49 18.98, 183.2 -0.4 M249.98 52.34 C234.65 40.11, 221.11 28.93, 188.84 -0.8 M249.98 52.34 C232.77 37.06, 216.99 23.95, 188.84 -0.8 M256.37 52.61 C244.05 39.25, 229.1 30.07, 195.24 -0.54 M256.37 52.61 C241.86 40.8, 229.89 29.19, 195.24 -0.54 M262.02 52.21 C243.59 36.34, 224.07 17.48, 201.64 -0.27 M262.02 52.21 C249.65 41.73, 236.72 30.02, 201.64 -0.27 M268.41 52.47 C252.85 39.52, 233.77 23.01, 207.28 -0.67 M268.41 52.47 C249.06 35.8, 230 20.01, 207.28 -0.67 M274.81 52.73 C259.86 38.56, 245.61 29.02, 213.68 -0.41 M274.81 52.73 C250.39 30.64, 226.21 10.83, 213.68 -0.41 M280.46 52.34 C256.11 31.58, 232.91 8.18, 219.32 -0.8 M280.46 52.34 C256.41 32.44, 231.8 10.28, 219.32 -0.8 M286.85 52.6 C274.42 41.89, 262.21 31.01, 225.72 -0.54 M286.85 52.6 C269.45 37.65, 251.63 23.19, 225.72 -0.54 M293.25 52.86 C279.93 38.94, 263.29 28.8, 232.12 -0.28 M293.25 52.86 C274.06 35.14, 253.99 17.97, 232.12 -0.28 M298.89 52.47 C279.95 37.66, 260.25 19.8, 237.76 -0.67 M298.89 52.47 C282.01 37.1, 265.17 22.57, 237.76 -0.67 M305.29 52.73 C288.96 39.73, 269.2 24.45, 244.16 -0.41 M305.29 52.73 C288.65 39.23, 273.52 25.28, 244.16 -0.41 M310.94 52.33 C294.97 38.36, 275.63 20.21, 250.56 -0.15 M310.94 52.33 C293.94 37.58, 275.85 21.53, 250.56 -0.15 M317.33 52.6 C296.63 35.37, 272.37 15.47, 256.2 -0.55 M317.33 52.6 C294.27 33.67, 270.82 13.28, 256.2 -0.55 M323.73 52.86 C307.72 39.2, 289.57 24.63, 262.6 -0.28 M323.73 52.86 C303.11 35.56, 282.67 17.04, 262.6 -0.28 M329.37 52.46 C307.22 33.69, 287.18 16.88, 268.24 -0.68 M329.37 52.46 C318.03 41.13, 304.22 31.21, 268.24 -0.68 M335.77 52.72 C318.33 34.07, 299.48 21.53, 274.64 -0.42 M335.77 52.72 C323.18 42.11, 311.2 31.6, 274.64 -0.42 M341.41 52.33 C326 38.74, 308.98 23.04, 281.04 -0.16 M341.41 52.33 C325.13 38.19, 309.28 24.51, 281.04 -0.16 M347.81 52.59 C333.78 37.64, 317.91 24.94, 286.68 -0.55 M347.81 52.59 C326.61 32.91, 303.15 13.04, 286.68 -0.55 M354.21 52.85 C337.55 36.74, 321.41 26, 293.08 -0.29 M354.21 52.85 C341.01 41.24, 328.06 28.83, 293.08 -0.29 M359.85 52.46 C344.9 37.12, 328.04 24.6, 298.72 -0.68 M359.85 52.46 C348.04 41.11, 333.03 29.18, 298.72 -0.68 M366.25 52.72 C344.53 36.53, 327.46 19.11, 305.12 -0.42 M366.25 52.72 C345.18 34.68, 323.31 16.21, 305.12 -0.42 M371.89 52.32 C354.36 35.52, 338.2 19.77, 311.52 -0.16 M371.89 52.32 C353.19 35.35, 334.38 19.67, 311.52 -0.16 M378.29 52.59 C357.82 34.59, 335.52 13.51, 317.16 -0.56 M378.29 52.59 C362.79 39.85, 347.45 27.4, 317.16 -0.56 M384.69 52.85 C371.37 42, 361.43 31.33, 323.56 -0.29 M384.69 52.85 C367.28 39.08, 351.49 23.9, 323.56 -0.29 M390.33 52.45 C374.67 42.48, 364.54 29.19, 329.2 -0.69 M390.33 52.45 C367.26 34.63, 346.55 14.63, 329.2 -0.69 M396.73 52.71 C383.15 39.39, 366.57 28.66, 335.6 -0.43 M396.73 52.71 C377.11 36.94, 358.05 19.7, 335.6 -0.43 M402.37 52.32 C390.54 40.84, 377.23 30.34, 342 -0.17 M402.37 52.32 C388.67 41.39, 374.61 27.82, 342 -0.17 M408.77 52.58 C388.42 36.26, 368.28 16.94, 347.64 -0.56 M408.77 52.58 C390.75 35.81, 373.57 20.18, 347.64 -0.56 M415.17 52.84 C394.3 35.72, 373.3 18.24, 354.04 -0.3 M415.17 52.84 C399.87 41.25, 386.84 27.8, 354.04 -0.3 M420.81 52.45 C400.69 34.24, 381.4 20.17, 359.68 -0.69 M420.81 52.45 C403.61 37.75, 386.01 23.12, 359.68 -0.69 M427.21 52.71 C408.43 33.55, 385.27 16.88, 366.08 -0.43 M427.21 52.71 C411.6 37.67, 394.02 24.45, 366.08 -0.43 M432.85 52.31 C409.12 32.88, 387.03 12.87, 372.48 -0.17 M432.85 52.31 C409.1 33.25, 386.64 11.56, 372.48 -0.17 M439.25 52.58 C424.62 39.96, 409.77 29.2, 378.12 -0.56 M439.25 52.58 C422.81 39.9, 408.54 26.11, 378.12 -0.56 M445.65 52.84 C430.28 42.14, 418.09 29.74, 384.52 -0.3 M445.65 52.84 C427.59 35.96, 408.09 19.91, 384.52 -0.3 M451.29 52.44 C431.18 32.5, 409.82 15.84, 390.16 -0.7 M451.29 52.44 C436.23 38.99, 420.65 27.01, 390.16 -0.7 M457.69 52.7 C443.3 42.93, 429.94 31.71, 396.56 -0.44 M457.69 52.7 C444.04 42.88, 431.93 30.72, 396.56 -0.44 M463.33 52.31 C444.48 35.49, 425.41 17.9, 402.96 -0.17 M463.33 52.31 C445.55 37.82, 427.91 22.63, 402.96 -0.17 M469.73 52.57 C450.94 34.49, 433.76 21.12, 408.6 -0.57 M469.73 52.57 C454.75 39.33, 438.97 27.8, 408.6 -0.57 M476.13 52.83 C458.52 40.43, 442.52 25.78, 415 -0.31 M476.13 52.83 C451.81 32.1, 426.48 11.14, 415 -0.31 M481.77 52.44 C460.58 35.64, 440.64 16.47, 420.64 -0.7 M481.77 52.44 C469.48 40.55, 455.28 28.99, 420.64 -0.7 M488.17 52.7 C474.7 39.57, 460.04 25.51, 427.04 -0.44 M488.17 52.7 C465.1 31.78, 441.19 11.9, 427.04 -0.44 M493.81 52.3 C477.85 38.15, 465.02 28.22, 433.44 -0.18 M493.81 52.3 C472.79 35.8, 452.62 16.98, 433.44 -0.18 M500.21 52.57 C480.14 35.82, 459.38 17.17, 439.08 -0.57 M500.21 52.57 C476.94 32.11, 455.16 12.19, 439.08 -0.57 M505.1 51.52 C482.74 33.09, 461.84 14.33, 445.48 -0.31 M505.1 51.52 C490.27 38.37, 476.84 26.48, 445.48 -0.31 M509.23 49.81 C495.52 39.44, 480.9 27.86, 451.12 -0.71 M509.23 49.81 C489.36 32.81, 469.59 14.72, 451.12 -0.71 M511.1 46.13 C497.37 34.31, 486.78 21.64, 457.52 -0.45 M511.1 46.13 C490.74 29, 470.21 11.56, 457.52 -0.45 M512.22 41.8 C500.54 32.8, 489.22 21.22, 463.91 -0.18 M512.22 41.8 C493.29 26.13, 475.19 9.21, 463.91 -0.18 M511.82 36.16 C495.56 23.68, 479.59 6.3, 469.56 -0.58 M511.82 36.16 C500.88 26.77, 489.63 15.78, 469.56 -0.58 M512.18 31.17 C499.41 20.64, 483.82 5.32, 475.96 -0.32 M512.18 31.17 C499.06 19.02, 484.63 6.8, 475.96 -0.32 M511.79 25.53 C505.61 20.22, 496.71 11.36, 482.35 -0.06 M511.79 25.53 C500.9 15.99, 489.51 5.55, 482.35 -0.06 M511.39 19.89 C507.04 15.1, 502.06 10.46, 488 -0.45 M511.39 19.89 C503.06 12.3, 494.24 3.8, 488 -0.45 M511.75 14.9 C508.42 10.52, 503.59 7.16, 494.39 -0.19 M511.75 14.9 C507.12 9.78, 501.51 7.12, 494.39 -0.19 M511.36 9.26 C506.18 4.68, 501.13 1.68, 500.04 -0.58 M511.36 9.26 C508.04 6.53, 505.6 3.92, 500.04 -0.58" stroke="#2f9e44" stroke-width="0.5" fill="none"></path><path d="M13.32 0 C120.85 -0.98, 229.18 -1.99, 499 0 M13.32 0 C161.8 -1.52, 309.97 -1.07, 499 0 M499 0 C506.15 -1.58, 513.71 3.21, 512.31 13.32 M499 0 C509.81 1.6, 514.54 6.24, 512.31 13.32 M512.31 13.32 C512.32 18.76, 514.38 22.58, 512.31 39.95 M512.31 13.32 C513.14 23.63, 513.11 33.22, 512.31 39.95 M512.31 39.95 C513.34 48.74, 509.81 51.66, 499 53.27 M512.31 39.95 C513.5 49.45, 509.46 51.49, 499 53.27 M499 53.27 C391.43 53.21, 282.85 52.66, 13.32 53.27 M499 53.27 C331.98 54.59, 164.42 53.98, 13.32 53.27 M13.32 53.27 C5.84 54.89, 0.8 49.97, 0 39.95 M13.32 53.27 C2.8 55.06, 0.59 49.26, 0 39.95 M0 39.95 C-1.66 34.55, 0.52 28.34, 0 13.32 M0 39.95 C-0.17 33.49, -0.72 24.74, 0 13.32 M0 13.32 C-0.14 4.78, 5.87 -0.85, 13.32 0 M0 13.32 C1.78 4.61, 5.77 0.88, 13.32 0" stroke="#1e1e1e" stroke-width="1" fill="none"></path></g><g stroke-linecap="round"><g transform="translate(177.58849812279345 628.7209577430615) rotate(0 639.9212136732754 0)"><path d="M-0.49 -0.1 C212.9 -0.1, 1067.21 0.09, 1280.76 0.1 M1.46 -1.2 C214.73 -1, 1067.11 1.28, 1280.29 1.69" stroke="#1e1e1e" stroke-width="1" fill="none"></path></g><g transform="translate(177.58849812279345 628.7209577430615) rotate(0 639.9212136732754 0)"><path d="M23.01 -8.65 C14.94 -4.34, 7.36 -1.36, -0.49 -0.1 M23.01 -8.65 C15.92 -6.65, 9 -3.87, -0.49 -0.1" stroke="#1e1e1e" stroke-width="1" fill="none"></path></g><g transform="translate(177.58849812279345 628.7209577430615) rotate(0 639.9212136732754 0)"><path d="M23.01 8.46 C14.92 7.01, 7.34 4.22, -0.49 -0.1 M23.01 8.46 C15.87 5.37, 8.95 3.06, -0.49 -0.1" stroke="#1e1e1e" stroke-width="1" fill="none"></path></g><g transform="translate(177.58849812279345 628.7209577430615) rotate(0 639.9212136732754 0)"><path d="M1256.78 10.18 C1264.52 8.94, 1272.77 6.18, 1280.29 1.69 M1256.78 10.18 C1263.63 7.12, 1270.69 4.83, 1280.29 1.69" stroke="#1e1e1e" stroke-width="1" fill="none"></path></g><g transform="translate(177.58849812279345 628.7209577430615) rotate(0 639.9212136732754 0)"><path d="M1256.82 -6.92 C1264.56 -2.4, 1272.79 0.59, 1280.29 1.69 M1256.82 -6.92 C1263.7 -4.9, 1270.75 -2.1, 1280.29 1.69" stroke="#1e1e1e" stroke-width="1" fill="none"></path></g></g><mask></mask><g transform="translate(714.0112924348634 691.89289852417) rotate(0 98.85395812988281 17.5)"><text x="0" y="0" font-family="Virgil, Segoe UI Emoji" font-size="28px" fill="#1e1e1e" text-anchor="start" style="white-space: pre;" direction="ltr" dominant-baseline="text-before-edge">Content space</text></g><g stroke-opacity="0" fill-opacity="0" stroke-linecap="round" transform="translate(542.5629771847418 10) rotate(0 58.37866158183556 58.378661581835615)"><path d="M82.37 4.29 C90.71 6.92, 98.49 14.17, 103.95 21.32 C109.41 28.47, 113.36 38.39, 115.14 47.19 C116.92 55.99, 117.24 65.49, 114.61 74.13 C111.98 82.77, 105.85 92.47, 99.36 99.04 C92.87 105.61, 84.17 110.6, 75.65 113.55 C67.13 116.49, 56.83 118.24, 48.23 116.73 C39.63 115.22, 31.29 110.09, 24.04 104.5 C16.8 98.91, 8.7 91.36, 4.75 83.2 C0.8 75.04, -0.23 64.57, 0.35 55.56 C0.93 46.54, 3.64 36.82, 8.22 29.09 C12.8 21.36, 20.35 14.17, 27.81 9.2 C35.28 4.23, 42.73 -0.53, 53.01 -0.73 C63.3 -0.93, 82.59 5.54, 89.5 7.99 C96.41 10.45, 95.17 12.96, 94.46 13.99 M71.8 1.2 C80.38 2.43, 91.13 7.46, 97.88 13.47 C104.63 19.48, 109.47 28.84, 112.31 37.25 C115.14 45.67, 115.98 54.74, 114.89 63.98 C113.8 73.21, 110.76 85.18, 105.77 92.65 C100.78 100.13, 92.82 104.95, 84.94 108.8 C77.06 112.65, 67.5 115.53, 58.48 115.74 C49.46 115.94, 38.88 114.19, 30.79 110.04 C22.7 105.89, 15.15 98.02, 9.95 90.83 C4.75 83.63, 0.48 75.75, -0.41 66.88 C-1.31 58, 1.04 46.39, 4.59 37.59 C8.13 28.8, 14.07 19.91, 20.86 14.1 C27.65 8.3, 36.63 4.71, 45.32 2.75 C54.01 0.79, 68.7 2.2, 73.01 2.33 C77.31 2.46, 71.31 2.72, 71.15 3.55" stroke="none" stroke-width="0" fill="#1e1e1e"></path><path d="M85.6 6.24 C93.87 9.45, 101.84 17.19, 106.91 24.68 C111.98 32.18, 115.04 42.17, 116.03 51.23 C117.01 60.3, 116.03 70.75, 112.79 79.09 C109.55 87.42, 103.2 95.34, 96.56 101.23 C89.93 107.12, 81.56 111.98, 73.01 114.43 C64.46 116.88, 54.16 117.88, 45.24 115.94 C36.33 114, 26.44 108.9, 19.51 102.78 C12.58 96.66, 6.78 87.57, 3.68 79.22 C0.58 70.87, -0.27 61.54, 0.92 52.68 C2.11 43.81, 5.95 33.69, 10.83 26.02 C15.71 18.36, 22.42 10.89, 30.21 6.68 C37.99 2.46, 48.14 0.63, 57.54 0.74 C66.93 0.86, 81.56 6.14, 86.56 7.38 C91.55 8.63, 88.05 7.38, 87.5 8.21 M63.48 0.23 C72.12 0.57, 81.72 5.79, 89.37 10.59 C97.01 15.39, 104.83 21.59, 109.36 29.01 C113.88 36.42, 116.18 46.21, 116.52 55.08 C116.87 63.96, 115.38 73.66, 111.41 82.26 C107.45 90.86, 100.16 100.96, 92.73 106.69 C85.3 112.41, 75.6 115.56, 66.83 116.6 C58.06 117.64, 48.68 116.06, 40.11 112.92 C31.55 109.78, 21.79 103.96, 15.42 97.77 C9.06 91.58, 4.06 84.2, 1.92 75.79 C-0.21 67.38, 0.78 56.52, 2.63 47.32 C4.48 38.11, 7.33 27.77, 13.01 20.57 C18.69 13.36, 28.12 7.36, 36.69 4.1 C45.26 0.83, 59.8 1.66, 64.43 0.98 C69.06 0.3, 64.56 -0.6, 64.49 0.02" stroke="#1e1e1e" stroke-width="1" fill="none"></path></g><g stroke-linecap="round"><g transform="translate(579.4269213498494 30.791689765269894) rotate(0 19.16027036697119 23.471331199539804)" fill-rule="evenodd"><path d="M-0.34 -0.04 L-0.28 46.44 L37.76 47.88 L38.86 13.32 L26.81 13 L26.63 1.17 L38.79 13.84 L24.97 0.49 L0.77 -0.01" stroke="none" stroke-width="0" fill="#1e1e1e" fill-rule="evenodd"></path><path d="M0 0 C-0.98 13.47, 0.19 27.47, 0 46.94 M0 0 C0.06 17.16, 0.11 34.21, 0 46.94 M0 46.94 C9.66 47.85, 17.9 47.52, 38.32 46.94 M0 46.94 C11.07 47.19, 21.41 46.47, 38.32 46.94 M38.32 46.94 C38.26 37.51, 38.32 27.01, 38.32 13.41 M38.32 46.94 C38.17 38.37, 38.37 30.74, 38.32 13.41 M38.32 13.41 C34.81 13.34, 31.15 13.59, 25.99 13.41 M38.32 13.41 C35.63 13.59, 33.31 13.32, 25.99 13.41 M25.99 13.41 C26.64 10.71, 26.41 6.65, 25.99 0.48 M25.99 13.41 C26.18 10.28, 26.21 6.53, 25.99 0.48 M25.99 0.48 C31.18 6.08, 34.81 9.84, 38.32 13.41 M25.99 0.48 C30.54 5.23, 35.55 10.53, 38.32 13.41 M38.32 13.41 C34.66 10.14, 32.21 8.14, 25.55 0 M38.32 13.41 C33.31 8.18, 28.13 2.85, 25.55 0 M25.55 0 C16.56 -0.86, 10.11 -0.56, 0 0 M25.55 0 C19.16 0.17, 12.39 -0.5, 0 0 M0 0 C0 0, 0 0, 0 0 M0 0 C0 0, 0 0, 0 0" stroke="#1e1e1e" stroke-width="1" fill="none"></path></g></g><mask></mask><g transform="translate(582.5216482270273 82.06285377911422) rotate(0 18.41999053955078 25)"><text x="18.41999053955078" y="0" font-family="Virgil, Segoe UI Emoji" font-size="20px" fill="#1e1e1e" text-anchor="middle" style="white-space: pre;" direction="ltr" dominant-baseline="text-before-edge">aab</text><text x="18.41999053955078" y="25" font-family="Virgil, Segoe UI Emoji" font-size="20px" fill="#1e1e1e" text-anchor="middle" style="white-space: pre;" direction="ltr" dominant-baseline="text-before-edge"></text></g><g stroke-linecap="round"><g transform="translate(599.9202766320043 160.918363758856) rotate(0 0 231.65295340108582)"><path d="M-0.34 0.82 C-0.31 77.91, -0.4 385.97, -0.29 462.99 M1.69 0.21 C1.58 77.43, -1.06 387.05, -1.4 464.36" stroke="#1e1e1e" stroke-width="1" fill="none"></path></g><g transform="translate(599.9202766320043 160.918363758856) rotate(0 0 231.65295340108582)"><path d="M-9.79 440.81 C-6.15 446.45, -5.87 453.52, -1.4 464.36 M-9.79 440.81 C-8.05 447.57, -5.72 454.12, -1.4 464.36" stroke="#1e1e1e" stroke-width="1" fill="none"></path></g><g transform="translate(599.9202766320043 160.918363758856) rotate(0 0 231.65295340108582)"><path d="M7.31 440.93 C6.52 446.49, 2.36 453.53, -1.4 464.36 M7.31 440.93 C4.42 447.52, 2.13 454.03, -1.4 464.36" stroke="#1e1e1e" stroke-width="1" fill="none"></path></g></g><mask></mask><g transform="translate(893.9255262772692 101.41316195900936) rotate(0 111.22994995117188 17.5)"><text x="0" y="0" font-family="Virgil, Segoe UI Emoji" font-size="28px" fill="#1e1e1e" text-anchor="start" style="white-space: pre;" direction="ltr" dominant-baseline="text-before-edge">Min replicas = 2</text></g><g stroke-linecap="round" transform="translate(502.2987545553108 475.19376262756373) rotate(0 283.5738611076747 26.634009054311946)"><path d="M3.54 3.08 C3.54 3.08, 3.54 3.08, 3.54 3.08 M3.54 3.08 C3.54 3.08, 3.54 3.08, 3.54 3.08 M0 13.25 C5.39 9.82, 7 4.6, 11.16 0.42 M0 13.25 C3.42 9.04, 7.01 5.89, 11.16 0.42 M1.05 18.14 C4.46 15.47, 8.65 7.77, 16.14 0.78 M1.05 18.14 C6.59 11.74, 10.71 7.66, 16.14 0.78 M0.79 24.54 C6.58 16.31, 12.35 11.21, 21.79 0.39 M0.79 24.54 C7.98 17.14, 14.41 9.32, 21.79 0.39 M1.19 30.18 C11.03 22.49, 18.79 9.1, 26.77 0.75 M1.19 30.18 C7.17 23.58, 13.66 17.21, 26.77 0.75 M1.58 35.83 C9.73 24.63, 19.38 13.04, 32.42 0.35 M1.58 35.83 C13.39 23.61, 22.82 11.57, 32.42 0.35 M1.32 42.22 C15.18 29.94, 27.59 12.45, 37.4 0.71 M1.32 42.22 C16.34 26.49, 29.69 9.23, 37.4 0.71 M1.71 47.87 C12.29 35.51, 26.15 17.61, 43.05 0.32 M1.71 47.87 C16.24 31.2, 31.21 15.56, 43.05 0.32 M4.73 50.49 C14.19 38.11, 24.22 26.84, 48.03 0.68 M4.73 50.49 C19.87 33.16, 34.94 14.27, 48.03 0.68 M8.41 52.36 C24.35 30.76, 42.4 14.42, 53.68 0.28 M8.41 52.36 C21.39 37.17, 34.7 21.07, 53.68 0.28 M12.74 53.47 C22.45 42.39, 34.22 30.66, 58.66 0.64 M12.74 53.47 C30.17 32.55, 49.9 12.22, 58.66 0.64 M18.38 53.08 C32.6 37.14, 50.57 19.49, 64.31 0.25 M18.38 53.08 C33.06 36.52, 47.72 19.93, 64.31 0.25 M23.37 53.44 C35.04 39.97, 48.72 25.3, 69.29 0.61 M23.37 53.44 C38.59 35.54, 53.22 17.74, 69.29 0.61 M29.01 53.05 C43.89 34.25, 60.7 19.78, 74.94 0.22 M29.01 53.05 C39.25 42.7, 47.06 32.26, 74.94 0.22 M34 53.41 C48.94 37, 64.4 20.86, 79.92 0.58 M34 53.41 C48.9 35.13, 64.25 17.15, 79.92 0.58 M39.64 53.01 C51.08 40, 60.41 31.26, 85.57 0.18 M39.64 53.01 C51.39 37.63, 65.88 24.02, 85.57 0.18 M44.63 53.37 C55.26 40.75, 66.34 27.5, 90.55 0.54 M44.63 53.37 C59.92 35.76, 75.9 17.31, 90.55 0.54 M50.27 52.98 C65.87 32.71, 85.27 13.35, 96.2 0.15 M50.27 52.98 C66.64 33.37, 84.23 15.96, 96.2 0.15 M55.26 53.34 C73.94 31.43, 91.53 9.67, 101.18 0.51 M55.26 53.34 C73.3 31.37, 90.99 10.71, 101.18 0.51 M60.9 52.94 C72 37.66, 87.34 22.33, 106.83 0.11 M60.9 52.94 C77.75 34.77, 93.19 15.13, 106.83 0.11 M65.89 53.3 C83.57 36.39, 98.92 17, 111.81 0.47 M65.89 53.3 C83.21 33.76, 100.34 13.69, 111.81 0.47 M71.53 52.91 C81.5 41.71, 93.32 28.4, 116.8 0.83 M71.53 52.91 C83.23 38.73, 96.29 23.62, 116.8 0.83 M76.52 53.27 C84.41 43.94, 96.17 29.42, 122.44 0.44 M76.52 53.27 C85.49 41.93, 95.52 31.91, 122.44 0.44 M82.16 52.87 C98.54 36.87, 111.64 18.11, 127.43 0.8 M82.16 52.87 C93.9 39.61, 105.39 25.82, 127.43 0.8 M87.15 53.23 C101.5 36.7, 117 18.37, 133.07 0.4 M87.15 53.23 C99.23 39.05, 112.34 23.5, 133.07 0.4 M92.14 53.59 C106.02 39.83, 116.82 22.33, 138.06 0.76 M92.14 53.59 C106.07 36.28, 121.12 20.46, 138.06 0.76 M97.78 53.2 C112.33 38.56, 127.5 21.29, 143.7 0.37 M97.78 53.2 C107.49 40.98, 119 29.65, 143.7 0.37 M102.77 53.56 C115.37 37.57, 127.98 22.97, 148.69 0.73 M102.77 53.56 C119.36 35.09, 135.38 16.14, 148.69 0.73 M108.41 53.16 C118.25 40.22, 132.05 25.09, 154.33 0.33 M108.41 53.16 C122.38 35.93, 136.87 19.66, 154.33 0.33 M113.4 53.52 C124.37 42.91, 135.87 27.93, 159.32 0.69 M113.4 53.52 C122.45 41.74, 133.34 31.57, 159.32 0.69 M119.04 53.13 C135.09 36.32, 154.2 15.07, 164.96 0.3 M119.04 53.13 C133.61 36.26, 146.52 20.77, 164.96 0.3 M124.03 53.49 C142.4 32.61, 158.19 11.87, 169.95 0.66 M124.03 53.49 C133.72 41.97, 143.51 30.06, 169.95 0.66 M129.67 53.1 C143.32 39.32, 154.66 25.81, 175.59 0.27 M129.67 53.1 C146.54 33.4, 163.13 13.62, 175.59 0.27 M134.66 53.46 C152.02 35.74, 164.06 19.85, 180.58 0.63 M134.66 53.46 C151 33.57, 170.35 12.89, 180.58 0.63 M140.3 53.06 C151.56 38.81, 166.49 23.83, 186.22 0.23 M140.3 53.06 C157.3 33.26, 173.44 14.57, 186.22 0.23 M145.29 53.42 C163.22 34.86, 175.95 15.83, 191.21 0.59 M145.29 53.42 C157.29 40.11, 169.41 26.29, 191.21 0.59 M150.93 53.03 C167.31 32.57, 187.37 12.69, 196.85 0.2 M150.93 53.03 C166.62 34.34, 182.53 17.41, 196.85 0.2 M155.92 53.39 C167.53 39.17, 181.27 21.97, 201.84 0.56 M155.92 53.39 C168.04 40.4, 178.28 28.28, 201.84 0.56 M161.56 52.99 C174.18 35.42, 189.38 20.63, 207.48 0.16 M161.56 52.99 C175.06 36.27, 189.3 19.8, 207.48 0.16 M166.55 53.35 C175.42 41.43, 185.94 30.53, 212.47 0.52 M166.55 53.35 C181.05 38.25, 194.81 21.02, 212.47 0.52 M172.19 52.96 C186.72 38.45, 199.14 20.22, 218.11 0.13 M172.19 52.96 C190.81 32.96, 208.06 12.49, 218.11 0.13 M177.18 53.32 C192.23 37.13, 204.51 22.91, 223.1 0.49 M177.18 53.32 C187.69 40.67, 198.11 29.24, 223.1 0.49 M182.82 52.92 C192.1 39.63, 204.89 25.27, 228.09 0.85 M182.82 52.92 C195.27 38.06, 209.7 22.04, 228.09 0.85 M187.81 53.28 C198.89 41.95, 207.17 26.94, 233.73 0.45 M187.81 53.28 C205.37 31.55, 223.17 10.92, 233.73 0.45 M193.45 52.89 C204.69 40.82, 211.81 30.09, 238.72 0.81 M193.45 52.89 C205.68 38.56, 217.7 25.39, 238.72 0.81 M198.44 53.25 C215.61 33.38, 232.66 10.96, 244.36 0.42 M198.44 53.25 C208.57 43.35, 218.97 30.19, 244.36 0.42 M203.42 53.61 C221.09 33.96, 235.54 18.05, 249.35 0.78 M203.42 53.61 C217.46 38.64, 230.07 22.46, 249.35 0.78 M209.07 53.21 C226.74 32.33, 241.54 14.17, 254.99 0.38 M209.07 53.21 C219.27 39.87, 231.37 29.21, 254.99 0.38 M214.05 53.57 C227.48 39.69, 241.72 24.84, 259.98 0.74 M214.05 53.57 C230.51 33.49, 245.57 15.91, 259.98 0.74 M219.7 53.18 C235.07 35.74, 250.15 18.43, 265.62 0.35 M219.7 53.18 C231.56 38.73, 244.5 22.98, 265.62 0.35 M224.68 53.54 C240.65 35.72, 259.11 13.6, 270.61 0.71 M224.68 53.54 C239.84 35.9, 254.55 20.14, 270.61 0.71 M230.33 53.14 C249.02 34.12, 265.59 10.88, 276.25 0.31 M230.33 53.14 C245.45 35.77, 259.84 20.21, 276.25 0.31 M235.32 53.5 C249.46 35.81, 265.01 19.1, 281.24 0.68 M235.32 53.5 C246.78 39.94, 259.31 25.85, 281.24 0.68 M240.96 53.11 C254.68 35.3, 269.28 16.99, 286.88 0.28 M240.96 53.11 C257.46 33.41, 274.29 15, 286.88 0.28 M245.95 53.47 C256.57 40.25, 268.31 26.6, 291.87 0.64 M245.95 53.47 C263.48 33.93, 280.08 14.13, 291.87 0.64 M251.59 53.08 C263.18 38.33, 275.23 23.95, 297.51 0.25 M251.59 53.08 C269.92 33.81, 286.78 13.2, 297.51 0.25 M256.58 53.44 C268.81 41.02, 278.21 24.77, 302.5 0.61 M256.58 53.44 C267.23 41.96, 279.26 28.98, 302.5 0.61 M262.22 53.04 C272.51 37.35, 286.08 24.49, 308.14 0.21 M262.22 53.04 C278.83 32.79, 296.82 13.13, 308.14 0.21 M267.21 53.4 C285.5 35.96, 299.83 17.19, 313.13 0.57 M267.21 53.4 C281.79 37.51, 297.64 19.64, 313.13 0.57 M272.85 53.01 C286.31 36.69, 299.3 21.16, 318.77 0.18 M272.85 53.01 C288.94 34.81, 304.92 15.81, 318.77 0.18 M277.84 53.37 C295.91 33.13, 315.15 12.01, 323.76 0.54 M277.84 53.37 C293.92 35.32, 308.84 18.29, 323.76 0.54 M283.48 52.97 C295.92 36.88, 309.66 23.4, 328.75 0.9 M283.48 52.97 C298.34 35.34, 313.61 20.26, 328.75 0.9 M288.47 53.33 C306.97 34.99, 320.47 14.24, 334.39 0.5 M288.47 53.33 C299.32 39.98, 309.75 28.55, 334.39 0.5 M294.11 52.94 C302.03 41.73, 312.27 28.28, 339.38 0.86 M294.11 52.94 C304.57 40.59, 315.8 27.54, 339.38 0.86 M299.1 53.3 C307.67 40.55, 322.26 29.21, 345.02 0.47 M299.1 53.3 C310.61 41.58, 319.95 30.37, 345.02 0.47 M304.08 53.66 C316.32 38.44, 327.64 24.76, 350.01 0.83 M304.08 53.66 C319.78 34.47, 336.47 15.32, 350.01 0.83 M309.73 53.26 C327.96 35.43, 341.76 16.76, 355.65 0.43 M309.73 53.26 C327.9 31.52, 346.5 11.72, 355.65 0.43 M314.71 53.62 C329.66 39.32, 339.33 25.32, 360.64 0.79 M314.71 53.62 C326.12 40.13, 337.19 26.44, 360.64 0.79 M320.36 53.23 C330.09 40.39, 343.88 25.92, 366.28 0.4 M320.36 53.23 C330.57 40.65, 342.73 27.13, 366.28 0.4 M325.34 53.59 C336.41 39.62, 349.8 24.75, 371.27 0.76 M325.34 53.59 C339.56 36.89, 355.38 17.87, 371.27 0.76 M330.99 53.19 C347.74 32, 366.34 13.72, 376.91 0.36 M330.99 53.19 C346.59 35.56, 361.64 18.18, 376.91 0.36 M335.97 53.55 C352.39 36.11, 365.14 20.63, 381.9 0.72 M335.97 53.55 C353.76 33.75, 372.7 12.24, 381.9 0.72 M341.62 53.16 C352.88 39.63, 367.32 22.61, 387.54 0.33 M341.62 53.16 C354.81 36.07, 369.8 19.92, 387.54 0.33 M346.6 53.52 C359.89 36.71, 374.56 18.68, 392.53 0.69 M346.6 53.52 C358.99 38.7, 370.34 23.93, 392.53 0.69 M352.25 53.13 C364.67 38.3, 381.61 20.87, 398.17 0.3 M352.25 53.13 C362.09 40.81, 373.27 29.21, 398.17 0.3 M357.23 53.49 C374.52 32.89, 392.09 10.71, 403.16 0.66 M357.23 53.49 C372.88 34.29, 388.61 16.27, 403.16 0.66 M362.88 53.09 C378.12 34.7, 392.34 19.93, 408.8 0.26 M362.88 53.09 C380.31 31.46, 398.93 10.83, 408.8 0.26 M367.86 53.45 C379.06 41.86, 390.39 29.82, 413.79 0.62 M367.86 53.45 C378.95 40.3, 389.89 28.8, 413.79 0.62 M373.51 53.06 C388.58 38.52, 399.67 20.69, 419.43 0.23 M373.51 53.06 C383.07 41.54, 392.59 30.36, 419.43 0.23 M378.49 53.42 C391.96 39.22, 403.7 24.9, 424.42 0.59 M378.49 53.42 C394.07 34.83, 410.91 15.25, 424.42 0.59 M384.14 53.02 C401.82 34.05, 419.18 12.17, 429.4 0.95 M384.14 53.02 C397.69 38.9, 409.3 23.92, 429.4 0.95 M389.12 53.38 C397.69 43.95, 406.48 30.35, 435.05 0.55 M389.12 53.38 C405.23 35.97, 420.65 18.32, 435.05 0.55 M394.77 52.99 C409.23 37.5, 425.99 16.52, 440.03 0.91 M394.77 52.99 C409.85 36.74, 422.23 21.35, 440.03 0.91 M399.75 53.35 C416.23 36.94, 429.49 18.45, 445.68 0.52 M399.75 53.35 C417.5 32.72, 433.98 14, 445.68 0.52 M404.74 53.71 C414.61 38.39, 429.42 24.59, 450.66 0.88 M404.74 53.71 C422.27 34.46, 440.22 13.33, 450.66 0.88 M410.38 53.31 C427.84 31.88, 447.14 9.81, 456.31 0.48 M410.38 53.31 C423.36 38.89, 435.71 23.02, 456.31 0.48 M415.37 53.67 C431.82 32.19, 453.22 12.03, 461.29 0.84 M415.37 53.67 C429.7 36.4, 444.5 21.24, 461.29 0.84 M421.01 53.28 C434.74 37.47, 450.2 21.2, 466.94 0.45 M421.01 53.28 C433.34 38.87, 447.32 23.58, 466.94 0.45 M426 53.64 C438.1 42.15, 448.49 27.57, 471.92 0.81 M426 53.64 C440.5 36.44, 455.44 19.64, 471.92 0.81 M431.64 53.24 C445.22 35.16, 459.64 19.38, 477.57 0.41 M431.64 53.24 C441.3 41.89, 452.14 30.64, 477.57 0.41 M436.63 53.6 C456.37 32.29, 474.36 10.57, 482.55 0.77 M436.63 53.6 C449.9 38.25, 464.89 20.33, 482.55 0.77 M442.27 53.21 C461.31 33.28, 474.18 16.24, 488.2 0.38 M442.27 53.21 C455.02 38.62, 466.04 25.57, 488.2 0.38 M447.26 53.57 C458.87 39.8, 472.27 24.78, 493.18 0.74 M447.26 53.57 C465.13 32.42, 482.44 12.88, 493.18 0.74 M452.9 53.17 C466.58 38.01, 483.86 19.96, 498.83 0.35 M452.9 53.17 C466.89 36.61, 480.03 22.45, 498.83 0.35 M457.89 53.54 C469.04 39.88, 480.27 28.12, 503.82 0.71 M457.89 53.54 C474.67 35.84, 489.75 16.45, 503.82 0.71 M463.53 53.14 C480.85 36, 498.54 13.7, 509.46 0.31 M463.53 53.14 C476.87 36.51, 490.12 22.01, 509.46 0.31 M468.52 53.5 C481.22 39.54, 493 27.27, 514.45 0.67 M468.52 53.5 C479.92 40.13, 489.15 27.79, 514.45 0.67 M474.16 53.11 C486.31 37.77, 497.84 28.06, 520.09 0.28 M474.16 53.11 C489.79 35.6, 504.06 18.37, 520.09 0.28 M479.15 53.47 C488.1 43.4, 498.94 31.49, 525.08 0.64 M479.15 53.47 C495.35 35.72, 510.35 15.98, 525.08 0.64 M484.79 53.07 C503.48 31.34, 521.38 12.85, 530.06 1 M484.79 53.07 C502.83 33.28, 520.02 14.12, 530.06 1 M489.78 53.43 C500.81 42.68, 510.27 29.92, 535.71 0.6 M489.78 53.43 C508.4 32.76, 525.11 11, 535.71 0.6 M495.42 53.04 C513.47 32.81, 531.21 13.71, 540.69 0.96 M495.42 53.04 C508.51 35.09, 523.91 18.41, 540.69 0.96 M500.41 53.4 C515.77 34.8, 531.96 14.88, 546.34 0.57 M500.41 53.4 C510.42 43.1, 518.21 30.6, 546.34 0.57 M506.05 53 C521.16 36.14, 533.15 22.99, 551.32 0.93 M506.05 53 C520.54 34.14, 536.65 15.92, 551.32 0.93 M511.04 53.36 C523.46 38.57, 532.71 29, 556.97 0.53 M511.04 53.36 C520.95 42.78, 528.79 32.49, 556.97 0.53 M516.03 53.72 C532.39 34.25, 548.74 16.06, 560.64 2.4 M516.03 53.72 C529.49 37.02, 544.72 20.46, 560.64 2.4 M521.67 53.33 C536.19 38.19, 546.32 24.23, 564.32 4.27 M521.67 53.33 C534.81 38.16, 545.88 25.59, 564.32 4.27 M526.66 53.69 C541.14 39.16, 550.19 24.55, 566.68 7.65 M526.66 53.69 C537.2 42.59, 546.78 30.22, 566.68 7.65 M532.3 53.29 C543.35 39.33, 556.17 25.43, 566.42 14.05 M532.3 53.29 C539.71 44.85, 546.2 36.54, 566.42 14.05 M537.29 53.65 C543.14 48.4, 549.19 41.07, 566.81 19.69 M537.29 53.65 C549.89 39.92, 561.51 26.61, 566.81 19.69 M542.93 53.26 C548.47 44.34, 556.44 36.06, 567.21 25.33 M542.93 53.26 C552.61 43.38, 560.44 31.81, 567.21 25.33 M547.92 53.62 C550.1 49.17, 554.16 42.84, 566.94 31.73 M547.92 53.62 C554.56 46.29, 561.69 37.08, 566.94 31.73 M553.56 53.22 C557.31 48.36, 559.72 43.38, 567.34 37.38 M553.56 53.22 C556.37 50.03, 558.47 47.12, 567.34 37.38 M559.2 52.83 C560.84 51.08, 564 47.72, 567.08 43.77 M559.2 52.83 C560.5 50.25, 562.69 48.74, 567.08 43.77 M3.12 49.76 C3.12 49.76, 3.12 49.76, 3.12 49.76 M3.12 49.76 C3.12 49.76, 3.12 49.76, 3.12 49.76 M12.54 52.64 C10.26 49.42, 6.58 44.98, 1.22 42.8 M12.54 52.64 C10.45 49.92, 7.7 48.1, 1.22 42.8 M18.18 52.25 C14.34 49.95, 11.08 42.69, 0.82 37.16 M18.18 52.25 C13.48 47.33, 9.01 44.59, 0.82 37.16 M24.58 52.51 C17.63 47.54, 9.79 41.96, 1.18 32.17 M24.58 52.51 C17.36 47.06, 11.64 40.86, 1.18 32.17 M30.22 52.12 C21.02 41.67, 10.53 34.41, 0.79 26.53 M30.22 52.12 C20.06 43.86, 9.49 35.19, 0.79 26.53 M36.62 52.38 C30.19 47.61, 19.93 39.55, 0.39 20.89 M36.62 52.38 C22.25 39.47, 8.04 28.87, 0.39 20.89 M43.02 52.64 C33.78 43.91, 26.54 36.65, 0.75 15.9 M43.02 52.64 C28.35 39.6, 13.6 27.41, 0.75 15.9 M48.66 52.24 C31.72 38.37, 10.96 20.85, 0.36 10.26 M48.66 52.24 C34.73 39.76, 19.4 27.4, 0.36 10.26 M55.06 52.51 C40.09 40.1, 27.74 29.81, 1.47 5.93 M55.06 52.51 C38.27 37.19, 19.13 22.98, 1.47 5.93 M60.7 52.11 C47.96 43.18, 35.54 33.55, 4.1 2.91 M60.7 52.11 C43.21 37.87, 25.87 23.09, 4.1 2.91 M67.1 52.37 C51.96 40.94, 38.16 27.51, 7.48 0.54 M67.1 52.37 C45.94 34.65, 24.06 16.38, 7.48 0.54 M73.5 52.63 C54.9 38.97, 36.05 19.89, 13.12 0.15 M73.5 52.63 C57.04 39.53, 42.26 25.02, 13.12 0.15 M79.14 52.24 C60.56 37.98, 43.98 22.56, 18.76 -0.25 M79.14 52.24 C63.06 37.64, 47.91 24.9, 18.76 -0.25 M85.54 52.5 C63.41 34.22, 40.13 12.11, 24.41 -0.64 M85.54 52.5 C67.39 37.07, 49.85 22.42, 24.41 -0.64 M91.94 52.76 C69.63 33.85, 45.94 14.75, 30.8 -0.38 M91.94 52.76 C76.62 40.54, 62.34 27.83, 30.8 -0.38 M97.58 52.37 C79.28 34.93, 57.46 18.37, 36.45 -0.77 M97.58 52.37 C78.58 36.9, 61.91 20.69, 36.45 -0.77 M103.98 52.63 C85.05 36.36, 66.64 21.29, 42.85 -0.51 M103.98 52.63 C88.38 40.56, 73.64 27.71, 42.85 -0.51 M109.62 52.23 C88.05 33.81, 64.34 12.82, 49.24 -0.25 M109.62 52.23 C93.61 38.42, 80.17 25.54, 49.24 -0.25 M116.02 52.5 C97.99 35, 76.94 20.98, 54.89 -0.64 M116.02 52.5 C99.2 37.42, 82.98 24.68, 54.89 -0.64 M122.42 52.76 C101.02 34.33, 79.28 15.7, 61.28 -0.38 M122.42 52.76 C104.45 37.26, 87.68 21.66, 61.28 -0.38 M128.06 52.36 C115.11 37.94, 97.74 28.98, 66.93 -0.78 M128.06 52.36 C105.3 31.96, 81.09 12.11, 66.93 -0.78 M134.46 52.62 C115.22 37.05, 94.8 16.85, 73.32 -0.52 M134.46 52.62 C118.83 40.3, 103.82 27.84, 73.32 -0.52 M140.1 52.23 C121.78 36.16, 104.33 23.79, 79.72 -0.25 M140.1 52.23 C121.67 36.06, 104.2 21.09, 79.72 -0.25 M146.5 52.49 C130.27 37.31, 114 25.41, 85.37 -0.65 M146.5 52.49 C127.97 37.13, 111.4 21.58, 85.37 -0.65 M152.89 52.75 C135.25 37.22, 113.38 21.24, 91.76 -0.39 M152.89 52.75 C134.65 36.91, 116.47 21.93, 91.76 -0.39 M158.54 52.36 C137.96 36.82, 118.98 16.15, 97.41 -0.78 M158.54 52.36 C139.13 35.12, 118.92 18.2, 97.41 -0.78 M164.94 52.62 C145.48 34.64, 123.24 15.22, 103.8 -0.52 M164.94 52.62 C153.15 42.63, 140.53 31.57, 103.8 -0.52 M170.58 52.23 C147.79 30.03, 123.23 12.94, 110.2 -0.26 M170.58 52.23 C147.98 32.32, 126.44 15.19, 110.2 -0.26 M176.98 52.49 C153.49 32.7, 128.36 9.84, 115.84 -0.65 M176.98 52.49 C161.28 39.4, 147.03 27.53, 115.84 -0.65 M183.37 52.75 C160.67 36.39, 141.26 17.31, 122.24 -0.39 M183.37 52.75 C164.59 36.48, 144.6 18.03, 122.24 -0.39 M189.02 52.35 C170.94 36.84, 150.17 18.81, 127.89 -0.79 M189.02 52.35 C165.89 32, 141.87 9.99, 127.89 -0.79 M195.42 52.61 C176.95 36.72, 157.44 17.94, 134.28 -0.53 M195.42 52.61 C177.2 36.48, 160.72 22.02, 134.28 -0.53 M201.06 52.22 C178.72 33.31, 161.04 15.85, 140.68 -0.26 M201.06 52.22 C189.66 40.74, 177.56 30.67, 140.68 -0.26 M207.46 52.48 C187.96 35.6, 164.98 18.48, 146.32 -0.66 M207.46 52.48 C195.06 39.39, 181.27 28.98, 146.32 -0.66 M213.85 52.74 C196.03 37.31, 179.01 21.56, 152.72 -0.4 M213.85 52.74 C199.18 40.14, 184.87 27.01, 152.72 -0.4 M219.5 52.35 C207.11 41.82, 192.59 28.59, 158.37 -0.79 M219.5 52.35 C203.71 39.59, 186.21 25.48, 158.37 -0.79 M225.89 52.61 C210.56 41.35, 197.77 28.86, 164.76 -0.53 M225.89 52.61 C201.73 32.79, 179.01 13.83, 164.76 -0.53 M231.54 52.22 C211.14 34.92, 194.89 21.25, 171.16 -0.27 M231.54 52.22 C218.12 41.7, 206.51 30.41, 171.16 -0.27 M237.94 52.48 C215 33.91, 190.71 12.64, 176.8 -0.66 M237.94 52.48 C217.52 36.56, 197.81 18.56, 176.8 -0.66 M244.33 52.74 C224.66 35.02, 207.02 20, 183.2 -0.4 M244.33 52.74 C229.65 39.2, 213.61 25.53, 183.2 -0.4 M249.98 52.34 C224.72 31.16, 200.73 11.89, 188.84 -0.8 M249.98 52.34 C230.68 35.82, 212.69 19.94, 188.84 -0.8 M256.37 52.61 C237.67 39.81, 221.44 22.12, 195.24 -0.54 M256.37 52.61 C241.64 38.58, 227.3 26.37, 195.24 -0.54 M262.02 52.21 C243.94 38.04, 227.26 18.86, 201.64 -0.27 M262.02 52.21 C239.84 31.95, 216.12 11.85, 201.64 -0.27 M268.41 52.47 C252.85 38.53, 239.32 26.58, 207.28 -0.67 M268.41 52.47 C243.58 32.46, 219.61 10.65, 207.28 -0.67 M274.81 52.73 C250.98 32.66, 228.56 15.83, 213.68 -0.41 M274.81 52.73 C255.77 35.07, 236 19.13, 213.68 -0.41 M280.46 52.34 C262.07 37.01, 242 18.71, 219.32 -0.8 M280.46 52.34 C266.89 39.9, 254.54 29.8, 219.32 -0.8 M286.85 52.6 C270.89 39.59, 259.64 30.18, 225.72 -0.54 M286.85 52.6 C267.11 35.22, 245.43 18.03, 225.72 -0.54 M292.5 52.21 C277.99 37.69, 265.16 28.82, 232.12 -0.28 M292.5 52.21 C268.94 31.66, 246.09 11.32, 232.12 -0.28 M298.89 52.47 C277.78 36.81, 260.59 19.63, 237.76 -0.67 M298.89 52.47 C278.3 34.99, 256.54 17.51, 237.76 -0.67 M305.29 52.73 C291.57 39.51, 272.41 23.42, 244.16 -0.41 M305.29 52.73 C289.89 40.22, 276.51 26.45, 244.16 -0.41 M310.94 52.33 C292.02 35.34, 270.84 19.26, 249.8 -0.81 M310.94 52.33 C293.27 37.42, 277.33 22.55, 249.8 -0.81 M317.33 52.6 C303.14 41.76, 291.14 30.46, 256.2 -0.55 M317.33 52.6 C298.06 35.78, 277.69 17.79, 256.2 -0.55 M323.73 52.86 C305.85 39.14, 291.12 24.09, 262.6 -0.28 M323.73 52.86 C310.64 40.06, 296.45 28.52, 262.6 -0.28 M329.37 52.46 C315.16 40.14, 300.76 24.68, 268.24 -0.68 M329.37 52.46 C305.42 30.97, 281.95 10.44, 268.24 -0.68 M335.77 52.72 C311.12 32.13, 289.48 12.02, 274.64 -0.42 M335.77 52.72 C319.79 38.6, 303.37 24.22, 274.64 -0.42 M341.41 52.33 C322.18 37.11, 306.24 21.47, 281.04 -0.16 M341.41 52.33 C326.66 37.66, 309.93 25.14, 281.04 -0.16 M347.81 52.59 C324.89 32.05, 301.72 10.92, 286.68 -0.55 M347.81 52.59 C333.98 39.78, 317.83 26.7, 286.68 -0.55 M354.21 52.85 C332.28 32.43, 308.05 14.35, 293.08 -0.29 M354.21 52.85 C333.41 36.41, 312.73 17.28, 293.08 -0.29 M359.85 52.46 C342.2 40.49, 325.1 24.88, 298.72 -0.68 M359.85 52.46 C337.06 33.35, 315.8 13.98, 298.72 -0.68 M366.25 52.72 C343.94 32.08, 323.47 13.75, 305.12 -0.42 M366.25 52.72 C352.18 39.98, 337.6 27.95, 305.12 -0.42 M371.89 52.32 C353.67 35.74, 330.37 16.46, 311.52 -0.16 M371.89 52.32 C359.24 40.74, 346.6 30.39, 311.52 -0.16 M378.29 52.59 C352.58 30.34, 328.44 8.62, 317.16 -0.56 M378.29 52.59 C361.83 38.77, 347.62 25.89, 317.16 -0.56 M384.69 52.85 C372.21 41.2, 358.19 29.95, 323.56 -0.29 M384.69 52.85 C361.41 32.02, 340.57 14.45, 323.56 -0.29 M390.33 52.45 C374.82 42.39, 361.63 29.15, 329.2 -0.69 M390.33 52.45 C373.15 38.58, 357.62 24.57, 329.2 -0.69 M396.73 52.71 C371.61 33.36, 348.53 9.82, 335.6 -0.43 M396.73 52.71 C376.84 34.63, 354.66 16.57, 335.6 -0.43 M402.37 52.32 C386.34 36.22, 367.14 20.29, 342 -0.17 M402.37 52.32 C377.69 31.87, 356.24 10.37, 342 -0.17 M408.77 52.58 C390.12 38.01, 373.94 19.63, 347.64 -0.56 M408.77 52.58 C391.46 37.51, 375.24 23.52, 347.64 -0.56 M415.17 52.84 C397.9 38.3, 385.08 26.1, 354.04 -0.3 M415.17 52.84 C395.08 35.03, 374.61 17.73, 354.04 -0.3 M420.81 52.45 C404.99 41.02, 391.16 29.02, 359.68 -0.69 M420.81 52.45 C408.21 41.25, 394.04 28.37, 359.68 -0.69 M427.21 52.71 C409.63 38.79, 396.56 23.84, 366.08 -0.43 M427.21 52.71 C409.38 37.73, 392.62 23.23, 366.08 -0.43 M432.85 52.31 C419.98 41.74, 403.78 29.44, 372.48 -0.17 M432.85 52.31 C418.87 38.25, 403.88 25.48, 372.48 -0.17 M439.25 52.58 C421.29 40.07, 406.6 23.77, 378.12 -0.56 M439.25 52.58 C415.11 31.29, 392.55 10.01, 378.12 -0.56 M445.65 52.84 C420.35 32.18, 398.04 12.67, 384.52 -0.3 M445.65 52.84 C422.73 33.05, 398.51 13.19, 384.52 -0.3 M451.29 52.44 C432.98 36.25, 411.57 17.67, 390.16 -0.7 M451.29 52.44 C433.31 36.3, 415.19 21.24, 390.16 -0.7 M457.69 52.7 C435.65 36.45, 413.97 14.33, 396.56 -0.44 M457.69 52.7 C442.2 40.46, 428.46 27.68, 396.56 -0.44 M463.33 52.31 C447.31 35.14, 427.67 20.75, 402.96 -0.17 M463.33 52.31 C439.77 31.76, 416.61 12.08, 402.96 -0.17 M469.73 52.57 C445.76 31.57, 422.36 10.7, 408.6 -0.57 M469.73 52.57 C446.64 32.83, 423.51 13.4, 408.6 -0.57 M476.13 52.83 C454.33 34.28, 436.27 16.18, 415 -0.31 M476.13 52.83 C456.04 33.38, 433.37 14.57, 415 -0.31 M481.77 52.44 C458.43 29.95, 434.47 8.46, 420.64 -0.7 M481.77 52.44 C459.57 32.81, 436.96 13.65, 420.64 -0.7 M488.17 52.7 C464.61 33.17, 441.66 11.75, 427.04 -0.44 M488.17 52.7 C475 40.69, 461.77 28.7, 427.04 -0.44 M493.81 52.3 C478.21 41.68, 464.38 28.35, 433.44 -0.18 M493.81 52.3 C476.71 37.04, 458.08 20.65, 433.44 -0.18 M500.21 52.57 C477.88 35.6, 459.48 15.04, 439.08 -0.57 M500.21 52.57 C478.83 34.9, 459.06 15.13, 439.08 -0.57 M506.61 52.83 C482.9 35.17, 462.02 14.55, 445.48 -0.31 M506.61 52.83 C488.3 35.74, 469.78 20.6, 445.48 -0.31 M512.25 52.43 C498.36 39.94, 482.71 24.67, 451.12 -0.71 M512.25 52.43 C489.19 31.77, 464.03 11.09, 451.12 -0.71 M518.65 52.69 C502.83 38.48, 485.85 25.17, 457.52 -0.45 M518.65 52.69 C504.43 39.84, 490.62 26.84, 457.52 -0.45 M524.29 52.3 C507.32 39.35, 492.41 23.84, 463.91 -0.18 M524.29 52.3 C503.14 33.27, 481.94 16.23, 463.91 -0.18 M530.69 52.56 C518.86 40.68, 503.26 29.8, 469.56 -0.58 M530.69 52.56 C509.83 33.09, 488.48 14.74, 469.56 -0.58 M537.09 52.82 C515.21 31.54, 491.12 13.14, 475.96 -0.32 M537.09 52.82 C516.44 34.73, 494.6 15.94, 475.96 -0.32 M542.73 52.43 C523.09 34.48, 503.07 16.7, 481.6 -0.71 M542.73 52.43 C528.98 40.39, 514.09 27.41, 481.6 -0.71 M549.13 52.69 C535.67 41.54, 521.03 28.37, 488 -0.45 M549.13 52.69 C535.09 40.77, 523.07 30.1, 488 -0.45 M555.53 52.95 C538.92 39.94, 525.86 24.32, 494.39 -0.19 M555.53 52.95 C535.93 35.95, 516.91 20.09, 494.39 -0.19 M560.41 51.9 C542.54 36.76, 520 19.67, 500.04 -0.58 M560.41 51.9 C540.34 34.55, 521.34 18.48, 500.04 -0.58 M563.79 49.54 C547.39 35.95, 532.05 23.22, 506.44 -0.32 M563.79 49.54 C545.92 32.31, 527.68 17.83, 506.44 -0.32 M565.66 45.86 C545.52 29.28, 523.89 8.1, 512.83 -0.06 M565.66 45.86 C545.69 28.89, 527.83 13.6, 512.83 -0.06 M566.78 41.53 C552.06 31.94, 540.35 16.77, 518.48 -0.46 M566.78 41.53 C556.56 30.86, 545.35 21.42, 518.48 -0.46 M567.14 36.55 C556.83 27.34, 548.77 19.5, 524.87 -0.19 M567.14 36.55 C553.07 23.72, 538.06 10.27, 524.87 -0.19 M566.74 30.9 C554.53 21.84, 542.16 7.37, 530.52 -0.59 M566.74 30.9 C554.92 22.11, 543.49 11.07, 530.52 -0.59 M566.35 25.26 C557.97 16.83, 549.03 8.62, 536.91 -0.33 M566.35 25.26 C555.01 15.82, 542.52 5.65, 536.91 -0.33 M566.71 20.27 C557.05 12.36, 549.64 2.85, 543.31 -0.07 M566.71 20.27 C560.68 13.68, 553.34 8.56, 543.31 -0.07 M566.31 14.63 C562.85 11.42, 556.67 4.39, 548.96 -0.46 M566.31 14.63 C560.48 9.08, 551.94 1.74, 548.96 -0.46 M566.67 9.64 C562.24 5.74, 560.48 3.13, 555.35 -0.2 M566.67 9.64 C562.24 5.38, 558.3 2.68, 555.35 -0.2" stroke="#2f9e44" stroke-width="0.5" fill="none"></path><path d="M13.32 0 C158.83 2.56, 303.22 1.76, 553.83 0 M13.32 0 C219.59 -0.76, 425.72 -1.03, 553.83 0 M553.83 0 C560.99 1.24, 566.89 5.22, 567.15 13.32 M553.83 0 C562.25 0.93, 566.36 6.3, 567.15 13.32 M567.15 13.32 C567.3 23.52, 565.81 29.98, 567.15 39.95 M567.15 13.32 C566.95 21.46, 567.21 28.61, 567.15 39.95 M567.15 39.95 C566.94 48.57, 563.03 51.44, 553.83 53.27 M567.15 39.95 C565.69 50.23, 564.79 55.51, 553.83 53.27 M553.83 53.27 C339.29 52.06, 125.64 52.84, 13.32 53.27 M553.83 53.27 C417.22 52.13, 280.96 52.13, 13.32 53.27 M13.32 53.27 C4.41 53, -0.16 49.6, 0 39.95 M13.32 53.27 C6.67 52.96, -1.35 49.99, 0 39.95 M0 39.95 C0 30.6, 1.78 24.88, 0 13.32 M0 39.95 C0.41 34.91, -0.72 29.33, 0 13.32 M0 13.32 C1.4 5.76, 4.85 0.51, 13.32 0 M0 13.32 C1.94 2.46, 6.71 -1.26, 13.32 0" stroke="#1e1e1e" stroke-width="1" fill="none"></path></g><g stroke-linecap="round" transform="translate(880.0366654966231 553.1229483522159) rotate(0 283.5738611076747 26.634009054311946)"><path d="M3.54 3.08 C3.54 3.08, 3.54 3.08, 3.54 3.08 M3.54 3.08 C3.54 3.08, 3.54 3.08, 3.54 3.08 M0 13.25 C2.27 9.48, 5.8 6.76, 11.16 0.42 M0 13.25 C2.38 9.49, 5.5 5.79, 11.16 0.42 M1.05 18.14 C5.63 12.63, 9.53 9.29, 16.14 0.78 M1.05 18.14 C6.18 11.38, 12.44 6.32, 16.14 0.78 M0.79 24.54 C10.87 14.64, 15.56 6.69, 21.79 0.39 M0.79 24.54 C8.16 16.5, 14.64 8.48, 21.79 0.39 M1.19 30.18 C5.76 21.21, 13.01 15.02, 26.77 0.75 M1.19 30.18 C7.08 23.05, 13.82 14.9, 26.77 0.75 M1.58 35.83 C10.1 27.93, 19.91 15.64, 32.42 0.35 M1.58 35.83 C11.62 23.57, 24.13 10.83, 32.42 0.35 M1.32 42.22 C16.65 28.51, 28.45 11.65, 37.4 0.71 M1.32 42.22 C9.48 31.68, 20.09 23.02, 37.4 0.71 M1.71 47.87 C10.97 37.44, 20.67 25.95, 43.05 0.32 M1.71 47.87 C12.76 36.23, 23 24.01, 43.05 0.32 M4.73 50.49 C17.87 32.77, 32.94 17.21, 48.03 0.68 M4.73 50.49 C22.06 30.39, 39.24 11.94, 48.03 0.68 M8.41 52.36 C19.03 41.01, 29.94 28.87, 53.68 0.28 M8.41 52.36 C26.35 33.22, 43.55 13.53, 53.68 0.28 M12.74 53.47 C21.63 41.39, 32.89 28.78, 58.66 0.64 M12.74 53.47 C21.83 43.07, 31.71 31.61, 58.66 0.64 M18.38 53.08 C36.09 34.3, 54.01 14.39, 64.31 0.25 M18.38 53.08 C28.95 41.97, 38.15 30.42, 64.31 0.25 M23.37 53.44 C38.33 37.6, 52.53 17.18, 69.29 0.61 M23.37 53.44 C38.89 37.05, 52.76 19.93, 69.29 0.61 M29.01 53.05 C45.85 35.12, 62.07 16.44, 74.94 0.22 M29.01 53.05 C39.09 42.07, 47.33 31.19, 74.94 0.22 M34 53.41 C50.88 33.66, 66.78 16.34, 79.92 0.58 M34 53.41 C44.84 41.11, 54.73 28.36, 79.92 0.58 M39.64 53.01 C51.07 40.27, 63.69 24.39, 85.57 0.18 M39.64 53.01 C55.57 35.18, 71.32 16.34, 85.57 0.18 M44.63 53.37 C59.08 37.5, 70.16 23.47, 90.55 0.54 M44.63 53.37 C53.43 42.01, 64.05 31.36, 90.55 0.54 M50.27 52.98 C67.56 35.97, 82.63 18.43, 96.2 0.15 M50.27 52.98 C66.86 34.18, 83.18 13.93, 96.2 0.15 M55.26 53.34 C67.6 40.03, 76.98 30.57, 101.18 0.51 M55.26 53.34 C69.86 36.22, 86.28 18.44, 101.18 0.51 M60.9 52.94 C77 33.3, 93.63 13.76, 106.83 0.11 M60.9 52.94 C76.47 34.71, 93.36 14.33, 106.83 0.11 M65.89 53.3 C78.95 40.82, 88.63 26, 111.81 0.47 M65.89 53.3 C79.68 37.78, 93.26 23.86, 111.81 0.47 M71.53 52.91 C89.36 32.12, 104.72 11.87, 116.8 0.83 M71.53 52.91 C88.47 34.03, 105.18 13.22, 116.8 0.83 M76.52 53.27 C91.35 36.04, 103.94 21.1, 122.44 0.44 M76.52 53.27 C94.63 34.72, 109.41 14.95, 122.44 0.44 M82.16 52.87 C96.73 35.65, 110.34 21.71, 127.43 0.8 M82.16 52.87 C91.04 41.8, 99.72 30.94, 127.43 0.8 M87.15 53.23 C98.75 38.52, 110.7 27.61, 133.07 0.4 M87.15 53.23 C97.52 40.49, 106.98 30.21, 133.07 0.4 M92.14 53.59 C106.37 36.27, 124.69 19.38, 138.06 0.76 M92.14 53.59 C101.09 43.14, 112 30.16, 138.06 0.76 M97.78 53.2 C112.33 35.67, 130.05 17.05, 143.7 0.37 M97.78 53.2 C114.86 33.93, 133.49 12.07, 143.7 0.37 M102.77 53.56 C115.21 35.53, 129.67 22.04, 148.69 0.73 M102.77 53.56 C114.85 38.64, 128.12 24.59, 148.69 0.73 M108.41 53.16 C122.52 40.67, 133.21 23.59, 154.33 0.33 M108.41 53.16 C122.59 37.37, 136.26 23.3, 154.33 0.33 M113.4 53.52 C132.59 33.69, 149.47 14.08, 159.32 0.69 M113.4 53.52 C124.61 39.05, 137.1 27.22, 159.32 0.69 M119.04 53.13 C134.18 35.62, 151.16 16.98, 164.96 0.3 M119.04 53.13 C131.27 39.63, 144.85 23.7, 164.96 0.3 M124.03 53.49 C138.07 35.83, 156.56 16.58, 169.95 0.66 M124.03 53.49 C139.13 35.3, 154.68 16.91, 169.95 0.66 M129.67 53.1 C144.46 38.25, 158 19.46, 175.59 0.27 M129.67 53.1 C148.95 32.7, 165.37 10.87, 175.59 0.27 M134.66 53.46 C148.02 40.46, 157.48 25.22, 180.58 0.63 M134.66 53.46 C149.53 35.86, 163.12 20.61, 180.58 0.63 M140.3 53.06 C155.77 37.18, 165.22 21.39, 186.22 0.23 M140.3 53.06 C156.94 33.43, 173.72 13.14, 186.22 0.23 M145.29 53.42 C161.01 35.84, 177.68 15.9, 191.21 0.59 M145.29 53.42 C156.76 41.6, 166.89 27.29, 191.21 0.59 M150.93 53.03 C164.11 39.19, 179.11 23.02, 196.85 0.2 M150.93 53.03 C163.7 39.04, 175.57 24.18, 196.85 0.2 M155.92 53.39 C170.78 35.63, 187.44 14.86, 201.84 0.56 M155.92 53.39 C166.61 42.01, 175.85 29.89, 201.84 0.56 M161.56 52.99 C176.38 38.18, 190.61 22.07, 207.48 0.16 M161.56 52.99 C171.23 41.72, 181 31.38, 207.48 0.16 M166.55 53.35 C180.45 39.27, 191.11 24.56, 212.47 0.52 M166.55 53.35 C176.46 42.26, 187.44 29.77, 212.47 0.52 M172.19 52.96 C187.3 32.88, 204.89 14.26, 218.11 0.13 M172.19 52.96 C184.39 39.15, 197.26 25.7, 218.11 0.13 M177.18 53.32 C192.78 33.93, 211.12 13.84, 223.1 0.49 M177.18 53.32 C188.26 39.79, 200.25 27.97, 223.1 0.49 M182.82 52.92 C197.12 38.33, 209.03 20.78, 228.09 0.85 M182.82 52.92 C200.21 35.44, 215.16 16.09, 228.09 0.85 M187.81 53.28 C205.34 32.39, 224.64 13.88, 233.73 0.45 M187.81 53.28 C203.84 34.45, 221.88 14.06, 233.73 0.45 M193.45 52.89 C212.78 31.24, 230.05 11.91, 238.72 0.81 M193.45 52.89 C210.08 34.78, 224.89 14.92, 238.72 0.81 M198.44 53.25 C216.35 30.84, 235.95 13.89, 244.36 0.42 M198.44 53.25 C211.31 39.29, 224.47 25.39, 244.36 0.42 M203.42 53.61 C220.67 34.36, 236.55 18.19, 249.35 0.78 M203.42 53.61 C212.06 43.11, 221.72 31.55, 249.35 0.78 M209.07 53.21 C220.17 41.92, 227.75 31.18, 254.99 0.38 M209.07 53.21 C226.1 35.15, 242.16 15.51, 254.99 0.38 M214.05 53.57 C226.73 39.03, 240.6 23.65, 259.98 0.74 M214.05 53.57 C231.92 34.85, 247.95 14.72, 259.98 0.74 M219.7 53.18 C233 36.4, 244.22 21.22, 265.62 0.35 M219.7 53.18 C229.71 41.38, 238.98 30.17, 265.62 0.35 M224.68 53.54 C239.53 35.7, 255.56 16.86, 270.61 0.71 M224.68 53.54 C240.83 33.28, 258.95 14.88, 270.61 0.71 M230.33 53.14 C248.81 31.2, 267.23 10.37, 276.25 0.31 M230.33 53.14 C245.99 36.24, 261.24 17.89, 276.25 0.31 M235.32 53.5 C246.56 37.27, 261.44 23.4, 281.24 0.68 M235.32 53.5 C249.75 37.03, 263.48 22.44, 281.24 0.68 M240.96 53.11 C254.8 38.3, 267.98 19.84, 286.88 0.28 M240.96 53.11 C259.79 31.56, 278.09 12.47, 286.88 0.28 M245.95 53.47 C258.43 40.45, 273.52 25.92, 291.87 0.64 M245.95 53.47 C259.32 37.69, 272.85 21.51, 291.87 0.64 M251.59 53.08 C269.15 34.64, 283.65 17.12, 297.51 0.25 M251.59 53.08 C261.84 40.67, 271.68 29.32, 297.51 0.25 M256.58 53.44 C273.51 33.37, 292.03 14.17, 302.5 0.61 M256.58 53.44 C266.57 40.78, 277.82 28.79, 302.5 0.61 M262.22 53.04 C274.66 39.55, 284.61 27.57, 308.14 0.21 M262.22 53.04 C281.21 31.63, 297.85 11.74, 308.14 0.21 M267.21 53.4 C284.89 32.56, 304.49 11.31, 313.13 0.57 M267.21 53.4 C278.56 40.19, 291.27 27.56, 313.13 0.57 M272.85 53.01 C284.07 39.5, 298.16 25.01, 318.77 0.18 M272.85 53.01 C282.45 42.88, 292.79 31.49, 318.77 0.18 M277.84 53.37 C287.39 41.59, 294.57 32.59, 323.76 0.54 M277.84 53.37 C287.67 40.83, 298.48 28.73, 323.76 0.54 M283.48 52.97 C298.87 37.04, 313.88 20.5, 328.75 0.9 M283.48 52.97 C301.86 32.49, 319.03 13.74, 328.75 0.9 M288.47 53.33 C302.28 37.84, 313.69 25.84, 334.39 0.5 M288.47 53.33 C302.33 35.07, 318.82 18.88, 334.39 0.5 M294.11 52.94 C313.54 34.28, 327.58 14.46, 339.38 0.86 M294.11 52.94 C309.08 37.84, 322.14 22.11, 339.38 0.86 M299.1 53.3 C313.93 38.15, 330.03 17.71, 345.02 0.47 M299.1 53.3 C309.23 42.52, 317.83 31.06, 345.02 0.47 M304.08 53.66 C315.81 40.58, 330.98 25.18, 350.01 0.83 M304.08 53.66 C321.92 33.27, 339.63 14.61, 350.01 0.83 M309.73 53.26 C322.79 40.47, 334.76 23.77, 355.65 0.43 M309.73 53.26 C320.28 40.4, 330.71 28.93, 355.65 0.43 M314.71 53.62 C322.38 43.67, 333.92 33.97, 360.64 0.79 M314.71 53.62 C330.04 37.75, 343.11 20.46, 360.64 0.79 M320.36 53.23 C333.26 40.11, 346.63 23.57, 366.28 0.4 M320.36 53.23 C333.65 37.29, 346.81 22.79, 366.28 0.4 M325.34 53.59 C339.1 38.07, 352.29 23.84, 371.27 0.76 M325.34 53.59 C335.78 40.83, 346.33 31.16, 371.27 0.76 M330.99 53.19 C344.51 36.83, 359.7 22, 376.91 0.36 M330.99 53.19 C346.38 36.61, 361.21 18.49, 376.91 0.36 M335.97 53.55 C346.07 40.89, 361.09 26.78, 381.9 0.72 M335.97 53.55 C348.62 37.97, 363.18 22.44, 381.9 0.72 M341.62 53.16 C361.44 30.29, 376.17 13.04, 387.54 0.33 M341.62 53.16 C352 41.44, 363.78 27.61, 387.54 0.33 M346.6 53.52 C359.27 40.96, 369.61 29.2, 392.53 0.69 M346.6 53.52 C362.49 35.05, 380.17 15.05, 392.53 0.69 M352.25 53.13 C368.74 35.35, 382.61 18.79, 398.17 0.3 M352.25 53.13 C369.28 33.43, 386.85 13.98, 398.17 0.3 M357.23 53.49 C368.77 40.7, 384.79 24.09, 403.16 0.66 M357.23 53.49 C371.99 37.3, 387.66 19.18, 403.16 0.66 M362.88 53.09 C378.19 33.97, 397.4 12.48, 408.8 0.26 M362.88 53.09 C372.74 41.11, 384.04 28.6, 408.8 0.26 M367.86 53.45 C377.81 41.96, 389.55 26.23, 413.79 0.62 M367.86 53.45 C381.58 38.37, 393.63 22.31, 413.79 0.62 M373.51 53.06 C389.2 30.8, 410 13.52, 419.43 0.23 M373.51 53.06 C389.7 33.88, 406.55 15.29, 419.43 0.23 M378.49 53.42 C391.36 35.03, 406.45 18.75, 424.42 0.59 M378.49 53.42 C392.53 38.13, 404.85 22.86, 424.42 0.59 M384.14 53.02 C397.72 38.6, 408.57 22.8, 429.4 0.95 M384.14 53.02 C395.89 39.85, 406.21 25.69, 429.4 0.95 M389.12 53.38 C406.37 35.31, 423.7 14.77, 435.05 0.55 M389.12 53.38 C404.44 35.47, 418.97 19.63, 435.05 0.55 M394.77 52.99 C410.47 36.49, 428.7 16.23, 440.03 0.91 M394.77 52.99 C409.21 36.94, 421.07 23.15, 440.03 0.91 M399.75 53.35 C411.09 40.24, 425.49 23.95, 445.68 0.52 M399.75 53.35 C414.87 37.29, 429.6 20.21, 445.68 0.52 M404.74 53.71 C421.65 33.95, 440.11 13.14, 450.66 0.88 M404.74 53.71 C421.68 34.01, 438.98 15.48, 450.66 0.88 M410.38 53.31 C420.42 42.56, 431.94 32.41, 456.31 0.48 M410.38 53.31 C429.02 32.05, 447.75 12.52, 456.31 0.48 M415.37 53.67 C429.77 39.2, 439.16 24.14, 461.29 0.84 M415.37 53.67 C426.55 41.39, 436.22 29.84, 461.29 0.84 M421.01 53.28 C436.45 37.74, 449.84 22.08, 466.94 0.45 M421.01 53.28 C438.52 33.88, 453.64 15.48, 466.94 0.45 M426 53.64 C437.18 38.29, 450.28 23.44, 471.92 0.81 M426 53.64 C434.83 42.96, 443.26 32.61, 471.92 0.81 M431.64 53.24 C444.4 39.01, 454.78 25.53, 477.57 0.41 M431.64 53.24 C444.04 40.27, 456.31 26.19, 477.57 0.41 M436.63 53.6 C452.31 34.15, 468.41 15.28, 482.55 0.77 M436.63 53.6 C448.37 41.84, 457.74 29.54, 482.55 0.77 M442.27 53.21 C455.14 37.75, 467.08 22.83, 488.2 0.38 M442.27 53.21 C451.78 43.3, 459.45 32.48, 488.2 0.38 M447.26 53.57 C466.26 33.1, 484.34 11.05, 493.18 0.74 M447.26 53.57 C458.6 39.91, 469.1 27.2, 493.18 0.74 M452.9 53.17 C464.57 39.37, 477.76 28.97, 498.83 0.35 M452.9 53.17 C467.9 37.27, 481.31 19.81, 498.83 0.35 M457.89 53.54 C476.1 31.84, 493.77 12.32, 503.82 0.71 M457.89 53.54 C466.84 42.61, 477.59 32.46, 503.82 0.71 M463.53 53.14 C480.22 34.63, 495.37 16.19, 509.46 0.31 M463.53 53.14 C474.62 42.26, 483.83 29.27, 509.46 0.31 M468.52 53.5 C480.71 39.42, 491.42 24.69, 514.45 0.67 M468.52 53.5 C477.99 41.55, 488.49 29.93, 514.45 0.67 M474.16 53.11 C493.58 35.38, 510.11 14.75, 520.09 0.28 M474.16 53.11 C490.54 34.66, 506.61 15.42, 520.09 0.28 M479.15 53.47 C492.02 35.75, 509.17 21.92, 525.08 0.64 M479.15 53.47 C490.77 40.64, 502.56 27.79, 525.08 0.64 M484.79 53.07 C498.45 39.74, 506.95 27.83, 530.06 1 M484.79 53.07 C497.09 39.05, 509.16 26.13, 530.06 1 M489.78 53.43 C502.44 39.13, 514.27 24.96, 535.71 0.6 M489.78 53.43 C500.36 41.47, 509.32 29.99, 535.71 0.6 M495.42 53.04 C513.77 34.03, 526.93 16.91, 540.69 0.96 M495.42 53.04 C506.58 41.22, 517.7 29.07, 540.69 0.96 M500.41 53.4 C511.34 38.76, 525 22.94, 546.34 0.57 M500.41 53.4 C514.96 37.51, 529.35 20.57, 546.34 0.57 M506.05 53 C520.93 32.29, 537.15 16.33, 551.32 0.93 M506.05 53 C522.09 35.57, 537.39 16.48, 551.32 0.93 M511.04 53.36 C528.1 37.1, 542.89 17.91, 556.97 0.53 M511.04 53.36 C523 42.32, 533.38 28.84, 556.97 0.53 M516.03 53.72 C531.02 34.32, 548.61 17.1, 560.64 2.4 M516.03 53.72 C525.85 43.63, 535.14 31.86, 560.64 2.4 M521.67 53.33 C530.74 43.9, 538.04 32.99, 564.32 4.27 M521.67 53.33 C535.96 35.72, 552.41 18.82, 564.32 4.27 M526.66 53.69 C539.57 39.29, 555.33 19.65, 566.68 7.65 M526.66 53.69 C540.46 36.64, 556.13 18.57, 566.68 7.65 M532.3 53.29 C542.68 39.72, 554.52 25.03, 566.42 14.05 M532.3 53.29 C540.42 44.91, 548.22 35.79, 566.42 14.05 M537.29 53.65 C542.86 44.18, 549.71 37.39, 566.81 19.69 M537.29 53.65 C548.13 41.49, 559.7 29.67, 566.81 19.69 M542.93 53.26 C552.29 41.91, 558.57 31.52, 567.21 25.33 M542.93 53.26 C553.51 42.07, 562.8 31.81, 567.21 25.33 M547.92 53.62 C552.99 45.46, 557.98 38.42, 566.94 31.73 M547.92 53.62 C551.88 48.01, 556.95 43.94, 566.94 31.73 M553.56 53.22 C557.88 46.78, 565.36 42.99, 567.34 37.38 M553.56 53.22 C559.77 46.33, 564.09 41.12, 567.34 37.38 M559.2 52.83 C561.21 51.64, 563.67 48.57, 567.08 43.77 M559.2 52.83 C561.32 51.09, 562.83 49.84, 567.08 43.77 M3.12 49.76 C3.12 49.76, 3.12 49.76, 3.12 49.76 M3.12 49.76 C3.12 49.76, 3.12 49.76, 3.12 49.76 M12.54 52.64 C8.78 49.84, 5.75 44.5, 1.22 42.8 M12.54 52.64 C8.8 48.69, 4.19 45.44, 1.22 42.8 M18.18 52.25 C12.53 48.16, 9.57 45.82, 0.82 37.16 M18.18 52.25 C14.36 47.76, 9.37 43.28, 0.82 37.16 M24.58 52.51 C18.58 48.84, 11.64 41.19, 1.18 32.17 M24.58 52.51 C17.75 46.24, 12.17 40.12, 1.18 32.17 M30.22 52.12 C17.98 42.54, 6.35 32.18, 0.79 26.53 M30.22 52.12 C24.12 47.05, 17.55 41.44, 0.79 26.53 M36.62 52.38 C23.63 38.72, 8.22 28.23, 0.39 20.89 M36.62 52.38 C26.94 44.49, 17.88 35.7, 0.39 20.89 M43.02 52.64 C34.71 45.29, 23.53 33.57, 0.75 15.9 M43.02 52.64 C29.52 39.66, 15.05 26.52, 0.75 15.9 M48.66 52.24 C36.91 40.03, 24.92 31.53, 0.36 10.26 M48.66 52.24 C37.87 43.56, 26.12 34.08, 0.36 10.26 M55.06 52.51 C33.13 34.9, 13.73 16.08, 1.47 5.93 M55.06 52.51 C42.77 43.64, 32.95 31.84, 1.47 5.93 M60.7 52.11 C49.31 40.59, 38.42 32.15, 4.1 2.91 M60.7 52.11 C44.4 39.09, 28.53 24.51, 4.1 2.91 M67.1 52.37 C55.49 41.77, 41.65 29.74, 7.48 0.54 M67.1 52.37 C53.68 39.59, 40.17 27.09, 7.48 0.54 M73.5 52.63 C51.58 35.66, 28.42 15.47, 13.12 0.15 M73.5 52.63 C52.48 34.04, 30.93 17.6, 13.12 0.15 M79.14 52.24 C56.17 31.81, 33.59 11.91, 18.76 -0.25 M79.14 52.24 C55.51 32.01, 31.97 11.71, 18.76 -0.25 M85.54 52.5 C68.05 36.8, 51.98 20.4, 24.41 -0.64 M85.54 52.5 C69.48 38.72, 54.27 25.11, 24.41 -0.64 M91.94 52.76 C70.04 33.81, 46.44 14.91, 30.8 -0.38 M91.94 52.76 C71.25 34.94, 51.73 15.38, 30.8 -0.38 M97.58 52.37 C79.34 37.32, 62.64 23.66, 36.45 -0.77 M97.58 52.37 C81.84 39.6, 67.44 26.4, 36.45 -0.77 M103.98 52.63 C85.67 33.15, 62.26 17.5, 42.85 -0.51 M103.98 52.63 C84.79 35.38, 64.16 18.49, 42.85 -0.51 M109.62 52.23 C90.48 36.75, 72.74 21.78, 49.24 -0.25 M109.62 52.23 C89.31 36.02, 69.56 17.28, 49.24 -0.25 M116.02 52.5 C97.99 36.16, 79.65 22.95, 54.89 -0.64 M116.02 52.5 C102.78 39.31, 87.37 27.54, 54.89 -0.64 M122.42 52.76 C103.65 38.05, 87.07 23.7, 61.28 -0.38 M122.42 52.76 C105.84 36.43, 87.5 21.94, 61.28 -0.38 M128.06 52.36 C112.56 38.76, 97.07 23.23, 66.93 -0.78 M128.06 52.36 C105.75 33.03, 84.32 12.26, 66.93 -0.78 M134.46 52.62 C112.32 33.96, 88.72 11.01, 73.32 -0.52 M134.46 52.62 C118.35 37.9, 102.28 23.77, 73.32 -0.52 M140.1 52.23 C126.04 41.34, 115.24 31.19, 79.72 -0.25 M140.1 52.23 C124.01 38.11, 107.84 24.92, 79.72 -0.25 M146.5 52.49 C124.79 35, 107.12 17.08, 85.37 -0.65 M146.5 52.49 C134.37 41.25, 120.91 28.97, 85.37 -0.65 M152.89 52.75 C138.37 39.1, 126.21 26.24, 91.76 -0.39 M152.89 52.75 C135.08 38.18, 119.42 24.56, 91.76 -0.39 M158.54 52.36 C142.92 37.92, 122.84 20.74, 97.41 -0.78 M158.54 52.36 C144.91 41.59, 134 30.15, 97.41 -0.78 M164.94 52.62 C141.82 34.44, 118.32 12, 103.8 -0.52 M164.94 52.62 C143.39 33.02, 120.11 13.28, 103.8 -0.52 M170.58 52.23 C149.86 32.3, 126.03 15.44, 110.2 -0.26 M170.58 52.23 C150.23 34.23, 129.79 17.61, 110.2 -0.26 M176.98 52.49 C162.13 39.65, 142.09 21.66, 115.84 -0.65 M176.98 52.49 C156.05 33.37, 136.19 15.98, 115.84 -0.65 M183.37 52.75 C161.29 35.38, 140.54 14.88, 122.24 -0.39 M183.37 52.75 C168.03 40.11, 153.54 26.22, 122.24 -0.39 M189.02 52.35 C173.4 37.24, 158.71 24.42, 127.89 -0.79 M189.02 52.35 C175.13 39.89, 161.89 27.62, 127.89 -0.79 M195.42 52.61 C172.02 33.66, 150.52 15.73, 134.28 -0.53 M195.42 52.61 C173.39 32.23, 152.62 12.97, 134.28 -0.53 M201.06 52.22 C183.67 37.14, 168.84 21.31, 140.68 -0.26 M201.06 52.22 C185.55 39.4, 171.35 26.77, 140.68 -0.26 M207.46 52.48 C183.48 31.1, 159.69 14.1, 146.32 -0.66 M207.46 52.48 C190.78 38.53, 175.81 24.02, 146.32 -0.66 M213.85 52.74 C193.48 31.8, 167.61 12.74, 152.72 -0.4 M213.85 52.74 C195.34 36.57, 174.57 19.04, 152.72 -0.4 M219.5 52.35 C200.84 33.94, 179.79 18.14, 158.37 -0.79 M219.5 52.35 C199.36 34.03, 178.02 17.52, 158.37 -0.79 M225.89 52.61 C203.86 34.67, 181.02 14.73, 164.76 -0.53 M225.89 52.61 C209.6 38.59, 192.85 23.45, 164.76 -0.53 M231.54 52.22 C206.8 31.9, 185.96 9.41, 171.16 -0.27 M231.54 52.22 C212.3 35.94, 193.27 20.51, 171.16 -0.27 M237.94 52.48 C226.92 39.36, 212.1 28.38, 176.8 -0.66 M237.94 52.48 C222.09 37.47, 204.18 23.18, 176.8 -0.66 M244.33 52.74 C227 35.43, 207.54 19.99, 183.2 -0.4 M244.33 52.74 C225.29 36.97, 204.76 18.7, 183.2 -0.4 M249.98 52.34 C235.01 36.64, 216.82 25.76, 188.84 -0.8 M249.98 52.34 C236.39 39.67, 219.93 26.53, 188.84 -0.8 M256.37 52.61 C242.78 39.56, 228.74 27.08, 195.24 -0.54 M256.37 52.61 C243.57 40.17, 229.05 28.54, 195.24 -0.54 M262.02 52.21 C239.11 32.33, 217.46 15.72, 201.64 -0.27 M262.02 52.21 C239.65 34.24, 220.06 14.62, 201.64 -0.27 M268.41 52.47 C248.53 33.33, 229.59 18.46, 207.28 -0.67 M268.41 52.47 C249.2 34.58, 230.25 17.69, 207.28 -0.67 M274.81 52.73 C255.13 35.21, 233.11 16.06, 213.68 -0.41 M274.81 52.73 C252.37 33.45, 228.4 12.02, 213.68 -0.41 M280.46 52.34 C257.98 31.29, 236.06 13.15, 219.32 -0.8 M280.46 52.34 C266.85 42.4, 254.08 31.6, 219.32 -0.8 M286.85 52.6 C266.69 33.44, 242.71 16.33, 225.72 -0.54 M286.85 52.6 C266.62 35.01, 246.75 18.1, 225.72 -0.54 M292.5 52.21 C273.09 34.99, 254.29 20.34, 232.12 -0.28 M292.5 52.21 C272.36 34.72, 252.92 17.57, 232.12 -0.28 M298.89 52.47 C277.16 34.09, 253.02 13.58, 237.76 -0.67 M298.89 52.47 C283.72 39.88, 270.21 28.45, 237.76 -0.67 M305.29 52.73 C287.83 38.33, 267.17 22.42, 244.16 -0.41 M305.29 52.73 C291.57 39.54, 277.22 28.03, 244.16 -0.41 M310.94 52.33 C298.24 41.35, 282.42 30.49, 249.8 -0.81 M310.94 52.33 C287.9 32.98, 263.83 12.85, 249.8 -0.81 M317.33 52.6 C296.52 37.23, 279.5 21.16, 256.2 -0.55 M317.33 52.6 C297.59 34.87, 279.32 19.47, 256.2 -0.55 M323.73 52.86 C298.95 35.08, 278.84 12.41, 262.6 -0.28 M323.73 52.86 C310.16 41.48, 297.46 29.74, 262.6 -0.28 M329.37 52.46 C309.38 33.12, 288.87 15.36, 268.24 -0.68 M329.37 52.46 C313.86 37.87, 297.82 25.1, 268.24 -0.68 M335.77 52.72 C313.92 32.04, 291.73 12.32, 274.64 -0.42 M335.77 52.72 C319.62 39.24, 304.96 25.69, 274.64 -0.42 M341.41 52.33 C324.28 36.62, 304.99 22.9, 281.04 -0.16 M341.41 52.33 C328.77 41.34, 314.24 30.15, 281.04 -0.16 M347.81 52.59 C325.41 32.7, 302.41 10, 286.68 -0.55 M347.81 52.59 C333.66 41.24, 320.48 28.84, 286.68 -0.55 M354.21 52.85 C328.21 31.01, 303.39 11.24, 293.08 -0.29 M354.21 52.85 C339.46 40.33, 326.38 28.07, 293.08 -0.29 M359.85 52.46 C344.25 39.55, 327.99 26.05, 298.72 -0.68 M359.85 52.46 C343.04 36.33, 326.11 22.53, 298.72 -0.68 M366.25 52.72 C341.76 33.12, 318.94 9.36, 305.12 -0.42 M366.25 52.72 C344.46 33.64, 322.52 14.19, 305.12 -0.42 M371.89 52.32 C357.21 35.99, 338.19 23.85, 311.52 -0.16 M371.89 52.32 C350.15 32.98, 327.17 12.51, 311.52 -0.16 M378.29 52.59 C360.15 34.99, 341.89 22.3, 317.16 -0.56 M378.29 52.59 C364.77 40.44, 351.35 29.46, 317.16 -0.56 M384.69 52.85 C364.02 31.98, 338.14 15.47, 323.56 -0.29 M384.69 52.85 C363.64 33.23, 343.38 14.32, 323.56 -0.29 M390.33 52.45 C378.87 39.01, 362.71 28.62, 329.2 -0.69 M390.33 52.45 C376.81 41.29, 362.31 27.09, 329.2 -0.69 M396.73 52.71 C377.95 36.9, 360.83 19.03, 335.6 -0.43 M396.73 52.71 C373.35 32.96, 350.02 13.52, 335.6 -0.43 M402.37 52.32 C378.08 32.13, 354.68 11.89, 342 -0.17 M402.37 52.32 C382.11 33.16, 360.86 16.78, 342 -0.17 M408.77 52.58 C384.79 32.62, 365.31 12.76, 347.64 -0.56 M408.77 52.58 C388.31 34.79, 367.87 17.22, 347.64 -0.56 M415.17 52.84 C393.41 33.42, 374.04 16.33, 354.04 -0.3 M415.17 52.84 C396.01 37.51, 377.53 19.68, 354.04 -0.3 M420.81 52.45 C408.76 40.5, 394.84 29.38, 359.68 -0.69 M420.81 52.45 C403.85 39.03, 387.22 23.8, 359.68 -0.69 M427.21 52.71 C408.72 37.52, 392.13 19.54, 366.08 -0.43 M427.21 52.71 C414.04 42.39, 400.29 30.21, 366.08 -0.43 M432.85 52.31 C421.37 41.11, 406.25 30.65, 372.48 -0.17 M432.85 52.31 C415.16 36.32, 397.4 22.72, 372.48 -0.17 M439.25 52.58 C427.05 41.69, 414.57 29.01, 378.12 -0.56 M439.25 52.58 C426.91 41.38, 413.35 30.63, 378.12 -0.56 M445.65 52.84 C427.69 36.84, 406.65 19.78, 384.52 -0.3 M445.65 52.84 C428.5 37.34, 409.34 21.29, 384.52 -0.3 M451.29 52.44 C433.55 39.25, 418.91 22.1, 390.16 -0.7 M451.29 52.44 C432.08 34.96, 414.11 18.96, 390.16 -0.7 M457.69 52.7 C444.78 39.87, 431.33 29.47, 396.56 -0.44 M457.69 52.7 C442.81 39.29, 428.94 27.06, 396.56 -0.44 M463.33 52.31 C445.73 37.15, 431.75 24.86, 402.96 -0.17 M463.33 52.31 C441.61 34.16, 419.1 13.85, 402.96 -0.17 M469.73 52.57 C444.51 31.86, 421.75 9.74, 408.6 -0.57 M469.73 52.57 C454.41 38.27, 439.52 24.99, 408.6 -0.57 M476.13 52.83 C451.35 33.36, 426.49 12.64, 415 -0.31 M476.13 52.83 C453.15 33.55, 429.34 12.46, 415 -0.31 M481.77 52.44 C456.1 31.93, 432.83 10.95, 420.64 -0.7 M481.77 52.44 C459.57 33.09, 435.78 14.2, 420.64 -0.7 M488.17 52.7 C475.67 43.82, 463.91 29.27, 427.04 -0.44 M488.17 52.7 C465.69 32.82, 442.9 13.81, 427.04 -0.44 M493.81 52.3 C482.58 40.61, 469.87 30.69, 433.44 -0.18 M493.81 52.3 C472.46 33.29, 451.97 15.3, 433.44 -0.18 M500.21 52.57 C478.8 34.11, 459.5 18.64, 439.08 -0.57 M500.21 52.57 C483.83 40.03, 468.52 24.86, 439.08 -0.57 M506.61 52.83 C486.4 37.78, 467.33 17.66, 445.48 -0.31 M506.61 52.83 C490.06 39.33, 474.84 24.83, 445.48 -0.31 M512.25 52.43 C494.44 36.25, 471.7 17.99, 451.12 -0.71 M512.25 52.43 C487.06 31.59, 463.73 9.16, 451.12 -0.71 M518.65 52.69 C493.82 33.15, 470.21 12.66, 457.52 -0.45 M518.65 52.69 C498.65 35.5, 476.97 15.88, 457.52 -0.45 M524.29 52.3 C512.44 43.88, 500.58 29.28, 463.91 -0.18 M524.29 52.3 C508.42 38.36, 490.89 24, 463.91 -0.18 M530.69 52.56 C518.39 40.42, 504.98 29.56, 469.56 -0.58 M530.69 52.56 C514.97 38.83, 497.97 23.81, 469.56 -0.58 M537.09 52.82 C514.47 34.11, 492.98 13.73, 475.96 -0.32 M537.09 52.82 C513.56 33.61, 491.12 14.46, 475.96 -0.32 M542.73 52.43 C520.33 32.29, 496.94 13.73, 481.6 -0.71 M542.73 52.43 C520.48 33.91, 500.95 15.81, 481.6 -0.71 M549.13 52.69 C525.21 33.28, 502.4 13.42, 488 -0.45 M549.13 52.69 C527.41 34.76, 507.09 15.9, 488 -0.45 M555.53 52.95 C532.71 35.23, 512.37 17.72, 494.39 -0.19 M555.53 52.95 C536.93 36.44, 516.93 20.63, 494.39 -0.19 M560.41 51.9 C543.99 38.84, 532.06 25.39, 500.04 -0.58 M560.41 51.9 C547.21 39.17, 534.78 29.09, 500.04 -0.58 M563.79 49.54 C552.98 39.78, 538.97 29.84, 506.44 -0.32 M563.79 49.54 C546.57 35.64, 531.23 20.19, 506.44 -0.32 M565.66 45.86 C546.4 25.83, 525.56 9.7, 512.83 -0.06 M565.66 45.86 C544.54 28.82, 524.95 11.09, 512.83 -0.06 M566.78 41.53 C549.89 27.15, 531.8 9.37, 518.48 -0.46 M566.78 41.53 C553.14 30.68, 541.09 18.86, 518.48 -0.46 M567.14 36.55 C551.35 21.7, 533.99 6.81, 524.87 -0.19 M567.14 36.55 C558.08 29.08, 547.26 20.32, 524.87 -0.19 M566.74 30.9 C553.15 20.4, 536.52 7.26, 530.52 -0.59 M566.74 30.9 C557.13 22.54, 548.16 15.47, 530.52 -0.59 M566.35 25.26 C560.8 19.89, 550.67 12.24, 536.91 -0.33 M566.35 25.26 C557.12 18.03, 548.72 11.3, 536.91 -0.33 M566.71 20.27 C556.04 12.84, 548.94 5.23, 543.31 -0.07 M566.71 20.27 C561.07 15.23, 554.69 9.79, 543.31 -0.07 M566.31 14.63 C558.68 7.48, 553.38 4.48, 548.96 -0.46 M566.31 14.63 C561.66 10.13, 556.08 6.09, 548.96 -0.46 M566.67 9.64 C565.23 8.18, 561.91 4.48, 555.35 -0.2 M566.67 9.64 C562.97 6.96, 560.4 4.58, 555.35 -0.2" stroke="#e03131" stroke-width="0.5" fill="none"></path><path d="M13.32 0 C165.85 0.21, 317.63 -0.5, 553.83 0 M13.32 0 C148.01 -2.07, 282.49 -2.19, 553.83 0 M553.83 0 C562.67 -0.95, 566.7 4.01, 567.15 13.32 M553.83 0 C564.92 -0.6, 569.05 3.66, 567.15 13.32 M567.15 13.32 C568.16 22.57, 567.96 31.12, 567.15 39.95 M567.15 13.32 C567.97 22.13, 566.29 31.98, 567.15 39.95 M567.15 39.95 C568.83 50.24, 562.02 51.41, 553.83 53.27 M567.15 39.95 C567.73 50.64, 562.4 52.63, 553.83 53.27 M553.83 53.27 C426.04 51.89, 298.08 52, 13.32 53.27 M553.83 53.27 C417.53 54.21, 281.54 54.34, 13.32 53.27 M13.32 53.27 C5.23 53.86, 1.92 49.06, 0 39.95 M13.32 53.27 C2.63 53.11, -0.99 47.68, 0 39.95 M0 39.95 C0.52 30.77, 1.78 18.88, 0 13.32 M0 39.95 C0.47 31.81, 0.7 23.46, 0 13.32 M0 13.32 C-0.83 4.57, 3.28 0.13, 13.32 0 M0 13.32 C1.83 3.95, 3.3 0.36, 13.32 0" stroke="#1e1e1e" stroke-width="1" fill="none"></path></g><g stroke-linecap="round"><g transform="translate(11.302864384788563 519.1847023700645) rotate(0 16.081225541512254 -14.319869517662028)" fill-rule="evenodd"><path d="M-2.38 -2.16 C-1.7 -5.28, -0.47 -12.51, 2.8 -17.11 C6.07 -21.71, 12.79 -28.76, 17.23 -29.76 C21.68 -30.75, 26.9 -27.98, 29.47 -23.09 C32.03 -18.21, 37.15 -4.6, 32.63 -0.46 C28.11 3.69, 7.86 1.84, 2.36 1.79" stroke="none" stroke-width="0" fill="#2f9e44" fill-rule="evenodd"></path><path d="M1.1 -0.13 C1.47 -3.38, 0.21 -14.8, 2.74 -19.67 C5.28 -24.55, 12.21 -29.19, 16.31 -29.37 C20.41 -29.54, 24.77 -25.2, 27.34 -20.73 C29.92 -16.25, 36.22 -6.03, 31.77 -2.52 C27.32 1, 5.91 -0.2, 0.65 0.37 M0.22 -1.24 C0.92 -4.34, 2.37 -13.97, 5 -18.5 C7.63 -23.03, 12.23 -28.27, 16 -28.43 C19.77 -28.59, 24.67 -23.79, 27.63 -19.46 C30.59 -15.12, 38.57 -5.58, 33.76 -2.41 C28.94 0.75, 4.21 -0.88, -1.26 -0.48" stroke="#1e1e1e" stroke-width="1" fill="none"></path></g></g><mask></mask><g stroke-linecap="round" transform="translate(18.32137038861515 475.6091093514026) rotate(0 8.233587477254332 7.2043890425975405)"><path d="M9.96 -0.14 C11.55 0, 13.63 1.22, 14.68 2.5 C15.73 3.77, 16.29 5.95, 16.25 7.5 C16.2 9.05, 15.62 10.6, 14.39 11.82 C13.17 13.04, 10.66 14.66, 8.92 14.81 C7.17 14.96, 5.41 13.67, 3.92 12.72 C2.44 11.77, 0.52 10.55, -0.01 9.13 C-0.54 7.7, 0.01 5.58, 0.74 4.16 C1.48 2.74, 2.71 1.24, 4.39 0.62 C6.07 0, 9.85 0.53, 10.84 0.44 C11.83 0.35, 10.5 -0.06, 10.33 0.09 M10.68 -0.53 C12.52 -0.33, 14.32 1.07, 15.3 2.37 C16.28 3.66, 16.62 5.72, 16.55 7.25 C16.48 8.77, 16.15 10.25, 14.87 11.51 C13.6 12.78, 10.71 14.45, 8.88 14.84 C7.05 15.23, 5.19 14.82, 3.88 13.84 C2.58 12.85, 1.59 10.6, 1.04 8.93 C0.49 7.26, -0.05 5.22, 0.59 3.79 C1.24 2.36, 3.43 0.92, 4.89 0.37 C6.35 -0.18, 8.53 0.56, 9.36 0.48 C10.18 0.4, 9.63 -0.23, 9.82 -0.12" stroke="none" stroke-width="0" fill="#2f9e44"></path><path d="M9.86 -0.04 C11.54 0.17, 13.22 1.65, 14.35 2.88 C15.48 4.11, 16.53 5.87, 16.62 7.33 C16.71 8.78, 15.99 10.54, 14.87 11.62 C13.76 12.7, 11.82 13.55, 9.94 13.82 C8.07 14.09, 5.14 13.89, 3.62 13.25 C2.11 12.61, 1.41 11.34, 0.86 9.99 C0.3 8.63, -0.19 6.63, 0.29 5.14 C0.77 3.65, 2.1 1.79, 3.75 1.03 C5.41 0.28, 9.1 0.76, 10.21 0.63 C11.33 0.5, 10.52 0.15, 10.42 0.24 M7.98 -0.03 C9.44 -0.17, 10.75 0.98, 12.05 1.76 C13.35 2.54, 15.14 3.26, 15.78 4.66 C16.41 6.06, 16.44 8.71, 15.85 10.17 C15.25 11.63, 13.77 12.72, 12.21 13.42 C10.65 14.12, 8.21 14.69, 6.49 14.36 C4.77 14.04, 2.9 12.61, 1.88 11.46 C0.86 10.32, 0.27 9.1, 0.37 7.48 C0.47 5.86, 1.4 3.11, 2.48 1.76 C3.55 0.41, 6 -0.42, 6.84 -0.64 C7.67 -0.85, 7.37 0.34, 7.47 0.46" stroke="#1e1e1e" stroke-width="1" fill="none"></path></g><g stroke-linecap="round"><g transform="translate(11.17497815601564 453.8610907512816) rotate(0 16.081225541512254 -14.319869517662028)" fill-rule="evenodd"><path d="M1.89 2.33 C2.84 -1.24, 1.33 -15, 3.74 -19.81 C6.15 -24.61, 12.45 -26.04, 16.37 -26.51 C20.29 -26.98, 24.39 -26.94, 27.28 -22.63 C30.17 -18.32, 37.87 -4.21, 33.72 -0.65 C29.56 2.91, 8.31 -1.72, 2.37 -1.28" stroke="none" stroke-width="0" fill="#2f9e44" fill-rule="evenodd"></path><path d="M-0.53 0.63 C0.1 -2.49, 2.02 -14.52, 4.6 -19.24 C7.19 -23.97, 11.27 -27.39, 14.98 -27.71 C18.69 -28.02, 24.03 -25.54, 26.89 -21.15 C29.75 -16.77, 36.57 -4.85, 32.14 -1.4 C27.7 2.06, 5.75 -0.74, 0.27 -0.42 M1.4 -0.08 C1.88 -2.97, 2.09 -12.93, 4.18 -17.84 C6.28 -22.76, 10.18 -29.18, 13.97 -29.56 C17.77 -29.93, 24.15 -24.91, 26.93 -20.1 C29.71 -15.29, 34.84 -3.77, 30.65 -0.7 C26.47 2.37, 7.01 -1.71, 1.82 -1.69" stroke="#1e1e1e" stroke-width="1" fill="none"></path></g></g><mask></mask><g stroke-linecap="round" transform="translate(18.193484159842228 410.28549773261966) rotate(0 8.233587477254332 7.2043890425975405)"><path d="M7.15 0.42 C8.67 0.04, 10.38 0.18, 11.92 0.95 C13.46 1.72, 15.75 3.56, 16.4 5.05 C17.06 6.54, 16.56 8.53, 15.86 9.86 C15.16 11.19, 13.68 12.24, 12.2 13.04 C10.73 13.84, 8.67 14.78, 7 14.63 C5.33 14.48, 3.38 13.33, 2.19 12.16 C1 10.99, -0.05 9.11, -0.15 7.61 C-0.24 6.11, 0.51 4.44, 1.61 3.15 C2.72 1.87, 5.52 0.32, 6.47 -0.1 C7.41 -0.53, 7.24 0.39, 7.28 0.6 M9.75 0.06 C11.45 0.05, 14.02 0.93, 15.12 2.06 C16.21 3.18, 16.52 5.1, 16.32 6.81 C16.11 8.52, 15.15 11.11, 13.9 12.32 C12.64 13.52, 10.48 13.86, 8.79 14.03 C7.09 14.19, 5.13 14.04, 3.72 13.31 C2.31 12.58, 0.73 11.04, 0.32 9.65 C-0.09 8.26, 0.54 6.5, 1.27 4.96 C2 3.41, 3.13 1.25, 4.69 0.38 C6.26 -0.49, 9.89 -0.37, 10.64 -0.27 C11.4 -0.18, 9.32 0.86, 9.24 0.93" stroke="none" stroke-width="0" fill="#2f9e44"></path><path d="M7.41 0.02 C9.04 -0.16, 11.71 0.56, 13.14 1.38 C14.57 2.21, 15.53 3.57, 15.99 4.97 C16.46 6.37, 16.59 8.27, 15.94 9.79 C15.29 11.31, 13.65 13.36, 12.1 14.1 C10.56 14.83, 8.43 14.63, 6.64 14.21 C4.85 13.79, 2.39 12.84, 1.36 11.57 C0.33 10.31, 0.35 8.15, 0.46 6.64 C0.58 5.12, 0.77 3.49, 2.04 2.47 C3.31 1.44, 7.1 0.95, 8.07 0.49 C9.05 0.04, 7.87 -0.34, 7.9 -0.25 M7.26 0.76 C8.94 0.48, 11.87 0.06, 13.28 0.85 C14.68 1.64, 15.42 3.82, 15.69 5.5 C15.96 7.18, 15.68 9.51, 14.89 10.95 C14.1 12.38, 12.53 13.66, 10.94 14.1 C9.35 14.55, 6.96 14.08, 5.36 13.6 C3.75 13.13, 2.24 12.51, 1.32 11.26 C0.41 10.01, -0.41 7.65, -0.12 6.1 C0.18 4.56, 1.71 2.92, 3.09 1.98 C4.46 1.04, 7.29 0.65, 8.13 0.45 C8.96 0.26, 8.2 0.7, 8.12 0.82" stroke="#1e1e1e" stroke-width="1" fill="none"></path></g><g stroke-linecap="round"><g transform="translate(11.174978156015186 589.962217852996) rotate(0 16.081225541512254 -14.319869517662028)" fill-rule="evenodd"><path d="M-2.15 -0.51 C-0.96 -3.88, 2.22 -15.25, 5.3 -19.72 C8.37 -24.18, 12.75 -27.22, 16.3 -27.31 C19.85 -27.4, 23.88 -24.64, 26.6 -20.26 C29.32 -15.89, 36.89 -4.57, 32.64 -1.04 C28.38 2.48, 6.12 0.64, 1.09 0.91" stroke="none" stroke-width="0" fill="#ff8787" fill-rule="evenodd"></path><path d="M0.71 1.04 C1 -2.36, 0.63 -14.42, 2.92 -19.49 C5.2 -24.57, 10.28 -29.21, 14.41 -29.39 C18.55 -29.57, 24.92 -25.21, 27.73 -20.57 C30.54 -15.92, 36.11 -4.87, 31.29 -1.54 C26.48 1.79, 3.96 -0.97, -1.17 -0.57 M-0.37 0.55 C0.2 -2.78, 2.41 -13.39, 5.27 -18.23 C8.12 -23.06, 12.95 -27.69, 16.77 -28.46 C20.6 -29.24, 25.51 -27.46, 28.22 -22.87 C30.93 -18.28, 37.79 -5.02, 33.02 -0.92 C28.26 3.18, 4.9 1.61, -0.38 1.75" stroke="#1e1e1e" stroke-width="1" fill="none"></path></g></g><mask></mask><g stroke-linecap="round" transform="translate(18.193484159841773 546.3866248343336) rotate(0 8.233587477254332 7.2043890425975405)"><path d="M9.08 0.38 C10.89 0.52, 12.98 1.4, 14.25 2.44 C15.51 3.48, 16.59 5.17, 16.66 6.62 C16.73 8.07, 15.66 9.87, 14.66 11.16 C13.66 12.45, 12.29 13.99, 10.66 14.37 C9.03 14.75, 6.52 14.11, 4.9 13.45 C3.27 12.79, 1.68 11.69, 0.9 10.4 C0.13 9.11, -0.12 7.29, 0.27 5.72 C0.66 4.14, 1.8 1.83, 3.23 0.94 C4.65 0.04, 7.87 0.42, 8.81 0.34 C9.74 0.26, 8.87 0.37, 8.84 0.46 M7.86 -0.18 C9.55 -0.08, 12.6 1.06, 13.98 2.06 C15.36 3.05, 15.95 4.27, 16.16 5.8 C16.36 7.32, 16.06 9.73, 15.21 11.2 C14.36 12.67, 12.61 14.14, 11.05 14.62 C9.49 15.11, 7.49 14.75, 5.84 14.11 C4.18 13.47, 2.09 12.18, 1.14 10.81 C0.19 9.44, -0.23 7.35, 0.12 5.9 C0.46 4.45, 1.83 3.15, 3.23 2.1 C4.62 1.04, 7.69 -0.09, 8.49 -0.45 C9.29 -0.81, 8.13 -0.16, 8.04 -0.04" stroke="none" stroke-width="0" fill="#ff8787"></path><path d="M6.69 -0.2 C8.39 -0.71, 10.76 -0.47, 12.25 0.34 C13.74 1.15, 14.92 3.22, 15.62 4.67 C16.31 6.12, 16.91 7.66, 16.42 9.03 C15.94 10.39, 14.29 11.92, 12.72 12.86 C11.15 13.8, 8.8 14.79, 7.02 14.69 C5.23 14.58, 3.11 13.45, 1.99 12.22 C0.86 11, 0.29 8.9, 0.28 7.35 C0.26 5.79, 0.78 4.05, 1.89 2.89 C2.99 1.72, 6.01 0.71, 6.89 0.35 C7.76 -0.01, 7.1 0.67, 7.12 0.73 M6.57 0.21 C8.15 -0.21, 10.46 -0.25, 12.11 0.4 C13.75 1.05, 15.92 2.69, 16.45 4.1 C16.99 5.5, 15.86 7.32, 15.33 8.81 C14.8 10.3, 14.56 12.12, 13.28 13.02 C12 13.92, 9.45 14.38, 7.63 14.21 C5.81 14.04, 3.66 12.98, 2.35 11.97 C1.04 10.97, -0.2 9.72, -0.24 8.18 C-0.28 6.63, 0.9 4.08, 2.1 2.7 C3.3 1.32, 6.26 0.3, 6.95 -0.1 C7.64 -0.51, 6.35 0.16, 6.23 0.24" stroke="#1e1e1e" stroke-width="1" fill="none"></path></g><g transform="translate(570.4500260143211 660.9394301996408) rotate(0 31.65399169921875 17.5)"><text x="0" y="0" font-family="Virgil, Segoe UI Emoji" font-size="28px" fill="#1e1e1e" text-anchor="start" style="white-space: pre;" direction="ltr" dominant-baseline="text-before-edge">0.35</text></g><g transform="translate(175.33534316276678 664.4487187055558) rotate(0 9.631996154785156 17.5)"><text x="0" y="0" font-family="Virgil, Segoe UI Emoji" font-size="28px" fill="#1e1e1e" text-anchor="start" style="white-space: pre;" direction="ltr" dominant-baseline="text-before-edge">0</text></g><g transform="translate(1436.9053605562046 653.9440744525982) rotate(0 7 35)"><text x="0" y="0" font-family="Virgil, Segoe UI Emoji" font-size="28px" fill="#1e1e1e" text-anchor="start" style="white-space: pre;" direction="ltr" dominant-baseline="text-before-edge">1</text><text x="0" y="35" font-family="Virgil, Segoe UI Emoji" font-size="28px" fill="#1e1e1e" text-anchor="start" style="white-space: pre;" direction="ltr" dominant-baseline="text-before-edge"></text></g></svg>