<svg version="1.1" xmlns="http://www.w3.org/2000/svg" viewBox="0 0 872.3331597358147 868.412625462222" width="872.3331597358147" height="868.412625462222">
  <!-- svg-source:excalidraw -->
  
  <defs>
    <style class="style-fonts">
      @font-face {
        font-family: "Virgil";
        src: url("https://excalidraw.com/Virgil.woff2");
      }
      @font-face {
        font-family: "Cascadia";
        src: url("https://excalidraw.com/Cascadia.woff2");
      }
      @font-face {
        font-family: "Assistant";
        src: url("https://excalidraw.com/Assistant-Regular.woff2");
      }
    </style>
    
  </defs>
  <rect x="0" y="0" width="872.3331597358147" height="868.412625462222" fill="#ffffff"></rect><g stroke-linecap="round" transform="translate(111.7842661789773 603.927827722639) rotate(0 115.28499749315233 22.5)"><path d="M2.99 2.6 C2.99 2.6, 2.99 2.6, 2.99 2.6 M2.99 2.6 C2.99 2.6, 2.99 2.6, 2.99 2.6 M0.76 11.27 C4.31 9.65, 5.98 5.09, 9.95 0.7 M0.76 11.27 C3.22 9.49, 5.1 6.95, 9.95 0.7 M0.5 17.66 C6.01 13.15, 11.11 6.49, 15.59 0.3 M0.5 17.66 C5.09 13.09, 8.6 8.89, 15.59 0.3 M0.9 23.31 C4.26 18.9, 9.72 11.05, 20.58 0.66 M0.9 23.31 C4.92 18.68, 9.74 12.86, 20.58 0.66 M0.64 29.7 C7.82 21.54, 12.77 17.74, 26.22 0.27 M0.64 29.7 C5.51 23.53, 11.29 17.51, 26.22 0.27 M1.03 35.35 C14.23 20.66, 25.99 8.87, 31.21 0.63 M1.03 35.35 C8.97 26.01, 15.51 17.69, 31.21 0.63 M2.08 40.24 C12.46 26.43, 25.66 15.52, 36.85 0.24 M2.08 40.24 C12.32 29.37, 22.5 16.51, 36.85 0.24 M5.1 42.86 C13.83 32.47, 24.79 22.6, 41.84 0.6 M5.1 42.86 C19.93 27.32, 31.69 12.15, 41.84 0.6 M8.78 44.73 C15.8 33.65, 26.98 26.48, 47.48 0.2 M8.78 44.73 C16.42 35.04, 24.07 26.96, 47.48 0.2 M14.42 44.33 C21.52 33.93, 29.76 24.52, 52.47 0.56 M14.42 44.33 C28.68 27.98, 43.18 11.04, 52.47 0.56 M19.41 44.69 C25.56 34.06, 37.16 26.63, 58.11 0.17 M19.41 44.69 C28.48 34.45, 37.45 24.65, 58.11 0.17 M25.05 44.3 C34.47 36.66, 38.29 26.29, 63.1 0.53 M25.05 44.3 C35.27 32.85, 42.98 22.44, 63.1 0.53 M30.04 44.66 C40.69 35.15, 48.89 21.67, 68.74 0.13 M30.04 44.66 C40.88 32.38, 52.52 19.29, 68.74 0.13 M35.68 44.27 C46.91 29.74, 62.35 13.94, 73.73 0.49 M35.68 44.27 C44.8 33.02, 55.16 22.93, 73.73 0.49 M40.67 44.63 C52.2 30.14, 67.2 14.55, 78.72 0.85 M40.67 44.63 C49.48 33.58, 59.94 23.76, 78.72 0.85 M46.31 44.23 C57.46 31.79, 67.06 21.6, 84.36 0.46 M46.31 44.23 C56.68 32.05, 66.98 21.04, 84.36 0.46 M51.3 44.59 C61.62 34.82, 70.62 21.06, 89.35 0.82 M51.3 44.59 C58.95 34.24, 67.96 24.04, 89.35 0.82 M56.94 44.2 C68.08 31.85, 79.42 19.16, 94.99 0.42 M56.94 44.2 C68.51 31.36, 80.19 18.23, 94.99 0.42 M61.93 44.56 C73.91 31.91, 81.59 20.78, 99.98 0.78 M61.93 44.56 C73.32 31.32, 84.21 19.22, 99.98 0.78 M66.91 44.92 C80.23 27.83, 94.8 14.62, 105.62 0.39 M66.91 44.92 C78.98 30.3, 90.47 17.04, 105.62 0.39 M72.56 44.52 C85.49 27.22, 100.53 15.09, 110.61 0.75 M72.56 44.52 C85.51 28.53, 100.25 12.93, 110.61 0.75 M77.54 44.88 C90.4 31.17, 103.02 14.64, 116.25 0.35 M77.54 44.88 C85.29 36.6, 94.02 27.06, 116.25 0.35 M83.19 44.49 C93.81 34.11, 99.49 24.26, 121.24 0.71 M83.19 44.49 C94.35 30.09, 108.25 16.93, 121.24 0.71 M88.17 44.85 C100.6 28.84, 115.6 15.8, 126.88 0.32 M88.17 44.85 C97.68 33.61, 108.75 22.39, 126.88 0.32 M93.82 44.45 C102.02 35.23, 109.06 25.71, 131.87 0.68 M93.82 44.45 C105.77 31.21, 117.49 18.45, 131.87 0.68 M98.8 44.81 C112.08 28.32, 126.97 12.13, 136.85 1.04 M98.8 44.81 C109.45 33.15, 118.45 21.72, 136.85 1.04 M104.45 44.42 C119.32 29.52, 132.02 11.7, 142.5 0.65 M104.45 44.42 C119.61 27.64, 133.86 10.88, 142.5 0.65 M109.43 44.78 C120.13 31.73, 134.5 20.22, 147.48 1.01 M109.43 44.78 C118.65 35.88, 126.57 26.45, 147.48 1.01 M115.08 44.38 C127.82 33.72, 135.25 20.73, 153.13 0.61 M115.08 44.38 C125.07 33.11, 133.82 22.34, 153.13 0.61 M120.06 44.74 C130.56 33.33, 140.74 20.42, 158.11 0.97 M120.06 44.74 C127.22 35.66, 136.2 26.89, 158.11 0.97 M125.05 45.1 C138.14 32.87, 150.56 18.14, 163.76 0.58 M125.05 45.1 C134.25 34.39, 144.42 23.17, 163.76 0.58 M130.69 44.71 C141.83 32.87, 153.39 19.02, 168.75 0.94 M130.69 44.71 C142.32 30.36, 154.43 16.58, 168.75 0.94 M135.68 45.07 C142.25 33.82, 153.62 24.22, 174.39 0.54 M135.68 45.07 C146.33 33.13, 158.53 19.87, 174.39 0.54 M141.32 44.68 C152.39 34.93, 160.25 23.56, 179.38 0.9 M141.32 44.68 C155.47 28.93, 167.82 12.7, 179.38 0.9 M146.31 45.04 C154.45 32.55, 164.22 23.8, 185.02 0.51 M146.31 45.04 C155.74 35.15, 163.34 24.29, 185.02 0.51 M151.95 44.64 C163.45 30.84, 175.35 19.45, 190.01 0.87 M151.95 44.64 C165.98 30.18, 176.91 15, 190.01 0.87 M156.94 45 C166.99 36.28, 174.29 25.29, 194.99 1.23 M156.94 45 C166.25 35.31, 173.29 23.96, 194.99 1.23 M162.58 44.61 C175.27 31.8, 184.25 17.15, 200.64 0.83 M162.58 44.61 C174.72 29.87, 188.16 15.19, 200.64 0.83 M167.57 44.97 C176.59 35.29, 182.25 24.5, 205.62 1.19 M167.57 44.97 C182.1 28.31, 196.29 11.51, 205.62 1.19 M173.21 44.57 C188.19 28.67, 200.12 13.98, 211.27 0.8 M173.21 44.57 C182.02 34.08, 192.44 23.51, 211.27 0.8 M178.2 44.93 C189.51 31.02, 201.51 19.13, 216.25 1.16 M178.2 44.93 C192.24 26.56, 207.76 10.52, 216.25 1.16 M183.19 45.29 C192.23 35.1, 202.41 26.98, 221.9 0.76 M183.19 45.29 C194.65 33.33, 205.21 20.72, 221.9 0.76 M188.83 44.9 C203.41 27.34, 218.76 12.27, 225.57 2.63 M188.83 44.9 C202.42 27.18, 217.44 11.79, 225.57 2.63 M193.82 45.26 C205.24 30.73, 219.28 15.02, 228.59 5.26 M193.82 45.26 C203.2 35.79, 211.53 23.99, 228.59 5.26 M199.46 44.86 C210 30, 223.94 15.91, 230.3 9.39 M199.46 44.86 C208.04 33.45, 217.47 22.43, 230.3 9.39 M204.45 45.22 C212.41 35.5, 221.22 23.08, 230.03 15.79 M204.45 45.22 C211.17 36.54, 218.52 30.34, 230.03 15.79 M210.09 44.83 C214.18 37.95, 221.06 33.47, 230.43 21.43 M210.09 44.83 C215.74 40.57, 219.22 34.32, 230.43 21.43 M215.08 45.19 C221.6 40.31, 226.11 34.53, 230.17 27.83 M215.08 45.19 C218.97 41.54, 221.62 37, 230.17 27.83 M220.07 45.55 C223.16 42.94, 225.1 39.95, 229.91 34.23 M220.07 45.55 C223.54 42.51, 226.31 39.45, 229.91 34.23" stroke="#b2f2bb" stroke-width="0.5" fill="none"></path><path d="M11.25 0 C55.58 0.35, 100.18 -1.78, 219.32 0 M11.25 0 C70.72 -0.41, 130.77 0.37, 219.32 0 M219.32 0 C228.69 -0.21, 229.08 3.32, 230.57 11.25 M219.32 0 C226.73 2.12, 231.79 2.76, 230.57 11.25 M230.57 11.25 C231.16 17.91, 229.55 26.82, 230.57 33.75 M230.57 11.25 C229.97 18.23, 230.09 25.84, 230.57 33.75 M230.57 33.75 C231.17 42.64, 225.92 46.02, 219.32 45 M230.57 33.75 C230.3 40.42, 228.64 47.01, 219.32 45 M219.32 45 C165.94 43.33, 112.99 43.04, 11.25 45 M219.32 45 C170.86 42.34, 123.25 42.86, 11.25 45 M11.25 45 C5.24 43.11, 1 41.65, 0 33.75 M11.25 45 C4.34 45.05, 1.67 41.56, 0 33.75 M0 33.75 C-1.95 27.87, -1.94 23.94, 0 11.25 M0 33.75 C-0.22 26.92, 0.75 21.08, 0 11.25 M0 11.25 C0.81 4.78, 4.98 -1.6, 11.25 0 M0 11.25 C0.81 2.2, 3.25 1.4, 11.25 0" stroke="#1e1e1e" stroke-width="1" fill="none"></path></g><g transform="translate(204.06727240015698 608.927827722639) rotate(0 23.001991271972656 17.5)"><text x="23.001991271972656" y="0" font-family="Virgil, Segoe UI Emoji" font-size="28px" fill="#1e1e1e" text-anchor="middle" style="white-space: pre;" direction="ltr" dominant-baseline="text-before-edge">0.3</text></g><g stroke-linecap="round"><g transform="translate(143.67690936393228 753.551063017544) rotate(0 359.5882036155581 0)"><path d="M-0.85 -0.15 C118.83 0.08, 598.75 0.27, 718.66 0.31 M0.91 -1.27 C120.33 -1.33, 597.99 -2.1, 717.44 -1.65" stroke="#1e1e1e" stroke-width="1" fill="none"></path></g><g transform="translate(143.67690936393228 753.551063017544) rotate(0 359.5882036155581 0)"><path d="M22.65 -8.68 C14.13 -6.74, 6.69 -3.83, -0.85 -0.15 M22.65 -8.68 C16.35 -5.94, 7.46 -3.44, -0.85 -0.15" stroke="#1e1e1e" stroke-width="1" fill="none"></path></g><g transform="translate(143.67690936393228 753.551063017544) rotate(0 359.5882036155581 0)"><path d="M22.64 8.42 C14.27 4.4, 6.83 1.33, -0.85 -0.15 M22.64 8.42 C16.39 5.91, 7.5 3.17, -0.85 -0.15" stroke="#1e1e1e" stroke-width="1" fill="none"></path></g><g transform="translate(143.67690936393228 753.551063017544) rotate(0 359.5882036155581 0)"><path d="M693.94 6.88 C701.97 3.2, 710.93 0.15, 717.44 -1.65 M693.94 6.88 C702.11 3.93, 707.64 1.2, 717.44 -1.65" stroke="#1e1e1e" stroke-width="1" fill="none"></path></g><g transform="translate(143.67690936393228 753.551063017544) rotate(0 359.5882036155581 0)"><path d="M693.95 -10.22 C701.83 -7.93, 710.78 -5.02, 717.44 -1.65 M693.95 -10.22 C702.07 -7.92, 707.59 -5.4, 717.44 -1.65" stroke="#1e1e1e" stroke-width="1" fill="none"></path></g></g><mask></mask><g stroke-opacity="0" fill-opacity="0" stroke-linecap="round" transform="translate(467.6858497257317 285.4210512854561) rotate(0 58.378661581835786 58.37866158183556)"><path d="M45.72 2.54 C53.84 -0.38, 64.03 -1.02, 72.6 1.04 C81.17 3.1, 90.25 8.64, 97.15 14.89 C104.05 21.14, 110.9 29.97, 114.02 38.55 C117.13 47.13, 117.25 57.34, 115.86 66.37 C114.46 75.4, 110.73 85.54, 105.67 92.74 C100.62 99.93, 93.55 105.58, 85.54 109.54 C77.52 113.49, 66.59 116.39, 57.56 116.47 C48.53 116.55, 39.26 114.3, 31.34 109.99 C23.43 105.68, 15.36 98.19, 10.08 90.62 C4.8 83.05, 0.83 73.38, -0.33 64.55 C-1.49 55.72, -0.37 46.06, 3.12 37.63 C6.62 29.21, 12.7 20.18, 20.64 13.99 C28.58 7.79, 44.95 2.45, 50.75 0.45 C56.56 -1.54, 55.29 1.1, 55.49 2.01 M38.94 3.57 C46.86 -0.23, 57.77 -1.41, 66.52 -0.36 C75.27 0.68, 84.1 4.56, 91.46 9.83 C98.82 15.11, 106.29 23.03, 110.69 31.3 C115.1 39.58, 117.95 50.45, 117.9 59.49 C117.84 68.53, 114.89 77.54, 110.39 85.56 C105.89 93.59, 98.61 102.49, 90.9 107.65 C83.19 112.82, 73.08 115.73, 64.14 116.54 C55.19 117.36, 45.86 115.93, 37.21 112.55 C28.56 109.18, 18.22 103.51, 12.23 96.3 C6.24 89.1, 3.12 78.46, 1.29 69.31 C-0.55 60.16, -1.13 49.91, 1.24 41.39 C3.61 32.87, 9.2 24.76, 15.51 18.17 C21.82 11.59, 35.13 4.32, 39.09 1.9 C43.05 -0.52, 38.73 2.48, 39.26 3.63" stroke="#1e1e1e" stroke-width="1" fill="none"></path></g><g stroke-linecap="round"><g transform="translate(504.5497938908384 306.21274105072644) rotate(0 19.160270366971417 23.47133119953969)"><path d="M0 0 C0.13 11.76, 1.01 25.03, 0 46.94 M0 0 C-0.19 14.05, 0.09 26.95, 0 46.94 M0 46.94 C14.1 46.07, 27.03 46.49, 38.32 46.94 M0 46.94 C12.8 46.59, 25.97 46.55, 38.32 46.94 M38.32 46.94 C38.71 35.76, 37.84 25.6, 38.32 13.41 M38.32 46.94 C38.04 33.96, 38.29 21.09, 38.32 13.41 M38.32 13.41 C34.47 13.3, 31.24 13.83, 25.99 13.41 M38.32 13.41 C35.24 13.42, 31.93 13.36, 25.99 13.41 M25.99 13.41 C26.19 8.58, 25.37 3.4, 25.99 0.48 M25.99 13.41 C25.97 10.45, 25.92 7.91, 25.99 0.48 M25.99 0.48 C31.05 5.82, 34.46 10.4, 38.32 13.41 M25.99 0.48 C28.48 3.35, 32.15 6.49, 38.32 13.41 M38.32 13.41 C33.88 7.81, 30.06 4.76, 25.55 0 M38.32 13.41 C33.63 7.95, 27.83 3.2, 25.55 0 M25.55 0 C15.75 -0.87, 6.75 0.98, 0 0 M25.55 0 C16.09 0.39, 6.33 0.23, 0 0" stroke="#1e1e1e" stroke-width="1" fill="none"></path></g></g><mask></mask><g transform="translate(509.2345247353014 357.48390506457054) rotate(0 16.829986572265625 12.5)"><text x="16.829986572265625" y="0" font-family="Virgil, Segoe UI Emoji" font-size="20px" fill="#1e1e1e" text-anchor="middle" style="white-space: pre;" direction="ltr" dominant-baseline="text-before-edge">abb</text></g><g stroke-linecap="round"><g transform="translate(526.1608216456289 401.27576932745296) rotate(0 0.014122379540367547 164.23794306844366)"><path d="M1.12 -0.13 C1.03 54.39, -0.68 273.26, -0.87 328.22 M0.25 -1.24 C0.57 53.96, 1.55 274.77, 1.38 329.62" stroke="#1e1e1e" stroke-width="1" fill="none"></path></g><g transform="translate(526.1608216456289 401.27576932745296) rotate(0 0.014122379540367547 164.23794306844366)"><path d="M-7.2 306.14 C-4.87 310.94, -2.76 318.72, 1.38 329.62 M-7.2 306.14 C-3.13 314.85, 0.54 324.95, 1.38 329.62" stroke="#1e1e1e" stroke-width="1" fill="none"></path></g><g transform="translate(526.1608216456289 401.27576932745296) rotate(0 0.014122379540367547 164.23794306844366)"><path d="M9.9 306.11 C7.6 311.08, 5.06 318.87, 1.38 329.62 M9.9 306.11 C7.26 314.76, 4.23 324.87, 1.38 329.62" stroke="#1e1e1e" stroke-width="1" fill="none"></path></g></g><mask></mask><g stroke-linecap="round"><g transform="translate(10.600380407646298 644.1507194060455) rotate(0 16.08122554151214 -14.319869517662028)" fill-rule="evenodd"><path d="M-0.29 -0.88 C0.82 -3.9, 3.09 -11.94, 5.53 -16.84 C7.98 -21.74, 11.04 -29.57, 14.37 -30.27 C17.71 -30.98, 22.65 -25.87, 25.54 -21.06 C28.42 -16.25, 36.07 -4.64, 31.66 -1.41 C27.26 1.83, 4.77 -1.49, -0.9 -1.65" stroke="none" stroke-width="0" fill="#b2f2bb" fill-rule="evenodd"></path><path d="M1.07 0.43 C1.41 -2.72, 0.42 -14.76, 2.76 -19.52 C5.09 -24.28, 10.99 -27.87, 15.1 -28.13 C19.2 -28.4, 24.67 -25.32, 27.39 -21.1 C30.11 -16.88, 36.09 -6.18, 31.42 -2.83 C26.76 0.53, 4.58 -1.57, -0.6 -0.96 M0.17 -0.4 C0.83 -3.33, 2.7 -13.3, 5.03 -18.27 C7.36 -23.24, 10.37 -29.92, 14.15 -30.21 C17.93 -30.5, 24.51 -24.58, 27.69 -20.02 C30.87 -15.47, 37.76 -6.42, 33.22 -2.89 C28.69 0.64, 5.84 0.68, 0.5 1.15" stroke="#1e1e1e" stroke-width="1" fill="none"></path></g></g><mask></mask><g stroke-linecap="round" transform="translate(17.618886411472886 602.8688227143634) rotate(0 8.233587477254332 7.2043890425975405)"><path d="M9.26 -0.37 C10.98 -0.24, 12.74 1.4, 13.94 2.6 C15.15 3.81, 16.31 5.37, 16.47 6.86 C16.63 8.36, 15.92 10.42, 14.91 11.56 C13.9 12.7, 12.03 13.26, 10.41 13.7 C8.79 14.14, 6.72 14.82, 5.19 14.2 C3.67 13.57, 2.05 11.36, 1.26 9.94 C0.47 8.53, 0.1 7.22, 0.45 5.71 C0.8 4.21, 1.83 1.78, 3.36 0.9 C4.89 0.01, 8.56 0.51, 9.63 0.4 C10.7 0.3, 9.9 0.3, 9.78 0.28 M9.22 0.51 C10.83 0.47, 12.88 1.38, 14.09 2.38 C15.29 3.38, 16.28 4.95, 16.46 6.52 C16.64 8.08, 16.16 10.43, 15.18 11.78 C14.2 13.13, 12.28 14.33, 10.56 14.62 C8.84 14.91, 6.42 14.15, 4.87 13.5 C3.32 12.86, 2.03 12.11, 1.29 10.75 C0.55 9.39, -0.01 7, 0.44 5.36 C0.88 3.73, 2.51 1.75, 3.93 0.94 C5.35 0.13, 8.24 0.58, 8.96 0.51 C9.68 0.43, 8.3 0.57, 8.23 0.5" stroke="none" stroke-width="0" fill="#b2f2bb"></path><path d="M7.63 -0.29 C9.19 -0.54, 11.34 0.14, 12.7 1.12 C14.07 2.1, 15.27 4.1, 15.82 5.6 C16.37 7.1, 16.65 8.77, 15.99 10.13 C15.33 11.48, 13.55 12.99, 11.85 13.72 C10.15 14.46, 7.46 14.98, 5.8 14.53 C4.13 14.08, 2.87 12.43, 1.85 11.03 C0.84 9.62, -0.4 7.62, -0.29 6.11 C-0.18 4.59, 1.13 2.97, 2.5 1.93 C3.88 0.88, 7.09 0.2, 7.96 -0.18 C8.83 -0.55, 7.81 -0.48, 7.71 -0.33 M6.84 -0.5 C8.4 -0.87, 10.73 0.09, 12.25 0.89 C13.77 1.7, 15.22 2.92, 15.96 4.32 C16.7 5.73, 17.32 7.8, 16.68 9.32 C16.04 10.84, 13.69 12.71, 12.13 13.44 C10.57 14.16, 9.03 13.99, 7.32 13.66 C5.61 13.34, 3.09 12.51, 1.84 11.49 C0.6 10.47, -0.08 9.08, -0.13 7.55 C-0.19 6.01, 0.48 3.56, 1.51 2.28 C2.55 1, 5.2 0.18, 6.09 -0.14 C6.98 -0.46, 6.75 0.15, 6.86 0.39" stroke="#1e1e1e" stroke-width="1" fill="none"></path></g><g stroke-linecap="round"><g transform="translate(15.187773061606094 725.2031346602271) rotate(0 16.08122554151214 -14.319869517662028)" fill-rule="evenodd"><path d="M-1.06 -1.63 C-1.08 -5.16, -0.8 -14.58, 1.86 -18.99 C4.53 -23.4, 10.85 -27.46, 14.94 -28.08 C19.02 -28.69, 23.89 -26.65, 26.37 -22.7 C28.85 -18.75, 34.24 -7.76, 29.81 -4.37 C25.38 -0.98, 4.44 -2.92, -0.22 -2.35" stroke="none" stroke-width="0" fill="#ffc9c9" fill-rule="evenodd"></path><path d="M-0.34 0.51 C0.42 -2.58, 1.21 -14.03, 3.72 -19.03 C6.22 -24.03, 10.87 -29, 14.7 -29.5 C18.52 -30, 23.7 -26.74, 26.67 -22.01 C29.64 -17.28, 37.06 -4.91, 32.52 -1.14 C27.99 2.63, 4.9 0.5, -0.54 0.61 M1.68 -0.28 C2.36 -3.11, 0.24 -12.79, 2.83 -17.52 C5.41 -22.24, 13.24 -27.98, 17.2 -28.63 C21.17 -29.28, 24.27 -26.13, 26.61 -21.41 C28.94 -16.69, 35.58 -3.86, 31.24 -0.31 C26.9 3.24, 5.72 -0.43, 0.58 -0.11" stroke="#1e1e1e" stroke-width="1" fill="none"></path></g></g><mask></mask><g stroke-linecap="round" transform="translate(22.206279065432682 681.6275416415647) rotate(0 8.233587477254332 7.2043890425975405)"><path d="M6.63 0.42 C8.26 0, 10.54 0.48, 12.09 1.09 C13.65 1.7, 15.22 2.62, 15.95 4.1 C16.68 5.58, 16.97 8.47, 16.49 9.96 C16 11.45, 14.58 12.25, 13.03 13.05 C11.48 13.84, 9.04 14.96, 7.19 14.71 C5.33 14.47, 3.02 12.74, 1.91 11.58 C0.79 10.42, 0.42 9.22, 0.48 7.75 C0.54 6.29, 1.2 4.15, 2.25 2.8 C3.31 1.44, 5.95 0, 6.83 -0.36 C7.7 -0.71, 7.38 0.41, 7.49 0.66 M9.67 0.32 C11.3 0.51, 13.42 1.99, 14.53 3.21 C15.65 4.44, 16.38 6.32, 16.36 7.69 C16.34 9.06, 15.45 10.31, 14.4 11.45 C13.36 12.6, 11.76 14.25, 10.09 14.54 C8.43 14.84, 5.88 14.11, 4.4 13.22 C2.91 12.33, 1.79 10.51, 1.19 9.19 C0.59 7.86, 0.39 6.59, 0.81 5.28 C1.22 3.97, 2.21 2.31, 3.67 1.33 C5.13 0.36, 8.69 -0.42, 9.57 -0.55 C10.44 -0.68, 8.87 0.35, 8.93 0.57" stroke="none" stroke-width="0" fill="#ffc9c9"></path><path d="M6.57 0.24 C8.33 -0.08, 11.22 0.05, 12.84 0.81 C14.46 1.58, 15.8 3.26, 16.28 4.82 C16.76 6.38, 16.34 8.79, 15.73 10.2 C15.12 11.61, 14.21 12.68, 12.64 13.3 C11.07 13.92, 8.11 14.2, 6.31 13.92 C4.5 13.64, 2.85 12.79, 1.82 11.62 C0.79 10.45, 0.14 8.48, 0.12 6.87 C0.1 5.27, 0.58 3.13, 1.7 1.98 C2.81 0.84, 5.89 0.24, 6.8 0 C7.71 -0.24, 7.08 0.36, 7.15 0.55 M6.5 0.22 C8.14 -0.22, 11.02 0.13, 12.45 0.86 C13.88 1.58, 14.49 3.29, 15.1 4.57 C15.71 5.85, 16.57 7.22, 16.11 8.54 C15.65 9.87, 13.83 11.56, 12.34 12.51 C10.85 13.46, 8.85 14.4, 7.15 14.23 C5.46 14.07, 3.4 12.66, 2.18 11.5 C0.96 10.35, -0.17 8.72, -0.17 7.3 C-0.17 5.88, 1.03 4.08, 2.16 2.96 C3.29 1.84, 5.84 1.12, 6.62 0.59 C7.39 0.05, 6.78 -0.23, 6.81 -0.26" stroke="#1e1e1e" stroke-width="1" fill="none"></path></g><g stroke-linecap="round" transform="translate(662.7538151770332 679.8668789625181) rotate(0 31.57994183009896 22.5)"><path d="M2.99 2.6 C2.99 2.6, 2.99 2.6, 2.99 2.6 M2.99 2.6 C2.99 2.6, 2.99 2.6, 2.99 2.6 M0.76 11.27 C4.11 6.14, 6.34 4.08, 9.95 0.7 M0.76 11.27 C4.49 6.93, 6.83 3.56, 9.95 0.7 M0.5 17.66 C6.01 13.25, 7.31 6.18, 15.59 0.3 M0.5 17.66 C3.45 14.05, 8.36 10.06, 15.59 0.3 M0.24 24.06 C9.3 16.07, 13.52 6.42, 20.58 0.66 M0.24 24.06 C5.81 16.52, 12.34 10.86, 20.58 0.66 M0.64 29.7 C6.87 25.07, 11.93 17.97, 26.22 0.27 M0.64 29.7 C7.39 21.52, 12.33 14.38, 26.22 0.27 M1.03 35.35 C10.27 26.62, 17.18 17.39, 31.21 0.63 M1.03 35.35 C11.42 22.78, 23.2 8.63, 31.21 0.63 M2.74 39.48 C11.33 32.62, 14.8 25.15, 36.85 0.24 M2.74 39.48 C9.79 31.48, 16.86 22.48, 36.85 0.24 M5.1 42.86 C12.83 32.04, 25.69 19.8, 41.84 0.6 M5.1 42.86 C16.03 29.84, 26.94 17.42, 41.84 0.6 M8.78 44.73 C18.78 36.26, 24.29 26.78, 47.48 0.2 M8.78 44.73 C19.12 33.49, 28.68 21.24, 47.48 0.2 M13.11 45.84 C22.77 31.54, 35.71 17.96, 52.47 0.56 M13.11 45.84 C22.08 34.04, 32.62 22.29, 52.47 0.56 M18.75 45.45 C27.58 33.15, 38.81 23.67, 56.8 1.68 M18.75 45.45 C31.23 31.89, 43.98 17.28, 56.8 1.68 M23.74 45.81 C34.95 33.8, 44.22 22.95, 60.48 3.55 M23.74 45.81 C35.72 33.64, 46.7 20.9, 60.48 3.55 M29.38 45.41 C40.01 34.24, 48.43 23.14, 62.18 7.68 M29.38 45.41 C36.58 38.63, 42.64 30.18, 62.18 7.68 M34.37 45.77 C45.02 34.85, 54.69 21.81, 63.89 11.81 M34.37 45.77 C41.8 37.8, 49.35 28.2, 63.89 11.81 M40.01 45.38 C45.72 37.16, 51.5 30.04, 63.63 18.21 M40.01 45.38 C47.65 35.67, 55.88 27.14, 63.63 18.21 M45 45.74 C50.35 40.09, 54.35 34.96, 64.02 23.85 M45 45.74 C52.5 38.04, 59.17 28.25, 64.02 23.85 M50.64 45.35 C53.93 39.94, 57.38 37.44, 63.76 30.25 M50.64 45.35 C54.14 41.48, 57.42 38.63, 63.76 30.25 M57.6 43.44 C59.34 42.15, 60.56 40.66, 61.53 38.91 M57.6 43.44 C58.53 42.26, 60.06 40.76, 61.53 38.91" stroke="#ffc9c9" stroke-width="0.5" fill="none"></path><path d="M11.25 0 C22.4 -0.75, 34.81 0.85, 51.91 0 M11.25 0 C26.16 -0.57, 42.09 0.67, 51.91 0 M51.91 0 C58.54 -1.34, 61.74 3.74, 63.16 11.25 M51.91 0 C58.94 0.53, 62.31 2.2, 63.16 11.25 M63.16 11.25 C61.02 17.39, 62.19 21.91, 63.16 33.75 M63.16 11.25 C63.53 15.9, 64 20.64, 63.16 33.75 M63.16 33.75 C61.34 41.89, 59.37 43.12, 51.91 45 M63.16 33.75 C61.81 39.11, 58.95 44.61, 51.91 45 M51.91 45 C39.22 46.35, 28.49 45.71, 11.25 45 M51.91 45 C37.96 44, 23.09 45.28, 11.25 45 M11.25 45 C2.14 44.53, 1.95 41.39, 0 33.75 M11.25 45 C5.03 44.69, 1 41.49, 0 33.75 M0 33.75 C1.76 27.88, 0.48 25.94, 0 11.25 M0 33.75 C0.9 28.66, 0.33 21.4, 0 11.25 M0 11.25 C-1.77 4.14, 5.68 1.54, 11.25 0 M0 11.25 C1.81 5.29, 4.55 1.41, 11.25 0" stroke="#1e1e1e" stroke-width="1" fill="none"></path></g><g transform="translate(677.0717635989286 684.8668789625181) rotate(0 17.261993408203125 17.5)"><text x="17.261993408203125" y="0" font-family="Virgil, Segoe UI Emoji" font-size="28px" fill="#1e1e1e" text-anchor="middle" style="white-space: pre;" direction="ltr" dominant-baseline="text-before-edge">0.1</text></g><g transform="translate(837.2697683316501 774.635072794692) rotate(0 3.7939987182617188 17.5)"><text x="0" y="0" font-family="Virgil, Segoe UI Emoji" font-size="28px" fill="#1e1e1e" text-anchor="start" style="white-space: pre;" direction="ltr" dominant-baseline="text-before-edge">1</text></g><g transform="translate(611.6510129005392 388.3891416793613) rotate(0 94.26195526123047 17.5)"><text x="0" y="0" font-family="Virgil, Segoe UI Emoji" font-size="28px" fill="#1e1e1e" text-anchor="start" style="white-space: pre;" direction="ltr" dominant-baseline="text-before-edge">Min replicas =</text></g><g transform="translate(813.6234064447262 390.29490384997234) rotate(0 3.7939987182617188 17.5)"><text x="0" y="0" font-family="Virgil, Segoe UI Emoji" font-size="28px" fill="#1971c2" text-anchor="start" style="white-space: pre;" direction="ltr" dominant-baseline="text-before-edge">1</text></g><g mask="url(#mask-umpfpjueq_kQILAFUxutq)" stroke-linecap="round"><g transform="translate(358.1902861819717 610.9484376688829) rotate(0 72.25143429988475 0)"><path d="M0 0 C51.12 2.28, 103.59 3.14, 144.5 0 M0 0 C31.28 -0.8, 62.2 -2.14, 144.5 0" stroke="#1e1e1e" stroke-width="1" fill="none"></path></g><g transform="translate(358.1902861819717 610.9484376688829) rotate(0 72.25143429988475 0)"><path d="M23.64 -8.14 C14.74 -4.41, 7.23 -0.64, 0 0 M23.64 -8.14 C19.19 -5.82, 14.37 -5.43, 0 0" stroke="#1e1e1e" stroke-width="1" fill="none"></path></g><g transform="translate(358.1902861819717 610.9484376688829) rotate(0 72.25143429988475 0)"><path d="M23.34 8.96 C14.64 6.59, 7.24 4.26, 0 0 M23.34 8.96 C18.92 7.64, 14.17 4.39, 0 0" stroke="#1e1e1e" stroke-width="1" fill="none"></path></g><g transform="translate(358.1902861819717 610.9484376688829) rotate(0 72.25143429988475 0)"><path d="M120.86 8.13 C128.92 6.47, 138.27 4.43, 144.5 0 M120.86 8.13 C126.43 6.6, 131.66 3.53, 144.5 0" stroke="#1e1e1e" stroke-width="1" fill="none"></path></g><g transform="translate(358.1902861819717 610.9484376688829) rotate(0 72.25143429988475 0)"><path d="M121.17 -8.97 C129.02 -4.53, 138.26 -0.48, 144.5 0 M121.17 -8.97 C126.7 -6.86, 131.87 -6.29, 144.5 0" stroke="#1e1e1e" stroke-width="1" fill="none"></path></g></g><mask id="mask-umpfpjueq_kQILAFUxutq"><rect x="0" y="0" fill="#fff" width="602.6931547817412" height="710.9484376688829"></rect><rect x="421.103723045333" y="593.4484376688829" fill="#000" width="18.675994873046875" height="35" opacity="1"></rect></mask><g transform="translate(421.103723045333 593.4484376688829) rotate(0 9.337997436523438 17.945303440463704)"><text x="9.337997436523438" y="0" font-family="Virgil, Segoe UI Emoji" font-size="28px" fill="#1e1e1e" text-anchor="middle" style="white-space: pre;" direction="ltr" dominant-baseline="text-before-edge">a</text></g><g mask="url(#mask-bhqMjUpGSLMsjYdFY5iqi)" stroke-linecap="round"><g transform="translate(534.8049033594671 665.9971495164136) rotate(0 53.90186368404056 0)"><path d="M0 0 C23.23 -2.12, 50.07 -0.98, 107.8 0 M0 0 C41.87 0.4, 80.74 -0.68, 107.8 0" stroke="#1e1e1e" stroke-width="1" fill="none"></path></g><g transform="translate(534.8049033594671 665.9971495164136) rotate(0 53.90186368404056 0)"><path d="M23.38 -8.86 C16.25 -8.2, 12.82 -5.01, 0 0 M23.38 -8.86 C15.46 -5.43, 4.6 -3.16, 0 0" stroke="#1e1e1e" stroke-width="1" fill="none"></path></g><g transform="translate(534.8049033594671 665.9971495164136) rotate(0 53.90186368404056 0)"><path d="M23.6 8.24 C16.58 4.96, 13.1 4.19, 0 0 M23.6 8.24 C15.7 5.18, 4.75 0.97, 0 0" stroke="#1e1e1e" stroke-width="1" fill="none"></path></g><g transform="translate(534.8049033594671 665.9971495164136) rotate(0 53.90186368404056 0)"><path d="M84.24 8.36 C88.11 4.78, 95.51 3.99, 107.8 0 M84.24 8.36 C94.22 5.38, 101.16 1.12, 107.8 0" stroke="#1e1e1e" stroke-width="1" fill="none"></path></g><g transform="translate(534.8049033594671 665.9971495164136) rotate(0 53.90186368404056 0)"><path d="M84.38 -8.74 C88.06 -8.37, 95.43 -5.21, 107.8 0 M84.38 -8.74 C94.21 -5.24, 101.09 -3.01, 107.8 0" stroke="#1e1e1e" stroke-width="1" fill="none"></path></g></g><mask id="mask-bhqMjUpGSLMsjYdFY5iqi"><rect x="0" y="0" fill="#fff" width="742.6086307275482" height="765.9971495164136"></rect><rect x="581.5947675317893" y="648.4971495164136" fill="#000" width="14.2239990234375" height="35" opacity="1"></rect></mask><g transform="translate(581.5947675317893 648.4971495164136) rotate(0 7.111999511718295 16.947180139593)"><text x="7.11199951171875" y="0" font-family="Virgil, Segoe UI Emoji" font-size="28px" fill="#1e1e1e" text-anchor="middle" style="white-space: pre;" direction="ltr" dominant-baseline="text-before-edge">b</text></g><g transform="translate(510.36763769838126 781.5315364812805) rotate(0 22.427993774414062 17.5)"><text x="0" y="0" font-family="Virgil, Segoe UI Emoji" font-size="28px" fill="#1e1e1e" text-anchor="start" style="white-space: pre;" direction="ltr" dominant-baseline="text-before-edge">0.6</text></g><g transform="translate(636.2365112419993 776.9441438273207) rotate(0 20.99999237060547 35)"><text x="0" y="0" font-family="Virgil, Segoe UI Emoji" font-size="28px" fill="#1e1e1e" text-anchor="start" style="white-space: pre;" direction="ltr" dominant-baseline="text-before-edge">0.7</text><text x="0" y="35" font-family="Virgil, Segoe UI Emoji" font-size="28px" fill="#1e1e1e" text-anchor="start" style="white-space: pre;" direction="ltr" dominant-baseline="text-before-edge"></text></g><g transform="translate(328.8812034266157 788.412625462222) rotate(0 22.1199951171875 35)"><text x="0" y="0" font-family="Virgil, Segoe UI Emoji" font-size="28px" fill="#1e1e1e" text-anchor="start" style="white-space: pre;" direction="ltr" dominant-baseline="text-before-edge">0.5</text><text x="0" y="35" font-family="Virgil, Segoe UI Emoji" font-size="28px" fill="#1e1e1e" text-anchor="start" style="white-space: pre;" direction="ltr" dominant-baseline="text-before-edge"></text></g><g stroke-linecap="round"><g transform="translate(341.89780400415657 594.8925633800195) rotate(0 0 72.96892048159884)"><path d="M0.2 0.69 C-0.17 25.26, -1.06 122.28, -1.19 146.55 M-1.16 0.01 C-1.26 24.3, 0.98 120.72, 0.9 144.75" stroke="#1e1e1e" stroke-width="1" fill="none"></path></g><g transform="translate(341.89780400415657 594.8925633800195) rotate(0 0 72.96892048159884)"><path d="M-7.92 121.35 C-3.56 128.31, -0.32 138.24, 0.9 144.75 M-7.92 121.35 C-5.4 129.6, -1.34 136.97, 0.9 144.75" stroke="#1e1e1e" stroke-width="1" fill="none"></path></g><g transform="translate(341.89780400415657 594.8925633800195) rotate(0 0 72.96892048159884)"><path d="M9.18 121.16 C7 128.22, 3.68 138.22, 0.9 144.75 M9.18 121.16 C6.06 129.45, 4.49 136.89, 0.9 144.75" stroke="#1e1e1e" stroke-width="1" fill="none"></path></g></g><mask></mask><g stroke-linecap="round"><g transform="translate(659.0110314818521 707.8318362074606) rotate(0 1.0733052374653198 24.770887292090947)"><path d="M0.35 -0.46 C0.69 7.62, 2.14 40.63, 2.39 49.02 M-0.13 0.49 C0.13 8.85, 1.83 41.36, 2.08 49.45" stroke="#1e1e1e" stroke-width="1" fill="none"></path></g><g transform="translate(659.0110314818521 707.8318362074606) rotate(0 1.0733052374653198 24.770887292090947)"><path d="M-7.39 26.54 C-4.7 35.22, -1.39 42.51, 2.08 49.45 M-7.39 26.54 C-3.66 35.29, -0.32 43.71, 2.08 49.45" stroke="#1e1e1e" stroke-width="1" fill="none"></path></g><g transform="translate(659.0110314818521 707.8318362074606) rotate(0 1.0733052374653198 24.770887292090947)"><path d="M9.56 25.81 C6.13 34.81, 3.33 42.36, 2.08 49.45 M9.56 25.81 C7.08 34.87, 4.21 43.57, 2.08 49.45" stroke="#1e1e1e" stroke-width="1" fill="none"></path></g></g><mask></mask><g transform="translate(32.48540775074434 10) rotate(0 332.5838623046875 17.5)"><text x="0" y="0" font-family="Virgil, Segoe UI Emoji" font-size="28px" fill="#1e1e1e" text-anchor="start" style="white-space: pre;" direction="ltr" dominant-baseline="text-before-edge">distance' = abs(target - closest edge) / width </text></g><g transform="translate(28.15173473948198 86.54154940619901) rotate(0 190.511962890625 17.5)"><text x="0" y="0" font-family="Virgil, Segoe UI Emoji" font-size="28px" fill="#1e1e1e" text-anchor="start" style="white-space: pre;" direction="ltr" dominant-baseline="text-before-edge">a' = (0.6 - 0.5)/0.3 = 1/3 </text></g><g transform="translate(33.780542695953955 150.76504656165253) rotate(0 164.8919677734375 17.5)"><text x="0" y="0" font-family="Virgil, Segoe UI Emoji" font-size="28px" fill="#1e1e1e" text-anchor="start" style="white-space: pre;" direction="ltr" dominant-baseline="text-before-edge">b' = (0.7 - 0.6)/0.1 = 1 </text></g><g transform="translate(27.89801509678273 218.72636575522256) rotate(0 207.78790283203125 17.5)"><text x="0" y="0" font-family="Virgil, Segoe UI Emoji" font-size="28px" fill="#1e1e1e" text-anchor="start" style="white-space: pre;" direction="ltr" dominant-baseline="text-before-edge">=&gt; a' &lt; b' =&gt; a is "shortest" </text></g></svg>