<svg version="1.1" xmlns="http://www.w3.org/2000/svg" viewBox="0 0 870.0802167774086 551.5360716360433" width="870.0802167774086" height="551.5360716360433">
  <!-- svg-source:excalidraw -->
  
  <defs>
    <style class="style-fonts">
      @font-face {
        font-family: "Virgil";
        src: url("https://excalidraw.com/Virgil.woff2");
      }
      @font-face {
        font-family: "Cascadia";
        src: url("https://excalidraw.com/Cascadia.woff2");
      }
      @font-face {
        font-family: "Assistant";
        src: url("https://excalidraw.com/Assistant-Regular.woff2");
      }
    </style>
    
  </defs>
  <rect x="0" y="0" width="870.0802167774086" height="551.5360716360433" fill="#ffffff"></rect><g stroke-linecap="round" transform="translate(254.54280669172294 264.5661557512292) rotate(0 55.6637532633938 20.952028410273897)"><path d="M2.79 2.42 C2.79 2.42, 2.79 2.42, 2.79 2.42 M2.79 2.42 C2.79 2.42, 2.79 2.42, 2.79 2.42 M0.56 11.09 C2.74 8.27, 7.45 4.04, 10.4 -0.23 M0.56 11.09 C4.23 6.64, 8.44 3, 10.4 -0.23 M0.95 16.73 C5.56 10.55, 9.17 8.4, 13.42 2.39 M0.95 16.73 C4.94 12.5, 8.86 8.3, 13.42 2.39 M0.69 23.13 C5.97 16.99, 12.98 5.72, 18.41 2.75 M0.69 23.13 C6.73 15.9, 11.4 9.91, 18.41 2.75 M1.09 28.77 C8.99 18.64, 17.73 10.77, 24.05 2.36 M1.09 28.77 C10.59 18.19, 18.36 9.57, 24.05 2.36 M1.48 34.41 C8.89 26.78, 16.2 14.6, 29.04 2.72 M1.48 34.41 C8.96 26.62, 14.92 17.34, 29.04 2.72 M3.19 38.55 C11.61 29.57, 23.09 15.01, 34.68 2.32 M3.19 38.55 C15.51 24.69, 27.14 10.85, 34.68 2.32 M6.21 41.17 C20.65 27.1, 33.3 12.83, 39.67 2.68 M6.21 41.17 C16.68 29.3, 28.47 15.82, 39.67 2.68 M11.19 41.53 C19.64 29.51, 31.6 19.19, 44.65 3.04 M11.19 41.53 C18.28 32.38, 26.64 22.61, 44.65 3.04 M16.84 41.14 C27.6 30.95, 37.9 20.03, 50.3 2.65 M16.84 41.14 C27.09 29.68, 36.09 17.18, 50.3 2.65 M21.82 41.5 C33.84 27.61, 43.39 17.19, 55.28 3.01 M21.82 41.5 C35.12 26.72, 47.23 13.56, 55.28 3.01 M26.81 41.86 C40.77 27.14, 52.1 12.42, 60.93 2.61 M26.81 41.86 C36.37 31.1, 46.22 19.63, 60.93 2.61 M32.45 41.46 C40.08 31.7, 47.91 26.11, 65.91 2.97 M32.45 41.46 C41.81 29.67, 52.52 19.98, 65.91 2.97 M37.44 41.82 C49.5 28.14, 63.89 8.88, 71.56 2.58 M37.44 41.82 C43.93 34.72, 52.03 24.89, 71.56 2.58 M43.08 41.43 C51.53 31.32, 59.8 24.96, 76.54 2.94 M43.08 41.43 C52.14 29.94, 62.79 18.5, 76.54 2.94 M48.07 41.79 C57.36 30.01, 70.64 16.42, 81.53 3.3 M48.07 41.79 C57.53 30.51, 67.95 18.92, 81.53 3.3 M53.71 41.39 C67.89 26.01, 79.22 13.27, 87.17 2.9 M53.71 41.39 C65.89 26.79, 78.82 11.37, 87.17 2.9 M58.7 41.75 C70.38 29.78, 81.5 15.85, 92.16 3.26 M58.7 41.75 C67.21 32.82, 74.94 22.62, 92.16 3.26 M63.69 42.11 C71.65 34.13, 76.91 27.53, 97.8 2.87 M63.69 42.11 C72.73 32.07, 81.41 20.49, 97.8 2.87 M69.33 41.72 C77.55 32.89, 86.46 21.4, 102.79 3.23 M69.33 41.72 C77.58 33.89, 83.2 25.57, 102.79 3.23 M74.32 42.08 C85.11 26.92, 101 14.08, 108.43 2.83 M74.32 42.08 C86.85 27.96, 99.45 13.15, 108.43 2.83 M79.96 41.68 C85.82 32.02, 96.57 24.69, 110.8 6.21 M79.96 41.68 C86.48 33.65, 95.27 24.92, 110.8 6.21 M84.95 42.04 C93.69 30.46, 104.99 22.27, 111.19 11.86 M84.95 42.04 C91.96 33.79, 101.14 24.47, 111.19 11.86 M90.59 41.65 C93.52 36.98, 99.04 31.53, 110.93 18.25 M90.59 41.65 C96.46 36.31, 100.44 30.52, 110.93 18.25 M95.58 42.01 C99.29 35.05, 104.63 31.52, 110.67 24.65 M95.58 42.01 C99.99 36.73, 104.88 31.48, 110.67 24.65 M101.22 41.62 C105 38.24, 107.09 35.49, 111.06 30.29 M101.22 41.62 C104.24 39.1, 105.27 35.99, 111.06 30.29 M108.18 39.71 C108.95 38.85, 109.02 38.57, 110.8 36.69 M108.18 39.71 C109.02 38.33, 110.17 37.3, 110.8 36.69 M6.26 41.57 C6.26 41.57, 6.26 41.57, 6.26 41.57 M6.26 41.57 C6.26 41.57, 6.26 41.57, 6.26 41.57 M11.91 41.18 C6.17 37.99, 4.16 34.01, 0.59 31.34 M11.91 41.18 C9.45 38.3, 6.08 36.62, 0.59 31.34 M18.3 41.44 C14.53 38.84, 9.28 35.86, 0.95 26.35 M18.3 41.44 C14.67 37.04, 10.47 33.11, 0.95 26.35 M24.7 41.7 C17.68 36.85, 13.38 33.07, 0.55 20.71 M24.7 41.7 C17.38 35.51, 8.7 29.16, 0.55 20.71 M30.34 41.3 C20.62 30.68, 10.16 23.38, 0.16 15.06 M30.34 41.3 C19.59 32.97, 9.46 23.73, 0.16 15.06 M36.74 41.57 C25.85 30.5, 13.5 21.25, 0.52 10.08 M36.74 41.57 C29.32 35.5, 21.17 27.18, 0.52 10.08 M43.14 41.83 C27.96 30.09, 9.73 14.48, 1.63 5.74 M43.14 41.83 C27.94 29.11, 13.02 15.34, 1.63 5.74 M48.78 41.43 C32.57 27.85, 17.98 14.05, 3.5 2.07 M48.78 41.43 C30.78 25.89, 14.6 11.74, 3.5 2.07 M55.18 41.69 C44.86 31.65, 29.64 21.48, 7.63 0.36 M55.18 41.69 C45.67 33.9, 34.91 23.97, 7.63 0.36 M61.58 41.96 C49.39 31.44, 40.1 21.08, 12.52 -0.69 M61.58 41.96 C42.33 24.57, 24.16 9.48, 12.52 -0.69 M67.22 41.56 C51.9 28.15, 36.94 13.54, 18.92 -0.43 M67.22 41.56 C53.45 28.57, 38.42 16.11, 18.92 -0.43 M73.62 41.82 C54.57 26.69, 34.19 7.41, 24.56 -0.82 M73.62 41.82 C55.82 27.42, 37.07 9.9, 24.56 -0.82 M80.02 42.08 C60.68 24.52, 39.83 8.45, 30.96 -0.56 M80.02 42.08 C64.02 28.55, 48.41 14.68, 30.96 -0.56 M85.66 41.69 C72.95 30.07, 59.77 19.11, 37.36 -0.3 M85.66 41.69 C66.7 24.35, 46.75 7.88, 37.36 -0.3 M92.06 41.95 C80.62 30.3, 66.62 21.02, 43 -0.69 M92.06 41.95 C75.59 27.72, 57.4 12.08, 43 -0.69 M98.46 42.21 C84.12 29.72, 68.43 15.61, 49.4 -0.43 M98.46 42.21 C81.89 29.63, 66.55 14.81, 49.4 -0.43 M103.34 41.16 C90 28.25, 73.21 15.72, 55.8 -0.17 M103.34 41.16 C91.03 30.03, 78.13 20.42, 55.8 -0.17 M107.48 39.46 C99.09 28.99, 89.28 23.18, 61.44 -0.56 M107.48 39.46 C94.13 27.81, 80.07 15.36, 61.44 -0.56 M110.1 36.44 C98.22 28.01, 89.34 15.92, 67.84 -0.3 M110.1 36.44 C97.7 26.63, 85.71 16.06, 67.84 -0.3 M111.22 32.11 C95.87 21.28, 84.13 5.6, 74.24 -0.04 M111.22 32.11 C100.38 22.16, 88.12 13.78, 74.24 -0.04 M110.82 26.46 C100.76 18.13, 91.52 10.08, 79.88 -0.44 M110.82 26.46 C99.16 17.95, 89.89 7.74, 79.88 -0.44 M111.18 21.48 C103.55 15.54, 93.02 6.63, 86.28 -0.17 M111.18 21.48 C102.59 12.97, 92.36 4.86, 86.28 -0.17 M110.79 15.83 C107.17 10.7, 99.75 7.16, 92.68 0.09 M110.79 15.83 C106.32 11.81, 100.41 7.73, 92.68 0.09 M111.15 10.85 C106.24 7.78, 100.49 1.24, 98.32 -0.31 M111.15 10.85 C106.05 6.36, 101.91 1.75, 98.32 -0.31" stroke="#2f9e44" stroke-width="0.5" fill="none"></path><path d="M10.48 0 C26.95 -0.41, 46.99 1.7, 100.85 0 M10.48 0 C44.52 -0.82, 80.39 0.94, 100.85 0 M100.85 0 C106.71 1.46, 109.85 2.48, 111.33 10.48 M100.85 0 C106.78 -0.07, 110.02 1.44, 111.33 10.48 M111.33 10.48 C112.36 19.63, 112.88 24.93, 111.33 31.43 M111.33 10.48 C110.62 18.99, 111.1 26.37, 111.33 31.43 M111.33 31.43 C110.3 38.1, 106.86 43.12, 100.85 41.9 M111.33 31.43 C112.33 40.29, 107.02 42.82, 100.85 41.9 M100.85 41.9 C76.41 42.45, 46.66 44.36, 10.48 41.9 M100.85 41.9 C70.05 41.89, 38.44 43.48, 10.48 41.9 M10.48 41.9 C2.9 42.78, 0.74 39.25, 0 31.43 M10.48 41.9 C4.08 40.62, -1.74 39.88, 0 31.43 M0 31.43 C1.66 25.01, -0.24 15.63, 0 10.48 M0 31.43 C0.29 24.67, 0.45 17.68, 0 10.48 M0 10.48 C0.1 4.97, 5.11 1.46, 10.48 0 M0 10.48 C-2.17 4.98, 4.58 0.05, 10.48 0" stroke="#1e1e1e" stroke-width="1" fill="none"></path></g><g stroke-linecap="round"><g transform="translate(139.9399793565126 471.24892275114644) rotate(0 359.5882036155583 0)"><path d="M-0.3 -0.11 C119.74 0.25, 600.21 1.05, 720.14 1.05 M1.74 -1.22 C121.72 -1.07, 600.22 -0.91, 719.7 -0.53" stroke="#1e1e1e" stroke-width="1" fill="none"></path></g><g transform="translate(139.9399793565126 471.24892275114644) rotate(0 359.5882036155583 0)"><path d="M23.21 -8.62 C16.13 -4.61, 11.26 -3.55, -0.3 -0.11 M23.21 -8.62 C16.29 -5.57, 9.06 -3.22, -0.3 -0.11" stroke="#1e1e1e" stroke-width="1" fill="none"></path></g><g transform="translate(139.9399793565126 471.24892275114644) rotate(0 359.5882036155583 0)"><path d="M23.17 8.48 C16.27 7.54, 11.4 3.65, -0.3 -0.11 M23.17 8.48 C16.43 6.62, 9.21 4.05, -0.3 -0.11" stroke="#1e1e1e" stroke-width="1" fill="none"></path></g><g transform="translate(139.9399793565126 471.24892275114644) rotate(0 359.5882036155583 0)"><path d="M696.19 7.99 C702.89 7.19, 711.63 3.32, 719.7 -0.53 M696.19 7.99 C702.95 6.59, 709.22 4.05, 719.7 -0.53" stroke="#1e1e1e" stroke-width="1" fill="none"></path></g><g transform="translate(139.9399793565126 471.24892275114644) rotate(0 359.5882036155583 0)"><path d="M696.22 -9.11 C702.75 -4.96, 711.48 -3.88, 719.7 -0.53 M696.22 -9.11 C702.8 -5.6, 709.07 -3.23, 719.7 -0.53" stroke="#1e1e1e" stroke-width="1" fill="none"></path></g></g><mask></mask><g transform="translate(388.4561483158932 506.5360716360433) rotate(0 98.85395812988281 17.5)"><text x="0" y="0" font-family="Virgil, Segoe UI Emoji" font-size="28px" fill="#1e1e1e" text-anchor="start" style="white-space: pre;" direction="ltr" dominant-baseline="text-before-edge">Content space</text></g><g stroke-opacity="0" fill-opacity="0" stroke-linecap="round" transform="translate(356.14519235023045 10) rotate(0 58.37866158183556 58.37866158183556)"><path d="M82.01 5.19 C90.13 8.07, 98.02 15.51, 103.69 22.35 C109.36 29.19, 114.17 37.53, 116.03 46.22 C117.9 54.92, 117.54 65.89, 114.88 74.52 C112.21 83.16, 106.48 91.36, 100.03 98.03 C93.58 104.71, 84.84 111.61, 76.19 114.58 C67.55 117.55, 57.1 117.5, 48.16 115.86 C39.23 114.22, 29.54 110.24, 22.59 104.75 C15.64 99.26, 10.11 90.91, 6.47 82.93 C2.84 74.95, 0.6 65.99, 0.77 56.86 C0.93 47.74, 2.88 36.2, 7.44 28.18 C12.01 20.16, 20.3 13.31, 28.17 8.77 C36.04 4.22, 44.59 0.88, 54.68 0.89 C64.76 0.91, 81.86 6.53, 88.69 8.84 C95.52 11.14, 95.98 13.83, 95.68 14.73 M68.62 -0.35 C77.02 0.58, 86.7 7.14, 93.81 12.87 C100.92 18.61, 107.38 25.94, 111.3 34.06 C115.21 42.18, 117.71 52.5, 117.31 61.6 C116.92 70.7, 113.54 80.75, 108.91 88.68 C104.28 96.62, 97.12 104.64, 89.55 109.22 C81.98 113.81, 72.74 115.54, 63.48 116.2 C54.23 116.86, 42.61 116.92, 34.03 113.17 C25.44 109.41, 17.4 100.95, 11.96 93.64 C6.52 86.34, 2.98 77.92, 1.37 69.36 C-0.23 60.79, -0.03 51.04, 2.32 42.26 C4.66 33.49, 9.18 23.1, 15.45 16.71 C21.72 10.31, 31.27 6.5, 39.94 3.89 C48.6 1.28, 62.87 1.42, 67.46 1.05 C72.05 0.69, 67.57 0.59, 67.48 1.69" stroke="none" stroke-width="0" fill="#1e1e1e"></path><path d="M32.35 5.98 C39.85 1.16, 50.59 -0.8, 59.41 -0.74 C68.23 -0.67, 77.41 2.1, 85.27 6.37 C93.13 10.64, 101.53 17.24, 106.57 24.9 C111.6 32.55, 114.27 43.21, 115.47 52.28 C116.67 61.35, 116.8 70.86, 113.76 79.32 C110.73 87.78, 104.12 97.14, 97.28 103.04 C90.45 108.94, 81.48 112.8, 72.74 114.73 C63.99 116.67, 53.63 116.9, 44.82 114.65 C36.01 112.4, 26.61 107.24, 19.88 101.24 C13.15 95.24, 7.61 87.09, 4.44 78.63 C1.26 70.18, -0.17 59.55, 0.82 50.53 C1.81 41.5, 4.34 32.11, 10.35 24.48 C16.37 16.85, 31.58 8.29, 36.93 4.76 C42.28 1.24, 42.13 2.5, 42.46 3.31 M85.94 5.86 C93.87 9.07, 103.11 18.59, 108.05 26.51 C112.98 34.42, 114.68 44.68, 115.57 53.36 C116.45 62.04, 116.5 70.17, 113.34 78.57 C110.19 86.97, 103.65 97.53, 96.63 103.75 C89.6 109.97, 79.92 113.93, 71.19 115.89 C62.46 117.85, 52.87 118.03, 44.25 115.51 C35.64 112.98, 26.48 106.78, 19.5 100.75 C12.53 94.72, 5.45 87.58, 2.4 79.35 C-0.65 71.12, -0.38 60.27, 1.21 51.37 C2.79 42.47, 6.71 33.46, 11.93 25.94 C17.15 18.42, 24.82 10.55, 32.52 6.25 C40.22 1.95, 48.95 0.25, 58.13 0.14 C67.31 0.03, 82.88 4.36, 87.58 5.61 C92.29 6.85, 86.88 6.74, 86.34 7.64" stroke="#1e1e1e" stroke-width="1" fill="none"></path></g><g stroke-linecap="round"><g transform="translate(393.009136515338 30.791689765269894) rotate(0 19.16027036697119 23.471331199539804)" fill-rule="evenodd"><path d="M-0.72 0.83 L-0.62 46.06 L38.51 46.76 L38.25 13.77 L25.24 12.8 L25.74 1.16 L37.85 13.56 L25.22 -0.19 L-0.18 0.73" stroke="none" stroke-width="0" fill="#1e1e1e" fill-rule="evenodd"></path><path d="M0 0 C-0.96 14.48, 0.8 28.56, 0 46.94 M0 0 C-0.4 17.49, -0.46 34.56, 0 46.94 M0 46.94 C14.37 47.71, 28.59 46.55, 38.32 46.94 M0 46.94 C13.89 47.23, 28.33 47.04, 38.32 46.94 M38.32 46.94 C38.95 39.04, 39.16 29.9, 38.32 13.41 M38.32 46.94 C38.8 36.02, 38.26 23.77, 38.32 13.41 M38.32 13.41 C34.16 13.64, 28.44 13.41, 25.99 13.41 M38.32 13.41 C33.75 13.57, 29.04 13.27, 25.99 13.41 M25.99 13.41 C26.27 11.02, 26.52 7.88, 25.99 0.48 M25.99 13.41 C26.34 9.31, 26.19 5.74, 25.99 0.48 M25.99 0.48 C31.1 5.92, 35.59 9.07, 38.32 13.41 M25.99 0.48 C30.87 5.39, 34.75 10.11, 38.32 13.41 M38.32 13.41 C34.25 10.34, 30.52 5.75, 25.55 0 M38.32 13.41 C35.13 10.61, 32.71 6.89, 25.55 0 M25.55 0 C21.09 0.69, 14.26 -0.05, 0 0 M25.55 0 C18.26 0.25, 10.99 -0.29, 0 0 M0 0 C0 0, 0 0, 0 0 M0 0 C0 0, 0 0, 0 0" stroke="#1e1e1e" stroke-width="1" fill="none"></path></g></g><mask></mask><g transform="translate(396.1038633925159 82.06285377911422) rotate(0 18.41999053955078 25)"><text x="18.41999053955078" y="0" font-family="Virgil, Segoe UI Emoji" font-size="20px" fill="#1e1e1e" text-anchor="middle" style="white-space: pre;" direction="ltr" dominant-baseline="text-before-edge">aab</text><text x="18.41999053955078" y="25" font-family="Virgil, Segoe UI Emoji" font-size="20px" fill="#1e1e1e" text-anchor="middle" style="white-space: pre;" direction="ltr" dominant-baseline="text-before-edge"></text></g><g stroke-linecap="round"><g transform="translate(414.6484090292083 137.32033537533698) rotate(0 0 163.09252705573408)"><path d="M-0.67 0.87 C-0.81 54.97, -0.9 271.36, -0.88 325.58 M1.17 0.29 C1.42 54.45, 1.83 272.27, 1.36 326.79" stroke="#1e1e1e" stroke-width="1" fill="none"></path></g><g transform="translate(414.6484090292083 137.32033537533698) rotate(0 0 163.09252705573408)"><path d="M-7.13 303.28 C-3 308.72, -2.99 316.14, 1.36 326.79 M-7.13 303.28 C-4.1 311.25, -2.26 317.75, 1.36 326.79" stroke="#1e1e1e" stroke-width="1" fill="none"></path></g><g transform="translate(414.6484090292083 137.32033537533698) rotate(0 0 163.09252705573408)"><path d="M9.97 303.32 C9.11 308.65, 4.13 316.06, 1.36 326.79 M9.97 303.32 C7.92 311.13, 4.68 317.61, 1.36 326.79" stroke="#1e1e1e" stroke-width="1" fill="none"></path></g></g><mask></mask><g stroke-linecap="round" transform="translate(722.8404954028788 397.27433640145455) rotate(0 34.37842429057241 21.763739930850534)"><path d="M2.9 2.52 C2.9 2.52, 2.9 2.52, 2.9 2.52 M2.9 2.52 C2.9 2.52, 2.9 2.52, 2.9 2.52 M0.67 11.18 C2.84 8.93, 5.65 6.55, 10.51 -0.14 M0.67 11.18 C4.33 8.04, 6.56 3.54, 10.51 -0.14 M0.41 17.58 C6.67 10.69, 11.93 5.12, 15.49 0.22 M0.41 17.58 C4.58 13.24, 7.45 9.47, 15.49 0.22 M0.14 23.98 C7.29 15.28, 10.88 12.2, 20.48 0.58 M0.14 23.98 C4.3 18.4, 8.88 13.73, 20.48 0.58 M0.54 29.62 C9.49 18.93, 21.73 8.67, 26.12 0.18 M0.54 29.62 C9.26 20.35, 16.91 9.59, 26.12 0.18 M0.93 35.26 C14.16 24.09, 22.68 9.62, 31.11 0.54 M0.93 35.26 C11.18 23.62, 18.73 14.36, 31.11 0.54 M2.64 39.4 C13.38 25.28, 23.75 13.77, 36.75 0.15 M2.64 39.4 C14.04 25.99, 26.11 12.03, 36.75 0.15 M5.66 42.02 C14.26 31.09, 26.83 17.52, 41.74 0.51 M5.66 42.02 C17.63 29.23, 28.52 15.48, 41.74 0.51 M9.99 43.13 C23.18 28.94, 36.98 13.02, 47.39 0.12 M9.99 43.13 C21.68 30.49, 32.99 18.04, 47.39 0.12 M14.98 43.49 C23.51 33.81, 31.64 28.27, 52.37 0.48 M14.98 43.49 C24.43 32.58, 32.81 22.9, 52.37 0.48 M19.96 43.85 C29.36 32.85, 37.65 21.06, 58.02 0.08 M19.96 43.85 C31.03 29.44, 44.27 16.58, 58.02 0.08 M25.61 43.46 C32.54 33.9, 41.71 25.32, 62.35 1.2 M25.61 43.46 C34.85 33.16, 43.24 22.55, 62.35 1.2 M30.59 43.82 C42.78 29.89, 57.94 11.62, 66.02 3.07 M30.59 43.82 C43.09 28, 56.41 13.2, 66.02 3.07 M36.24 43.43 C43.84 34.85, 52.62 23.71, 67.73 7.2 M36.24 43.43 C46.73 31.04, 57 19.01, 67.73 7.2 M41.22 43.79 C49.59 34.57, 58.86 23.15, 69.43 11.33 M41.22 43.79 C51.61 32.17, 59.54 22.36, 69.43 11.33 M46.87 43.39 C54.37 35.94, 60.05 28.51, 69.17 17.73 M46.87 43.39 C54.89 35.38, 60.66 26.58, 69.17 17.73 M51.85 43.75 C57.5 36.39, 66.27 29.34, 69.57 23.37 M51.85 43.75 C56.88 37.86, 64.27 30.62, 69.57 23.37 M57.5 43.36 C60.61 39.6, 63.8 34.94, 69.31 29.77 M57.5 43.36 C60.88 38.43, 65.79 34.56, 69.31 29.77 M63.8 42.21 C64.7 40.43, 67.15 39.55, 67.73 37.68 M63.8 42.21 C65.5 40.69, 66.49 38.57, 67.73 37.68 M2.85 40.92 C2.85 40.92, 2.85 40.92, 2.85 40.92 M2.85 40.92 C2.85 40.92, 2.85 40.92, 2.85 40.92 M11.51 43.15 C8.36 38.41, 1.59 35.86, 0.19 33.31 M11.51 43.15 C6.96 39.06, 2.96 35.4, 0.19 33.31 M17.16 42.76 C12.03 37.75, 3.05 32.84, 0.55 28.32 M17.16 42.76 C9.95 37.69, 3.03 31.66, 0.55 28.32 M23.56 43.02 C19.05 37.4, 13.75 34.56, 0.91 23.34 M23.56 43.02 C17.64 37.9, 12.01 32.63, 0.91 23.34 M29.95 43.28 C21.94 34.28, 12.73 27.38, 0.52 17.69 M29.95 43.28 C20.19 34.26, 9.55 24.66, 0.52 17.69 M35.6 42.89 C22.46 32.07, 14.73 23.21, 0.88 12.71 M35.6 42.89 C27.76 35.97, 21.02 28.79, 0.88 12.71 M41.99 43.15 C34.29 35.71, 21.62 25.69, 1.24 7.72 M41.99 43.15 C31.55 32.69, 20.39 23.34, 1.24 7.72 M47.64 42.75 C29.02 25.83, 12.42 10.91, 2.35 3.39 M47.64 42.75 C37.94 33.19, 27.25 24.31, 2.35 3.39 M54.03 43.01 C37.02 27.46, 23.34 16.41, 6.49 1.68 M54.03 43.01 C41.66 32.22, 31.13 22.96, 6.49 1.68 M59.68 42.62 C41.24 26.46, 25.13 13.86, 10.62 -0.02 M59.68 42.62 C47.65 33.24, 36.74 22.17, 10.62 -0.02 M63.81 40.91 C49.79 26.73, 36.77 16.6, 16.26 -0.42 M63.81 40.91 C48.5 28.31, 31.9 13.97, 16.26 -0.42 M67.19 38.55 C57.22 29.47, 47.6 19.68, 21.91 -0.81 M67.19 38.55 C51.59 24.82, 36.01 11.53, 21.91 -0.81 M68.31 34.22 C57.56 25.66, 49.94 18.59, 28.31 -0.55 M68.31 34.22 C54.45 20.62, 39.23 8.51, 28.31 -0.55 M69.42 29.89 C57 18.89, 41.94 6.25, 33.95 -0.95 M69.42 29.89 C56.99 19.07, 43.07 7.84, 33.95 -0.95 M69.03 24.24 C60.95 14.93, 48.55 5.92, 40.35 -0.69 M69.03 24.24 C60.48 17.74, 53.83 11.39, 40.35 -0.69 M69.39 19.26 C61.09 13.48, 56.06 8.46, 46.74 -0.42 M69.39 19.26 C60 12.05, 51.52 3.47, 46.74 -0.42 M68.99 13.61 C66.22 8.38, 59.77 4.38, 52.39 -0.82 M68.99 13.61 C65.95 9.87, 61.7 7.96, 52.39 -0.82 M67.84 7.32 C65.19 4.81, 63.49 3.29, 60.29 0.75 M67.84 7.32 C66.8 6.36, 64.81 4.78, 60.29 0.75" stroke="#e03131" stroke-width="0.5" fill="none"></path><path d="M10.88 0 C21.03 1.55, 36.58 0.18, 57.87 0 M10.88 0 C26.56 0.39, 42.7 0.12, 57.87 0 M57.87 0 C63.86 1.5, 68.43 4.34, 68.76 10.88 M57.87 0 C63.95 -0.35, 67.63 5.03, 68.76 10.88 M68.76 10.88 C69.73 18.18, 70.92 27.7, 68.76 32.65 M68.76 10.88 C69.53 19.9, 68.16 28.87, 68.76 32.65 M68.76 32.65 C69.62 38.31, 65.25 45.12, 57.87 43.53 M68.76 32.65 C68.07 40.91, 65.98 44.49, 57.87 43.53 M57.87 43.53 C43.85 44.09, 28.29 44.74, 10.88 43.53 M57.87 43.53 C38.98 43.58, 22.35 42.54, 10.88 43.53 M10.88 43.53 C4.61 42.96, 1.3 38.29, 0 32.65 M10.88 43.53 C3.74 45.23, 1.86 41.58, 0 32.65 M0 32.65 C-0.1 29.77, 0.73 22.5, 0 10.88 M0 32.65 C-0.83 24.56, 0.83 16.87, 0 10.88 M0 10.88 C-0.25 2.38, 3.16 1.77, 10.88 0 M0 10.88 C-0.86 5.27, 5.81 -1, 10.88 0" stroke="#1e1e1e" stroke-width="1" fill="none"></path></g><g stroke-linecap="round"><g transform="translate(13.872425609940365 376.7108715648601) rotate(0 16.081225541512367 -14.319869517662028)" fill-rule="evenodd"><path d="M-1.2 1.49 C-0.21 -1.28, 2.04 -12.12, 4.67 -16.98 C7.3 -21.84, 10.84 -27.4, 14.57 -27.67 C18.3 -27.94, 23.74 -23.29, 27.06 -18.62 C30.37 -13.96, 39.01 -2.46, 34.44 0.32 C29.88 3.1, 5.05 -2.05, -0.36 -1.91" stroke="none" stroke-width="0" fill="#2f9e44" fill-rule="evenodd"></path><path d="M0.77 1.09 C1.47 -1.81, 0.95 -13.65, 3.55 -18.47 C6.15 -23.29, 12.48 -27.53, 16.35 -27.82 C20.23 -28.11, 24.23 -24.6, 26.79 -20.2 C29.36 -15.8, 36.35 -4.96, 31.76 -1.44 C27.17 2.08, 4.56 0.59, -0.76 0.9 M-0.29 0.62 C0.32 -2.55, -0.15 -15.27, 2.57 -20.33 C5.3 -25.39, 12.03 -29.4, 16.07 -29.73 C20.11 -30.06, 23.84 -27.14, 26.79 -22.31 C29.73 -17.48, 38.16 -4.54, 33.74 -0.77 C29.32 3, 5.82 0.32, 0.25 0.33" stroke="#1e1e1e" stroke-width="1" fill="none"></path></g></g><mask></mask><g stroke-linecap="round" transform="translate(20.890931613766952 333.1352785461979) rotate(0 8.233587477254332 7.2043890425975405)"><path d="M10.21 0.38 C11.81 0.73, 13.62 2.01, 14.7 3.13 C15.78 4.25, 16.69 5.65, 16.68 7.11 C16.67 8.57, 15.86 10.75, 14.62 11.88 C13.38 13.02, 11.08 13.59, 9.25 13.9 C7.42 14.2, 5.17 14.48, 3.64 13.74 C2.1 12.99, 0.61 10.97, 0.05 9.42 C-0.51 7.87, -0.52 5.89, 0.27 4.44 C1.05 2.98, 3.02 1.3, 4.76 0.68 C6.5 0.06, 9.74 0.82, 10.7 0.72 C11.66 0.61, 10.54 0.02, 10.52 0.04 M10.02 0.13 C11.55 0.52, 13.41 2.06, 14.54 3.34 C15.66 4.61, 16.71 6.43, 16.78 7.79 C16.85 9.15, 16.17 10.52, 14.96 11.51 C13.75 12.51, 11.38 13.39, 9.52 13.76 C7.66 14.13, 5.32 14.43, 3.8 13.72 C2.28 13.02, 0.85 11.03, 0.37 9.51 C-0.1 8, 0.25 6.04, 0.95 4.65 C1.64 3.26, 3 1.82, 4.54 1.18 C6.09 0.54, 9.22 0.99, 10.2 0.81 C11.18 0.64, 10.56 0, 10.42 0.12" stroke="none" stroke-width="0" fill="#2f9e44"></path><path d="M10.15 -0.04 C11.79 0.13, 13.73 1.13, 14.85 2.35 C15.96 3.56, 16.88 5.69, 16.84 7.24 C16.8 8.8, 15.86 10.53, 14.63 11.67 C13.4 12.81, 11.18 13.75, 9.45 14.07 C7.73 14.4, 5.74 14.38, 4.31 13.6 C2.87 12.82, 1.45 10.88, 0.86 9.38 C0.27 7.88, 0.1 5.92, 0.74 4.59 C1.39 3.25, 3.08 2.12, 4.73 1.37 C6.38 0.63, 9.75 0.22, 10.65 0.13 C11.54 0.04, 10.19 0.75, 10.12 0.83 M10.03 0.76 C11.6 1.14, 13.41 1.96, 14.53 3.13 C15.64 4.31, 16.74 6.39, 16.74 7.81 C16.74 9.23, 15.84 10.47, 14.51 11.64 C13.18 12.81, 10.49 14.48, 8.77 14.82 C7.04 15.16, 5.47 14.46, 4.18 13.67 C2.88 12.88, 1.52 11.6, 0.98 10.05 C0.44 8.51, 0.44 5.94, 0.93 4.42 C1.41 2.89, 2.29 1.72, 3.92 0.89 C5.55 0.06, 9.64 -0.41, 10.7 -0.55 C11.77 -0.68, 10.39 -0.04, 10.33 0.1" stroke="#1e1e1e" stroke-width="1" fill="none"></path></g><g stroke-linecap="round"><g transform="translate(11.450843054187317 304.50617096513565) rotate(0 16.081225541512367 -14.319869517662028)" fill-rule="evenodd"><path d="M-0.87 0.97 C-0.48 -2.12, 0.29 -12, 3.39 -16.55 C6.48 -21.1, 13.8 -25.28, 17.72 -26.35 C21.64 -27.42, 24.18 -27.21, 26.92 -22.96 C29.65 -18.71, 38.85 -5.03, 34.14 -0.85 C29.42 3.32, 4.13 2.29, -1.38 2.11" stroke="none" stroke-width="0" fill="#2f9e44" fill-rule="evenodd"></path><path d="M0.92 0.82 C1.45 -2.29, 0.77 -13.31, 3.12 -18.13 C5.47 -22.95, 11.14 -27.77, 15.04 -28.11 C18.93 -28.45, 23.69 -24.58, 26.51 -20.15 C29.33 -15.72, 36.49 -4.87, 31.97 -1.54 C27.45 1.79, 4.81 -0.56, -0.61 -0.18 M-0.06 0.2 C0.27 -3.28, -0.43 -14.74, 1.92 -19.81 C4.27 -24.87, 9.99 -29.77, 14.06 -30.17 C18.13 -30.58, 23.64 -27.11, 26.36 -22.24 C29.08 -17.36, 34.71 -4.41, 30.4 -0.93 C26.08 2.56, 5.58 -1.44, 0.48 -1.32" stroke="#1e1e1e" stroke-width="1" fill="none"></path></g></g><mask></mask><g stroke-linecap="round" transform="translate(18.469349058013904 260.93057794647325) rotate(0 8.233587477254332 7.2043890425975405)"><path d="M9.42 -0.25 C11.13 -0.25, 13.32 1.06, 14.46 2.17 C15.6 3.27, 16.25 4.74, 16.27 6.36 C16.28 7.99, 15.63 10.61, 14.55 11.91 C13.46 13.21, 11.47 13.89, 9.75 14.16 C8.03 14.42, 5.66 14.24, 4.22 13.52 C2.78 12.81, 1.7 11.18, 1.11 9.86 C0.53 8.54, 0.31 7.13, 0.71 5.6 C1.1 4.08, 1.97 1.66, 3.5 0.72 C5.04 -0.21, 8.81 -0.01, 9.92 -0.02 C11.03 -0.04, 10.3 0.49, 10.15 0.62 M8.42 0.25 C10.25 -0.04, 12.74 0.21, 14.09 1.04 C15.45 1.87, 16.32 3.56, 16.55 5.25 C16.77 6.94, 16.33 9.69, 15.44 11.16 C14.54 12.63, 12.77 13.58, 11.17 14.1 C9.57 14.61, 7.5 14.7, 5.85 14.23 C4.2 13.76, 2.2 12.53, 1.27 11.28 C0.33 10.02, -0.06 8.33, 0.27 6.71 C0.6 5.09, 2.04 2.57, 3.26 1.56 C4.47 0.55, 6.83 0.97, 7.56 0.63 C8.29 0.28, 7.52 -0.51, 7.64 -0.52" stroke="none" stroke-width="0" fill="#2f9e44"></path><path d="M7.92 -0.06 C9.57 -0.26, 11.79 0.2, 13.16 1.06 C14.52 1.92, 15.65 3.55, 16.12 5.12 C16.59 6.69, 16.66 9.08, 15.99 10.49 C15.32 11.9, 13.71 12.96, 12.1 13.57 C10.48 14.17, 7.96 14.41, 6.27 14.11 C4.58 13.81, 2.93 13.05, 1.97 11.78 C1.01 10.51, 0.49 8.03, 0.5 6.48 C0.51 4.93, 0.77 3.62, 2.04 2.5 C3.32 1.37, 7.04 0.08, 8.15 -0.28 C9.26 -0.63, 8.83 0.19, 8.73 0.36 M10.14 0.45 C11.87 0.53, 13.9 1.06, 14.86 2.29 C15.82 3.52, 15.91 6.18, 15.9 7.86 C15.88 9.53, 15.73 11.16, 14.75 12.34 C13.78 13.53, 11.81 14.83, 10.06 14.99 C8.31 15.15, 5.94 14.21, 4.25 13.3 C2.57 12.4, 0.43 11.14, -0.06 9.57 C-0.56 8, 0.49 5.35, 1.28 3.86 C2.07 2.38, 3.15 1.39, 4.66 0.67 C6.17 -0.05, 9.48 -0.49, 10.35 -0.46 C11.21 -0.43, 9.87 0.53, 9.86 0.84" stroke="#1e1e1e" stroke-width="1" fill="none"></path></g><g stroke-linecap="round"><g transform="translate(11.450843054186407 442.90099439382993) rotate(0 16.081225541512367 -14.319869517662028)" fill-rule="evenodd"><path d="M2.28 2.29 C2.86 -1.6, 0.72 -15.92, 3.24 -20.89 C5.77 -25.86, 13.64 -27.85, 17.41 -27.52 C21.19 -27.2, 23.26 -22.88, 25.89 -18.94 C28.52 -15.01, 37.5 -7.4, 33.21 -3.92 C28.92 -0.44, 5.8 1.11, 0.15 1.95" stroke="none" stroke-width="0" fill="#ff8787" fill-rule="evenodd"></path><path d="M-0.4 0.53 C0.15 -2.62, 0.23 -13.29, 2.84 -18.08 C5.45 -22.87, 11.27 -27.69, 15.24 -28.21 C19.21 -28.74, 23.94 -25.73, 26.66 -21.23 C29.38 -16.74, 35.93 -4.94, 31.58 -1.24 C27.22 2.46, 5.86 0.69, 0.52 0.98 M1.59 -0.24 C2.57 -3.79, 3.02 -14.72, 5.15 -19.73 C7.28 -24.75, 10.81 -30.25, 14.38 -30.33 C17.95 -30.41, 23.4 -25.2, 26.58 -20.23 C29.76 -15.25, 38.13 -3.91, 33.46 -0.47 C28.79 2.98, 4.13 0.48, -1.45 0.45" stroke="#1e1e1e" stroke-width="1" fill="none"></path></g></g><mask></mask><g stroke-linecap="round" transform="translate(18.469349058012995 399.32540137516753) rotate(0 8.233587477254332 7.2043890425975405)"><path d="M6.84 -0.36 C8.39 -0.58, 10.78 0.59, 12.26 1.46 C13.73 2.33, 15.12 3.48, 15.67 4.86 C16.23 6.24, 16.09 8.32, 15.58 9.73 C15.07 11.15, 14.04 12.52, 12.6 13.35 C11.16 14.19, 8.78 15.09, 6.94 14.74 C5.11 14.38, 2.65 12.54, 1.57 11.23 C0.49 9.93, 0.29 8.31, 0.45 6.91 C0.61 5.5, 1.38 3.93, 2.51 2.78 C3.64 1.64, 6.32 0.48, 7.24 0.01 C8.16 -0.45, 7.92 -0.17, 8.04 -0.02 M9.15 -0.56 C10.72 -0.36, 12.83 1.33, 14.05 2.55 C15.26 3.76, 16.22 5.22, 16.43 6.72 C16.64 8.21, 16.29 10.24, 15.3 11.54 C14.31 12.84, 12.21 14.06, 10.48 14.53 C8.76 15, 6.49 15.12, 4.94 14.38 C3.4 13.64, 2.07 11.47, 1.2 10.07 C0.33 8.67, -0.57 7.55, -0.26 5.99 C0.04 4.42, 1.47 1.67, 3.03 0.65 C4.58 -0.36, 8.09 -0.08, 9.07 -0.11 C10.04 -0.15, 8.99 0.37, 8.86 0.44" stroke="none" stroke-width="0" fill="#ff8787"></path><path d="M7.83 -0.24 C9.52 -0.31, 12.1 0.77, 13.57 1.72 C15.05 2.68, 16.33 4.03, 16.69 5.49 C17.04 6.96, 16.53 9.03, 15.72 10.51 C14.92 11.98, 13.44 13.75, 11.85 14.34 C10.27 14.92, 8.03 14.47, 6.2 13.99 C4.37 13.52, 1.87 12.8, 0.88 11.46 C-0.1 10.12, -0.07 7.52, 0.3 5.96 C0.68 4.4, 1.86 3.08, 3.12 2.09 C4.38 1.1, 6.87 0.38, 7.84 0.03 C8.82 -0.32, 8.87 -0.14, 8.97 0 M8.52 0.52 C10.23 0.71, 13.08 1.43, 14.5 2.58 C15.92 3.72, 16.92 5.89, 17.04 7.36 C17.15 8.83, 16.42 10.23, 15.2 11.38 C13.99 12.54, 11.38 14, 9.74 14.26 C8.09 14.52, 6.78 13.69, 5.34 12.97 C3.9 12.24, 1.84 11.32, 1.08 9.93 C0.33 8.53, 0.37 5.97, 0.81 4.62 C1.24 3.26, 2.18 2.46, 3.66 1.79 C5.15 1.12, 8.91 0.77, 9.7 0.59 C10.48 0.4, 8.42 0.64, 8.37 0.67" stroke="#1e1e1e" stroke-width="1" fill="none"></path></g><g stroke-linecap="round" transform="translate(477.8148753381565 321.87275990576427) rotate(0 55.6637532633938 20.952028410273897)"><path d="M2.79 2.42 C2.79 2.42, 2.79 2.42, 2.79 2.42 M2.79 2.42 C2.79 2.42, 2.79 2.42, 2.79 2.42 M0.56 11.09 C5.35 6.23, 8.88 0.87, 10.4 -0.23 M0.56 11.09 C3.46 8.44, 4.78 5.59, 10.4 -0.23 M0.95 16.73 C4.23 13.16, 5.04 11.51, 13.42 2.39 M0.95 16.73 C5.65 12, 9.66 5.87, 13.42 2.39 M0.69 23.13 C9.27 15.87, 14.89 5.95, 18.41 2.75 M0.69 23.13 C5.37 17.72, 7.67 14.49, 18.41 2.75 M1.09 28.77 C8.08 24.52, 12.3 15.54, 24.05 2.36 M1.09 28.77 C8.08 21.19, 12.57 14.42, 24.05 2.36 M1.48 34.41 C6.77 25.06, 15.72 19.57, 29.04 2.72 M1.48 34.41 C8.74 26.99, 15.64 18.6, 29.04 2.72 M3.19 38.55 C12.84 28.09, 21.4 16.07, 34.68 2.32 M3.19 38.55 C13.39 26.19, 25.32 12.75, 34.68 2.32 M6.21 41.17 C11.79 34.12, 19.53 22.93, 39.67 2.68 M6.21 41.17 C17.29 28.26, 26.41 17.41, 39.67 2.68 M11.19 41.53 C24.16 27.48, 38.22 8.95, 44.65 3.04 M11.19 41.53 C18.86 33.66, 27.73 24.79, 44.65 3.04 M16.84 41.14 C24.75 34.49, 31.76 22.97, 50.3 2.65 M16.84 41.14 C24.54 31.59, 34.23 21.12, 50.3 2.65 M21.82 41.5 C32.56 26.86, 47.31 13.35, 55.28 3.01 M21.82 41.5 C33.09 29.32, 45.88 16.22, 55.28 3.01 M26.81 41.86 C34.91 30.46, 46.64 19.07, 60.93 2.61 M26.81 41.86 C37.8 28.66, 50.89 15.1, 60.93 2.61 M32.45 41.46 C45.37 26.17, 54.8 13.65, 65.91 2.97 M32.45 41.46 C46.04 26.92, 58.89 12.96, 65.91 2.97 M37.44 41.82 C47.7 28.32, 57.72 17.7, 71.56 2.58 M37.44 41.82 C46.16 30.66, 56.29 21.35, 71.56 2.58 M43.08 41.43 C50.55 34.09, 56.2 24.08, 76.54 2.94 M43.08 41.43 C54.25 27.91, 68.06 13.48, 76.54 2.94 M48.07 41.79 C55.3 29.99, 67.25 19.5, 81.53 3.3 M48.07 41.79 C59.24 27.7, 71.6 14.61, 81.53 3.3 M53.71 41.39 C66.25 26.78, 76.64 16.13, 87.17 2.9 M53.71 41.39 C65.03 28.46, 75.76 16.59, 87.17 2.9 M58.7 41.75 C66.39 30.43, 74.27 20.79, 92.16 3.26 M58.7 41.75 C69.59 28.39, 79.54 16.59, 92.16 3.26 M63.69 42.11 C76.94 27.36, 87.78 15.79, 97.8 2.87 M63.69 42.11 C70.89 34.61, 78.64 24.26, 97.8 2.87 M69.33 41.72 C78.3 33.69, 83.49 22.5, 102.79 3.23 M69.33 41.72 C80.45 29.02, 92.45 15.45, 102.79 3.23 M74.32 42.08 C83.01 34.08, 89.21 22.51, 108.43 2.83 M74.32 42.08 C82.53 31.67, 90.09 22.09, 108.43 2.83 M79.96 41.68 C87.81 35.06, 95.77 24.19, 110.8 6.21 M79.96 41.68 C92.21 28.17, 102.85 13.86, 110.8 6.21 M84.95 42.04 C90.8 34.05, 98.8 27.13, 111.19 11.86 M84.95 42.04 C93.72 32.36, 100.84 24.49, 111.19 11.86 M90.59 41.65 C98.49 34.2, 105.14 27.17, 110.93 18.25 M90.59 41.65 C96.31 34.7, 102.05 29.65, 110.93 18.25 M95.58 42.01 C101.67 35.19, 106.68 29.27, 110.67 24.65 M95.58 42.01 C99.49 35.83, 104.45 30.18, 110.67 24.65 M101.22 41.62 C104.55 37.61, 107.68 36.3, 111.06 30.29 M101.22 41.62 C103.28 38.62, 105.51 36.26, 111.06 30.29 M108.18 39.71 C108.65 38.8, 109.11 38.59, 110.8 36.69 M108.18 39.71 C108.99 38.6, 110.17 37.66, 110.8 36.69 M6.26 41.57 C6.26 41.57, 6.26 41.57, 6.26 41.57 M6.26 41.57 C6.26 41.57, 6.26 41.57, 6.26 41.57 M11.91 41.18 C10.27 38.74, 7.51 37.57, 2.85 33.3 M11.91 41.18 C10.37 39.54, 7.6 38.35, 2.85 33.3 M18.3 41.44 C12.64 37.28, 6.7 33.25, 2.46 27.66 M18.3 41.44 C13.79 37.2, 8.13 31.39, 2.46 27.66 M24.7 41.7 C18.5 33.89, 6.91 27.58, 2.82 22.67 M24.7 41.7 C19.31 36.94, 15.72 33.32, 2.82 22.67 M30.34 41.3 C20.7 34.52, 13.98 27.23, 2.42 17.03 M30.34 41.3 C23.5 35.44, 16.22 27.92, 2.42 17.03 M36.74 41.57 C28.8 33.26, 17.21 24.44, 0.52 10.08 M36.74 41.57 C22.72 30.35, 10.43 18.72, 0.52 10.08 M43.14 41.83 C31.64 30.37, 18.31 21.8, 1.63 5.74 M43.14 41.83 C31.9 32.51, 21.77 22.43, 1.63 5.74 M48.78 41.43 C33.72 26.68, 16.88 11.72, 3.5 2.07 M48.78 41.43 C37.02 31.81, 27.36 21.66, 3.5 2.07 M55.18 41.69 C40.75 29.61, 28.34 17.58, 7.63 0.36 M55.18 41.69 C43.27 29.79, 30.57 19.73, 7.63 0.36 M61.58 41.96 C49.06 31.35, 35.45 21.59, 11.77 -1.34 M61.58 41.96 C48.05 30.45, 35.97 20.67, 11.77 -1.34 M67.22 41.56 C56.98 34.57, 46.56 22.16, 18.17 -1.08 M67.22 41.56 C52.32 27.69, 35.93 12.9, 18.17 -1.08 M73.62 41.82 C62.16 33.62, 52.72 24.27, 23.81 -1.48 M73.62 41.82 C63.96 32.12, 53.29 24.47, 23.81 -1.48 M80.02 42.08 C62.9 26.56, 42.77 9.18, 30.21 -1.22 M80.02 42.08 C67.98 31.78, 56.06 20.05, 30.21 -1.22 M85.66 41.69 C74.14 29.33, 58.56 20.1, 36.6 -0.95 M85.66 41.69 C72.08 29.89, 57.11 17.86, 36.6 -0.95 M92.06 41.95 C83.11 34.74, 73.01 23.85, 42.25 -1.35 M92.06 41.95 C82.24 33.05, 70.06 23.96, 42.25 -1.35 M98.46 42.21 C80.14 26.84, 58.07 8.78, 48.65 -1.09 M98.46 42.21 C83.68 29.65, 67.3 15.24, 48.65 -1.09 M102.59 40.51 C92.22 30.03, 82.94 22.01, 55.04 -0.83 M102.59 40.51 C87.7 26.97, 71.37 13.94, 55.04 -0.83 M106.72 38.8 C97.04 31.26, 87.37 19.74, 60.69 -1.22 M106.72 38.8 C95.64 29.47, 82.49 18.09, 60.69 -1.22 M110.86 37.09 C94.38 24.42, 79.77 10.81, 67.08 -0.96 M110.86 37.09 C100.54 26.18, 88.22 16.25, 67.08 -0.96 M112.73 33.42 C100.35 23.31, 83.51 8.6, 73.48 -0.7 M112.73 33.42 C99.22 21.73, 84.76 9.97, 73.48 -0.7 M113.09 28.43 C103.97 21.51, 96.54 12.92, 79.12 -1.09 M113.09 28.43 C105.57 21.35, 98.48 16.25, 79.12 -1.09 M112.69 22.79 C103.75 16.58, 93.93 7.16, 85.52 -0.83 M112.69 22.79 C102.87 13.14, 91.99 3.54, 85.52 -0.83 M113.05 17.8 C107.02 11.76, 99.25 9.11, 91.92 -0.57 M113.05 17.8 C104.88 11.61, 97.61 4.58, 91.92 -0.57 M112.66 12.16 C107.78 8.29, 100.39 0.95, 97.56 -0.96 M112.66 12.16 C106.06 7, 100.06 2.05, 97.56 -0.96" stroke="#2f9e44" stroke-width="0.5" fill="none"></path><path d="M10.48 0 C34.53 -0.23, 59.03 -1.99, 100.85 0 M10.48 0 C44.96 -0.56, 79.09 -0.77, 100.85 0 M100.85 0 C106.32 1.74, 112.46 2.14, 111.33 10.48 M100.85 0 C107.7 0.82, 110.97 3.42, 111.33 10.48 M111.33 10.48 C110.01 18.59, 110.41 26.95, 111.33 31.43 M111.33 10.48 C111.93 17.18, 111.46 23.5, 111.33 31.43 M111.33 31.43 C110.16 37.48, 107.66 39.95, 100.85 41.9 M111.33 31.43 C109.72 36.61, 106.58 42.93, 100.85 41.9 M100.85 41.9 C70.95 39.85, 44.27 41.94, 10.48 41.9 M100.85 41.9 C65.39 43.09, 28.59 41.95, 10.48 41.9 M10.48 41.9 C2.05 43, 0.8 37.5, 0 31.43 M10.48 41.9 C5.44 39.67, -1.94 40.4, 0 31.43 M0 31.43 C-1.88 22.51, -1.78 15.2, 0 10.48 M0 31.43 C-0.81 25.11, -0.7 20.26, 0 10.48 M0 10.48 C-1.14 5.36, 2.56 0.18, 10.48 0 M0 10.48 C0.18 2.49, 4.73 2.27, 10.48 0" stroke="#1e1e1e" stroke-width="1" fill="none"></path></g><g transform="translate(145.3499034007982 493.87411081691835) rotate(0 9.631996154785156 17.5)"><text x="0" y="0" font-family="Virgil, Segoe UI Emoji" font-size="28px" fill="#1e1e1e" text-anchor="start" style="white-space: pre;" direction="ltr" dominant-baseline="text-before-edge">0</text></g><g transform="translate(832.3536375442291 489.6722531157352) rotate(0 3.7939987182617188 17.5)"><text x="0" y="0" font-family="Virgil, Segoe UI Emoji" font-size="28px" fill="#1e1e1e" text-anchor="start" style="white-space: pre;" direction="ltr" dominant-baseline="text-before-edge">1</text></g></svg>